<?xml version="1.0" encoding="utf-8"?>
<!-- Generator: Adobe Illustrator 25.0.1, SVG Export Plug-In . SVG Version: 6.00 Build 0)  -->
<svg version="1.1" id="레이어_1" xmlns="http://www.w3.org/2000/svg" xmlns:xlink="http://www.w3.org/1999/xlink" x="0px"
	 y="0px" viewBox="0 0 500 500" style="enable-background:new 0 0 500 500;" xml:space="preserve">
<style type="text/css">
	.st0{fill:#FFFFFF;}
	.st1{fill-rule:evenodd;clip-rule:evenodd;fill:#173068;}
	.st2{fill-rule:evenodd;clip-rule:evenodd;fill:#99887D;}
	.st3{fill:#BB7334;}
	.st4{fill-rule:evenodd;clip-rule:evenodd;fill:#BB7334;}
</style>
<rect class="st0" width="500" height="500"/>
<g id="레이어_2-2">
	<g id="Layer_1">
		<path class="st1" d="M328.3,229.8h7.1c5.9,0,12-0.1,17.9,0c3.4-0.2,6.7,1.2,9.1,3.6c3.2,3.4,3.7,8.5,1.3,12.5
			c-1,1.6-2.8,2.8-4.6,3.4c0.3,0.2,0.5,0.3,0.9,0.3c4.9,1.5,7.4,5,7.2,10.2c-0.2,6.2-4.2,10.8-10.7,11.2c-6.4,0.4-12.9,0.4-19.4,0.6
			c-2.8,0.1-5.7,0-8.6,0L328.3,229.8z M342.2,261.9c2.9-0.2,5.8-0.2,8.5-0.5c1.7-0.3,2.6-1.6,2.5-3.4c0-1.5-1.1-2.8-2.7-3
			c-2.8-0.3-5.5-0.3-8.3-0.4V261.9z M342.2,239.2v6.5h5.3c0.3,0,0.5,0,0.9,0c2.2-0.3,3.3-1.4,3.2-3.4c-0.1-2-1.1-3-3.3-3.1
			C346.3,239.2,344.3,239.2,342.2,239.2L342.2,239.2z"/>
		<path class="st1" d="M107.3,254.9c-1.8,2.1-3.6,4-5.2,5.9c-0.3,0.4-0.4,1-0.4,1.5v9.2H87.9v-41.7h13.8v14.7l0.3,0.1l7.5-9.2
			c1.3-1.6,2.6-3.3,4-4.8c0.3-0.4,0.9-0.7,1.4-0.8c5.5-0.1,11,0,16.9,0c-0.5,0.5-0.8,0.9-1.1,1.3c-4.2,4.6-8.6,9.2-12.9,13.9
			c-0.6,0.4-0.7,1.3-0.3,1.8l0,0l0.1,0.1c4.8,7.9,9.6,15.8,14.4,23.8c0.2,0.3,0.3,0.5,0.5,0.9c-0.5,0-0.9,0.1-1.3,0.1h-13.8
			c-0.9,0.1-1.6-0.4-1.9-1.2c-2.2-4.6-4.6-9.3-7-13.9C107.9,256,107.7,255.6,107.3,254.9z"/>
		<path class="st1" d="M235.6,241.6l-12.9,2.2c-0.6-2.1-2.2-3.7-4.1-4.4c-4.1-1.5-8.8,0.7-10.2,4.8l0,0c-0.1,0.3-0.2,0.6-0.3,0.9
			c-0.9,3.4-0.9,6.8-0.2,10.2c1,5.2,5,7.7,10.3,6.7c1.2-0.3,2.5-0.6,3.6-1c2.4-1,2.5-1.3,2-4.1h-8.1v-9.6h20.5v16.9
			c0.1,0.8-0.3,1.5-1,1.9c-6.9,5-14.6,6.6-23,5.9c-12.6-1-17.6-9.9-18.4-18.8c-0.4-3.7,0-7.5,1.2-11.1c2.7-7.4,7.8-11.7,15.6-12.7
			c4.6-0.7,9.4-0.6,14,0.3C230.5,231.1,234.8,235.8,235.6,241.6z"/>
		<path class="st1" d="M169.5,242.2c-4,0.2-8,0.4-12,0.6c-0.3,0-0.9-0.6-0.9-1c-0.7-2.9-3.6-4.7-6.5-4l0,0c-0.3,0.1-0.4,0.1-0.7,0.2
			c-1.1,0.2-2.1,1.1-2.2,2.2c-0.1,1.3,0.9,1.9,1.9,2.2c2.8,0.8,5.8,1.4,8.6,2.2c2.2,0.6,4.5,1.5,6.6,2.5c7.5,3.9,8.3,12.7,4,18.8
			c-2.4,3.3-6,5.3-10,5.9c-5.1,0.9-10.2,0.8-15.2-0.6c-6-1.6-8.8-6.2-9.9-12c-0.1-0.6-0.2-1.2-0.3-1.8c0-0.1,0-0.3,0.1-0.3l12.9-0.9
			c0.3,1,0.4,2,0.7,2.9c1.3,3.4,5.1,5,8.4,3.7l0,0c0.3-0.1,0.6-0.3,0.9-0.4c1.5-0.8,2.2-2.7,1.4-4.3c-0.3-0.8-1-1.3-1.8-1.5
			c-2.2-0.8-4.3-1.5-6.5-2c-4.6-1-8.7-3.3-12-6.5c-2.8-2.7-3.3-7.5-1.3-11.5c1.5-2.9,4-5.2,7.1-6.1c6.2-2.1,13-2,19.1,0.3
			C166.7,232.6,169.7,237.2,169.5,242.2z"/>
		<path class="st1" d="M368.4,271.6c1.7-4.8,3.4-9.4,5.2-13.9c3.3-8.9,6.6-17.8,9.9-26.7c0.2-0.9,0.9-1.4,1.8-1.3
			c4.3,0.1,8.7,0,13.3,0l15.5,41.8h-14.3c-0.6-1.9-1.2-3.8-1.7-5.7c-0.1-0.7-0.7-1.1-1.4-1.1l0,0h-0.1h-11.1c-0.9,0-1.3,0.3-1.5,1
			c-0.4,1.6-0.9,3.2-1.5,4.7c-0.2,0.4-0.6,0.9-0.9,0.9C377.2,271.6,372.9,271.6,368.4,271.6z M394.8,254.8
			c-1.3-4.4-2.5-8.6-3.9-13.3c-1.4,4.6-2.6,8.9-3.8,13.3H394.8z"/>
		<path class="st1" d="M242.8,271.5v-41.6h13.6v30.6H276v11H242.8z"/>
		<path class="st1" d="M430.4,260.4H450v11.1h-33.2v-41.6h13.7V260.4z"/>
		<path class="st1" d="M83.1,260.4v11.1H50v-41.6h13.5v30.5H83.1z"/>
		<path class="st2" d="M317.7,244.7c0.2-0.3-0.1-0.3-0.3-0.3c-0.2,0-0.3-0.1-0.4-0.2c-0.4-0.3-0.9-0.5-1.5-0.7
			c-0.3,0-0.3,0.3-0.6,0.2c-0.3-0.2-0.9,0-1.1-0.3c-0.1-0.1-0.3-0.1-0.4,0c-0.2,0-0.4,0-0.6-0.1c-0.4-0.1-0.9-0.5-1.4,0
			c-0.2,0.2-0.9,0-1.1-0.3c-0.2-0.3-0.3-0.3-0.6-0.2c-0.2,0.2-0.5,0-0.8,0c-0.6,0.1-0.2-0.3-0.3-0.5c-0.2-0.4-0.8,0-0.9-0.4
			c0-0.1-0.1,0-0.2,0.1c-0.2,0.3-0.4,0.3-0.7,0.4c-0.3,0-0.7,0.3-0.9,0.6l0,0c-0.3,0-0.4,0.2-0.6,0.3c-0.2,0.1-0.1,0-0.2,0
			c-0.3,0.2-0.6-0.3-0.7,0.1c-0.1,0.4-0.4,0.5-0.8,0.6c-0.3,0.2-1,0-1.5,0.4h-0.1c-0.3-0.3-0.7-0.3-1-0.5c-0.4-0.2-0.9-0.1-1.3,0.3
			c-0.3,0.4-0.6,0.9-0.9,1.2c-0.3,0.3-0.1,0.6,0.3,0.6c0.1,0,0.2,0,0.2,0.1c0.1,0.1,0,0.4,0.3,0.3s0.2-0.3,0.3-0.5
			c0.1-0.2,0-0.3,0-0.4c0-0.1,0-0.1,0.1-0.2c0,0,0.1,0,0.2,0l0,0c0.1,0.3,0.4,0.5,0.3,0.7c-0.2,0.3-0.3,0.7-0.7,0.7
			c-0.3,0-0.5-0.2-0.6-0.3c0,0.5-0.4,0.6-0.6,0.9c-0.1-0.3-0.2-0.4-0.3-0.7c-0.2-0.2,0.1-0.6-0.3-0.6s-0.1,0.3-0.3,0.5h-0.1
			c-0.3,0.4-0.3,0.4,0.1,0.5c0.1,0,0.1,0,0.1,0.1l0,0l0,0c0,0.3,0.3,0.2,0.3,0.3l-0.2,0.1c-0.2,0-0.2,0.1,0,0.2
			c0.3,0.4,0.3,0.6-0.1,0.6c-0.5,0.1-0.7,0.5-0.3,0.9c0,0.1,0.2,0.2,0.2,0.3c-0.3,0.2-0.3,0.7-0.6,0.9c-0.4,0.5-0.6,1.2-0.4,1.9
			c0.3,0.7,1,1.1,1.8,0.9l0,0l0,0c0.3-0.2,0.8,0,0.9,0.3c0.1,0.1,0.1,0.3,0.1,0.3c0,0.2,0.1,0.3,0.2,0.4c0.3,0.3,0.3,0.7,0.2,1
			c-0.1,0.2-0.1,0.4,0,0.6c0.2,0.5,0.4,1,0.6,1.5c0,0.1,0.1,0.3,0.3,0.3c0.9-0.1,1.5-0.7,1.8-1.5c0-0.2,0.1-0.4,0.3-0.5
			c0.3-0.2,0.4-0.5,0.3-0.9l0,0c-0.2-0.3-0.1-0.8,0.2-1c0.3-0.3,0.6-0.6,0.8-0.9c0-0.2,0.1-0.3,0-0.4c-0.1-0.1-0.3,0-0.4,0
			c-0.2,0-0.3,0.2-0.3-0.1c0.4-0.2,0.8-0.4,1.1-0.6c0.3-0.3,0.7-0.5,0.3-0.9c0.7-0.2,1.4,0.2,1.6,0.9c0.1,0.3,0.2,0.4,0.3,0.7
			c0.1,0.1,0.1,0.4,0.3,0.3c0.2-0.1,0.3-0.3,0.2-0.4c-0.1-0.5,0.3-0.8,0.6-1.1c0.1-0.1,0.3-0.1,0.3,0l0,0c0.3,0.4,0.9,0.6,0.9,1.1
			c0,0.2,0,0.3,0.1,0.4c0.1,0.1,0.3,0.3,0.2,0.3c-0.1,0.1-0.3-0.1-0.3-0.1c-0.1,0-0.2,0-0.2,0.1c0.3,0.3,0.6,0.7,0.9,1
			c0.1,0.1,0.2,0.2,0.3,0.1c0.1-0.1,0.1-0.3,0-0.3c-0.1-0.1-0.3-0.2-0.3-0.3c0.3-0.3-0.1-0.5-0.2-0.7c-0.2-0.2-0.3-0.3-0.3-0.5
			c0.2-0.2,0.3,0,0.3,0c0.1,0,0.4,0.3,0.5,0c0.2-0.2,0.1-0.4,0-0.5l0,0h0.2c-0.2-0.1-0.3-0.2-0.3-0.4c0-0.2,0.3-0.2,0.4-0.2
			c0.8-0.2,1.2-0.9,0.9-1.4c-0.2-0.3-0.2-0.7-0.5-0.9c0.3,0,0.7,0,0.9,0.3c0.1,0.2,0.2,0.3,0.3,0.2c0.1-0.1,0-0.3,0-0.3
			c-0.3-0.3,0-0.5,0.1-0.6c0.5-0.2,0.9-0.8,0.6-1.4c0.3-0.1,0.2,0.1,0.3,0.3c0,0.1,0.1,0.2,0.2,0.1c0.2-0.3-0.1-0.4-0.2-0.6
			c-0.1-0.2-0.2,0.1-0.3,0c0-0.1-0.1-0.2-0.2-0.3c-0.1-0.1-0.3,0-0.3-0.2s0.5-0.6,0.8-0.7c0.3-0.1,0.9,0.3,1.2-0.3
			c0.1-0.2,0.2-0.1,0.3,0c0.1,0.1,0.1,0.3,0,0.3l0,0c-0.4,0.7-0.4,0.7,0,1.5c0.1-0.3,0.6-0.6,0.4-0.9c-0.2-0.7,0.2-0.7,0.6-0.7
			c0.4-0.1,0.8-0.4,0.9-0.9c0.1-0.2,0.2-0.4,0.4-0.2c0.1,0.1,0.2,0.1,0.3,0.2C317.4,245.2,317.6,244.9,317.7,244.7z M301.7,244.7
			c0.2-0.1,0.3-0.1,0.6,0c-0.2,0.1-0.3,0.3-0.4,0.2S301.7,244.7,301.7,244.7L301.7,244.7z M301.8,250.1c-0.3,0.1-0.5,0.1-0.7,0
			c-0.1,0-0.2,0-0.3,0c-0.3,0.2-0.8,0.1-1-0.3c0,0-0.1-0.1-0.1-0.2c0-0.2-0.2-0.2-0.3-0.2H299c-0.2,0-0.3,0-0.4,0.1
			c0-0.3,0.3-0.7,0.5-0.9c0.3-0.3,0.6,0.2,0.9,0.3c0.1-0.3-0.3-0.3-0.1-0.5c0.3,0.3,0.5,0.3,0.7,0.7c0.2,0.3,0.2,0.5,0.4,0
			c0.1-0.1,0.3-0.1,0.3-0.1l0,0c0-0.2,0-0.3,0.1-0.3c0.1-0.2,0-0.7,0.4-0.2c0.1,0.1,0.4,0,0.6,0.2c0.2,0.2,0.2,0.1,0.2,0.3
			c-0.1,0.1-0.2,0.1-0.3,0.1c-0.3-0.1-0.7,0-1,0.1l0,0c-0.2,0.5-0.1,0.6,0.5,0.6c0.1,0,0.4-0.1,0.4,0.2
			C302.1,249.9,302.1,250.1,301.8,250.1L301.8,250.1z M303.2,252.1c-0.1,0.1-0.2,0-0.3-0.1l-0.7-1.3c0.4,0.3,0.6,0.8,0.9,1.1
			C303.3,251.8,303.3,252,303.2,252.1L303.2,252.1L303.2,252.1L303.2,252.1z M304.4,250.9c-0.1,0.1-0.2,0.1-0.2,0
			c-0.1-0.1-0.4-0.3-0.4-0.6c0.3,0.1,0.4,0.3,0.6,0.3C304.5,250.7,304.5,250.8,304.4,250.9L304.4,250.9z"/>
		<path class="st2" d="M289.6,252.6c-0.1,0-0.1-0.1-0.1-0.2l0.2-0.5c-0.2,0-0.3,0.1-0.4,0.3c-0.1,0.2-0.3,0.3-0.3,0.2
			c-0.2,0-0.3-0.2-0.3-0.3c0-0.3,0-0.6,0.1-0.9c0.2-0.4,0.6-0.3,0.9-0.4c0.5-0.3,0.6,0.2,0.8,0.5h0.1c-0.2-0.5,0-1,0.4-1.3
			c0.1-0.1,0.1-0.2,0.1-0.3c0.3-0.5,0.6-1,1.3-1c0.1,0,0.4-0.1,0.3-0.3c-0.2-0.3-0.1-0.4-0.2-0.7c0.3,0,0.5,0,0.8-0.2
			c0.3-0.2,0.3-0.3,0.1-0.5c-0.2-0.3-0.3-0.5-0.4-0.9c0-0.2-0.1-0.3-0.3-0.1c-0.2,0.2-0.3,0.1-0.3-0.2s-0.3-0.4-0.4-0.3
			c-0.3,0-0.3,0.2-0.3,0.3c-0.1,0.6-0.3,1.1-0.6,1.5c0-0.6-0.3-0.8-0.7-0.9c-0.3-0.1-0.4-0.4-0.3-0.7c0-0.1,0.1-0.2,0.2-0.2
			c0.3-0.4,0.6-0.3,0.7-0.7c0.1,0.3,0.1,0.6,0.4,0.3c0.2-0.3-0.3-0.3-0.1-0.4c0.2-0.1,0.3-0.3,0.3-0.6c0-0.3,0.3-0.3,0.4-0.1
			c0.2,0.2,0.6,0.3,0.2,0.7c-0.1,0.1-0.2,0.2-0.1,0.3l0.1,0.1c0.2,0.2,0.3,0.4,0.5,0.3s0.3-0.6,0.6-0.8v-0.1
			c-0.3-0.3-0.3-0.9-0.9-0.9c-0.1,0-0.1-0.1-0.2-0.2c-0.3-0.4-0.6-0.4-0.9,0c-0.1-0.1,0-0.3-0.1-0.3c-0.1,0-0.1,0.1-0.2,0.1
			c-0.1,0.1-0.2,0.3-0.1,0.4c0,0.1,0.1,0.1,0.2,0.2c0.1,0,0,0.2,0,0.3c0,0.1-0.2,0.1-0.3,0c-0.1-0.1-0.2-0.1-0.3-0.1
			c0-0.1,0-0.1,0-0.2c-0.1-0.3-0.2-0.6,0.3-0.7c-0.2-0.2-0.4-0.2-0.4,0c0,0.2-0.4,0.5-0.2,0.9c-0.3,0.5-0.7,0.2-1,0.3
			c-0.2-0.2,0.1-0.3,0.2-0.3c0.3-0.3-0.2-0.3-0.1-0.6c0-0.1,0-0.2-0.1-0.2h-0.1c-0.3,0.1-0.6,0.1-0.9-0.2c-0.2-0.1-0.3-0.2-0.6-0.2
			c-0.4-0.1-0.4,0.3-0.4,0.5s0.2,0.2,0.3,0.2c0.3,0,0.3,0.3,0.3,0.5c-0.6-0.3-1.3-0.3-2-0.1c-0.1,0.1-0.3,0.1-0.3,0
			c-0.6-0.2-1.3-0.3-1.9-0.3c-0.5,0-1.1,0.2-1.5,0.5c-0.3,0.2,0.1,0.3,0,0.5c-0.1,0.2-0.1,0.1-0.2,0.1c-0.1,0-0.3,0-0.3,0.2
			c0,0.2,0.2,0.2,0.3,0.2s0.3,0,0.3,0.1c-0.3,0.2-0.8,0.3-0.5,0.9h-0.1l0.4,0.2l0,0c0,0.2,0.1,0.2,0.3,0.2l0,0c0.1,0,0.3,0,0.3,0.2
			c-0.2,0.1-0.3,0.2-0.4,0.3c0.2,0.1,0.4,0,0.5-0.3c0.3-0.1,0.5-0.5,0.8-0.6c0.6-0.3,1.2-0.2,1.7,0.1c0.2,0.1,0.3,0.2,0.4,0.3
			c0.2,0.3,0.3,0.7,0.4,1c-0.3,0.4,0.2,0.3,0.3,0.5c-0.3,0.6-0.3,1.4,0,2c0.2,0.3,0.4,0.5,0.5,0.9c0,0.5,0.4,0.9,0.9,1
			c0,0.4,0.3,0.6,0.7,0.7c0.5,0.1,1,0.3,1.4,0.8C289.7,253.1,290.3,252.7,289.6,252.6z"/>
		<path class="st2" d="M294.6,254.7c-0.2-0.1-0.3-0.1-0.4-0.2c-0.3-0.1-0.9-0.1-0.9-0.7c0-0.1-0.1-0.2-0.2-0.2
			c-0.6,0-0.9-0.6-1.5-0.6c-0.6,0-1,0.2-1,0.9c0,0.2-0.1,0.3-0.2,0.5c-0.2,0.2-0.2,0.3-0.2,0.5c0,0.6,0.3,1.2,0.9,1.5
			c0.3,0.1,0.3,0.3,0.3,0.6c-0.1,0.4-0.2,0.9-0.2,1.4l-0.1,0.2c-0.1,0.1-0.1,0.2-0.1,0.3v0.4c-0.2,0.2,0,0.4-0.2,0.6
			c-0.3,0.5,0.3,1.1,0.9,1c-0.2-0.1-0.3-0.3-0.2-0.4l0,0l0,0v-0.1c0.2-0.3,0.3-0.7,0.3-1c0.2-0.4,0.7-0.6,0.9-1
			c0.3-0.4,0.5-0.6,0.7-1c0.1-0.2,0.2-0.3,0.4-0.4c0.3-0.1,0.6-0.4,0.6-0.9c0-0.3,0.2-0.5,0.3-0.8
			C295.1,255.1,295.1,254.8,294.6,254.7z"/>
		<path class="st2" d="M297.1,243.1c0.2-0.4-0.1-1,0.6-1.2c-0.3-0.2-0.6,0-0.9-0.3c-0.3-0.4-0.8-0.3-1.2-0.3
			c-0.3,0.1-0.6,0.2-0.9,0.2c-0.7,0-1.3,0.2-1.8,0.6c-0.3,0.2,0,0.3,0,0.4c0,0.2,0,0.3,0.3,0.3c0.6-0.1,0.7,0.3,0.8,0.7
			c0.1,0.3,0.2,0.8,0.1,0.9c-0.3,0.5,0,0.9,0.1,1.3c0.1,0.2,0.3,0.3,0.5,0.3c0.2,0,0.2-0.2,0.3-0.3c0.2-0.5,0.6-0.9,1.1-1
			C296.8,244.4,296.9,243.7,297.1,243.1z"/>
		<path class="st2" d="M314.6,254.6c-0.1,0.1-0.2,0.3-0.1,0.3c0,0.2,0,0.3-0.3,0.3c-0.3,0-0.4-0.1-0.3-0.3c0.1-0.4-0.3-0.3-0.4-0.3
			c-0.3,0.3-0.9,0.3-1.1,0.7c-0.1,0.2-0.3,0.3-0.5,0.3c-0.5,0.3-0.8,0.9-0.5,1.4c0,0,0,0.1,0.1,0.1l0.1,0.1c0.2,0.3,0.6,0,0.9,0l0,0
			c0.5-0.3,1.3-0.3,1.6,0.3l0,0l0,0l0.1,0.1c0.2,0.3,0.6,0.4,0.9,0.3l0,0c0.1,0,0.1-0.1,0.2-0.1c0.3-0.3,0.4-0.7,0.6-1
			c0.1-0.3,0-0.5-0.2-0.7C315.3,255.8,315,255.2,314.6,254.6z"/>
		<path class="st2" d="M290.8,242c0.1,0.1,0.3,0.2,0.3,0.1h0.1c0.1,0.2-0.2,0.3-0.2,0.4c0.3,0,0.7,0.2,0.9,0c0.4-0.4,0.9-0.8,1.5-1
			c-0.7-0.3-1.5-0.3-2.2,0l0.7,0.2c0.1,0,0.1,0,0.2,0l0,0c-0.3,0.3-0.9,0.3-1.1-0.1c-0.1-0.1-0.3-0.2-0.3,0
			C290.5,241.7,290.6,241.9,290.8,242z"/>
		<path class="st2" d="M314.9,254.2l0.2,0.2c0.1,0.1,0.3,0.2,0.4,0.1c-0.3-0.3-0.4-0.5-0.9-0.7s-0.9-0.1-1.4-0.3
			C313.8,253.8,314,254.6,314.9,254.2z"/>
		<path class="st2" d="M311.7,253.3c-0.1-0.2,0.1-0.5-0.3-0.6c-0.3,0.2-0.5,0.4-0.8,0.7c0.1,0.3,0.3,0.4,0.6,0.4
			C311.4,253.9,311.8,253.5,311.7,253.3z"/>
		<path class="st2" d="M304,255.4c-0.4,0.2-0.3,0.5-0.3,0.9c0,0.1,0,0.3,0.2,0.3c0.1,0,0.2,0,0.3,0c0.3-0.4,0.3-0.9,0.3-1.4
			C304.1,255.2,304.1,255.4,304,255.4z"/>
		<path class="st2" d="M288.2,242.7c0.3,0.3,0.7,0.3,1.2,0.1c-0.3-0.2-0.7-0.1-0.9-0.3c-0.3-0.4-0.6-0.1-0.9,0
			C287.8,242.7,288,242.4,288.2,242.7z"/>
		<path class="st2" d="M303.3,243.8c0.2,0.1,0.2-0.1,0.2-0.2c0-0.4,0.3-0.6,0.6-0.8c0.2-0.1,0.4-0.1,0.4-0.3c-0.6,0-1.1,0.4-1.3,1
			C303.2,243.7,303.2,243.8,303.3,243.8z"/>
		<path class="st2" d="M300.3,242.5c0.1-0.1,0.2-0.2,0.3-0.2c0.2,0,0.3-0.1,0.2-0.2s-0.2-0.1-0.3-0.2c-0.3,0.1-0.4,0.2-0.7,0.3
			c-0.1,0-0.1,0.1,0,0.2C299.8,242.6,300.1,242.7,300.3,242.5L300.3,242.5L300.3,242.5C300.2,242.5,300.2,242.5,300.3,242.5z"/>
		<path class="st2" d="M297,245.4c0.3,0,0.4-0.1,0.4-0.3l0,0c0-0.3-0.1-0.3-0.3-0.3c-0.1,0.3-0.6-0.2-0.6,0.3c0,0.2,0.2,0.3,0.3,0.4
			l0,0L297,245.4L297,245.4z"/>
		<path class="st2" d="M313.1,249.4c0.1-0.2,0.1-0.4-0.1-0.6l0,0l0,0c0,0.5-0.4,0.6-0.9,0.9C312.5,249.6,313,249.8,313.1,249.4z"/>
		<path class="st2" d="M291.8,242.9c-0.6,0.1-0.9-0.2-1.4-0.4c0.2,0.4,0.7,0.7,1.2,0.5C291.6,242.9,291.7,242.9,291.8,242.9z"/>
		<path class="st2" d="M318.2,257.7c0,0.3-0.3,0.5,0.1,0.9C318.5,258.3,318.9,258,318.2,257.7z"/>
		<path class="st2" d="M312,254c0.2-0.2,0.3-0.3,0.3-0.5c-0.1,0-0.1-0.1-0.2-0.1c-0.2,0-0.3,0.1-0.3,0.3l0,0l0,0v0.1
			C311.9,253.9,311.9,254,312,254z"/>
		<path class="st2" d="M317.3,259.1c-0.1,0-0.3,0.2-0.2,0.3c0.1,0.1,0.3,0.1,0.3,0l0.1-0.1c0.2-0.3,0.3-0.4,0.5-0.7
			C317.6,258.5,317.5,258.9,317.3,259.1z"/>
		<path class="st2" d="M311.3,242.5c0.3,0,0.5-0.1,0.8-0.2c-0.3-0.3-0.5-0.2-0.8-0.2s-0.2,0-0.2,0.2
			C311.2,242.4,311.3,242.5,311.3,242.5z"/>
		<path class="st2" d="M293,247.8c0,0.3,0.3,0.2,0.3,0.3c0.2,0.1,0.2,0,0.2-0.1s-0.2-0.3-0.3-0.3C293,247.7,293,247.8,293,247.8z"/>
		<path class="st2" d="M300.2,248.8L300.2,248.8c-0.1,0.2-0.1,0.3,0,0.3c0.1,0,0.1-0.1,0.1-0.1C300.3,248.9,300.3,248.8,300.2,248.8
			L300.2,248.8L300.2,248.8z"/>
		<path class="st3" d="M301,270.5c-11.3,0-20.5-9.2-20.4-20.5c0-11.3,9.2-20.5,20.5-20.4c11.3,0,20.4,9.1,20.4,20.5l0,0
			C321.5,261.3,312.4,270.5,301,270.5L301,270.5L301,270.5z M301,231.5c-10.2,0-18.5,8.3-18.5,18.5c0,10.2,8.3,18.5,18.5,18.5
			c10.2,0,18.5-8.3,18.5-18.5C319.6,239.8,311.3,231.5,301,231.5L301,231.5L301,231.5z"/>
		<path class="st3" d="M301,274.1c-13.3,0-24.1-10.8-24.1-24.2s10.8-24.1,24.2-24.1c13.3,0,24.1,10.8,24.1,24.1
			C325.2,263.3,314.4,274.1,301,274.1L301,274.1z M301,235.2c-8.3,0-14.9,6.6-14.9,14.9c0,8.3,6.6,14.9,14.9,14.9
			s14.9-6.6,14.9-14.9S309.3,235.2,301,235.2z"/>
		<path class="st4" d="M284.8,247.7c0,1.8-1.5,3.3-3.3,3.3c-1.8,0-3.3-1.5-3.3-3.3c0-1.8,1.5-3.3,3.3-3.3l0,0
			C283.3,244.4,284.8,245.9,284.8,247.7L284.8,247.7L284.8,247.7z"/>
		<path class="st4" d="M323.8,247.7c0,1.8-1.5,3.3-3.3,3.3c-1.8,0-3.3-1.5-3.3-3.3c0-1.8,1.5-3.3,3.2-3.3
			C322.4,244.4,323.8,245.9,323.8,247.7z"/>
		<path class="st4" d="M304.4,269.5c0,1.8-1.5,3.3-3.3,3.3s-3.3-1.5-3.3-3.3s1.5-3.3,3.3-3.3l0,0
			C302.8,266.3,304.3,267.7,304.4,269.5z"/>
		<path class="st3" d="M286,261.2c-0.5,0-0.9-0.4-0.9-0.9c0-0.4,0.3-0.8,0.6-0.9c3.6-1.4,6.3-4.5,7.3-8.2c0.5-1.8,0.7-3.6,0.6-5.4
			c-0.1-0.4,0.2-0.9,0.6-1c7.1-3,6.1-13.9,6.1-13.9c-0.1-0.5,0.3-1,0.9-1l0,0c0.5-0.1,1,0.3,1,0.9c0.2,2.2,0,4.3-0.4,6.5
			c-0.9,4.4-3,7.5-6.2,9.1c0.1,1.9-0.2,3.7-0.7,5.5c-1.1,4.3-4.2,7.8-8.3,9.5C286.3,261.1,286.1,261.2,286,261.2z"/>
		<path class="st3" d="M316.5,261.2c-0.1,0-0.3,0-0.3-0.1c-4.1-1.6-7.3-5.2-8.5-9.5c-0.5-1.8-0.8-3.6-0.7-5.5
			c-3.2-1.6-5.3-4.7-6.3-9.1c-0.4-2.2-0.5-4.3-0.4-6.5c0.1-0.5,0.5-0.9,1-0.9c0.5,0.1,0.9,0.5,0.9,1l0,0l0,0c0,0.1-1,10.8,6.1,13.9
			c0.3,0.2,0.6,0.6,0.5,1c-0.1,1.9,0.1,3.7,0.6,5.5c1,3.7,3.7,6.7,7.3,8.1c0.5,0.2,0.8,0.8,0.5,1.2l0,0
			C317.2,260.8,316.8,261.1,316.5,261.2L316.5,261.2z"/>
		<path class="st3" d="M300.9,259.5c-0.2,0-0.3,0-0.4-0.1c-3.2-1.7-5.5-4.7-6.2-8.3c-0.4-1.7-0.6-3.5-0.5-5.3c0-0.5,0.5-0.9,1-0.9
			l0,0l0,0c0.5,0,0.9,0.5,0.9,1l0,0l0,0c-0.1,1.6,0.1,3.2,0.5,4.7c0.6,3,2.5,5.5,5.2,7c0.5,0.3,0.7,0.9,0.4,1.3
			C301.6,259.2,301.3,259.5,300.9,259.5L300.9,259.5z"/>
		<path class="st3" d="M301.2,259.5c-0.5,0-0.9-0.4-0.9-0.9c0-0.3,0.2-0.7,0.5-0.9c2.7-1.4,4.6-4,5.2-7c0.4-1.5,0.6-3.1,0.5-4.7
			c0-0.5,0.4-0.9,0.9-0.9l0,0l0,0c0.5,0,0.9,0.3,0.9,0.9c0.1,1.8-0.1,3.6-0.6,5.3c-0.8,3.5-3,6.5-6.2,8.3
			C301.4,259.5,301.4,259.5,301.2,259.5z"/>
	</g>
</g>
</svg>
