<?xml version="1.0" encoding="utf-8"?>
<!-- Generator: Adobe Illustrator 25.0.1, SVG Export Plug-In . SVG Version: 6.00 Build 0)  -->
<svg version="1.1" id="레이어_1" xmlns="http://www.w3.org/2000/svg" xmlns:xlink="http://www.w3.org/1999/xlink" x="0px"
	 y="0px" viewBox="0 0 500 500" style="enable-background:new 0 0 500 500;" xml:space="preserve">
<style type="text/css">
	.st0{fill:#FFFFFF;}
	.st1{fill-rule:evenodd;clip-rule:evenodd;fill:#173068;}
	.st2{fill-rule:evenodd;clip-rule:evenodd;fill:#99887D;}
	.st3{fill:#BB7334;}
	.st4{fill-rule:evenodd;clip-rule:evenodd;fill:#BB7334;}
</style>
<rect class="st0" width="500" height="500"/>
<g id="레이어_2-2">
	<g id="Layer_1">
		<path class="st1" d="M341,226.5h8.2c6.9,0,13.9-0.1,20.8,0c4-0.2,7.8,1.4,10.6,4.2c3.7,3.9,4.3,9.9,1.5,14.5
			c-1.2,1.9-3.2,3.3-5.4,3.9c0.3,0.2,0.6,0.3,1,0.4c5.7,1.8,8.6,5.8,8.4,11.9c-0.2,7.2-4.9,12.5-12.4,13c-7.4,0.5-15,0.5-22.6,0.7
			c-3.3,0.1-6.6,0-10,0L341,226.5z M357.2,263.8c3.4-0.2,6.7-0.2,9.9-0.6c2-0.3,3-1.9,2.9-4c0-1.8-1.3-3.3-3.1-3.5
			c-3.2-0.3-6.4-0.3-9.7-0.5L357.2,263.8z M357.2,237.4v7.6h6.2c0.3,0,0.6,0,1,0c2.6-0.3,3.8-1.6,3.7-3.9c-0.1-2.3-1.3-3.5-3.8-3.6
			C361.9,237.4,359.6,237.5,357.2,237.4L357.2,237.4z"/>
		<path class="st1" d="M84.2,255.7c-2.1,2.4-4.2,4.6-6.1,6.8c-0.3,0.5-0.5,1.2-0.5,1.8v10.7h-16v-48.5h16v17.1l0.3,0.1l8.7-10.7
			c1.5-1.9,3-3.8,4.6-5.6c0.4-0.5,1-0.8,1.6-0.9c6.4-0.1,12.8,0,19.6,0c-0.6,0.6-0.9,1.1-1.3,1.5c-4.9,5.4-10,10.7-15,16.1
			c-0.7,0.5-0.8,1.5-0.3,2.1c0,0,0,0,0,0l0.1,0.1c5.6,9.2,11.1,18.4,16.7,27.7c0.2,0.3,0.3,0.6,0.6,1c-0.6,0-1,0.1-1.5,0.1h-16
			c-1,0.1-1.9-0.5-2.2-1.4c-2.6-5.4-5.4-10.8-8.1-16.2C84.9,257,84.6,256.5,84.2,255.7z"/>
		<path class="st1" d="M233.3,240.3l-15,2.6c-0.7-2.4-2.5-4.3-4.8-5.1c-4.8-1.7-10.2,0.8-11.9,5.6c0,0,0,0,0,0
			c-0.1,0.3-0.2,0.7-0.3,1c-1,3.9-1,7.9-0.2,11.8c1.2,6,5.8,9,12,7.8c1.4-0.3,2.9-0.7,4.2-1.2c2.8-1.2,2.9-1.5,2.3-4.8h-9.4v-11.1
			h23.8v19.7c0.1,0.9-0.4,1.8-1.2,2.2c-8,5.8-17,7.7-26.7,6.9c-14.7-1.2-20.5-11.5-21.4-21.9c-0.5-4.3,0-8.7,1.4-12.9
			c3.1-8.6,9.1-13.6,18.1-14.8c5.4-0.8,10.9-0.7,16.3,0.4C227.3,228,232.4,233.5,233.3,240.3z"/>
		<path class="st1" d="M156.5,241c-4.7,0.2-9.3,0.5-14,0.7c-0.4,0-1-0.7-1.1-1.2c-0.8-3.4-4.2-5.5-7.6-4.7c0,0,0,0,0,0
			c-0.3,0.1-0.5,0.1-0.8,0.2c-1.3,0.2-2.4,1.3-2.5,2.6c-0.1,1.5,1,2.2,2.2,2.5c3.3,0.9,6.7,1.6,10,2.6c2.6,0.7,5.2,1.7,7.7,2.9
			c8.7,4.5,9.6,14.8,4.6,21.8c-2.8,3.8-7,6.2-11.6,6.8c-5.9,1.1-11.9,0.9-17.7-0.7c-7-1.9-10.2-7.2-11.5-13.9
			c-0.1-0.7-0.2-1.4-0.3-2.1c0-0.1,0-0.3,0.1-0.4l15-1c0.3,1.2,0.5,2.3,0.8,3.4c1.5,3.9,5.9,5.8,9.8,4.3c0,0,0,0,0,0
			c0.3-0.1,0.7-0.3,1-0.5c1.8-0.9,2.5-3.1,1.6-5c-0.4-0.9-1.2-1.5-2.1-1.8c-2.5-0.9-5-1.7-7.6-2.3c-5.3-1.2-10.1-3.8-14-7.6
			c-3.2-3.1-3.8-8.7-1.5-13.4c1.7-3.4,4.7-6,8.3-7.1c7.2-2.4,15.1-2.3,22.2,0.3C153.2,229.8,156.7,235.1,156.5,241z"/>
		<path class="st1" d="M387.6,275.1c2-5.6,4-10.9,6-16.1c3.8-10.3,7.7-20.7,11.5-31c0.2-1,1.1-1.6,2.1-1.5c5,0.1,10.1,0,15.4,0
			l18,48.6H424c-0.7-2.2-1.4-4.4-2-6.6c-0.1-0.8-0.8-1.3-1.6-1.3c0,0,0,0,0,0h-0.1h-12.9c-1,0-1.5,0.3-1.7,1.2
			c-0.5,1.9-1,3.7-1.7,5.5c-0.2,0.5-0.7,1-1.1,1C397.8,275.1,392.8,275.1,387.6,275.1z M418.3,255.6c-1.5-5.1-2.9-10-4.5-15.4
			c-1.6,5.4-3,10.3-4.4,15.4H418.3z"/>
		<path class="st1" d="M241.6,275v-48.4h15.8v35.6h22.8V275H241.6z"/>
		<path class="st1" d="M459.7,262.1h22.7V275h-38.6v-48.4h15.9V262.1z"/>
		<path class="st1" d="M56,262.1V275H17.5v-48.4h15.7v35.5H56z"/>
		<path class="st2" d="M328.7,243.8c0.2-0.3-0.1-0.3-0.3-0.4c-0.2,0-0.3-0.1-0.5-0.2c-0.5-0.4-1.1-0.6-1.7-0.8
			c-0.3,0-0.4,0.3-0.7,0.2c-0.4-0.2-1,0-1.3-0.4c-0.1-0.1-0.3-0.1-0.5,0c-0.2,0-0.5,0-0.7-0.1c-0.5-0.1-1-0.6-1.6,0
			c-0.2,0.2-1.1,0-1.3-0.3c-0.2-0.3-0.4-0.4-0.7-0.2c-0.2,0.2-0.6,0-0.9,0c-0.7,0.1-0.2-0.4-0.3-0.6c-0.2-0.5-0.9,0-1.1-0.5
			c0-0.1-0.1,0-0.2,0.1c-0.2,0.4-0.5,0.4-0.8,0.5c-0.4,0-0.8,0.3-1,0.7l0,0c-0.3,0-0.5,0.2-0.7,0.4c-0.2,0.1-0.1,0-0.2,0
			c-0.3,0.2-0.7-0.4-0.8,0.1s-0.5,0.6-0.9,0.7c-0.4,0.2-1.2,0-1.7,0.5c0,0-0.1,0-0.1,0c-0.3-0.4-0.8-0.4-1.2-0.6
			c-0.5-0.2-1.1-0.1-1.5,0.3c-0.3,0.5-0.7,1-1.1,1.4c-0.3,0.3-0.1,0.7,0.4,0.7c0.1,0,0.2,0,0.2,0.1c0.1,0.1,0,0.5,0.4,0.4
			c0.4-0.1,0.2-0.4,0.3-0.6c0.1-0.2,0-0.3,0-0.5c0-0.1,0-0.1,0.1-0.2c0,0,0.1,0,0.2,0l0,0c0.1,0.3,0.5,0.6,0.3,0.8
			c-0.2,0.3-0.3,0.8-0.8,0.8c-0.3,0-0.6-0.2-0.7-0.4c0,0.6-0.5,0.7-0.7,1.1c-0.1-0.3-0.2-0.5-0.4-0.8c-0.2-0.2,0.1-0.7-0.3-0.7
			s-0.1,0.4-0.3,0.6l-0.1,0c-0.4,0.5-0.4,0.5,0.1,0.6c0.1,0,0.1,0,0.1,0.1c0,0,0,0,0,0l0,0c0,0.3,0.3,0.2,0.4,0.3l-0.2,0.1
			c-0.2,0-0.2,0.1,0,0.2c0.3,0.5,0.3,0.7-0.1,0.7c-0.6,0.1-0.8,0.6-0.4,1.1c0,0.1,0.2,0.2,0.2,0.3c-0.4,0.2-0.3,0.8-0.7,1.1
			c-0.5,0.6-0.7,1.4-0.5,2.2c0.3,0.8,1.2,1.3,2.1,1c0,0,0,0,0,0l0,0c0.4-0.2,0.9,0,1,0.3c0.1,0.1,0.1,0.3,0.1,0.4
			c0,0.2,0.1,0.3,0.2,0.5c0.4,0.3,0.4,0.8,0.2,1.2c-0.1,0.2-0.1,0.5,0,0.7c0.2,0.6,0.5,1.2,0.7,1.8c0,0.1,0.1,0.3,0.3,0.3
			c1-0.1,1.8-0.8,2.1-1.8c0-0.2,0.1-0.5,0.3-0.6c0.3-0.2,0.5-0.6,0.3-1v0c-0.2-0.4-0.1-0.9,0.2-1.2c0.4-0.3,0.7-0.7,0.9-1.1
			c0-0.2,0.1-0.4,0-0.5c-0.1-0.1-0.3,0-0.5,0c-0.2,0-0.3,0.2-0.4-0.1c0.5-0.2,0.9-0.5,1.3-0.7c0.4-0.3,0.8-0.6,0.3-1.1
			c0.8-0.2,1.6,0.2,1.9,1c0.1,0.3,0.2,0.5,0.4,0.8c0.1,0.1,0.1,0.5,0.4,0.3c0.2-0.1,0.3-0.3,0.2-0.5c-0.1-0.6,0.4-0.9,0.7-1.3
			c0.1-0.1,0.3-0.1,0.4,0l0,0c0.3,0.5,1,0.7,1.1,1.3c0,0.2,0,0.4,0.1,0.5c0.1,0.1,0.3,0.3,0.2,0.4s-0.3-0.1-0.4-0.1
			c-0.1,0-0.2,0-0.2,0.1c0.4,0.4,0.7,0.8,1.1,1.2c0.1,0.1,0.2,0.2,0.3,0.1c0.1-0.1,0.1-0.3,0-0.4c-0.1-0.1-0.4-0.2-0.3-0.4
			c0.3-0.4-0.1-0.6-0.2-0.8c-0.2-0.2-0.3-0.4-0.4-0.6c0.2-0.2,0.3,0,0.4,0s0.5,0.3,0.6,0c0.2-0.2,0.1-0.5,0-0.6c0,0,0,0,0,0H320
			c-0.2-0.1-0.3-0.2-0.3-0.5c0-0.2,0.3-0.2,0.5-0.2c0.9-0.2,1.4-1,1-1.6c-0.2-0.3-0.2-0.8-0.6-1c0.4,0,0.8,0,1,0.4
			c0.1,0.2,0.2,0.3,0.3,0.2s0-0.3,0-0.4c-0.4-0.3,0-0.6,0.1-0.7c0.6-0.2,1-0.9,0.7-1.6c0.3-0.1,0.2,0.1,0.3,0.3
			c0,0.1,0.1,0.2,0.2,0.1c0.2-0.3-0.1-0.5-0.2-0.7c-0.1-0.2-0.2,0.1-0.3,0c0-0.1-0.1-0.2-0.2-0.3c-0.1-0.1-0.4,0-0.4-0.2
			c0-0.2,0.6-0.7,0.9-0.8c0.3-0.1,1.1,0.4,1.4-0.4c0.1-0.2,0.2-0.1,0.4,0c0.1,0.1,0.1,0.3,0,0.4l0,0c-0.5,0.8-0.5,0.8,0,1.7
			c0.1-0.4,0.7-0.7,0.5-1c-0.2-0.8,0.2-0.8,0.7-0.8c0.5-0.1,0.9-0.5,1.1-1c0.1-0.2,0.2-0.5,0.5-0.2c0.1,0.1,0.2,0.1,0.3,0.2
			C328.4,244.4,328.6,244.1,328.7,243.8z M310.1,243.9c0.2-0.1,0.4-0.1,0.7,0c-0.2,0.1-0.3,0.3-0.5,0.2
			C310.1,244,310.1,243.9,310.1,243.9L310.1,243.9z M310.2,250.1c-0.3,0.1-0.6,0.1-0.8,0c-0.1,0-0.2,0-0.3,0
			c-0.4,0.2-0.9,0.1-1.2-0.3c0,0-0.1-0.1-0.1-0.2c0-0.2-0.2-0.2-0.3-0.2h-0.5c-0.2,0-0.3,0-0.5,0.1c0-0.4,0.3-0.8,0.6-1.1
			c0.4-0.3,0.7,0.2,1.1,0.3c0.1-0.3-0.3-0.4-0.1-0.6c0.3,0.3,0.6,0.4,0.8,0.8c0.2,0.4,0.2,0.6,0.5,0c0.1-0.1,0.3-0.1,0.4-0.1l0,0
			c0-0.2,0-0.3,0.1-0.4c0.1-0.2,0-0.8,0.5-0.2c0.1,0.1,0.5,0,0.7,0.2c0.2,0.2,0.2,0.1,0.2,0.3c-0.1,0.1-0.2,0.1-0.3,0.1
			c-0.4-0.1-0.8,0-1.2,0.1l0,0c-0.2,0.6-0.1,0.7,0.6,0.7c0.1,0,0.5-0.1,0.5,0.2C310.6,249.9,310.6,250.1,310.2,250.1L310.2,250.1z
			 M311.8,252.4c-0.1,0.1-0.2,0-0.3-0.1l-0.8-1.5c0.5,0.3,0.7,0.9,1.1,1.3C311.9,252.1,311.9,252.3,311.8,252.4
			C311.8,252.4,311.8,252.4,311.8,252.4L311.8,252.4L311.8,252.4z M313.2,251c-0.1,0.1-0.2,0.1-0.2,0c-0.1-0.1-0.5-0.3-0.5-0.7
			c0.3,0.1,0.5,0.3,0.7,0.4C313.3,250.8,313.3,250.9,313.2,251L313.2,251z"/>
		<path class="st2" d="M296,253c-0.1,0-0.1-0.1-0.1-0.2l0.2-0.6c-0.2,0-0.4,0.1-0.5,0.3c-0.1,0.2-0.3,0.3-0.4,0.2
			c-0.2,0-0.3-0.2-0.4-0.4c0-0.3,0-0.7,0.1-1c0.2-0.5,0.7-0.3,1-0.5c0.6-0.3,0.7,0.2,0.9,0.6h0.1c-0.2-0.6,0-1.2,0.5-1.5
			c0.1-0.1,0.1-0.2,0.1-0.3c0.4-0.6,0.7-1.2,1.5-1.2c0.1,0,0.5-0.1,0.3-0.3c-0.2-0.3-0.1-0.5-0.2-0.8c0.3,0,0.6,0,0.9-0.2
			c0.3-0.2,0.3-0.4,0.1-0.6c-0.2-0.3-0.4-0.6-0.5-1c0-0.2-0.1-0.3-0.3-0.1c-0.2,0.2-0.4,0.1-0.4-0.2c0-0.3-0.3-0.5-0.5-0.4
			c-0.3,0-0.3,0.2-0.4,0.4c-0.1,0.7-0.3,1.3-0.7,1.8c0-0.7-0.4-0.9-0.8-1.1c-0.3-0.1-0.5-0.5-0.4-0.8c0-0.1,0.1-0.2,0.2-0.2
			c0.4-0.5,0.7-0.4,0.8-0.8c0.1,0.3,0.1,0.7,0.5,0.4c0.2-0.3-0.4-0.3-0.1-0.5c0.2-0.1,0.4-0.4,0.4-0.7c0-0.3,0.3-0.3,0.5-0.1
			s0.7,0.4,0.2,0.8c-0.1,0.1-0.2,0.2-0.1,0.4l0.1,0.1c0.2,0.2,0.3,0.5,0.6,0.4c0.3-0.1,0.3-0.7,0.7-0.9c0,0,0-0.1,0-0.1
			c-0.4-0.3-0.4-1-1-1.1c-0.1,0-0.1-0.1-0.2-0.2c-0.4-0.5-0.7-0.5-1,0c-0.1-0.1,0-0.3-0.1-0.4c-0.1,0-0.1,0.1-0.2,0.1
			c-0.1,0.1-0.2,0.3-0.1,0.5c0,0.1,0.1,0.1,0.2,0.2c0.1,0,0,0.2,0,0.4c0,0.1-0.2,0.1-0.3,0c-0.1-0.1-0.2-0.1-0.3-0.1
			c0-0.1,0-0.1,0-0.2c-0.1-0.3-0.2-0.7,0.3-0.8c-0.2-0.2-0.5-0.2-0.5,0c0,0.2-0.5,0.6-0.2,1c-0.3,0.6-0.8,0.2-1.2,0.3
			c-0.2-0.2,0.1-0.3,0.2-0.3c0.4-0.3-0.2-0.4-0.1-0.7c0-0.1,0-0.2-0.1-0.2c0,0-0.1,0-0.1,0c-0.3,0.1-0.7,0.1-1-0.2
			c-0.2-0.1-0.4-0.2-0.7-0.2c-0.5-0.1-0.5,0.3-0.5,0.6s0.2,0.2,0.4,0.2c0.4,0,0.4,0.3,0.3,0.6c-0.7-0.3-1.5-0.4-2.3-0.1
			c-0.1,0.1-0.3,0.1-0.4,0c-0.7-0.2-1.5-0.3-2.2-0.4c-0.6,0-1.3,0.2-1.8,0.6c-0.4,0.2,0.1,0.4,0,0.6c-0.1,0.2-0.1,0.1-0.2,0.1
			c-0.1,0-0.4,0-0.3,0.2c0,0.2,0.2,0.2,0.4,0.2c0.2,0,0.3,0,0.4,0.1c-0.4,0.2-0.9,0.3-0.6,1h-0.1l0.5,0.2l0,0c0,0.2,0.1,0.2,0.3,0.2
			l0,0c0.1,0,0.3,0,0.3,0.2c-0.2,0.1-0.4,0.2-0.5,0.4c0.2,0.1,0.5,0,0.6-0.3c0.4-0.1,0.6-0.6,0.9-0.7c0.7-0.3,1.4-0.2,2,0.1
			c0.2,0.1,0.4,0.2,0.5,0.4c0.2,0.4,0.4,0.8,0.5,1.2c-0.3,0.5,0.2,0.4,0.3,0.6c-0.3,0.7-0.3,1.6,0,2.3c0.2,0.3,0.5,0.6,0.6,1
			c0,0.6,0.5,1.1,1.1,1.2c0,0.5,0.4,0.7,0.8,0.8c0.6,0.1,1.2,0.4,1.6,0.9C296.2,253.6,296.8,253.1,296,253z"/>
		<path class="st2" d="M301.9,255.5c-0.2-0.1-0.3-0.1-0.5-0.2c-0.4-0.1-1-0.1-1.1-0.8c0-0.1-0.1-0.2-0.2-0.2c-0.7,0-1.1-0.7-1.8-0.7
			c-0.7,0-1.2,0.2-1.2,1c0,0.2-0.1,0.4-0.2,0.6c-0.2,0.2-0.2,0.4-0.2,0.6c0,0.7,0.4,1.4,1,1.8c0.3,0.1,0.4,0.4,0.3,0.7
			c-0.1,0.5-0.2,1.1-0.2,1.6l-0.1,0.2c-0.1,0.1-0.1,0.2-0.1,0.3v0.5c-0.2,0.2,0,0.5-0.2,0.7c-0.3,0.6,0.3,1.3,1,1.2
			c-0.2-0.1-0.3-0.3-0.2-0.5c0,0,0,0,0,0l0,0c0,0,0-0.1,0-0.1c0.2-0.4,0.3-0.8,0.4-1.2c0.2-0.5,0.8-0.7,1.1-1.2
			c0.3-0.5,0.6-0.7,0.8-1.2c0.1-0.2,0.2-0.4,0.5-0.5c0.4-0.1,0.7-0.5,0.7-1c0-0.3,0.2-0.6,0.4-0.9
			C302.4,255.9,302.4,255.6,301.9,255.5z"/>
		<path class="st2" d="M304.8,242c0.2-0.5-0.1-1.2,0.7-1.4c-0.4-0.2-0.7,0-1-0.3c-0.4-0.5-0.9-0.4-1.4-0.3c-0.3,0.1-0.7,0.2-1.1,0.2
			c-0.8,0-1.5,0.2-2.1,0.7c-0.3,0.2,0,0.3,0,0.5s0,0.3,0.3,0.3c0.7-0.1,0.8,0.3,0.9,0.8c0.1,0.4,0.2,0.9,0.1,1c-0.4,0.6,0,1,0.1,1.5
			c0.1,0.2,0.3,0.4,0.6,0.4c0.2,0,0.2-0.2,0.3-0.4c0.2-0.6,0.7-1.1,1.3-1.2C304.4,243.5,304.5,242.7,304.8,242z"/>
		<path class="st2" d="M325.1,255.4c-0.1,0.1-0.2,0.3-0.1,0.4c0,0.2,0,0.4-0.3,0.4c-0.3,0-0.5-0.1-0.4-0.4c0.1-0.5-0.4-0.4-0.5-0.3
			c-0.4,0.3-1,0.3-1.3,0.8c-0.1,0.2-0.4,0.4-0.6,0.4c-0.6,0.3-0.9,1-0.6,1.6c0,0,0,0.1,0.1,0.1l0.1,0.1c0.2,0.4,0.7,0,1.1,0l0,0
			c0.6-0.4,1.5-0.3,1.9,0.3c0,0,0,0,0,0l0,0l0.1,0.1c0.2,0.4,0.7,0.5,1.1,0.3c0,0,0,0,0,0c0.1,0,0.1-0.1,0.2-0.1
			c0.3-0.4,0.5-0.8,0.7-1.2c0.1-0.3,0-0.6-0.2-0.8C325.9,256.7,325.5,256,325.1,255.4z"/>
		<path class="st2" d="M297.4,240.7c0.1,0.1,0.3,0.2,0.4,0.1h0.1c0.1,0.2-0.2,0.3-0.2,0.5c0.3,0,0.8,0.2,1,0
			c0.5-0.5,1.1-0.9,1.7-1.2c-0.8-0.4-1.7-0.4-2.5,0l0.8,0.2c0.1,0,0.1,0,0.2,0l0,0c-0.4,0.3-1,0.3-1.3-0.1c-0.1-0.1-0.3-0.2-0.4,0
			C297.1,240.4,297.2,240.6,297.4,240.7z"/>
		<path class="st2" d="M325.4,254.9l0.2,0.2c0.1,0.1,0.3,0.2,0.5,0.1c-0.3-0.3-0.5-0.6-1-0.8c-0.5-0.2-1.1-0.1-1.6-0.3
			C324.2,254.4,324.4,255.4,325.4,254.9z"/>
		<path class="st2" d="M321.7,253.9c-0.1-0.2,0.1-0.6-0.3-0.7c-0.3,0.2-0.6,0.5-0.9,0.8c0.1,0.4,0.4,0.5,0.7,0.5
			C321.4,254.5,321.8,254.1,321.7,253.9z"/>
		<path class="st2" d="M312.8,256.3c-0.5,0.2-0.3,0.6-0.4,1c0,0.1,0,0.3,0.2,0.4c0.1,0,0.2,0,0.3,0c0.3-0.5,0.4-1.1,0.3-1.6
			C312.9,256,312.9,256.3,312.8,256.3z"/>
		<path class="st2" d="M294.4,241.5c0.3,0.4,0.8,0.4,1.4,0.1c-0.4-0.2-0.8-0.1-1-0.4c-0.4-0.5-0.7-0.1-1,0
			C293.9,241.5,294.2,241.2,294.4,241.5z"/>
		<path class="st2" d="M312,242.8c0.2,0.1,0.2-0.1,0.2-0.2c0-0.5,0.4-0.7,0.7-0.9c0.2-0.1,0.5-0.1,0.5-0.4c-0.7,0-1.3,0.5-1.5,1.2
			C311.8,242.7,311.8,242.8,312,242.8z"/>
		<path class="st2" d="M308.5,241.3c0.1-0.1,0.2-0.2,0.3-0.2c0.2,0,0.3-0.1,0.2-0.2s-0.2-0.1-0.4-0.2c-0.3,0.1-0.5,0.2-0.8,0.3
			c-0.1,0-0.1,0.1,0,0.2c0.1,0.2,0.4,0.3,0.6,0.2c0,0,0,0,0,0l0,0C308.4,241.3,308.4,241.3,308.5,241.3z"/>
		<path class="st2" d="M304.6,244.7c0.3,0,0.5-0.1,0.5-0.4c0,0,0,0,0,0c0-0.3-0.1-0.3-0.4-0.3c-0.1,0.4-0.7-0.2-0.7,0.3
			c0,0.2,0.2,0.4,0.4,0.5c0,0,0,0,0,0L304.6,244.7L304.6,244.7z"/>
		<path class="st2" d="M323.4,249.3c0.1-0.2,0.1-0.5-0.1-0.7c0,0,0,0,0,0l0,0c0,0.6-0.5,0.7-1,1
			C322.7,249.5,323.2,249.8,323.4,249.3z"/>
		<path class="st2" d="M298.6,241.7c-0.7,0.1-1.1-0.2-1.6-0.5c0.2,0.5,0.8,0.8,1.4,0.6C298.4,241.8,298.5,241.8,298.6,241.7z"/>
		<path class="st2" d="M329.3,259c0,0.3-0.4,0.6,0.1,1C329.6,259.6,330.1,259.3,329.3,259z"/>
		<path class="st2" d="M322.1,254.7c0.2-0.2,0.3-0.4,0.4-0.6c-0.1,0-0.1-0.1-0.2-0.1c-0.2,0-0.4,0.1-0.4,0.3c0,0,0,0,0,0l0,0
			c0,0,0,0.1,0,0.1C321.9,254.5,321.9,254.7,322.1,254.7z"/>
		<path class="st2" d="M328.2,260.6c-0.1,0-0.3,0.2-0.2,0.3c0.1,0.1,0.3,0.1,0.4,0c0,0,0.1-0.1,0.1-0.1c0.2-0.3,0.4-0.5,0.6-0.8
			C328.6,259.9,328.5,260.4,328.2,260.6z"/>
		<path class="st2" d="M321.3,241.3c0.3,0,0.6-0.1,0.9-0.2c-0.3-0.3-0.6-0.2-0.9-0.2c-0.3,0-0.2,0-0.2,0.2
			C321.1,241.2,321.2,241.3,321.3,241.3z"/>
		<path class="st2" d="M300,247.5c0,0.3,0.3,0.2,0.4,0.3c0.2,0.1,0.2,0,0.2-0.1c0-0.1-0.2-0.3-0.4-0.4
			C300,247.3,300,247.4,300,247.5z"/>
		<path class="st2" d="M308.3,248.6c0,0-0.1,0.1-0.1,0.1c0,0.1,0,0.2,0.1,0.2s0.1-0.1,0.1-0.1C308.5,248.7,308.5,248.6,308.3,248.6
			L308.3,248.6L308.3,248.6z"/>
		<path class="st3" d="M309.3,273.8c-13.1,0-23.8-10.7-23.7-23.8c0-13.1,10.7-23.8,23.8-23.7c13.1,0,23.7,10.6,23.7,23.8l0,0
			C333.1,263.1,322.5,273.8,309.3,273.8L309.3,273.8L309.3,273.8z M309.3,228.5c-11.9,0-21.5,9.7-21.5,21.5
			c0,11.9,9.7,21.5,21.5,21.5c11.9,0,21.5-9.7,21.5-21.5C330.9,238.1,321.2,228.5,309.3,228.5C309.3,228.5,309.3,228.5,309.3,228.5
			L309.3,228.5z"/>
		<path class="st3" d="M309.3,278c-15.5,0-28-12.6-28-28.1s12.6-28,28.1-28c15.5,0,28,12.6,28,28C337.4,265.5,324.8,278,309.3,278
			C309.3,278,309.3,278,309.3,278z M309.3,232.8c-9.6,0-17.3,7.7-17.3,17.3s7.7,17.3,17.3,17.3s17.3-7.7,17.3-17.3
			S318.9,232.8,309.3,232.8z"/>
		<path class="st4" d="M290.4,247.3c0,2.1-1.7,3.8-3.8,3.8c-2.1,0-3.8-1.7-3.8-3.8c0-2.1,1.7-3.8,3.8-3.8l0,0
			C288.7,243.5,290.4,245.2,290.4,247.3C290.4,247.3,290.4,247.3,290.4,247.3L290.4,247.3z"/>
		<path class="st4" d="M335.8,247.3c0,2.1-1.7,3.8-3.8,3.8c-2.1,0-3.8-1.7-3.8-3.8c0-2.1,1.7-3.8,3.7-3.8
			C334.1,243.5,335.8,245.2,335.8,247.3z"/>
		<path class="st4" d="M313.2,272.7c0,2.1-1.7,3.8-3.8,3.8s-3.8-1.7-3.8-3.8s1.7-3.8,3.8-3.8c0,0,0,0,0,0
			C311.4,268.9,313.1,270.6,313.2,272.7z"/>
		<path class="st3" d="M291.8,263c-0.6,0-1.1-0.5-1.1-1.1c0-0.5,0.3-0.9,0.7-1c4.2-1.6,7.3-5.2,8.5-9.5c0.6-2.1,0.8-4.2,0.7-6.3
			c-0.1-0.5,0.2-1,0.7-1.2c8.3-3.5,7.1-16.1,7.1-16.1c-0.1-0.6,0.4-1.2,1-1.2l0,0c0.6-0.1,1.2,0.4,1.2,1c0.2,2.5,0,5-0.5,7.5
			c-1,5.1-3.5,8.7-7.2,10.6c0.1,2.2-0.2,4.3-0.8,6.4c-1.3,5-4.9,9.1-9.7,11C292.2,262.9,292,263,291.8,263z"/>
		<path class="st3" d="M327.3,263c-0.1,0-0.3,0-0.4-0.1c-4.8-1.9-8.5-6-9.9-11c-0.6-2.1-0.9-4.2-0.8-6.4c-3.7-1.9-6.2-5.5-7.3-10.6
			c-0.5-2.5-0.6-5-0.5-7.5c0.1-0.6,0.6-1.1,1.2-1c0.6,0.1,1.1,0.6,1,1.2l0,0l0,0c0,0.1-1.2,12.6,7.1,16.1c0.4,0.2,0.7,0.7,0.6,1.2
			c-0.1,2.2,0.1,4.3,0.7,6.4c1.2,4.3,4.3,7.8,8.5,9.4c0.6,0.2,0.9,0.9,0.6,1.4l0,0C328.1,262.6,327.7,262.9,327.3,263L327.3,263z"/>
		<path class="st3" d="M309.2,261c-0.2,0-0.4,0-0.5-0.1c-3.7-2-6.4-5.5-7.2-9.6c-0.5-2-0.7-4.1-0.6-6.2c0-0.6,0.6-1.1,1.2-1
			c0,0,0,0,0,0l0,0c0.6,0,1.1,0.6,1,1.2v0l0,0c-0.1,1.9,0.1,3.7,0.6,5.5c0.7,3.5,2.9,6.4,6.1,8.1c0.6,0.3,0.8,1,0.5,1.5
			C310,260.7,309.6,261,309.2,261L309.2,261z"/>
		<path class="st3" d="M309.5,261c-0.6,0-1.1-0.5-1.1-1.1c0-0.4,0.2-0.8,0.6-1c3.1-1.6,5.3-4.6,6-8.1c0.5-1.8,0.7-3.6,0.6-5.5
			c0-0.6,0.5-1.1,1.1-1.1l0,0l0,0c0.6,0,1,0.4,1.1,1c0.1,2.1-0.1,4.2-0.7,6.2c-0.9,4.1-3.5,7.6-7.2,9.6
			C309.8,261,309.7,261,309.5,261z"/>
	</g>
</g>
</svg>
