<svg xmlns="http://www.w3.org/2000/svg" viewBox="0 0 500 500"><defs><style>.cls-1{fill:#fff;}.cls-2{fill:#222323;}</style></defs><g id="레이어_2" data-name="레이어 2"><g id="레이어_1-2" data-name="레이어 1"><rect class="cls-1" width="500" height="500"/><g id="레이어_2-2" data-name="레이어 2-2"><g id="레이어_1-2-2" data-name="레이어 1-2-2"><path class="cls-2" d="M484.31,208.54H270.19a1.73,1.73,0,0,0-1.71,1.71h0v1.29a1.71,1.71,0,0,0,1.71,1.7H484.31A4.74,4.74,0,0,1,489,218h0v28.53a4.73,4.73,0,0,1-4.73,4.73l-21.79-.36a1.69,1.69,0,0,0-1.71,1.68h0v1.29a1.72,1.72,0,0,0,1.71,1.72h3.6l18.17.39a9.47,9.47,0,0,0,9.48-9.48h0V218A9.49,9.49,0,0,0,484.31,208.54Z"/><path class="cls-2" d="M71.66,268h-.9a5.56,5.56,0,0,1-3.44-1.16c-1-.76-1.51-2.25-1.51-4.44v-24.2l25.71,31.65h1V238.22a11,11,0,0,1,.46-3.86,3.25,3.25,0,0,1,1.29-1.59,9.84,9.84,0,0,1,3.3-.79h.87a4.85,4.85,0,0,1,2.92.8,2.65,2.65,0,0,1,1,1.52,16.74,16.74,0,0,1,.15,3.16v25a12,12,0,0,1-.31,3.53,2.57,2.57,0,0,1-1.12,1.35,5.31,5.31,0,0,1-2.68.59H97.12V269H130l1.71-12.1h-1a12.27,12.27,0,0,1-13.13,10h-2.3a4.54,4.54,0,0,1-2.35-.45,2.29,2.29,0,0,1-1-1.16,16.11,16.11,0,0,1-.25-3.86V250.71a9.64,9.64,0,0,1,4.14.72,6,6,0,0,1,2.47,2.79,14.55,14.55,0,0,1,1.42,5.33h1.07v-19.9h-1.07a13.89,13.89,0,0,1-2.12,6.7,6,6,0,0,1-5.14,2.27h-.76V233.19h3.86a22.94,22.94,0,0,1,5.9.5,8.88,8.88,0,0,1,4.17,2.65,13.9,13.9,0,0,1,2.28,5.93h1.06V231h-44v1a5.41,5.41,0,0,1,4.51,1.58,7.72,7.72,0,0,1,1,4.63v16.29L71.66,230.92H58.17V232a6.6,6.6,0,0,1,2.66.55A7.11,7.11,0,0,1,63,234.49l.82,1v26.85a6.06,6.06,0,0,1-1.28,4.3,6.1,6.1,0,0,1-4.37,1.29v1h13.5Z"/><path class="cls-2" d="M137.16,238.8l12.54,31.07h1l10.38-24.52,9.42,24.52h1.11l11.89-31.43q1.61-4,1.77-4.35a4.43,4.43,0,0,1,1.28-1.54,3.58,3.58,0,0,1,1.82-.6v-1h-9.89V232a5.31,5.31,0,0,1,3,.72,2.31,2.31,0,0,1,.79,1.81,8.9,8.9,0,0,1-.22,1.71,35.8,35.8,0,0,1-1.29,3.45L174.62,256l-6.94-18a19.6,19.6,0,0,1-1.29-4,1.6,1.6,0,0,1,.35-1.05,2,2,0,0,1,.91-.67,11.29,11.29,0,0,1,2.78-.31v-1H152.14v1a5.91,5.91,0,0,1,2.69.49,4.51,4.51,0,0,1,1.61,1.58,31.2,31.2,0,0,1,1.89,4.36l1.58,4.05-6,14.42-7.42-18.48a17.08,17.08,0,0,1-1.38-4.53,1.7,1.7,0,0,1,.67-1.35,4.79,4.79,0,0,1,2.57-.55v-1H131.94v1a3.59,3.59,0,0,1,2.57,1.16A32.49,32.49,0,0,1,137.16,238.8Z"/><path class="cls-2" d="M224.08,232a5.45,5.45,0,0,1,4.51,1.58,7.78,7.78,0,0,1,1,4.63v16.29l-18.78-23.59H197.28V232a6.6,6.6,0,0,1,2.66.55,7,7,0,0,1,2.13,1.93l.81,1v26.85a4.63,4.63,0,0,1-3.51,5.55,4.56,4.56,0,0,1-2.11,0v1.05h13.52v-1.05h-.89a5.45,5.45,0,0,1-3.43-1.14c-1-.77-1.52-2.25-1.52-4.45V238.22l25.72,31.69h1V238.22a10.75,10.75,0,0,1,.47-3.86,3.34,3.34,0,0,1,1.28-1.59,10.15,10.15,0,0,1,3.24-.81v-1h-12.5Z"/><path class="cls-2" d="M257.32,230.4a18.45,18.45,0,0,0-14.15,5.35,19,19,0,0,0-5.77,14.15A20.09,20.09,0,0,0,241.83,263q5.64,7,15.89,7t15.85-7.3a20.21,20.21,0,0,0,4.23-12.73,18.86,18.86,0,0,0-20.44-19.48Zm9,30.22a11.59,11.59,0,0,1-3.86,5.75,8,8,0,0,1-4.82,1.39,7.73,7.73,0,0,1-6.68-3.25q-3.42-4.65-3.43-14.39,0-8.2,2.21-12.58c1.83-3.56,4.48-5.32,7.95-5.32a8.35,8.35,0,0,1,5,1.53,10.92,10.92,0,0,1,3.59,5.29,34.5,34.5,0,0,1,1.4,11.29,32,32,0,0,1-1.37,10.29Z"/><path class="cls-2" d="M437.92,262.43a9.26,9.26,0,0,1-3.5,3.36,10.55,10.55,0,0,1-5,1.07h-3.21a13.23,13.23,0,0,1-3.38-.25,2.23,2.23,0,0,1-1.29-1.28,12.27,12.27,0,0,1-.33-3.72V237.45a11.41,11.41,0,0,1,.31-3.54,2.52,2.52,0,0,1,1.15-1.28,5.12,5.12,0,0,1,2.65-.61h1.66v-1h-20.3v1h1.28a5,5,0,0,1,2.57.57,2.76,2.76,0,0,1,1.29,1.28,12.38,12.38,0,0,1,.31,3.64v25a11.65,11.65,0,0,1-.31,3.53,2.59,2.59,0,0,1-1.13,1.35A5.24,5.24,0,0,1,408,268h-.11a4.46,4.46,0,0,1-2.68-1,18.2,18.2,0,0,1-3.14-5.58l-13.73-31.21h-.53l-13.66,30.32a22.34,22.34,0,0,1-3.24,5.75,5.72,5.72,0,0,1-3.33,1.67,5.17,5.17,0,0,1-2.47-.53,2.93,2.93,0,0,1-1.28-1.28,12.52,12.52,0,0,1-.31-3.71v-25a11.13,11.13,0,0,1,.31-3.5,2.73,2.73,0,0,1,1.13-1.29,5.35,5.35,0,0,1,2.7-.54h1.28v-1H353.3l-10.29,25L332.3,230.94H316.73V232H318a5.1,5.1,0,0,1,2.57.57,2.76,2.76,0,0,1,1.29,1.28,12.12,12.12,0,0,1,.31,3.6v26.9a5.18,5.18,0,0,1-.88,2.06,3.74,3.74,0,0,1-1.64,1.16,6.41,6.41,0,0,1-1.29.32,4.72,4.72,0,0,1-2-.86,20.29,20.29,0,0,1-2.57-3.13l-9.16-12.86a12.45,12.45,0,0,0,5.41-2.57,9,9,0,0,0,3-7,9.45,9.45,0,0,0-2-6,10.16,10.16,0,0,0-5.22-3.51,38.07,38.07,0,0,0-10.09-1H278v1a8.79,8.79,0,0,1,3.56.49,2.72,2.72,0,0,1,1.29,1.28,12,12,0,0,1,.39,3.86v24.73a11.44,11.44,0,0,1-.39,3.86,2.85,2.85,0,0,1-1.29,1.28A8.36,8.36,0,0,1,278,268v1h19.56v-1a9,9,0,0,1-3.56-.49,2.74,2.74,0,0,1-1.29-1.29,11.94,11.94,0,0,1-.39-3.86V251.65h2.49L307.09,269h22.64v-1a6.67,6.67,0,0,1-3.86-.89,3.94,3.94,0,0,1-1.58-2.29,22.22,22.22,0,0,1-.16-3.46V234.58L339,269h.67l14.6-34.72v28.2a12,12,0,0,1-.31,3.54,2.76,2.76,0,0,1-1.12,1.29,5.46,5.46,0,0,1-2.69.59h-1.29v1H380v-1a10.52,10.52,0,0,1-3.72-.68A2.49,2.49,0,0,1,375,264.9a8.14,8.14,0,0,1,.78-3.06l1.61-3.71h13.44l1.93,4.82c.51,1.29.79,1.94.83,2.12a3.12,3.12,0,0,1,.18,1,1.53,1.53,0,0,1-.62,1.29,6,6,0,0,1-3,.62h-.74v1h51l1.44-13.36h-1.17A27,27,0,0,1,437.92,262.43Zm-135.2-16.07a5.8,5.8,0,0,1-3.05,2.57,17.69,17.69,0,0,1-5.83.72h-1.61V232.94h3c3,0,5.14.69,6.56,2.08s2,3.52,2,6.43a9.48,9.48,0,0,1-1.11,4.87Zm75.74,9.74L384.3,243,390,256.1Z"/><path class="cls-2" d="M37.75,248.73a2.1,2.1,0,0,0,2.15-2v-.54A2.14,2.14,0,0,0,37.83,244H34.3l-18.54-.44A9.51,9.51,0,0,0,6.23,253v29a9.51,9.51,0,0,0,9.49,9.48H229.18a1.71,1.71,0,0,0,1.71-1.71h0v-1.29a1.7,1.7,0,0,0-1.7-1.7H15.72A4.74,4.74,0,0,1,11,282h0V253.09a4.73,4.73,0,0,1,4.73-4.74h0l21,.43"/></g></g></g></g></svg>