<?xml version="1.0" encoding="utf-8"?>
<!-- Generator: Adobe Illustrator 25.0.1, SVG Export Plug-In . SVG Version: 6.00 Build 0)  -->
<svg version="1.1" id="레이어_1" xmlns="http://www.w3.org/2000/svg" xmlns:xlink="http://www.w3.org/1999/xlink" x="0px"
	 y="0px" viewBox="0 0 500 500" style="enable-background:new 0 0 500 500;" xml:space="preserve">
<style type="text/css">
	.st0{fill:#FFFFFF;}
	.st1{fill:#222323;}
</style>
<rect class="st0" width="500" height="500"/>
<g id="레이어_2-2">
	<g id="레이어_1-2-2">
		<path class="st1" d="M442.3,216H266.6c-0.8,0-1.4,0.6-1.4,1.4l0,0v1.1c0,0.8,0.6,1.4,1.4,1.4h175.7c2.1,0,3.9,1.8,3.8,3.9l0,0
			v23.4c0,2.1-1.7,3.9-3.9,3.9l0,0l-17.9-0.3c-0.8,0-1.4,0.6-1.4,1.4c0,0,0,0,0,0l0,0v1.1c0,0.8,0.6,1.4,1.4,1.4h3l14.9,0.3
			c4.3,0,7.8-3.5,7.8-7.8c0,0,0,0,0,0l0,0v-23.4C450,219.5,446.5,216,442.3,216z"/>
		<path class="st1" d="M103.7,264.8h-0.7c-1,0-2-0.3-2.8-1c-0.8-0.6-1.2-1.8-1.2-3.6v-19.9l21.1,26h0.8v-26
			c-0.1-1.1,0.1-2.1,0.4-3.2c0.2-0.5,0.6-1,1.1-1.3c0.9-0.4,1.8-0.6,2.7-0.6h0.7c0.8,0,1.7,0.2,2.4,0.7c0.4,0.3,0.7,0.7,0.8,1.2
			c0.1,0.9,0.2,1.7,0.1,2.6v20.5c0.1,1,0,1.9-0.3,2.9c-0.2,0.5-0.5,0.9-0.9,1.1c-0.7,0.4-1.4,0.5-2.2,0.5h-1.1v0.9h27l1.4-9.9h-0.8
			c-0.9,5.1-5.6,8.7-10.8,8.2h-1.9c-0.7,0.1-1.3-0.1-1.9-0.4c-0.4-0.2-0.7-0.5-0.8-1c-0.2-1-0.3-2.1-0.2-3.2v-8.8
			c1.2-0.1,2.3,0.1,3.4,0.6c0.9,0.5,1.6,1.3,2,2.3c0.7,1.4,1.1,2.9,1.2,4.4h0.9v-16.3h-0.9c-0.1,2-0.7,3.8-1.7,5.5
			c-1,1.3-2.6,2-4.2,1.9h-0.6v-12.7h3.2c1.6-0.1,3.3,0.1,4.8,0.4c1.3,0.4,2.5,1.1,3.4,2.2c1,1.5,1.6,3.1,1.9,4.9h0.9v-9.2h-36.1v0.8
			c1.4-0.2,2.7,0.3,3.7,1.3c0.7,1.1,1,2.5,0.8,3.8v13.4l-15.4-19.3H92.6v0.9c0.8,0,1.5,0.2,2.2,0.5c0.7,0.4,1.3,0.9,1.8,1.6l0.7,0.8
			v22c0.1,1.3-0.3,2.5-1.1,3.5c-1,0.8-2.3,1.2-3.6,1.1v0.8h11.1L103.7,264.8z"/>
		<path class="st1" d="M157.4,240.8l10.3,25.5h0.8l8.5-20.1l7.7,20.1h0.9l9.8-25.8c0.9-2.2,1.4-3.4,1.5-3.6c0.2-0.5,0.6-0.9,1.1-1.3
			c0.4-0.3,1-0.5,1.5-0.5v-0.8h-8.1v0.9c0.9-0.1,1.7,0.2,2.5,0.6c0.4,0.4,0.7,0.9,0.6,1.5c0,0.5-0.1,0.9-0.2,1.4
			c-0.3,1-0.7,1.9-1.1,2.8l-5,13.4l-5.7-14.8c-0.5-1.1-0.8-2.2-1.1-3.3c0-0.3,0.1-0.6,0.3-0.9c0.2-0.3,0.5-0.4,0.7-0.5
			c0.7-0.2,1.5-0.3,2.3-0.3v-0.8h-15v0.8c0.8,0,1.5,0.1,2.2,0.4c0.5,0.3,1,0.8,1.3,1.3c0.6,1.2,1.1,2.3,1.6,3.6l1.3,3.3l-4.9,11.8
			l-6.1-15.2c-0.5-1.2-0.9-2.4-1.1-3.7c0-0.4,0.2-0.8,0.5-1.1c0.6-0.3,1.4-0.5,2.1-0.5v-0.8h-13.5v0.8c0.8,0,1.6,0.4,2.1,1
			C156.1,237.6,156.8,239.2,157.4,240.8z"/>
		<path class="st1" d="M228.7,235.2c1.4-0.2,2.7,0.3,3.7,1.3c0.7,1.2,0.9,2.5,0.8,3.8v13.4l-15.4-19.4h-11.1v0.9
			c0.8,0,1.5,0.2,2.2,0.5c0.7,0.4,1.3,0.9,1.7,1.6l0.7,0.8v22c0.5,2-0.8,4.1-2.9,4.5c0,0,0,0,0,0c-0.6,0.1-1.2,0.1-1.7,0v0.9h11.1
			v-0.9h-0.7c-1,0-2-0.3-2.8-0.9c-0.8-0.6-1.2-1.8-1.2-3.7v-19.7l21.1,26h0.8v-26c-0.1-1.1,0.1-2.1,0.4-3.2c0.2-0.5,0.6-1,1.1-1.3
			c0.8-0.4,1.7-0.6,2.7-0.7v-0.8h-10.3L228.7,235.2z"/>
		<path class="st1" d="M256,233.9c-4.3-0.3-8.5,1.3-11.6,4.4c-3.1,3-4.9,7.2-4.7,11.6c-0.1,3.9,1.2,7.7,3.6,10.7
			c3.1,3.8,7.4,5.7,13,5.7s9.9-2,13-6c2.3-3,3.5-6.7,3.5-10.4c0.3-8.5-6.4-15.7-14.9-16C257.3,233.9,256.7,233.9,256,233.9
			L256,233.9z M263.4,258.7c-0.6,1.9-1.7,3.5-3.2,4.7c-1.2,0.8-2.5,1.2-4,1.1c-2.2,0.1-4.2-0.9-5.5-2.7c-1.9-2.5-2.8-6.5-2.8-11.8
			c0-4.5,0.6-7.9,1.8-10.3c1.5-2.9,3.7-4.4,6.5-4.4c1.5,0,2.9,0.4,4.1,1.3c1.4,1.1,2.4,2.6,2.9,4.3c0.9,3,1.3,6.1,1.1,9.3
			C264.6,253.1,264.2,256,263.4,258.7L263.4,258.7z"/>
		<path class="st1" d="M404.2,260.2c-0.7,1.2-1.7,2.1-2.9,2.8c-1.3,0.6-2.7,0.9-4.1,0.9h-2.6c-0.9,0.1-1.9,0-2.8-0.2
			c-0.5-0.2-0.9-0.6-1.1-1.1c-0.2-1-0.3-2-0.3-3.1v-19.8c-0.1-1,0-2,0.3-2.9c0.2-0.4,0.5-0.8,0.9-1.1c0.7-0.4,1.4-0.5,2.2-0.5h1.4
			v-0.8h-16.7v0.8h1.1c0.7,0,1.5,0.1,2.1,0.5c0.5,0.2,0.8,0.6,1.1,1.1c0.2,1,0.3,2,0.3,3v20.5c0.1,1,0,1.9-0.3,2.9
			c-0.2,0.5-0.5,0.9-0.9,1.1c-0.7,0.4-1.4,0.5-2.2,0.5h-0.1c-0.8,0-1.6-0.3-2.2-0.8c-1.1-1.4-2-2.9-2.6-4.6l-11.3-25.6h-0.4
			l-11.2,24.9c-0.6,1.7-1.5,3.3-2.7,4.7c-0.7,0.7-1.7,1.2-2.7,1.4c-0.7,0-1.4-0.1-2-0.4c-0.5-0.2-0.8-0.6-1.1-1.1
			c-0.2-1-0.3-2-0.3-3v-20.5c-0.1-1,0-1.9,0.3-2.9c0.2-0.4,0.5-0.8,0.9-1.1c0.7-0.3,1.5-0.5,2.2-0.4h1.1v-0.8h-12.8l-8.4,20.5
			l-8.8-20.6h-12.8v0.9h1c0.7,0,1.5,0.1,2.1,0.5c0.5,0.2,0.8,0.6,1.1,1.1c0.2,1,0.3,2,0.3,3v22.1c-0.1,0.6-0.4,1.2-0.7,1.7
			c-0.4,0.4-0.8,0.8-1.3,1c-0.3,0.1-0.7,0.2-1.1,0.3c-0.6-0.1-1.2-0.3-1.6-0.7c-0.8-0.8-1.5-1.6-2.1-2.6l-7.5-10.6
			c1.6-0.3,3.2-1.1,4.4-2.1c1.6-1.5,2.5-3.6,2.5-5.7c0-1.8-0.5-3.5-1.6-4.9c-1.1-1.4-2.6-2.4-4.3-2.9c-2.7-0.6-5.5-0.9-8.3-0.8H273
			v0.8c1-0.1,2,0.1,2.9,0.4c0.5,0.2,0.8,0.6,1.1,1.1c0.3,1,0.4,2.1,0.3,3.2v20.3c0.1,1.1,0,2.1-0.3,3.2c-0.2,0.5-0.6,0.8-1.1,1.1
			c-0.9,0.4-1.9,0.5-2.9,0.4v0.8h16v-0.8c-1,0.1-2-0.1-2.9-0.4c-0.5-0.2-0.8-0.6-1.1-1.1c-0.3-1-0.4-2.1-0.3-3.2v-8.8h2l10.1,14.2
			h18.6v-0.8c-1.1,0.1-2.2-0.2-3.2-0.7c-0.6-0.4-1.1-1.1-1.3-1.9c-0.1-0.9-0.2-1.9-0.1-2.8v-22l12.2,28.2h0.5l12-28.5v23.1
			c0.1,1,0,2-0.3,2.9c-0.2,0.4-0.5,0.8-0.9,1.1c-0.7,0.3-1.4,0.5-2.2,0.5h-1.1v0.8h25.6v-0.8c-1,0-2.1-0.2-3.1-0.6
			c-0.7-0.4-1.1-1.1-1.1-1.9c0-0.9,0.3-1.7,0.6-2.5l1.3-3h11l1.6,4c0.4,1.1,0.6,1.6,0.7,1.7c0.1,0.3,0.1,0.5,0.1,0.8
			c0,0.4-0.2,0.8-0.5,1.1c-0.8,0.4-1.6,0.6-2.5,0.5h-0.6v0.8h41.8l1.2-11h-1C406,256.6,405.2,258.5,404.2,260.2z M293.3,247
			c-0.6,1-1.4,1.7-2.5,2.1c-1.6,0.5-3.2,0.7-4.8,0.6h-1.3V236h2.5c2.5,0,4.2,0.6,5.4,1.7c1.2,1.1,1.6,2.9,1.6,5.3
			C294.2,244.4,293.9,245.8,293.3,247L293.3,247z M355.4,255l4.8-10.7l4.7,10.7L355.4,255z"/>
		<path class="st1" d="M75.8,249c0.9,0,1.7-0.7,1.8-1.6v-0.4c0-1-0.7-1.8-1.7-1.8H73l-15.2-0.4c-4.3,0-7.8,3.5-7.8,7.7v23.8
			c0,4.3,3.5,7.8,7.8,7.8h175.1c0.8,0,1.4-0.6,1.4-1.4l0,0v-1.1c0-0.8-0.6-1.4-1.4-1.4c0,0,0,0,0,0H57.8c-2.1,0-3.9-1.8-3.9-3.9
			c0,0,0,0,0,0l0,0v-23.7c0-2.1,1.7-3.9,3.9-3.9c0,0,0,0,0,0l0,0L75,249"/>
	</g>
</g>
</svg>
