<svg xmlns="http://www.w3.org/2000/svg" viewBox="0 0 480 310.2"><defs><style>.cls-1{fill:#373737;}.cls-2{fill:#fff;}.cls-3{fill:#3d5ba8;}</style></defs><g id="레이어_2" data-name="레이어 2"><g id="레이어_1-2" data-name="레이어 1"><polygon class="cls-1" points="250 150 29 150 0 0 221 0 250 150"/><path class="cls-2" d="M83.7,80.8A13.46,13.46,0,0,0,88.4,76,13.17,13.17,0,0,0,90,69.4V65.3h2v4.3a11.13,11.13,0,0,0,1.5,6,13.24,13.24,0,0,0,4.6,4.5l-1.5,1.4a18.07,18.07,0,0,1-3.3-2.9,14.68,14.68,0,0,1-2.4-4,11.53,11.53,0,0,1-2.3,4.2,21,21,0,0,1-3.4,3.3Zm19-16.4V86.6h-2V64.4Z"/><path class="cls-2" d="M117.2,67.1h-4.4v.7a7,7,0,0,0,.5,2.5,6.25,6.25,0,0,0,1.3,2,6.55,6.55,0,0,0,1.8,1.5,14.72,14.72,0,0,0,2.2,1l-1.3,1.4c-.4-.2-.9-.4-1.4-.7a13,13,0,0,1-1.5-1,8.64,8.64,0,0,1-1.4-1.3,5.72,5.72,0,0,1-1.1-1.6,6.6,6.6,0,0,1-2.2,3.1,18.5,18.5,0,0,1-3.4,2.3l-1.5-1.3a10.36,10.36,0,0,0,4.2-2.9,8,8,0,0,0,1.3-2.2,7.63,7.63,0,0,0,.5-2.7v-.8h-4.4V65.4h10.8v1.7Zm-1.5,19.8a14.16,14.16,0,0,1-3.1-.3,8.54,8.54,0,0,1-2.4-.9,4.09,4.09,0,0,1-1.5-1.4,4.14,4.14,0,0,1-.5-1.9,3.45,3.45,0,0,1,.5-1.8,5.09,5.09,0,0,1,1.5-1.4,8.54,8.54,0,0,1,2.4-.9,14.16,14.16,0,0,1,3.1-.3,10.94,10.94,0,0,1,5.5,1.2,3.64,3.64,0,0,1,0,6.6A11,11,0,0,1,115.7,86.9Zm-5.4-4.5a1.59,1.59,0,0,0,.4,1.2,2.73,2.73,0,0,0,1.2.9,8.51,8.51,0,0,0,1.7.6,11.65,11.65,0,0,0,4.3,0,4.78,4.78,0,0,0,1.8-.6,6.23,6.23,0,0,0,1.2-.9,1.92,1.92,0,0,0,.4-1.2,2.27,2.27,0,0,0-1.6-2.1,9,9,0,0,0-3.9-.8,12.48,12.48,0,0,0-2.1.2,4.28,4.28,0,0,0-1.7.6,2,2,0,0,0-1.1.9A1.73,1.73,0,0,0,110.3,82.4Zm15.5-11.3h-3.1v6.7h-1.9V64.3h1.9v5h3.1Z"/><path class="cls-2" d="M145.6,83.7H125.2V82h9.2V76.6h2V82h9.2Zm-2.5-16.5h-6.6v.7a5.55,5.55,0,0,0,.7,2.8,7.94,7.94,0,0,0,1.9,2.2,12.35,12.35,0,0,0,2.7,1.7,11.11,11.11,0,0,0,2.9,1l-1.4,1.5a13.57,13.57,0,0,1-2.3-.9,17.1,17.1,0,0,1-2.3-1.3,16.32,16.32,0,0,1-2-1.7,5.71,5.71,0,0,1-1.3-2.1,6,6,0,0,1-1.4,2.1,7.83,7.83,0,0,1-2,1.6,17.1,17.1,0,0,1-2.3,1.3,24.43,24.43,0,0,1-2.4,1l-1.5-1.5a30.05,30.05,0,0,0,3.2-1.1,9.53,9.53,0,0,0,2.6-1.6,6.25,6.25,0,0,0,1.8-2.2,5.3,5.3,0,0,0,.7-2.8v-.7h-6.6V65.5h15.4v1.7Z"/><path class="cls-2" d="M153.4,69.7a11.24,11.24,0,0,0,.4,3.2,8.08,8.08,0,0,0,1.1,2.7,9.58,9.58,0,0,0,2,2.5,13.5,13.5,0,0,0,2.7,2c-.1.1-.3.2-.4.3l-.4.4-.4.4-.3.3c-.5-.3-1-.8-1.6-1.2L155,78.8a14.29,14.29,0,0,1-1.4-2,16.27,16.27,0,0,1-1.1-2.3,10.2,10.2,0,0,1-.9,2.2,13.73,13.73,0,0,1-1.3,2,15.37,15.37,0,0,1-1.7,1.9,10.48,10.48,0,0,1-1.7,1.4c-.2-.2-.5-.4-.8-.7a5.5,5.5,0,0,0-.9-.7,11.33,11.33,0,0,0,2.7-2.2,12.57,12.57,0,0,0,2-2.7,16.59,16.59,0,0,0,1.2-3.1,13.42,13.42,0,0,0,.4-3.5V65h2v4.7Zm9.9,16.8h-2V64.3h2v8.5h3.3v1.8h-3.3Z"/><polygon class="cls-3" points="480 150.5 259 150.5 230 0.5 451 0.5 480 150.5"/><path class="cls-2" d="M324.8,84H304.4V82.3h20.4Zm-9.1-16.4a5.55,5.55,0,0,0,.7,2.8,11.38,11.38,0,0,0,1.8,2.5,12.84,12.84,0,0,0,2.6,2,20.18,20.18,0,0,0,3,1.4l-1.4,1.5c-.7-.3-1.5-.6-2.3-1a16,16,0,0,1-2.3-1.6,18,18,0,0,1-2-1.9,7.55,7.55,0,0,1-1.3-2.3,7.44,7.44,0,0,1-1.4,2.2,17,17,0,0,1-1.9,1.9,18.82,18.82,0,0,1-2.3,1.6,15.77,15.77,0,0,1-2.3,1.1l-1.5-1.5a13,13,0,0,0,3-1.3,10.56,10.56,0,0,0,2.6-2,11,11,0,0,0,1.9-2.5,5.92,5.92,0,0,0,.7-2.9V65.7h2.1v1.9Z"/><path class="cls-2" d="M328.3,65.9h14.3v1.7H329.8v3.8h12.8v1.7H329.8v3.8h13v1.7h-6.6v4.1h9.2v1.7H325V82.7h9.2V78.6h-5.9c-.2,0-.3,0-.4-.1s-.1-.2-.1-.4V66.6c0-.2,0-.3.1-.4C327.9,65.9,328.1,65.9,328.3,65.9Z"/><path class="cls-2" d="M348,81.6c-.2,0-.3,0-.4-.1s-.1-.2-.1-.4V73.4c0-.2,0-.3.1-.4s.2-.1.4-.1h7.4V67.7h-8V66h9.4c.2,0,.3,0,.4.1s.1.2.1.4V74c0,.2,0,.3-.1.4s-.2.1-.4.1h-7.4v5.3h2.4a24.37,24.37,0,0,0,2.7-.1c.9-.1,1.7-.1,2.5-.2l2.2-.3c.6-.1,1.2-.2,1.6-.3v1.7q-.75.15-1.8.3l-2.3.3a21.3,21.3,0,0,1-2.7.2c-.9,0-1.9.1-2.9.1H348Zm15.9-16.7V87.1h-2V64.9Z"/><path class="cls-2" d="M368.1,75.6c-.2,0-.3,0-.4-.1s-.1-.2-.1-.4V66.3c0-.2,0-.3.1-.4s.2-.1.4-.1h7.4v1.5h-6v2.5H375v1.5h-5.5V74h2.6a10.87,10.87,0,0,0,1.8-.1c.6,0,1.2-.1,1.8-.1a12.29,12.29,0,0,0,1.3-.2v1.6a8.92,8.92,0,0,0-1.1.2c-.5.1-1.1.1-1.8.2s-1.4.1-2.1.1h-3.9Zm2.6,5.8h12V79.1H370.1V77.5h14.1c.2,0,.3,0,.4.1s.1.2.1.4v4.3c0,.2,0,.3-.1.4s-.2.1-.4.1h-12v2.3h13v1.6H370.5c-.2,0-.3,0-.4-.1s-.1-.2-.1-.4V81.9c0-.2,0-.3.1-.4S370.5,81.4,370.7,81.4Zm5.2-12.1h2.8v-4h1.9V76.4h-1.9V71h-2.8Zm9-4.4V76.4H383V64.9Z"/><path class="cls-2" d="M388.8,77.3c-.2,0-.3,0-.4-.1s-.1-.2-.1-.4V71.2c0-.2,0-.3.1-.4s.2-.1.4-.1h7.7V67.4h-8.2V65.7h9.6c.2,0,.3,0,.4.1s.1.2.1.4v5.5c0,.2,0,.3-.1.4s-.2.1-.4.1h-7.7v3.3h1.5c.9,0,1.9,0,2.9-.1s2-.1,3-.2l2.6-.3c.8-.1,1.4-.2,1.9-.3v1.7c-.5.1-1.1.2-2,.3s-1.8.2-2.8.3-2.1.2-3.1.2-2.1.1-3.1.1h-2.3Zm1.1,6a3.55,3.55,0,0,1,2-3,14.14,14.14,0,0,1,11.4,0,3.25,3.25,0,0,1,0,6,14.14,14.14,0,0,1-11.4,0A3.55,3.55,0,0,1,389.9,83.3Zm13.3,0a2.06,2.06,0,0,0-1.6-1.9,11,11,0,0,0-4-.7,9.74,9.74,0,0,0-4.1.7,1.93,1.93,0,0,0,0,3.8,9.74,9.74,0,0,0,4.1.7,9.55,9.55,0,0,0,4-.7A2.06,2.06,0,0,0,403.2,83.3Zm-.1-4.5v-14h2v14Z"/><polygon class="cls-1" points="250 310.2 29 310.2 0 160.2 221 160.2 250 310.2"/><path class="cls-2" d="M94.8,238.1H74.5v-1.7h8.1v-3.2h2v3.2H94.8Zm-4.7-6.9a33.86,33.86,0,0,1-3.5.4c-1.3.1-2.5.1-3.8.1H76.7v-1.6H87.3c.9,0,1.9-.1,2.9-.2a7.57,7.57,0,0,0,.1-1.5,5.28,5.28,0,0,1,.1-1.3H77v-1.7H91.9c.2,0,.3,0,.4.1s.1.2.1.4c0,.8-.1,1.5-.1,2.3a19.42,19.42,0,0,1-.2,2.4c-.1.8-.2,1.5-.3,2.3s-.2,1.4-.3,1.9H89.6c.1-.6.2-1.1.3-1.7A11.08,11.08,0,0,1,90.1,231.2ZM77.8,246.3c-.2,0-.3,0-.4-.1s-.1-.2-.1-.4v-5.6h2v4.5H93v1.7H77.8Z"/><path class="cls-2" d="M97.1,225.5h7.4v1.7h-6v3.4H104v1.6H98.5v3.6h2.6c.6,0,1.2-.1,1.8-.1s1.2-.1,1.8-.1a12.29,12.29,0,0,0,1.3-.2v1.7a8.92,8.92,0,0,0-1.1.2c-.5.1-1.1.1-1.8.2a14.77,14.77,0,0,1-2.1.1c-.7,0-1.4.1-2,.1H97c-.2,0-.3,0-.4-.1s-.1-.2-.1-.4v-11c0-.2,0-.3.1-.4A.55.55,0,0,1,97.1,225.5Zm2.5,20.8c-.2,0-.3,0-.4-.1s-.1-.2-.1-.4v-6h2v4.8h13.3v1.7Zm5.2-16.1h2.7V225h2v15.6h-2v-8.7h-2.7Zm9-5.6v16.5h-1.9V224.6Z"/><path class="cls-2" d="M115.5,242.1h20.4v1.7H115.5Zm1-5a25.82,25.82,0,0,0,2.6-.8,19.65,19.65,0,0,0,2.5-1.3,7.93,7.93,0,0,0,1.9-1.7,5.54,5.54,0,0,0,1-2.2h-6.7v-1.8h15.8v1.8h-6.7a4,4,0,0,0,1,2.3,8.6,8.6,0,0,0,2,1.8,19.65,19.65,0,0,0,2.5,1.3,13.57,13.57,0,0,0,2.5.7l-1.4,1.6a8.93,8.93,0,0,1-2-.6,10.6,10.6,0,0,1-2.1-1.1,8.84,8.84,0,0,1-3.5-3.5,6.23,6.23,0,0,1-1.4,1.8,13.93,13.93,0,0,1-1.9,1.5,9.06,9.06,0,0,1-2.2,1.1,11.09,11.09,0,0,1-2.2.7Zm13.3-10.2h-8.4v-1.7h8.4Z"/><path class="cls-2" d="M147.5,225.9c.2,0,.3,0,.4.1s.1.2.1.4a19.33,19.33,0,0,1-.9,4.9,21.1,21.1,0,0,1-2,4.3,16.89,16.89,0,0,1-3,3.6,20.69,20.69,0,0,1-3.8,2.8l-1.6-1.3a15.53,15.53,0,0,0,6.2-5.4,14.62,14.62,0,0,0,2.7-7.8h-7.7v-1.7h9.6Zm5.1,20.9V224.6h2v22.2Z"/><path class="cls-2" d="M164.9,229.7a8.7,8.7,0,0,1,3.9.8,2.44,2.44,0,0,1,1.5,2.2,2.16,2.16,0,0,1-1.2,1.9,8.08,8.08,0,0,1-3.1,1v1.9a12.13,12.13,0,0,0,1.8-.1,12.1,12.1,0,0,1,1.9-.1c.6,0,1.2-.1,1.8-.1a5.21,5.21,0,0,0,1.4-.2v1.6a48.26,48.26,0,0,1-5.9.5c-2.2.1-4.5.1-6.9.1h-2.5v-1.6H164v-1.9a5.71,5.71,0,0,1-3.1-1,2.28,2.28,0,0,1-1.2-1.9,2.55,2.55,0,0,1,1.5-2.2A5.82,5.82,0,0,1,164.9,229.7Zm-6.2-2.5h12.2v1.5H158.7ZM175,241.1c.2,0,.3,0,.4.1s.1.2.1.4v5.3h-2v-4.3h-13v-1.5Zm-10.1-10a5.46,5.46,0,0,0-2.4.4c-.6.3-.9.7-.9,1.1s.3.8.9,1.1a7.4,7.4,0,0,0,4.8,0c.6-.3.9-.7.9-1.1a1.15,1.15,0,0,0-.9-1.1A5.46,5.46,0,0,0,164.9,231.1Zm-3.1-6.6H168V226h-6.2Zm13.7.1v15.3h-2V224.6Z"/><polygon class="cls-3" points="480 310.2 259 310.2 230 160.2 451 160.2 480 310.2"/><path class="cls-2" d="M306,225.9h9c.2,0,.3,0,.4.1s.1.2.1.4v14.2c0,.2,0,.3-.1.4s-.2.1-.4.1h-9c-.2,0-.3,0-.4-.1s-.1-.2-.1-.4V226.4c0-.2,0-.3.1-.4S305.8,225.9,306,225.9Zm1.4,13.5h6.1V227.6h-6.1Zm17.4-5.1h-3.3v12.5h-2V224.6h2v7.9h3.3Z"/><path class="cls-2" d="M330.9,233.4a5.82,5.82,0,0,1-1.9.3c-.7,0-1.3.1-2,.1h-1.5v-1.6H330a7.72,7.72,0,0,0,1.5-.2,11.7,11.7,0,0,0,.5-2,15,15,0,0,0,.2-2.2h-6v-1.7h7.5c.2,0,.3,0,.4.1s.1.2.1.4a24.1,24.1,0,0,1-.7,5,16.68,16.68,0,0,1-1.6,4.1,19.92,19.92,0,0,1-2.4,3.3,19.28,19.28,0,0,1-3,2.7l-1.7-1.1a18.93,18.93,0,0,0,3.7-3.2A13.31,13.31,0,0,0,330.9,233.4Zm2.8-.8h3.4V225H339v20.8h-1.9V234.4h-3.4Zm9.6-8v22.2h-1.9V224.6Z"/><path class="cls-2" d="M351.5,235.2a17,17,0,0,0,2.2-.1c.8,0,1.6-.1,2.4-.1a16.41,16.41,0,0,0,2.3-.2c.7-.1,1.4-.2,1.9-.3V236a15.72,15.72,0,0,1-2.3.4l-2.7.3a26.2,26.2,0,0,1-2.8.1h-5.2c-.2,0-.3,0-.4-.1s-.1-.2-.1-.4V225.9c0-.2,0-.3.1-.4s.2-.1.4-.1h9.9V227h-8.5v3.2H357v1.5h-8.3V235h2.8Zm-3.1,7.8a3.55,3.55,0,0,1,2-3,14.14,14.14,0,0,1,11.4,0,3.25,3.25,0,0,1,0,6,14.14,14.14,0,0,1-11.4,0A3.36,3.36,0,0,1,348.4,243Zm13.3.1a2.06,2.06,0,0,0-1.6-1.9,11.47,11.47,0,0,0-4-.7,11.84,11.84,0,0,0-4.1.6,1.93,1.93,0,0,0,0,3.8,11.63,11.63,0,0,0,4.1.7,9.55,9.55,0,0,0,4-.7C361.2,244.4,361.7,243.9,361.7,243.1Zm-.2-4.5v-14h2v14Z"/><path class="cls-2" d="M367.4,225.6h10.8v1.7h-4.4v1.4a5.87,5.87,0,0,0,.4,2.3,7.24,7.24,0,0,0,1.1,1.9,6.06,6.06,0,0,0,2,1.9,12.68,12.68,0,0,0,2.3,1.2,5.72,5.72,0,0,0-.7.8c-.3.3-.4.5-.6.7-.5-.2-.9-.5-1.5-.8a5.66,5.66,0,0,1-1.5-1.2,18.48,18.48,0,0,1-1.4-1.4,9.91,9.91,0,0,1-1.1-1.7,7.57,7.57,0,0,1-.9,1.8c-.4.6-.8,1-1.2,1.5a10.1,10.1,0,0,1-1.6,1.3,17.39,17.39,0,0,1-1.8,1.1,4.51,4.51,0,0,0-.7-.7c-.3-.3-.6-.5-.8-.7a12.75,12.75,0,0,0,2.5-1.5,8,8,0,0,0,2-2.1,7.5,7.5,0,0,0,1-2,6.9,6.9,0,0,0,.4-2.5v-1.3h-4.4v-1.7Zm3.3,20.7c-.2,0-.3,0-.4-.1s-.1-.2-.1-.4v-6.6h2v5.4h12.9v1.7Zm11.8-21.7h2v16.3h-2v-9.3h-4.6v-1.8h4.6Z"/><path class="cls-2" d="M387.9,230.4h7.5v-3.3h-8.1v-1.7h9.5c.2,0,.3,0,.4.1s.1.2.1.4v5.5c0,.2,0,.3-.1.4s-.2.1-.4.1h-7.5v3.5h2.1a24.37,24.37,0,0,0,2.7-.1,21.12,21.12,0,0,0,2.6-.2c.8-.1,1.6-.1,2.3-.2s1.3-.2,1.7-.3v1.7q-.75.15-1.8.3t-2.4.3c-.9.1-1.8.1-2.7.2s-1.9.1-2.9.1h-3c-.2,0-.3,0-.4-.1s-.1-.2-.1-.4v-5.8c0-.2,0-.3.1-.4S387.7,230.4,387.9,230.4Zm15.3,9.2c.2,0,.3,0,.4.1s.1.2.1.4v6.8h-2v-5.6H389.2v-1.7Zm3.6-10.4h-3v3.5h3v1.7h-3v4.2h-2V224.7h2v2.9h3Z"/></g></g></svg>