<svg xmlns="http://www.w3.org/2000/svg" viewBox="0 0 1200 250.5"><defs><style>.cls-1{fill:#373737;}.cls-2{fill:#fff;}.cls-3{fill:#3d5ba8;}</style></defs><g id="레이어_2" data-name="레이어 2"><g id="레이어_1-2" data-name="레이어 1"><circle class="cls-1" cx="837.5" cy="125" r="125"/><path class="cls-2" d="M818.81,123.8a19,19,0,0,1-2.19-.83,6.85,6.85,0,0,1-1.86-1.18,5,5,0,0,1-1.29-1.71,5.74,5.74,0,0,1-.48-2.46,5.52,5.52,0,0,1,.6-2.61,5.93,5.93,0,0,1,1.59-1.92,6.77,6.77,0,0,1,2.22-1.19,8.38,8.38,0,0,1,2.58-.4,9.56,9.56,0,0,1,2.35.25,9.19,9.19,0,0,1,2,.8,5,5,0,0,1,2.67,4.5h-2.52a3.3,3.3,0,0,0-.47-1.59,3.45,3.45,0,0,0-1-1.08,4.73,4.73,0,0,0-1.37-.59,6.75,6.75,0,0,0-1.57-.19,5.21,5.21,0,0,0-3.3,1.05,3.27,3.27,0,0,0-1.35,2.7,3.69,3.69,0,0,0,.45,1.92,4.07,4.07,0,0,0,1.26,1.29,9,9,0,0,0,1.92.94l2.4.86q1.17.45,2.25.9a7.59,7.59,0,0,1,1.89,1.11,4.87,4.87,0,0,1,1.29,1.62,5.69,5.69,0,0,1,.51,2.43,7,7,0,0,1-.6,3,5,5,0,0,1-1.68,2,6.84,6.84,0,0,1-2.51,1.17,14.23,14.23,0,0,1-3,.27,7.82,7.82,0,0,1-5.36-1.7,6.06,6.06,0,0,1-1.9-4.78H815a4.8,4.8,0,0,0,.36,2.13,3.45,3.45,0,0,0,1.08,1.35,3.86,3.86,0,0,0,1.58.7,8.68,8.68,0,0,0,2,.2,6,6,0,0,0,1.76-.26,5.13,5.13,0,0,0,1.6-.76,3.89,3.89,0,0,0,1.17-1.31,3.64,3.64,0,0,0,.45-1.84,3.37,3.37,0,0,0-.4-1.7,3.94,3.94,0,0,0-1.16-1.18,11.52,11.52,0,0,0-1.92-.92Z"/><path class="cls-2" d="M842.48,128l1.71,3.27-.06-3.57V112h2.31v21.84a.64.64,0,0,1-.12.45.54.54,0,0,1-.39.12H844a.61.61,0,0,1-.36-.11.73.73,0,0,1-.24-.28l-9.33-15.6-1.71-3.27.06,3.57v15.69h-2.31V112.55a.73.73,0,0,1,.11-.44c.06-.09.2-.13.4-.13h1.92a.74.74,0,0,1,.35.1.88.88,0,0,1,.25.29Z"/><path class="cls-2" d="M855.38,123.8a19,19,0,0,1-2.19-.83,6.85,6.85,0,0,1-1.86-1.18,5,5,0,0,1-1.29-1.71,5.74,5.74,0,0,1-.48-2.46,5.52,5.52,0,0,1,.6-2.61,5.93,5.93,0,0,1,1.59-1.92A6.77,6.77,0,0,1,854,111.9a8.38,8.38,0,0,1,2.58-.4,9.71,9.71,0,0,1,2.36.25,9.12,9.12,0,0,1,2,.8,5.22,5.22,0,0,1,1.91,1.77,5.11,5.11,0,0,1,.76,2.73h-2.52a3.41,3.41,0,0,0-.46-1.59,3.61,3.61,0,0,0-1-1.08,4.79,4.79,0,0,0-1.36-.59,6.9,6.9,0,0,0-1.58-.19,5.21,5.21,0,0,0-3.3,1.05,3.27,3.27,0,0,0-1.35,2.7,3.69,3.69,0,0,0,.45,1.92,4.07,4.07,0,0,0,1.26,1.29,9,9,0,0,0,1.92.94l2.4.86q1.17.45,2.25.9a7.59,7.59,0,0,1,1.89,1.11,4.87,4.87,0,0,1,1.29,1.62,5.69,5.69,0,0,1,.51,2.43,7,7,0,0,1-.6,3,5,5,0,0,1-1.68,2,6.8,6.8,0,0,1-2.5,1.17,14.33,14.33,0,0,1-3,.27,7.77,7.77,0,0,1-5.35-1.7,6,6,0,0,1-1.91-4.78h2.58a4.8,4.8,0,0,0,.36,2.13,3.45,3.45,0,0,0,1.08,1.35,3.86,3.86,0,0,0,1.58.7,8.74,8.74,0,0,0,2,.2,6,6,0,0,0,1.76-.26,5,5,0,0,0,1.6-.76,3.89,3.89,0,0,0,1.17-1.31,3.64,3.64,0,0,0,.45-1.84,3.27,3.27,0,0,0-.4-1.7,3.82,3.82,0,0,0-1.16-1.18,11.52,11.52,0,0,0-1.92-.92Z"/><circle class="cls-3" cx="125" cy="125" r="125"/><path class="cls-2" d="M60.65,126.89a.52.52,0,0,1-.63-.63v-7.32a.71.71,0,0,1,.14-.5.69.69,0,0,1,.49-.13H75.2v-4.47H60v-2H76.91a.51.51,0,0,1,.63.63v7.17a.69.69,0,0,1-.13.49.71.71,0,0,1-.5.14H62.33v4.62h16v2H70.07v5h11v2H56.69v-2h11v-5Z"/><path class="cls-2" d="M81.35,131.78h9.18v-10.2H92.9v10.2h12.9v2.07H81.35Zm20.76-19.62a.67.67,0,0,1,.49.13.71.71,0,0,1,.14.5c-.08,1.18-.18,2.41-.28,3.69s-.25,2.57-.41,3.87-.34,2.55-.53,3.82-.38,2.48-.58,3.62H98.57c.42-2.16.78-4.44,1.1-6.86s.5-4.66.58-6.76h-16v-2Z"/><path class="cls-2" d="M127.28,112.43v9.45a.52.52,0,0,1-.63.63H115.94a.71.71,0,0,1-.5-.14.69.69,0,0,1-.13-.49v-9.45a.51.51,0,0,1,.63-.63h10.71a.69.69,0,0,1,.49.13A.71.71,0,0,1,127.28,112.43Zm-10.71,23a17.38,17.38,0,0,0,2.77-.6,17.19,17.19,0,0,0,2.57-1,9.53,9.53,0,0,0,2-1.37,4.13,4.13,0,0,0,1.19-1.69h-7.53v-1.83h18v1.83h-7.65a4.85,4.85,0,0,0,1.23,1.62,9.53,9.53,0,0,0,2,1.35,16,16,0,0,0,2.58,1,18.61,18.61,0,0,0,2.91.65l-1.56,1.8a18.21,18.21,0,0,1-5.07-1.68,9.5,9.5,0,0,1-3.42-2.73,10.8,10.8,0,0,1-3.41,2.71,19,19,0,0,1-5,1.7Zm1.05-14.91H125v-6.69h-7.38Zm4.38,4.44h8.85v1.89H122Zm13.47-14.31v14.91H133.1V110.63Z"/><path class="cls-2" d="M154.58,113.69a8.34,8.34,0,0,0,.57,3.13,9.36,9.36,0,0,0,1.53,2.57,10.23,10.23,0,0,0,2.22,1.92,11.41,11.41,0,0,0,2.64,1.26L160,124.43a15.69,15.69,0,0,1-1.82-1,18.65,18.65,0,0,1-1.84-1.3,15.3,15.3,0,0,1-1.68-1.64,8.86,8.86,0,0,1-1.32-2,9.07,9.07,0,0,1-1.13,2.13,12.06,12.06,0,0,1-1.6,1.83,13.66,13.66,0,0,1-1.88,1.51,16.5,16.5,0,0,1-2,1.16l-1.83-1.62a15.22,15.22,0,0,0,2.74-1.56,12.49,12.49,0,0,0,2.3-2.1,10.34,10.34,0,0,0,1.54-2.69,8.78,8.78,0,0,0,.59-3.25v-2.7h2.49Zm-3.81,13.62H166.7a.69.69,0,0,1,.49.13.71.71,0,0,1,.14.5v8.31a.52.52,0,0,1-.63.63H150.77a.71.71,0,0,1-.5-.14.69.69,0,0,1-.13-.49v-8.31a.51.51,0,0,1,.63-.63Zm1.74,7.62H165v-5.64H152.51Zm14.85-24.33v15.33H165V110.6Z"/><path class="cls-2" d="M173,118.94v-8.13h2.31v2.52h13.29v-2.52h2.34v8.13a.52.52,0,0,1-.63.63h-7.11v2.58h11V124H169.76v-1.89h10.92v-2.58H173.6a.71.71,0,0,1-.5-.14A.69.69,0,0,1,173,118.94Zm.69,11.7h14.61V128H173v-1.86h17.19a.69.69,0,0,1,.49.13.73.73,0,0,1,.14.5v4.92a.52.52,0,0,1-.63.63H175.64v2.76h15.81v1.83H173.66a.67.67,0,0,1-.5-.14.69.69,0,0,1-.13-.49v-5a.51.51,0,0,1,.63-.63Zm1.62-12.93h13.29v-2.64H175.28Z"/><circle class="cls-1" cx="362.5" cy="125" r="125"/><path class="cls-2" d="M321.9,120.41c.6,0,1.22,0,1.87,0s1.26-.07,1.85-.13,1.09-.13,1.54-.2.8-.13,1-.19v1.83c-.31.08-.75.15-1.29.23s-1.12.13-1.73.19l-1.85.1c-.61,0-1.14,0-1.57,0v4.17h-2.31v-4.14h-5.07v-1.83Zm-.73-1.5a6.41,6.41,0,0,1-3.9-1.13,3.54,3.54,0,0,1-1.52-3,3.62,3.62,0,0,1,1.51-3,7.14,7.14,0,0,1,7.83,0,3.66,3.66,0,0,1,1.49,3,3.56,3.56,0,0,1-1.54,3A6.36,6.36,0,0,1,321.17,118.91Zm0-1.62a4,4,0,0,0,2.33-.63,2.15,2.15,0,0,0,.92-1.89,2.26,2.26,0,0,0-.9-1.85,3.75,3.75,0,0,0-2.35-.7,3.66,3.66,0,0,0-2.36.69,2.22,2.22,0,0,0-.87,1.86,2.16,2.16,0,0,0,.91,1.86A3.86,3.86,0,0,0,321.17,117.29Zm15.45,18.93a.69.69,0,0,1-.13.49.7.7,0,0,1-.49.14H319.65a.69.69,0,0,1-.5-.14.69.69,0,0,1-.13-.49v-8.43h2.4v2.49h12.83v-2.49h2.37Zm-15.2-1.17h12.83v-3H321.42Zm10.14-24v15.48h-2.35v-1.41H324.5v-1.71h4.71V111.05Zm5.06-.45v15.93h-2.31V110.6Z"/><path class="cls-2" d="M347.57,117a16.7,16.7,0,0,0,.42,3.85,11.56,11.56,0,0,0,1.29,3.26,14.38,14.38,0,0,0,2.39,3,16.23,16.23,0,0,0,3.19,2.42,5.81,5.81,0,0,0-.49.42l-.5.45-.45.46-.36.38a18,18,0,0,1-1.87-1.46,19.41,19.41,0,0,1-1.82-1.81,18.5,18.5,0,0,1-1.71-2.34,15,15,0,0,1-1.32-2.73,11.63,11.63,0,0,1-1.08,2.61,20.08,20.08,0,0,1-1.62,2.46,19.65,19.65,0,0,1-2,2.25,14.56,14.56,0,0,1-2,1.68c-.24-.22-.56-.48-1-.8s-.77-.57-1.11-.79a16.73,16.73,0,0,0,3.24-2.6,15.57,15.57,0,0,0,2.43-3.25,15,15,0,0,0,1.41-3.71,17.92,17.92,0,0,0,.48-4.21v-5h2.46Zm11.88,20.19h-2.37V110.6h2.37v10.2h3.93v2.13h-3.93Z"/><path class="cls-2" d="M364.46,121.34a17.78,17.78,0,0,1,.51-4.53,9.78,9.78,0,0,1,1.38-3.15,5.85,5.85,0,0,1,2.1-1.83,5.75,5.75,0,0,1,2.61-.6,5.57,5.57,0,0,1,2.52.61,5.91,5.91,0,0,1,2.1,1.88,9.56,9.56,0,0,1,1.43,3.13,17,17,0,0,1,.52,4.49,16.84,16.84,0,0,1-.52,4.47,10,10,0,0,1-1.43,3.15,5.82,5.82,0,0,1-2.08,1.87,5.33,5.33,0,0,1-2.54.62,5.69,5.69,0,0,1-2.58-.6,5.76,5.76,0,0,1-2.1-1.86,9.68,9.68,0,0,1-1.41-3.17A17.37,17.37,0,0,1,364.46,121.34Zm2.34,0a17.73,17.73,0,0,0,.26,3.07,9.88,9.88,0,0,0,.76,2.54,4.92,4.92,0,0,0,1.34,1.74,3,3,0,0,0,1.9.63,2.87,2.87,0,0,0,1.86-.63,5,5,0,0,0,1.32-1.74,9.87,9.87,0,0,0,.77-2.54,17.75,17.75,0,0,0,.25-3.07,17.37,17.37,0,0,0-.25-3,10.47,10.47,0,0,0-.77-2.55,5,5,0,0,0-1.3-1.74,2.86,2.86,0,0,0-1.88-.66,3,3,0,0,0-1.92.66,4.84,4.84,0,0,0-1.32,1.77,9.3,9.3,0,0,0-.78,2.55A18.23,18.23,0,0,0,366.8,121.34Zm18.39-10.74v26.64h-2.37V110.6Z"/><path class="cls-2" d="M412.1,133.55H387.68v-2H412.1Zm-20.43-21.69h17.1v2H393.44v4.5h15.27v2H393.44v4.53H409v2H391.67a.52.52,0,0,1-.63-.63V112.49a.71.71,0,0,1,.14-.5A.69.69,0,0,1,391.67,111.86Z"/><circle class="cls-3" cx="600" cy="125" r="125"/><path class="cls-2" d="M559.25,125a7.27,7.27,0,0,1-2.85-.54,6.19,6.19,0,0,1-2.19-1.5,6.44,6.44,0,0,1-1.44-2.24,7.51,7.51,0,0,1,0-5.49,6.49,6.49,0,0,1,1.44-2.23,6.37,6.37,0,0,1,2.19-1.52,7.1,7.1,0,0,1,2.85-.55,7.18,7.18,0,0,1,2.56.45,6.55,6.55,0,0,1,3.57,3.1,7.3,7.3,0,0,1,.79,2.33h4.93V110.6h2.34v19.53H571.1V118.91h-4.89a8,8,0,0,1-.75,2.4,7.29,7.29,0,0,1-1.48,2,7.18,7.18,0,0,1-4.73,1.74Zm0-2.16a4.18,4.18,0,0,0,3.35-1.4,5.12,5.12,0,0,0,1.21-3.46,5.28,5.28,0,0,0-1.21-3.5,4.67,4.67,0,0,0-6.71,0,5.22,5.22,0,0,0-1.2,3.5,5.06,5.06,0,0,0,1.2,3.46A4.18,4.18,0,0,0,559.25,122.84Zm-2.44,13.8a.7.7,0,0,1-.49-.14.69.69,0,0,1-.13-.49v-8h2.43v6.63h15.53v2Z"/><path class="cls-2" d="M579.79,122.72a.52.52,0,0,1-.63-.63V116.6a.71.71,0,0,1,.14-.5.69.69,0,0,1,.49-.13h14.55v-2.91H579.16v-1.89h17a.71.71,0,0,1,.5.13.73.73,0,0,1,.13.5v5.4a.69.69,0,0,1-.13.49.71.71,0,0,1-.5.14H581.59v3H597.4v1.92h-8.16v3h11v2H575.92v-2h10.83v-3Zm0,13.92a.52.52,0,0,1-.63-.63v-6.36h2.37v5H598v2Z"/><path class="cls-2" d="M621.62,125.27a.68.68,0,0,1-.14.49.71.71,0,0,1-.5.14h-7.05v5.88h11v2.07H600.52v-2.07h11V125.9h-7a.7.7,0,0,1-.49-.14.68.68,0,0,1-.14-.49V111.68h2.37v4.65h13v-4.65h2.37Zm-15.4-1.44h13v-5.49h-13Z"/><path class="cls-2" d="M629.08,112h17.53v2H630.83V123h16v2h-8.29v6.84h11v2H625.18v-2h11V125h-7.12a.72.72,0,0,1-.5-.12.69.69,0,0,1-.12-.48v-11.7a.71.71,0,0,1,.13-.5A.69.69,0,0,1,629.08,112Z"/><circle class="cls-3" cx="1075" cy="125.5" r="125"/><path class="cls-2" d="M1062.93,127.33h-24.36v-2h9.72v-3.84h2.43v3.84h12.21Zm-5.61-8.37a34.09,34.09,0,0,1-4.17.43c-1.5.07-3,.11-4.5.11h-7.38v-2h8.94q2.07,0,3.78-.06t3.51-.27c.06-.62.1-1.22.13-1.79s.06-1.08.08-1.54H1041.6v-2h17.91a.69.69,0,0,1,.49.13.71.71,0,0,1,.14.5c0,.9-.1,1.83-.17,2.79s-.15,1.91-.25,2.85-.22,1.84-.35,2.71-.26,1.65-.4,2.33l-2.25,0q.18-1,.33-2.07T1057.32,119Zm-14.79,18.18a.71.71,0,0,1-.5-.14.69.69,0,0,1-.13-.49v-6.75h2.34v5.34h16.38v2Z"/><path class="cls-2" d="M1065.72,112.21h8.88v2h-7.23v4.14H1074v1.92h-6.63v4.32h1.47l1.71,0q1,0,2.19-.12c.74,0,1.44-.1,2.11-.17s1.21-.14,1.61-.22v2a12.07,12.07,0,0,1-1.31.19c-.63.07-1.33.14-2.11.2s-1.64.11-2.51.15-1.65.06-2.35.06h-2.46a.71.71,0,0,1-.5-.14.69.69,0,0,1-.13-.49v-13.2a.51.51,0,0,1,.63-.63Zm3,24.93a.71.71,0,0,1-.5-.14.69.69,0,0,1-.13-.49v-7.17h2.37v5.76h16v2Zm6.27-19.35h3.27v-6.24h2.34v18.69h-2.34V119.86H1075Zm10.77-6.69v19.77h-2.31V111.1Z"/><path class="cls-2" d="M1087.86,132.07h24.42v2h-24.42Zm1.23-5.94a19.93,19.93,0,0,0,3.16-1,15.59,15.59,0,0,0,3-1.53,9.74,9.74,0,0,0,2.28-2.09,5.73,5.73,0,0,0,1.17-2.68h-8v-2.1h18.9v2.1h-8.07a5.25,5.25,0,0,0,1.17,2.77,10,10,0,0,0,2.4,2.12,15.12,15.12,0,0,0,3,1.5,18.77,18.77,0,0,0,3,.87l-1.74,2a16,16,0,0,1-5-2,13,13,0,0,1-2.4-1.8,8.79,8.79,0,0,1-1.8-2.4,9.34,9.34,0,0,1-1.7,2.2,14,14,0,0,1-2.26,1.79,15.47,15.47,0,0,1-2.61,1.38,17.24,17.24,0,0,1-2.67.87Zm16-12.24h-10v-2.07h10Z"/></g></g></svg>