<svg xmlns="http://www.w3.org/2000/svg" viewBox="0 0 385.4 400"><defs><style>.cls-1{fill:#373737;}.cls-2{fill:#fff;}.cls-3{fill:#3d5ba8;}</style></defs><g id="레이어_2" data-name="레이어 2"><g id="레이어_1-2" data-name="레이어 1"><polygon class="cls-1" points="112.4 68 37.4 68 0 133 37.4 198 112.4 198 149.9 133 112.4 68"/><path class="cls-2" d="M31.1,134.5a6,6,0,0,1-2.4-.5,4.63,4.63,0,0,1-1.8-1.3,6.15,6.15,0,0,1-1.2-1.9,6.81,6.81,0,0,1,0-4.6,7.61,7.61,0,0,1,1.2-1.9,5.94,5.94,0,0,1,1.8-1.3,6,6,0,0,1,2.4-.5,5.93,5.93,0,0,1,2.3.5,5.86,5.86,0,0,1,1.9,1.3,7.61,7.61,0,0,1,1.2,1.9,6.81,6.81,0,0,1,0,4.6,7.61,7.61,0,0,1-1.2,1.9,4.31,4.31,0,0,1-1.9,1.3A6.35,6.35,0,0,1,31.1,134.5Zm0-1.8a3.49,3.49,0,0,0,2.8-1.2,4.27,4.27,0,0,0,1-2.9,4.72,4.72,0,0,0-1-3,3.49,3.49,0,0,0-2.8-1.2,3.49,3.49,0,0,0-2.8,1.2,4.36,4.36,0,0,0-1,3,4.1,4.1,0,0,0,1,2.9A3.36,3.36,0,0,0,31.1,132.7ZM29,144c-.2,0-.3,0-.4-.1s-.1-.2-.1-.4v-6.7h2v5.5h13V144Zm11.9-5.4V122.3h2v16.3Z"/><path class="cls-2" d="M65.3,141.4H44.9v-1.7H65.3Zm-9.1-16.3a5.55,5.55,0,0,0,.7,2.8,11.38,11.38,0,0,0,1.8,2.5,12.84,12.84,0,0,0,2.6,2,20.18,20.18,0,0,0,3,1.4l-1.4,1.5c-.7-.3-1.5-.6-2.3-1a16,16,0,0,1-2.3-1.6,18,18,0,0,1-2-1.9,7.55,7.55,0,0,1-1.3-2.3,7.44,7.44,0,0,1-1.4,2.2,17,17,0,0,1-1.9,1.9,18.82,18.82,0,0,1-2.3,1.6,15.77,15.77,0,0,1-2.3,1.1l-1.5-1.5a13,13,0,0,0,3-1.3,10.56,10.56,0,0,0,2.6-2,11,11,0,0,0,1.9-2.5,5.92,5.92,0,0,0,.7-2.9v-1.9h2.1v1.9Z"/><path class="cls-2" d="M67.5,123.4h9.8v1.8H68.9v5.1h8V132h-8v5.3h2.4a17,17,0,0,0,2.2-.1,16.41,16.41,0,0,0,2.3-.2c.8-.1,1.5-.1,2.2-.2s1.3-.2,1.8-.3v1.7c-.7.1-1.5.3-2.3.4l-2.7.3c-.9.1-1.9.1-2.8.2a22.53,22.53,0,0,1-2.6,0H67.5c-.2,0-.3,0-.4-.1s-.1-.2-.1-.4V124c0-.2,0-.3.1-.4A.52.52,0,0,1,67.5,123.4Zm13.4,21.1V122.3h2v7.9h3.3V132H82.9v12.5Z"/><path class="cls-2" d="M103.3,124c.2,0,.3,0,.4.1s.1.2.1.4c-.1,1.3-.2,2.6-.3,4s-.3,2.7-.5,4-.5,2.6-.7,3.8a26.15,26.15,0,0,1-.9,3.3h5v1.7H86v-1.7H99.4q.45-1.5.9-3.3c.3-1.2.5-2.5.8-3.8s.4-2.5.6-3.7a18.88,18.88,0,0,0,.2-3.2H88.4V124Z"/><path class="cls-2" d="M108.7,127.8h5.4v-3h-5.9v-1.7h7.3c.2,0,.3,0,.4.1s.1.2.1.4v5.1c0,.2,0,.3-.1.4s-.2.1-.4.1h-5.4v3.1h1.5c1.5,0,2.7-.1,3.8-.2a16.44,16.44,0,0,0,2.2-.3v1.6c-.5.1-1.4.2-2.7.4a37.09,37.09,0,0,1-5.1.2h-1.1c-.2,0-.3,0-.4-.1s-.1-.2-.1-.4v-5.3c0-.2,0-.3.1-.4Zm2.5,8.5h13.7c.2,0,.3,0,.4.1s.1.2.1.4v6.9c0,.2,0,.3-.1.4s-.2.1-.4.1H111.2c-.2,0-.3,0-.4-.1s-.1-.2-.1-.4v-6.9c0-.2,0-.3.1-.4S111,136.3,111.2,136.3Zm1.4,6.3h10.8V138H112.6Zm7.9-19.9v4.5h2.9v-4.8h1.9v12.8h-1.9V129h-2.9v6.2h-1.9V122.8h1.9Z"/><polygon class="cls-3" points="230.2 0 155.2 0 117.7 65 155.2 130 230.2 130 267.7 65 230.2 0"/><path class="cls-2" d="M174.3,70.3V56.2c0-.2,0-.3.1-.4s.2-.1.4-.1h9.5v1.7h-8V69.2l4-.1a9.15,9.15,0,0,0,1.6-.1c.6-.1,1.2-.1,1.8-.2l1.8-.3c.6-.1,1.1-.2,1.6-.3v1.7c-.5.1-1.2.3-1.9.4l-2.2.3c-.8.1-1.5.1-2.3.2s-1.5.1-2.2.1h-3.8c-.2,0-.3,0-.4-.1Zm15.8-8.2h3.3v1.8h-3.3V76.6h-2V54.4h2Z"/><path class="cls-2" d="M213.5,66.3H193.2V64.6h20.3Zm-17.9-7.7a3.72,3.72,0,0,1,2-3.2,14.62,14.62,0,0,1,11.6,0,3.56,3.56,0,0,1,0,6.4,11.15,11.15,0,0,1-5.8,1.2,11.4,11.4,0,0,1-5.8-1.2A3.6,3.6,0,0,1,195.6,58.6Zm.9,10.1h13.8c.2,0,.3,0,.4.1s.1.2.1.4v6.5c0,.2,0,.3-.1.4s-.2.1-.4.1H196.5c-.2,0-.3,0-.4-.1s-.1-.2-.1-.4V69.2c0-.2,0-.3.1-.4A1,1,0,0,1,196.5,68.7Zm12.6-10.1a2.27,2.27,0,0,0-1.6-2.1,9.32,9.32,0,0,0-4.1-.8,9.45,9.45,0,0,0-4.1.7,2.34,2.34,0,0,0-1.5,2.2,2.13,2.13,0,0,0,1.5,2.1,11.4,11.4,0,0,0,4.2.7,9.45,9.45,0,0,0,4.1-.7A2.26,2.26,0,0,0,209.1,58.6ZM197.9,74.7h10.9V70.4H197.9Z"/><polygon class="cls-1" points="347.9 68 272.9 68 235.4 133 272.9 198 347.9 198 385.4 133 347.9 68"/><path class="cls-2" d="M288,131c-.6.1-1.2.2-1.9.3s-1.3.1-2,.1h-3v-1.6h5.7a5.66,5.66,0,0,0,1.8-.3c.2-.6.4-1.3.6-2a7.8,7.8,0,0,0,.3-2.2h-7.7v-1.7h9.4c.2,0,.3,0,.4.1s.1.2.1.4a16.28,16.28,0,0,1-.8,4.4,19,19,0,0,1-1.8,4.2,17.42,17.42,0,0,1-2.9,3.8,19.73,19.73,0,0,1-4.1,3.3l-1.7-1.3a23.62,23.62,0,0,0,4.4-3.2A12.11,12.11,0,0,0,288,131Zm12.9,1.7h-3.3v11.8h-2V122.3h2v8.5h3.3Z"/><path class="cls-2" d="M308.6,131c-.6.1-1.2.2-1.9.3s-1.3.1-2,.1h-3v-1.6h5.7a5.66,5.66,0,0,0,1.8-.3c.2-.6.4-1.3.6-2a7.8,7.8,0,0,0,.3-2.2h-7.7v-1.7h9.4c.2,0,.3,0,.4.1s.1.2.1.4a16.28,16.28,0,0,1-.8,4.4,19,19,0,0,1-1.8,4.2,17.42,17.42,0,0,1-2.9,3.8,19.73,19.73,0,0,1-4.1,3.3l-1.7-1.3a23.62,23.62,0,0,0,4.4-3.2A13.43,13.43,0,0,0,308.6,131Zm12.8,1.7h-3.3v11.8h-2V122.3h2v8.5h3.3Z"/><path class="cls-2" d="M330.3,134.9a8,8,0,0,1-4.8-1.9,5.45,5.45,0,0,1-1.8-4.2,7,7,0,0,1,.5-2.5,5.75,5.75,0,0,1,1.5-1.9,7,7,0,0,1,2.4-1.3,10.49,10.49,0,0,1,6.4,0,5.53,5.53,0,0,1,2.4,1.3,4.54,4.54,0,0,1,1.5,1.9,6.55,6.55,0,0,1,.5,2.5,6,6,0,0,1-.5,2.4,6.22,6.22,0,0,1-1.4,1.9,7.84,7.84,0,0,1-4.8,1.9v5h9.2v1.7H321V140h9.1v-5.1Zm1.1-1.6a7.8,7.8,0,0,0,2.2-.3,5.08,5.08,0,0,0,1.8-.9,4.07,4.07,0,0,0,1.2-1.4,4.14,4.14,0,0,0,.5-1.9,3.82,3.82,0,0,0-1.6-3.3,6.35,6.35,0,0,0-4-1.2,6.65,6.65,0,0,0-4.1,1.2,4.1,4.1,0,0,0,0,6.6,5.08,5.08,0,0,0,1.8.9A7.8,7.8,0,0,0,331.4,133.3Z"/><polygon class="cls-3" points="230 135 155.1 135 117.6 200 155.1 265 230 265 267.5 200 230 135"/><path class="cls-2" d="M164.7,205.9c-.2,0-.3,0-.4-.1s-.1-.2-.1-.4V190.5h2V204h1.5a7.6,7.6,0,0,0,1.4-.1c.5,0,1.1-.1,1.6-.1a7.72,7.72,0,0,0,1.5-.2,8.66,8.66,0,0,0,1-.2v1.8a8.38,8.38,0,0,0-1,.2c-.5.1-1,.1-1.6.2s-1.3.1-2.1.2-1.5.1-2.2.1Zm5.4-9.6h4.5v-6.5h1.9v20.7h-1.9V198.1h-4.5Zm9,15.3V189.4h2v22.2Z"/><path class="cls-2" d="M184,198.4a14.29,14.29,0,0,1,.4-3.8,7.85,7.85,0,0,1,1.2-2.6,4.28,4.28,0,0,1,1.8-1.5,5.45,5.45,0,0,1,2.2-.5,5.37,5.37,0,0,1,2.1.5,4.55,4.55,0,0,1,1.8,1.6,8.93,8.93,0,0,1,1.2,2.6,14,14,0,0,1,.4,3.7,13.52,13.52,0,0,1-.4,3.7,7.85,7.85,0,0,1-1.2,2.6,6.37,6.37,0,0,1-1.7,1.6,5.37,5.37,0,0,1-2.1.5,5.45,5.45,0,0,1-2.2-.5,4.28,4.28,0,0,1-1.8-1.5,8.93,8.93,0,0,1-1.2-2.6A14.57,14.57,0,0,1,184,198.4Zm2,0a21.12,21.12,0,0,0,.2,2.6,10.52,10.52,0,0,0,.6,2.1,5.83,5.83,0,0,0,1.1,1.5,2.2,2.2,0,0,0,1.6.5,2.46,2.46,0,0,0,1.5-.5,3.66,3.66,0,0,0,1.1-1.5,6.46,6.46,0,0,0,.6-2.1,21.12,21.12,0,0,0,.2-2.6,19.48,19.48,0,0,0-.2-2.5,10.52,10.52,0,0,0-.6-2.1,3.14,3.14,0,0,0-1.1-1.4,2.43,2.43,0,0,0-3.2,0,4.18,4.18,0,0,0-1.1,1.5,6.46,6.46,0,0,0-.6,2.1A17.72,17.72,0,0,0,186,198.4Zm15.3-9v22.2h-2V189.4Z"/><path class="cls-2" d="M205.2,205.5v-15h2v5.7h6.3v-5.7h1.9v6.6h4.4v-7.7h2v22.2h-2V198.8h-4.4v6.7c0,.2,0,.3-.1.4s-.2.1-.4.1h-9.1c-.2,0-.3,0-.4-.1S205.2,205.7,205.2,205.5Zm1.9-1.2h6.3v-6.4h-6.3Z"/><polygon class="cls-3" points="347.9 203 272.9 203 235.4 268 272.9 333 347.9 333 385.4 268 347.9 203"/><path class="cls-2" d="M307.8,258.1c.2,0,.3,0,.4.1s.1.2.1.4a19.53,19.53,0,0,1-.2,2.3c-.1.8-.2,1.7-.3,2.5l-.3,2.4a11.21,11.21,0,0,1-.4,2.1h3.6v1.7h-9.4v9.8h-2v-9.8h-9v-1.7h14.8c.1-.6.2-1.2.3-1.9l.3-2.1a14.92,14.92,0,0,0,.2-2.1c.1-.7.1-1.4.2-2H292.8v-1.7Z"/><path class="cls-2" d="M328.4,257.9c.2,0,.3,0,.4.1s.1.2.1.4a10,10,0,0,1-.2,1.6c-.1.6-.1,1.2-.2,1.8l-.3,1.8q-.15.9-.3,1.5h3.3v1.7H310.9v-1.7H326c.1-.4.2-.8.3-1.3l.3-1.5c.1-.5.1-1,.2-1.5a5.74,5.74,0,0,0,.1-1.2H313.3v-1.7Zm-14.2,15.5h12.2v-2.6H313.7v-1.6H328c.2,0,.3,0,.4.1s.1.2.1.4v4.7c0,.2,0,.3-.1.4s-.2.1-.4.1H315.8v2.7H329v1.6H314.2c-.2,0-.3,0-.4-.1s-.1-.2-.1-.4v-4.8c0-.2,0-.3.1-.4S314,273.4,314.2,273.4Z"/><polygon class="cls-3" points="112.4 203 37.4 203 0 268 37.4 333 112.4 333 149.9 268 112.4 203"/><path class="cls-2" d="M35.3,260.5v-1.7H45.4v1.7H43.6l-.1,11.3a5.28,5.28,0,0,0,1.3-.1c.4,0,.8-.1,1.2-.1v1.7l-3.4.3c-1.2.1-2.4.1-3.4.1H35V272h2.2l-.1-11.5Zm6.5,0H38.9L39,272h2.7Zm5.6,18V266.9H44.6V265h2.8v-7.3h1.9v20.7H47.4Zm4.1,1V257.3h1.9v22.2Z"/><path class="cls-2" d="M56.1,266.3a14.29,14.29,0,0,1,.4-3.8,7.85,7.85,0,0,1,1.2-2.6,4.28,4.28,0,0,1,1.8-1.5,5.45,5.45,0,0,1,2.2-.5,5.37,5.37,0,0,1,2.1.5,4.55,4.55,0,0,1,1.8,1.6,8.93,8.93,0,0,1,1.2,2.6,14,14,0,0,1,.4,3.7,13.52,13.52,0,0,1-.4,3.7,7.85,7.85,0,0,1-1.2,2.6,6.37,6.37,0,0,1-1.7,1.6,5.37,5.37,0,0,1-2.1.5,5.45,5.45,0,0,1-2.2-.5,4.28,4.28,0,0,1-1.8-1.5,8.93,8.93,0,0,1-1.2-2.6A14,14,0,0,1,56.1,266.3Zm2,0a21.12,21.12,0,0,0,.2,2.6,10.52,10.52,0,0,0,.6,2.1,5.83,5.83,0,0,0,1.1,1.5,2.2,2.2,0,0,0,1.6.5,2.46,2.46,0,0,0,1.5-.5,3.66,3.66,0,0,0,1.1-1.5,6.46,6.46,0,0,0,.6-2.1,21.12,21.12,0,0,0,.2-2.6,19.48,19.48,0,0,0-.2-2.5,10.52,10.52,0,0,0-.6-2.1,3.14,3.14,0,0,0-1.1-1.4,2.43,2.43,0,0,0-3.2,0,4.18,4.18,0,0,0-1.1,1.5,6.46,6.46,0,0,0-.6,2.1A18.48,18.48,0,0,0,58.1,266.3Zm15.3-8.9v22.2h-2V257.4Z"/><path class="cls-2" d="M95.8,276.5H75.4v-1.7H95.8Zm-9.1-16.3a5.55,5.55,0,0,0,.7,2.8,11.38,11.38,0,0,0,1.8,2.5,12.84,12.84,0,0,0,2.6,2,20.18,20.18,0,0,0,3,1.4l-1.4,1.5c-.7-.3-1.5-.6-2.3-1a16,16,0,0,1-2.3-1.6,18,18,0,0,1-2-1.9,7.55,7.55,0,0,1-1.3-2.3,7.44,7.44,0,0,1-1.4,2.2,17,17,0,0,1-1.9,1.9,18.82,18.82,0,0,1-2.3,1.6,15.77,15.77,0,0,1-2.3,1.1l-1.5-1.5a13,13,0,0,0,3-1.3,10.56,10.56,0,0,0,2.6-2,11,11,0,0,0,1.9-2.5,5.92,5.92,0,0,0,.7-2.9v-1.9h2.1v1.9Z"/><path class="cls-2" d="M116.3,270.1h-9.2v2.7H113c.2,0,.3,0,.4.1s.1.2.1.4v6.4h-2v-5.2H98.4v-1.7H105v-2.7H95.9v-1.7h20.3v1.7Zm-17.6-4.6v-7.9h1.9v2.5h11.1v-2.5h2v7.9c0,.2,0,.3-.1.4s-.2.1-.4.1H99.3c-.2,0-.3,0-.4-.1A.52.52,0,0,1,98.7,265.5Zm1.9-1.1h11.1v-2.6H100.6Z"/><polygon class="cls-1" points="230.2 270 155.2 270 117.7 335 155.2 400 230.2 400 267.7 335 230.2 270"/><path class="cls-2" d="M168,346.5v-7.6h-5.3v-1.7H183v1.7h-5.3v7.8h-2v-7.8H170v7.6Zm-3.1-16.6a4.55,4.55,0,0,1,2.1-3.8,9.78,9.78,0,0,1,5.8-1.4,10.57,10.57,0,0,1,5.8,1.4,4.31,4.31,0,0,1,2.1,3.8,4.27,4.27,0,0,1-2.1,3.7,10.57,10.57,0,0,1-5.8,1.4,11.49,11.49,0,0,1-3.3-.4,8.16,8.16,0,0,1-2.5-1,6.07,6.07,0,0,1-1.6-1.6A5,5,0,0,1,164.9,329.9Zm7.9,3.5a8.3,8.3,0,0,0,4.1-.9,2.91,2.91,0,0,0,0-5.2,8.57,8.57,0,0,0-4.1-.9,8.71,8.71,0,0,0-4.2.9,2.81,2.81,0,0,0-1.6,2.6,2.41,2.41,0,0,0,.4,1.5,4.26,4.26,0,0,0,1.2,1.1,7.51,7.51,0,0,0,1.8.7A19.42,19.42,0,0,0,172.8,333.4Z"/><path class="cls-2" d="M203.5,339.6h-5.4v7h-2v-7h-5.6v6.9h-2v-6.9h-5.4v-1.7h20.3v1.7Zm-17-14.5h14.3v1.7H187.9v2.7h12.8v1.6H187.9v2.8h13v1.6H186.4c-.2,0-.3,0-.4-.1s-.1-.2-.1-.4v-9.3c0-.2,0-.3.1-.4S186.3,325.1,186.5,325.1Z"/><path class="cls-2" d="M203.7,341.9h20.4v1.7H203.7Zm17.6-5.3c0,.2,0,.3-.1.4s-.2.1-.4.1H207.1c-.2,0-.3,0-.4-.1s-.1-.2-.1-.4V325.4h2v3.9h10.8v-3.9h2v11.2Zm-12.8-1.1h10.8V331H208.5Z"/></g></g></svg>