<svg xmlns="http://www.w3.org/2000/svg" viewBox="0 0 326.91 272"><defs><style>.cls-1{fill:#3d5ba8;}</style></defs><g id="레이어_2" data-name="레이어 2"><g id="레이어_1-2" data-name="레이어 1"><path class="cls-1" d="M170.33,272c-69.7,0-130.88-26.82-155.86-68.33-17-28.32-23.25-90.23,5.14-127.19l4.64-10.41c2.35-14-4.14-20.16-4.42-20.41L9.54,35.44l11.94-7.78C23.36,26.33,29.56,22,41.2,22a51.55,51.55,0,0,1,7.07.5C65.15,7.55,87,0,113.14,0c48.39,0,77.7,34.37,108.72,70.76,24.87,29.17,50.58,59.33,87.35,71.84l17.7,5.21L320.14,166a182.18,182.18,0,0,1-26.33,47.8C264.13,251.86,221.43,272,170.33,272ZM25.83,37.12l1.09,1.08c1.72,1.56,10.87,11.06,7.36,30.31l-.11.61L28.5,81.82l-.39.5c-25.74,33-20,90.73-4.82,116,23.16,38.48,80.88,63.34,147,63.34,47.81,0,87.7-18.76,115.36-54.26a172,172,0,0,0,24.81-45.08l2.9-7.79-7.4-2.18C266.49,139,239.82,107.7,214,77.45,184.59,42.91,156.78,10.3,113.14,10.3c-24.46,0-44.55,7.19-59.71,21.37l-1.88,1.77L49,33a45.13,45.13,0,0,0-7.81-.74c-8.37,0-12.56,3-13.93,3.94Z"/><path class="cls-1" d="M106.81,35a7.83,7.83,0,0,0-1.7-.88c-3.85-1.43-8.59.34-11.25,4.22a11.17,11.17,0,0,0-2,5.38,9.73,9.73,0,0,0,0,1.87,8.16,8.16,0,0,0,3.44,6,7.54,7.54,0,0,0,1.69.88c3.85,1.43,8.58-.35,11.25-4.22A10.8,10.8,0,0,0,110.24,41,8.18,8.18,0,0,0,106.81,35Z"/><path class="cls-1" d="M47.13,135.12C33,133.38,26.67,133.51,13.34,140c-17.54,8.54-11.75,13.87,8.22,7,33.86-11.57,123.87,22,123.87,22S77.73,138.87,47.13,135.12Z"/><path class="cls-1" d="M320.28,153.33s-86,28.31-106.45,16.77c-2.58-1.46-56.34-33.53-44.37-29.66,20.28,6.57,33.83,15.25,60.8,23.68C254.69,171.75,320.28,153.33,320.28,153.33Z"/></g></g></svg>