<svg xmlns="http://www.w3.org/2000/svg" viewBox="0 0 729.83 99.12"><defs><style>.cls-1{fill:#fff;}</style></defs><g id="레이어_2" data-name="레이어 2"><g id="레이어_1-2" data-name="레이어 1"><path class="cls-1" d="M53.16,92.76a21.56,21.56,0,0,1-3.72-.36,22.28,22.28,0,0,1-4-1.08,12.35,12.35,0,0,1-3.3-1.8,5.28,5.28,0,0,1-1.86-2.64L28.2,43.08l-5.52,54H0L10.08,12.24a11.63,11.63,0,0,1,1.5-4.92,13.69,13.69,0,0,1,3.06-3.66,14.45,14.45,0,0,1,3.9-2.34A16.25,16.25,0,0,1,22.68.24,23.1,23.1,0,0,1,27.3.48,14.9,14.9,0,0,1,32,2,14.17,14.17,0,0,1,36,5.1a12.13,12.13,0,0,1,2.64,5L53.16,65l14.52-55a12.54,12.54,0,0,1,2.58-5,13.14,13.14,0,0,1,4-3.12A15.59,15.59,0,0,1,79,.48,23.1,23.1,0,0,1,83.64.24a16.25,16.25,0,0,1,4.14,1.08,14.45,14.45,0,0,1,3.9,2.34,13.69,13.69,0,0,1,3.06,3.66,11.63,11.63,0,0,1,1.5,4.92l10.08,84.84H83.64l-5.4-54.36L66,86.88a5.28,5.28,0,0,1-1.86,2.64,12.35,12.35,0,0,1-3.3,1.8,22.28,22.28,0,0,1-4,1.08A21.56,21.56,0,0,1,53.16,92.76Z"/><path class="cls-1" d="M138.36,10a13.45,13.45,0,0,1,6.18-7.5A18.7,18.7,0,0,1,153.84,0a17.1,17.1,0,0,1,8.82,2.52A13.33,13.33,0,0,1,168.6,10l31.32,87.12h-26.4L168.84,82.2H138l-4.56,14.88H107.52Zm5.88,52H162.6L153.48,32Z"/><path class="cls-1" d="M280.2,33.24a27.78,27.78,0,0,1-4,15.06,32.91,32.91,0,0,1-10.5,10.5l22.8,38.28H261.36l-18-32.28H228V97.08H203.4V19.44a36.64,36.64,0,0,1,.9-8.76,12.91,12.91,0,0,1,3.06-5.88,12.38,12.38,0,0,1,5.76-3.3,33.59,33.59,0,0,1,9-1H244.2a52.94,52.94,0,0,1,14.4,1.86A31.29,31.29,0,0,1,270,8.1a26.81,26.81,0,0,1,7.5,9.78,33.11,33.11,0,0,1,2.7,13.92ZM228,44.52h15.6q6.12,0,9.18-3.36a11.38,11.38,0,0,0,3.06-7.92V32.4a11.38,11.38,0,0,0-3.06-7.92q-3.06-3.36-9.18-3.36H231.48a4.2,4.2,0,0,0-2.76.66q-.72.66-.72,2.82Z"/><path class="cls-1" d="M289.92,12.12a12.4,12.4,0,0,1,1-5.22,11.83,11.83,0,0,1,2.7-3.78A11.25,11.25,0,0,1,297.47.78a13.72,13.72,0,0,1,9.12,0,11.06,11.06,0,0,1,3.84,2.34,11.83,11.83,0,0,1,2.7,3.78,12.4,12.4,0,0,1,1,5.22v27.6L342.35,5.16a13.67,13.67,0,0,1,4-3.36A14,14,0,0,1,350.93.24a13.21,13.21,0,0,1,4.69.12A11.6,11.6,0,0,1,359.75,2a11.36,11.36,0,0,1,3.37,3.36,11.22,11.22,0,0,1,1.67,4.38,11.72,11.72,0,0,1-.24,4.74,9.76,9.76,0,0,1-2.39,4.32L339.47,44.16,373,97.08H345.12l-21.37-35.4-9.59,10.68V97.08H289.92Z"/><path class="cls-1" d="M399.23,37.8H432a9.34,9.34,0,0,1,4.44,1,9.18,9.18,0,0,1,3,2.52,10.25,10.25,0,0,1,1.74,3.42,13.09,13.09,0,0,1,.54,3.66,12.47,12.47,0,0,1-.54,3.6,10.3,10.3,0,0,1-1.68,3.3,8.15,8.15,0,0,1-3,2.4,10.26,10.26,0,0,1-4.5.9H399.23v14q0,2.16.72,2.82a4.2,4.2,0,0,0,2.76.66h31.56a10.26,10.26,0,0,1,4.5.9,8.15,8.15,0,0,1,3,2.4,10.2,10.2,0,0,1,1.68,3.36A13.09,13.09,0,0,1,444,86.4a13.72,13.72,0,0,1-.54,3.72,10.17,10.17,0,0,1-1.74,3.48,9.18,9.18,0,0,1-3,2.52,9.34,9.34,0,0,1-4.44,1H393.35a33.59,33.59,0,0,1-9-1,12.38,12.38,0,0,1-5.76-3.3,12.91,12.91,0,0,1-3.06-5.88,36.64,36.64,0,0,1-.9-8.76V19.44a36.64,36.64,0,0,1,.9-8.76,12.91,12.91,0,0,1,3.06-5.88,12.38,12.38,0,0,1,5.76-3.3,33.59,33.59,0,0,1,9-1h39.72a9.34,9.34,0,0,1,4.44,1,9.18,9.18,0,0,1,3,2.52,10.17,10.17,0,0,1,1.74,3.48,13.72,13.72,0,0,1,.54,3.72,13.09,13.09,0,0,1-.54,3.66,10.2,10.2,0,0,1-1.68,3.36,8.15,8.15,0,0,1-3,2.4,10.26,10.26,0,0,1-4.5.9H402.71a4.2,4.2,0,0,0-2.76.66q-.72.66-.72,2.82Z"/><path class="cls-1" d="M472.67,97.08V21.72H454.31a9.71,9.71,0,0,1-4.5-1,8.43,8.43,0,0,1-3-2.52,10.8,10.8,0,0,1-1.68-3.48,13.72,13.72,0,0,1-.54-3.72,13.09,13.09,0,0,1,.54-3.66A10.2,10.2,0,0,1,446.81,4a8.15,8.15,0,0,1,3-2.4,10.26,10.26,0,0,1,4.5-.9H516a10.26,10.26,0,0,1,4.5.9,8.15,8.15,0,0,1,3,2.4,10.2,10.2,0,0,1,1.68,3.36,13.09,13.09,0,0,1,.54,3.66,13.72,13.72,0,0,1-.54,3.72,10.17,10.17,0,0,1-1.74,3.48,9.18,9.18,0,0,1-3,2.52,9.34,9.34,0,0,1-4.44,1H497.63V97.08Z"/><path class="cls-1" d="M528.83,12q0-6.24,3.72-9.12a14.76,14.76,0,0,1,17.52,0q3.72,2.88,3.72,9.12V97.08h-25Z"/><path class="cls-1" d="M620.15,59.28V11.4q0-5.52,3.3-8.46a11.34,11.34,0,0,1,15.24,0Q642,5.88,642,11.4V87a10.12,10.12,0,0,1-1.08,4.8,11.81,11.81,0,0,1-2.76,3.48,13.43,13.43,0,0,1-3.78,2.28,13.21,13.21,0,0,1-4.14,1,20,20,0,0,1-8.88-1.38,13.07,13.07,0,0,1-6.84-5.58L585.23,39.72V97.08H563.39V12.24a10.85,10.85,0,0,1,1.08-4.92,11.65,11.65,0,0,1,2.82-3.66,13.32,13.32,0,0,1,3.9-2.34,17.11,17.11,0,0,1,4.2-1.08,17.81,17.81,0,0,1,8.76,1.32,13.4,13.4,0,0,1,6.72,5.64Z"/><path class="cls-1" d="M729.83,65a36.92,36.92,0,0,1-3,15.6,28.42,28.42,0,0,1-8.16,10.56,33.86,33.86,0,0,1-12,6,53.5,53.5,0,0,1-14.52,1.92,59.69,59.69,0,0,1-15.3-2,38,38,0,0,1-13.32-6.36,32.79,32.79,0,0,1-9.42-11.34q-3.6-7-3.6-16.8V36.48q0-10,3.6-16.92a31.94,31.94,0,0,1,9.48-11.28A39.24,39.24,0,0,1,677,2a60.85,60.85,0,0,1,15.48-2,63.4,63.4,0,0,1,15.12,1.68q6.84,1.68,10.32,4.2a13.81,13.81,0,0,1,5.16,6.54,8.86,8.86,0,0,1-.72,7.74,10.27,10.27,0,0,1-4.8,4.44,10.12,10.12,0,0,1-6.12.72,14,14,0,0,1-3.66-1.14q-1.62-.78-2.94-1.38-4.2-1.56-12.36-1.56a20,20,0,0,0-6.24,1,18.21,18.21,0,0,0-5.64,3,14.77,14.77,0,0,0-4.08,5.1,15.89,15.89,0,0,0-1.56,7.2v24a16.91,16.91,0,0,0,1.44,7.26,14,14,0,0,0,3.9,5,17.61,17.61,0,0,0,5.52,3,19.79,19.79,0,0,0,6.3,1A22.39,22.39,0,0,0,698,77.1a16.16,16.16,0,0,0,5-2.28A11.47,11.47,0,0,0,706.55,71a11.18,11.18,0,0,0,1.32-5.58V64a3.22,3.22,0,0,0-.54-2.28,3.55,3.55,0,0,0-2.22-.48h-4a9.87,9.87,0,0,1-4.44-.9A8.57,8.57,0,0,1,693.77,58a9.62,9.62,0,0,1-1.68-3.24,12.47,12.47,0,0,1-.54-3.6,13.09,13.09,0,0,1,.54-3.66,10.2,10.2,0,0,1,1.68-3.36,8.71,8.71,0,0,1,3-2.46,9.43,9.43,0,0,1,4.38-1h10.92a35.73,35.73,0,0,1,8.76.9,11.12,11.12,0,0,1,5.46,3,11.63,11.63,0,0,1,2.76,5.52,38.79,38.79,0,0,1,.78,8.46Z"/></g></g></svg>