<svg xmlns="http://www.w3.org/2000/svg" viewBox="0 0 50 50"><defs><style>.cls-1{fill:#fff;}</style></defs><g id="레이어_2" data-name="레이어 2"><g id="레이어_1-2" data-name="레이어 1"><path class="cls-1" d="M31.68,25,49.52,6.42a1.64,1.64,0,0,0-.24-2.52L44.6.42a2.24,2.24,0,0,0-2.88.22L25,18.05,8.28.64A2.24,2.24,0,0,0,5.4.42L.72,3.9A1.64,1.64,0,0,0,.48,6.42L18.32,25,.48,43.58A1.64,1.64,0,0,0,.72,46.1L5.4,49.58a2.24,2.24,0,0,0,2.88-.22L25,32,41.72,49.36a2.24,2.24,0,0,0,2.88.22l4.68-3.48a1.64,1.64,0,0,0,.24-2.52Z"/></g></g></svg>