<svg xmlns="http://www.w3.org/2000/svg" viewBox="0 0 276.16 296.6"><defs><style>.cls-1{opacity:0.1;}.cls-2{fill:#3d5ba9;}</style></defs><g id="레이어_2" data-name="레이어 2"><g id="레이어_1-2" data-name="레이어 1"><g class="cls-1"><path class="cls-2" d="M6.8,4.32H36.08a2.36,2.36,0,0,1,1.72.52,2.36,2.36,0,0,1,.52,1.72V52.08a2.34,2.34,0,0,1-.52,1.76,2.51,2.51,0,0,1-1.72.48H6.72A2.33,2.33,0,0,1,5,53.84a2.67,2.67,0,0,1-.44-1.76V6.56A2.51,2.51,0,0,1,5,4.84,2.34,2.34,0,0,1,6.8,4.32ZM29.36,46.56V11.84H13.52V46.56ZM48.64,71.68V.08h9V25.76h9.76v8.08H57.6V71.68Z"/><path class="cls-2" d="M108.32,68.32V32.72h-12A56.78,56.78,0,0,1,88.84,46a61.17,61.17,0,0,1-11,11.12L70,51.92a52,52,0,0,0,10.68-9.48A48.64,48.64,0,0,0,88,30.88a45.53,45.53,0,0,1-4.84.56c-1.68.11-3.27.16-4.76.16H71.84V24.4H81c1.76,0,3.41,0,5-.08a24.18,24.18,0,0,0,4.48-.56,47.83,47.83,0,0,0,1.12-5.6c.27-1.92.45-3.89.56-5.92H73.84V4.8H99a2.36,2.36,0,0,1,1.72.52A2.36,2.36,0,0,1,101.2,7q-.17,4.73-.72,9.12a70.3,70.3,0,0,1-1.6,8.48h9.44V1.28h8.8v67Zm14.24,3.36V.08h8.72v71.6Z"/><path class="cls-2" d="M146.4,2.48h33.84V9.92H153.12v8.16h26.32v6.8H153.12v8.4l13.28-.08c1.55,0,3.28-.05,5.2-.16s3.84-.24,5.76-.4,3.79-.33,5.6-.52,3.41-.41,4.8-.68v7.2q-3.36.48-8,.92t-9.92.68q-3.12.16-7,.28t-7.44.12c-2.35,0-4.37.08-6.08.08h-3a2.33,2.33,0,0,1-1.72-.48,2.67,2.67,0,0,1-.44-1.76V4.72A2.51,2.51,0,0,1,144.64,3,2.34,2.34,0,0,1,146.4,2.48ZM174.72,45.2q12.48,0,19,3.92T200.32,59q0,6-6.56,9.92t-19,3.92q-12.48,0-19-3.92T149.12,59q0-6,6.56-9.92T174.72,45.2Zm0,6.88a30.55,30.55,0,0,0-11.48,1.8q-4.37,1.8-4.36,5.16c0,2.29,1.45,4,4.36,5.2A31.25,31.25,0,0,0,174.72,66q7.2,0,11.48-1.72c2.85-1.15,4.28-2.89,4.28-5.24s-1.43-4-4.28-5.2A30.85,30.85,0,0,0,174.72,52.08ZM190.8,45V.08h9.12V45Z"/><path class="cls-2" d="M209.68,37.84H274.8v4.24H209.68ZM242.16,0a41.25,41.25,0,0,1,10,1.12,28.2,28.2,0,0,1,7.72,3,15.89,15.89,0,0,1,5,4.76,11,11,0,0,1,1.8,6.12,11.11,11.11,0,0,1-1.8,6.2,15.89,15.89,0,0,1-5,4.76,25.1,25.1,0,0,1-7.72,3,44.66,44.66,0,0,1-10,1,45,45,0,0,1-10-1,25,25,0,0,1-7.72-3,14.71,14.71,0,0,1-5-4.76,11.46,11.46,0,0,1-1.72-6.2,11.31,11.31,0,0,1,1.72-6.12,14.71,14.71,0,0,1,5-4.76,28.07,28.07,0,0,1,7.72-3A41.58,41.58,0,0,1,242.16,0ZM220.24,70a1.24,1.24,0,0,1-1.52-1.52V48.72h4.72v17h45V70ZM242.16,4a31.25,31.25,0,0,0-7.8.92,23.26,23.26,0,0,0-6.12,2.44,12,12,0,0,0-4,3.56,7.51,7.51,0,0,0-1.4,4.36,7.32,7.32,0,0,0,1.4,4.32,11.57,11.57,0,0,0,4,3.44,23.26,23.26,0,0,0,6.12,2.28,33.92,33.92,0,0,0,7.8.84,33.64,33.64,0,0,0,7.72-.84A23.53,23.53,0,0,0,256,23a12.66,12.66,0,0,0,4-3.44,7.15,7.15,0,0,0,1.48-4.32A7.33,7.33,0,0,0,260,10.92a13.2,13.2,0,0,0-4-3.56,23.54,23.54,0,0,0-6.12-2.44A31,31,0,0,0,242.16,4Z"/><path class="cls-2" d="M20.08,77.24q7.44,0,12.16,6.72T37,104.12q0,13.51-4.72,20.2T20.08,131q-7.44,0-12.16-6.68T3.2,104.12Q3.2,90.68,7.92,84T20.08,77.24Zm0,4.4q-5.52,0-8.72,6.12t-3.2,16.36q0,10.32,3.2,16.4t8.72,6.08q5.52,0,8.72-6.08t3.2-16.4q-.08-10.25-3.24-16.36T20.08,81.64Zm30.56-6.16h5.28V101H67v4.48h-11V146.6H50.64Z"/><path class="cls-2" d="M70.16,112h65.12v4.16H70.16Zm54-34.88a1.48,1.48,0,0,1,1.16.4,1.62,1.62,0,0,1,.36,1.12V91.32a1.3,1.3,0,0,1-1.52,1.52h-40v7.84h43.28v4.08H80.72a1.3,1.3,0,0,1-1.52-1.52v-13a1.6,1.6,0,0,1,.32-1.08,1.56,1.56,0,0,1,1.2-.36h39.84v-7.6H79.2V77.16Zm.64,68.56H80.72a1.24,1.24,0,0,1-1.52-1.52v-19a1.75,1.75,0,0,1,.32-1.16,1.56,1.56,0,0,1,1.2-.36H124.8a1.3,1.3,0,0,1,1.52,1.52v19a1.56,1.56,0,0,1-.36,1.2A1.75,1.75,0,0,1,124.8,145.72ZM84.08,127.8v13.84h37.2V127.8Z"/><path class="cls-2" d="M146.64,127.72a1.56,1.56,0,0,1-1.2-.36,1.75,1.75,0,0,1-.32-1.16V81.32a1.78,1.78,0,0,1,.32-1.12,1.45,1.45,0,0,1,1.2-.4h30.64v4.32H150.16v39l9-.08q4.32,0,8.68-.36t8.2-.84q3.76-.48,6.72-1c2-.35,3.44-.63,4.4-.84v4.56c-1.71.32-3.69.67-6,1s-4.63.72-7.08,1-5,.57-7.4.76-4.63.28-6.6.28Zm43.52-52.24h5.28v25h11v4.48h-11V146.6h-5.28Z"/><path class="cls-2" d="M209.68,111.56H274.8v4.24H245.6v16.64h-5V115.8h-31ZM242.16,75a45.9,45.9,0,0,1,10,1,27.26,27.26,0,0,1,7.72,2.84,15.71,15.71,0,0,1,5,4.56,10.4,10.4,0,0,1,1.8,6,10.74,10.74,0,0,1-1.8,6.12,14.75,14.75,0,0,1-5,4.52,26.38,26.38,0,0,1-7.72,2.8,48,48,0,0,1-10,1q-11,0-17.76-3.8t-6.72-10.6a10.72,10.72,0,0,1,1.72-6,14.63,14.63,0,0,1,5-4.56A27.26,27.26,0,0,1,232.12,76,46.33,46.33,0,0,1,242.16,75Zm-21.92,70a1.24,1.24,0,0,1-1.52-1.52V124.36h4.72v16.32h45V145Zm21.92-66a35.75,35.75,0,0,0-7.8.8A22.5,22.5,0,0,0,228.24,82a11,11,0,0,0-4,3.32,7.23,7.23,0,0,0-1.4,4.28,6.87,6.87,0,0,0,1.4,4.2,11.5,11.5,0,0,0,4,3.24,22.53,22.53,0,0,0,6.12,2.08,39.35,39.35,0,0,0,7.8.72,39,39,0,0,0,7.72-.72A22.53,22.53,0,0,0,256,97.08a12.59,12.59,0,0,0,4-3.24,6.59,6.59,0,0,0,1.48-4.2A6.93,6.93,0,0,0,260,85.36,12,12,0,0,0,256,82a22.5,22.5,0,0,0-6.12-2.24A35.39,35.39,0,0,0,242.16,79Z"/><path class="cls-2" d="M34.24,167.2v13.52H66v7.68H0v-7.68H25V167.2ZM33,193.76q12.88,0,19.72,4t6.84,10.64q0,6.72-6.8,10.68T33,223q-13,0-19.8-4T6.4,208.4q0-6.65,6.8-10.64T33,193.76ZM56.8,151.92A1.9,1.9,0,0,1,59,154.16q-.16,3.53-.52,7.44t-.76,7.2q-.4,3.36-1.12,7.6h-8.8q.88-4.32,1.32-8.4c.29-2.72.47-5.52.52-8.4H7v-7.68ZM33,200.8q-7.6,0-12,1.88t-4.4,5.64q0,4.08,4.4,5.92t12,1.84q7.51,0,12-1.84t4.44-5.92q0-3.76-4.44-5.64T33,200.8Z"/><path class="cls-2" d="M101.44,193.6q-1.92,6.72-5.52,9.92a12.26,12.26,0,0,1-8.4,3.2q-7,0-11.28-6.56T71.92,179.6q0-14,4.32-20.6t11.28-6.6a12.27,12.27,0,0,1,8.28,3.08q3.56,3.08,5.48,9.48h8.24V151.28h8.8v67h-8.8V193.6Zm-21-14.08a65.67,65.67,0,0,0,.4,7.56,28.87,28.87,0,0,0,1.28,6,11.45,11.45,0,0,0,2.2,3.92,4.14,4.14,0,0,0,3.16,1.44A4.07,4.07,0,0,0,90.6,197a11.45,11.45,0,0,0,2.2-3.92,30.05,30.05,0,0,0,1.32-6,61.09,61.09,0,0,0,.44-7.56,60.35,60.35,0,0,0-.44-7.48,30.05,30.05,0,0,0-1.32-6,12,12,0,0,0-2.2-4,4,4,0,0,0-3.08-1.48A4.08,4.08,0,0,0,84.36,162a12,12,0,0,0-2.2,4,28.87,28.87,0,0,0-1.28,6A64.86,64.86,0,0,0,80.48,179.52Zm22.56.08c0,1,0,2-.08,2.92s-.11,1.83-.16,2.68h6.72V173.28H102.8c0,1,.11,2,.16,3.08S103,178.48,103,179.6Zm20.08,42.08v-71.6h8.72v71.6Z"/><path class="cls-2" d="M177,154.16a1.9,1.9,0,0,1,2.24,2.24,68.18,68.18,0,0,1-8.28,29.68Q163.6,199.21,149,208.32l-7.6-6q13-7,19.88-17.12a46.19,46.19,0,0,0,7.8-23.36H145.36v-7.68Zm23.52-4.08v71.6h-9v-71.6Z"/><path class="cls-2" d="M275.28,185.36H247v6.48H264.8a1.9,1.9,0,0,1,2.24,2.24v13.28a2.34,2.34,0,0,1-.52,1.76,2.51,2.51,0,0,1-1.72.48H227.68v4.88h40.88v6.72H219.68a1.84,1.84,0,0,1-2.24-2.24V205.68a2.51,2.51,0,0,1,.48-1.72,2.34,2.34,0,0,1,1.76-.52H256.8v-4.8H217.44v-6.8H237.6v-6.48H209.28v-7h66Zm-63-16.64a89,89,0,0,0,9.88-2.36,33.43,33.43,0,0,0,8-3.48,17.43,17.43,0,0,0,5.32-4.72,10.36,10.36,0,0,0,2-6.24v-2h9.92v2a9.6,9.6,0,0,0,2,6.24A20.84,20.84,0,0,0,254.8,163a37,37,0,0,0,8,3.52,65.76,65.76,0,0,0,9.4,2.24l-5.28,6.4a65.34,65.34,0,0,1-7.2-1.92,58.3,58.3,0,0,1-7-2.8,37,37,0,0,1-6-3.64,17,17,0,0,1-4.24-4.44q-3.12,4.56-9.8,7.8a64.91,64.91,0,0,1-15,5Z"/><path class="cls-2" d="M161.12,227.24q7.44,0,12.24,6.72t4.8,20.16q0,13.51-4.8,20.2T161.12,281q-7.44,0-12.24-6.68t-4.8-20.2q0-13.44,4.8-20.16T161.12,227.24Zm0,4.4q-5.52,0-8.8,6.12T149,254.12q0,10.32,3.28,16.4t8.8,6.08q5.52,0,8.8-6.08t3.28-16.4q-.07-10.25-3.32-16.36T161.12,231.64Zm32.48-6.16h5.12v71H193.6Z"/><path class="cls-2" d="M216.4,277.72a1.56,1.56,0,0,1-1.2-.36,1.69,1.69,0,0,1-.32-1.16V231.32a1.72,1.72,0,0,1,.32-1.12,1.45,1.45,0,0,1,1.2-.4H247v4.32H219.92v39l9-.08q4.32,0,8.68-.36c2.9-.24,5.64-.52,8.2-.84s4.74-.65,6.72-1,3.44-.63,4.4-.84v4.56q-2.56.48-6,1t-7.08,1q-3.76.48-7.4.76t-6.6.28Zm43.52-52.24h5.28v25h11v4.48h-11V296.6h-5.28Z"/></g></g></g></svg>