<svg xmlns="http://www.w3.org/2000/svg" viewBox="0 0 250 90"><defs><style>.cls-1{fill:#3d5ba9;}.cls-2{fill:#fff;}</style></defs><g id="레이어_2" data-name="레이어 2"><g id="레이어_1-2" data-name="레이어 1"><rect class="cls-1" width="250" height="90" rx="10"/><path class="cls-2" d="M65.76,33.75a.94.94,0,0,0-.58.12.75.75,0,0,0-.12.51v.42c0,.3,0,.49.12.56a1.06,1.06,0,0,0,.58.1H85.54a2.27,2.27,0,0,1,1.89.72A2.6,2.6,0,0,1,88,37.81a2.35,2.35,0,0,1-.56,1.56,2.41,2.41,0,0,1-1.89.64h-9v1.61H86.83a2.39,2.39,0,0,1,2,.7,2.49,2.49,0,0,1,.56,1.61,2.38,2.38,0,0,1-.57,1.61,2.46,2.46,0,0,1-2,.67H59.11a2.42,2.42,0,0,1-1.94-.67,2.34,2.34,0,0,1-.58-1.61,2.54,2.54,0,0,1,.56-1.61,2.42,2.42,0,0,1,2-.7H69.44V40H62.65a11.17,11.17,0,0,1-2.3-.19,2.85,2.85,0,0,1-1.41-.7,2.66,2.66,0,0,1-.72-1.37A10.13,10.13,0,0,1,58,35.57v-2a10.39,10.39,0,0,1,.19-2.2A2.61,2.61,0,0,1,58.94,30a3,3,0,0,1,1.41-.72,10.35,10.35,0,0,1,2.3-.21H85.43a2.25,2.25,0,0,1,1.91.72,2.61,2.61,0,0,1,.54,1.62,2.54,2.54,0,0,1-.56,1.65,2.3,2.3,0,0,1-1.89.7ZM62,61.43a5,5,0,0,1-2-.36,3.94,3.94,0,0,1-1.38-1,4,4,0,0,1-.81-1.41A5.68,5.68,0,0,1,57.57,57v-.1a4.3,4.3,0,0,1,1-3A4.34,4.34,0,0,1,62,52.68H80.71v-.63c0-.37-.25-.56-.74-.56h-20a1.81,1.81,0,0,1-1.49-.61,2,2,0,0,1-.51-1.31,2.2,2.2,0,0,1,.47-1.33,1.8,1.8,0,0,1,1.53-.63H84a4.41,4.41,0,0,1,3.08.82,3.26,3.26,0,0,1,.84,2.43v5.43H65.76a.66.66,0,0,0-.52.16.59.59,0,0,0-.14.43.68.68,0,0,0,.14.46.66.66,0,0,0,.52.17H87a1.68,1.68,0,0,1,1.45.61,2.29,2.29,0,0,1,.44,1.35,2.46,2.46,0,0,1-.42,1.3,1.61,1.61,0,0,1-1.47.66Z"/><path class="cls-2" d="M92.5,38.54a10.76,10.76,0,0,1,.72-4.08,8,8,0,0,1,5.06-4.74,12.64,12.64,0,0,1,4-.59,12.5,12.5,0,0,1,3.92.59,8.36,8.36,0,0,1,3.08,1.79,7.88,7.88,0,0,1,2,2.95,11.18,11.18,0,0,1,.7,4.08V51.35a11.18,11.18,0,0,1-.7,4.08,7.92,7.92,0,0,1-2,3,8.34,8.34,0,0,1-3.08,1.78,12.21,12.21,0,0,1-3.92.6,12.35,12.35,0,0,1-4-.6,8,8,0,0,1-5.06-4.74,10.76,10.76,0,0,1-.72-4.08Zm6.86,13a3.72,3.72,0,0,0,.81,2.64,2.69,2.69,0,0,0,2.06.86,2.73,2.73,0,0,0,2.07-.86,3.77,3.77,0,0,0,.8-2.64V38.37a3.82,3.82,0,0,0-.8-2.65,2.72,2.72,0,0,0-2.07-.85,2.69,2.69,0,0,0-2.06.85,3.77,3.77,0,0,0-.81,2.65ZM115.46,32a3.1,3.1,0,0,1,1.05-2.54,3.72,3.72,0,0,1,2.42-.85,3.8,3.8,0,0,1,1.29.22,3.45,3.45,0,0,1,1.1.65,3,3,0,0,1,.77,1,3.38,3.38,0,0,1,.3,1.47v8.86h1.16a2.79,2.79,0,0,1,1.33.28,2.27,2.27,0,0,1,.84.72,2.78,2.78,0,0,1,.45,1,4,4,0,0,1,.14,1.07,4,4,0,0,1-.14,1.07,2.83,2.83,0,0,1-.45,1,2.45,2.45,0,0,1-.86.72,2.91,2.91,0,0,1-1.31.28h-1.16V61.43h-6.93Z"/><path class="cls-2" d="M129.67,54.22a17.4,17.4,0,0,0,3.84-.87,7.94,7.94,0,0,0,3-1.93,9,9,0,0,0,2-3.41,16.48,16.48,0,0,0,.74-5.34V36.83a.89.89,0,0,0-.23-.63.82.82,0,0,0-.65-.25h-8a2.93,2.93,0,0,1-1.35-.28,2.76,2.76,0,0,1-.9-.71,2.72,2.72,0,0,1-.53-1,3.59,3.59,0,0,1-.16-1.06,3.65,3.65,0,0,1,.16-1.07,2.64,2.64,0,0,1,1.42-1.66,3,3,0,0,1,1.36-.28h10.29c2,0,3.4.44,4.24,1.33A5.26,5.26,0,0,1,146.23,35v7.7A22.87,22.87,0,0,1,145,50.58a13.93,13.93,0,0,1-3.31,5.27,13.36,13.36,0,0,1-5,3A23.1,23.1,0,0,1,130.44,60a3.48,3.48,0,0,1-1.24-.14,2.91,2.91,0,0,1-1.84-1.52,3.13,3.13,0,0,1-.28-1.35,2.82,2.82,0,0,1,.63-1.87A3,3,0,0,1,129.67,54.22ZM150.46,32a3.1,3.1,0,0,1,1-2.54,3.72,3.72,0,0,1,2.42-.85,3.8,3.8,0,0,1,1.29.22,3.61,3.61,0,0,1,1.11.65,3.16,3.16,0,0,1,.76,1,3.38,3.38,0,0,1,.3,1.47v8.86h1.16a2.79,2.79,0,0,1,1.33.28,2.27,2.27,0,0,1,.84.72,2.78,2.78,0,0,1,.45,1,4,4,0,0,1,.14,1.07,4,4,0,0,1-.14,1.07,2.83,2.83,0,0,1-.45,1,2.45,2.45,0,0,1-.86.72,2.91,2.91,0,0,1-1.31.28h-1.16V61.43h-6.93Z"/><path class="cls-2" d="M164.78,54.22a16.63,16.63,0,0,0,4-.85,7.94,7.94,0,0,0,3.06-2,8.87,8.87,0,0,0,1.94-3.5,18.09,18.09,0,0,0,.68-5.39V36.83a.88.88,0,0,0-.22-.63.84.84,0,0,0-.65-.25h-8a3.21,3.21,0,0,1-1.38-.26,3,3,0,0,1-1-.68,2.71,2.71,0,0,1-.57-1,3.19,3.19,0,0,1-.2-1.1,3.1,3.1,0,0,1,.2-1.06,3,3,0,0,1,.57-1,2.94,2.94,0,0,1,1-.71,3.06,3.06,0,0,1,1.38-.28H176c2,0,3.39.44,4.23,1.33A5.26,5.26,0,0,1,181.47,35v7.52a22.6,22.6,0,0,1-1.24,8,14.53,14.53,0,0,1-3.41,5.39A13.34,13.34,0,0,1,171.73,59,20.67,20.67,0,0,1,165.44,60a5,5,0,0,1-1.26-.17,3.32,3.32,0,0,1-1.1-.54,2.73,2.73,0,0,1-.75-.93,2.78,2.78,0,0,1-.25-1.37,3.23,3.23,0,0,1,.72-1.89A2.89,2.89,0,0,1,164.78,54.22Zm21.63,7.21V32a3.19,3.19,0,0,1,1.05-2.59,3.88,3.88,0,0,1,4.9,0,3.19,3.19,0,0,1,1,2.59v29.4Z"/></g></g></svg>