<svg xmlns="http://www.w3.org/2000/svg" viewBox="0 0 350 80"><defs><style>.cls-1{fill:#fff;}.cls-2{fill:#3d5ba8;}</style></defs><g id="레이어_2" data-name="레이어 2"><g id="레이어_1-2" data-name="레이어 1"><rect class="cls-1" width="350" height="80" rx="9.02"/><path class="cls-2" d="M111.32,43.34H99.4A3.33,3.33,0,0,1,98,43.06a2.76,2.76,0,0,1-1-.72,3,3,0,0,1-.54-1,3.64,3.64,0,0,1-.18-1.12,3.94,3.94,0,0,1,.16-1.12,3,3,0,0,1,.54-1,2.73,2.73,0,0,1,1-.74,3.33,3.33,0,0,1,1.44-.28h31.2a3.33,3.33,0,0,1,1.44.28,2.73,2.73,0,0,1,1,.74,3,3,0,0,1,.54,1,3.94,3.94,0,0,1,.16,1.12,3.64,3.64,0,0,1-.18,1.12,3,3,0,0,1-.54,1,2.76,2.76,0,0,1-1,.72,3.33,3.33,0,0,1-1.44.28H119.36v5.4h-8Zm-7.68-8.2a11.63,11.63,0,0,1-2.92-.3,3.51,3.51,0,0,1-1.74-1A3.74,3.74,0,0,1,98.14,32a15.79,15.79,0,0,1-.22-2.92v-3a15.47,15.47,0,0,1,.22-2.88A3.91,3.91,0,0,1,99,21.32a3.3,3.3,0,0,1,1.74-1,12.25,12.25,0,0,1,2.92-.28H126.4a12.25,12.25,0,0,1,2.92.28,3.3,3.3,0,0,1,1.74,1,3.91,3.91,0,0,1,.84,1.86,15.47,15.47,0,0,1,.22,2.88v9.08ZM104,57.06a11,11,0,0,1-2.8-.3,3.67,3.67,0,0,1-1.76-1,3.76,3.76,0,0,1-.9-1.78,12.35,12.35,0,0,1-.26-2.74V48.7a3.43,3.43,0,0,1,1.24-3,4.79,4.79,0,0,1,2.92-.92,4.54,4.54,0,0,1,2.86.92,3.51,3.51,0,0,1,1.18,3v1.36c0,.45.07.7.2.74a3.91,3.91,0,0,0,.88.06h21.56a3.16,3.16,0,0,1,2.6.94,3.41,3.41,0,0,1,0,4.32,3.17,3.17,0,0,1-2.58.94Zm1.92-28.8a1.55,1.55,0,0,0,.18.86.92.92,0,0,0,.78.26h17.28V26.9a1.37,1.37,0,0,0-.2-.82,1,1,0,0,0-.8-.26H106.88a.92.92,0,0,0-.78.26,1.47,1.47,0,0,0-.18.82Z"/><path class="cls-2" d="M159.84,48.86a3.85,3.85,0,0,1,1.56.28,2.81,2.81,0,0,1,1,.76A3,3,0,0,1,163,51a4.16,4.16,0,0,1,.18,1.2,4.28,4.28,0,0,1-.18,1.24,2.73,2.73,0,0,1-.6,1.06,3.05,3.05,0,0,1-1.06.74,3.72,3.72,0,0,1-1.52.28H139.72a3.1,3.1,0,0,1-2.6-1,3.66,3.66,0,0,1-.8-2.3,4.16,4.16,0,0,1,.18-1.2,2.88,2.88,0,0,1,.6-1.08,3,3,0,0,1,1.06-.76,3.85,3.85,0,0,1,1.56-.28ZM137.28,30.3a10.57,10.57,0,0,1,.9-4.52,8.63,8.63,0,0,1,2.48-3.16,10.53,10.53,0,0,1,3.7-1.84,17.86,17.86,0,0,1,9.18,0,10.28,10.28,0,0,1,3.7,1.84,8.69,8.69,0,0,1,2.46,3.16,10.57,10.57,0,0,1,.9,4.52v3.84a10.57,10.57,0,0,1-.9,4.52,8.69,8.69,0,0,1-2.46,3.16,10.28,10.28,0,0,1-3.7,1.84,17.86,17.86,0,0,1-9.18,0,10.53,10.53,0,0,1-3.7-1.84,8.63,8.63,0,0,1-2.48-3.16,10.57,10.57,0,0,1-.9-4.52Zm7.84,4.12a3.87,3.87,0,0,0,.32,1.64,3,3,0,0,0,.86,1.1,3.53,3.53,0,0,0,1.24.62A5.29,5.29,0,0,0,149,38a5,5,0,0,0,1.4-.2,3.61,3.61,0,0,0,1.22-.62,3.22,3.22,0,0,0,.88-1.1,3.58,3.58,0,0,0,.34-1.64V30a3.58,3.58,0,0,0-.34-1.64,3.22,3.22,0,0,0-.88-1.1,3.61,3.61,0,0,0-1.22-.62,5,5,0,0,0-1.4-.2,5.29,5.29,0,0,0-1.42.2,3.53,3.53,0,0,0-1.24.62,3,3,0,0,0-.86,1.1,3.87,3.87,0,0,0-.32,1.64Zm19.52,22.64V23.46a3.63,3.63,0,0,1,1.2-3,4.42,4.42,0,0,1,5.6,0,3.63,3.63,0,0,1,1.2,3v33.6Z"/><path class="cls-2" d="M188.4,19.38a4.15,4.15,0,0,1,3,1.06,4,4,0,0,1,1.1,3v.36h5.6a2.75,2.75,0,0,1,2.24.92,3.33,3.33,0,0,1,.76,2.2,3.29,3.29,0,0,1-.78,2.2,2.76,2.76,0,0,1-2.22.92H198a11.44,11.44,0,0,1,.52,1.66,8.59,8.59,0,0,1,.2,1.9V46a12,12,0,0,1-.8,4.58,8.53,8.53,0,0,1-5.46,5.08,13.24,13.24,0,0,1-4.1.62,13,13,0,0,1-4.08-.62,8.88,8.88,0,0,1-3.26-1.88,8.78,8.78,0,0,1-2.18-3.2,12,12,0,0,1-.8-4.58V33.58a9.07,9.07,0,0,1,.68-3.56,2.76,2.76,0,0,1-2.22-.92,3.29,3.29,0,0,1-.78-2.2,3.42,3.42,0,0,1,.74-2.2,2.68,2.68,0,0,1,2.22-.92h5.56v-.36a4,4,0,0,1,1.1-3A4.15,4.15,0,0,1,188.4,19.38Zm0,30.44a2.78,2.78,0,0,0,2-.9,3.89,3.89,0,0,0,.88-2.82V33.26a3.66,3.66,0,0,0-.86-2.76,2.93,2.93,0,0,0-2.06-.8,2.88,2.88,0,0,0-2,.8,3.66,3.66,0,0,0-.86,2.76V46.1a4,4,0,0,0,.86,2.82A2.71,2.71,0,0,0,188.4,49.82Zm15.16-26.44a3.52,3.52,0,0,1,1.2-2.9,4.26,4.26,0,0,1,2.76-1,4.39,4.39,0,0,1,1.48.26,3.78,3.78,0,0,1,1.26.74,3.74,3.74,0,0,1,.88,1.2,3.85,3.85,0,0,1,.34,1.68V33.5h1.32a3.26,3.26,0,0,1,1.52.32,2.76,2.76,0,0,1,1,.82,3.38,3.38,0,0,1,.52,1.12,4.73,4.73,0,0,1,0,2.44,3.38,3.38,0,0,1-.52,1.12,2.74,2.74,0,0,1-1,.82,3.26,3.26,0,0,1-1.5.32h-1.32v16.6h-7.92Z"/><path class="cls-2" d="M219.92,48.82a18.91,18.91,0,0,0,4.58-1,8.9,8.9,0,0,0,3.5-2.26,10.13,10.13,0,0,0,2.22-4,20.81,20.81,0,0,0,.78-6.16V28.94a1,1,0,0,0-.26-.72.94.94,0,0,0-.74-.28h-9.12a3.81,3.81,0,0,1-1.58-.3,3.2,3.2,0,0,1-1.76-1.88,3.63,3.63,0,0,1-.22-1.26,3.61,3.61,0,0,1,.88-2.34,3.41,3.41,0,0,1,1.1-.82,3.65,3.65,0,0,1,1.58-.32h11.84q3.41,0,4.84,1.52A6,6,0,0,1,239,26.86v8.6a25.84,25.84,0,0,1-1.42,9.12,16.61,16.61,0,0,1-3.9,6.16,15.2,15.2,0,0,1-5.82,3.52,23.84,23.84,0,0,1-7.18,1.2,5.5,5.5,0,0,1-1.44-.2,3.54,3.54,0,0,1-1.26-.62,3,3,0,0,1-.86-1.06,3.16,3.16,0,0,1-.28-1.56,3.62,3.62,0,0,1,.82-2.16A3.26,3.26,0,0,1,219.92,48.82Zm24.72,8.24V23.46a3.63,3.63,0,0,1,1.2-3,4.42,4.42,0,0,1,5.6,0,3.63,3.63,0,0,1,1.2,3v33.6Z"/></g></g></svg>