<svg xmlns="http://www.w3.org/2000/svg" viewBox="0 0 484.65 403.25"><defs><style>.cls-1{opacity:0.1;}.cls-2{fill:#3d5ba8;}</style></defs><g id="레이어_2" data-name="레이어 2"><g id="레이어_1-2" data-name="레이어 1"><g class="cls-1"><path class="cls-2" d="M252.52,403.25c-103.33,0-194-39.76-231.07-101.3C-3.82,260-13,168.18,29.07,113.39L36,98c3.47-20.8-6.15-29.88-6.56-30.26L14.14,52.55,31.85,41c2.78-2,12-8.47,29.23-8.47a78.86,78.86,0,0,1,10.49.74C96.59,11.19,128.92,0,167.74,0c71.74,0,115.18,51,161.18,104.91,36.87,43.24,75,88,129.49,106.51l26.24,7.71-10,26.93c-10.06,26.68-23.19,50.51-39,70.86C391.58,373.4,328.27,403.25,252.52,403.25ZM38.3,55l1.61,1.6C42.47,59,56,73,50.82,101.57l-.16.9-8.4,18.83-.58.74C3.51,170.88,12,256.56,34.53,294.08c34.34,57.05,119.9,93.9,218,93.9,70.87,0,130-27.81,171-80.44,14.9-19.14,27.27-41.62,36.78-66.84l4.3-11.55-11-3.23c-58.57-19.87-98.12-66.25-136.36-111.1-43.64-51.2-84.87-99.55-149.56-99.55-36.27,0-66.06,10.66-88.52,31.69l-2.79,2.61-3.77-.67a66.6,66.6,0,0,0-11.58-1.1c-12.41,0-18.62,4.39-20.66,5.84Z"/><path class="cls-2" d="M158.34,51.89a11.5,11.5,0,0,0-2.51-1.3c-5.7-2.13-12.73.5-16.68,6.25a16.55,16.55,0,0,0-2.92,8,15.08,15.08,0,0,0,0,2.77,12.09,12.09,0,0,0,5.09,9,11.5,11.5,0,0,0,2.51,1.3c5.71,2.13,12.72-.51,16.68-6.25a16.08,16.08,0,0,0,2.9-10.75A12.1,12.1,0,0,0,158.34,51.89Z"/><path class="cls-2" d="M69.87,200.32c-21-2.57-30.33-2.38-50.1,7.25C-6.23,220.23,2.35,228.13,32,218c50.19-17.16,183.64,32.69,183.64,32.69S115.23,205.87,69.87,200.32Z"/><path class="cls-2" d="M474.82,227.32s-127.44,42-157.8,24.85c-3.83-2.16-83.54-49.71-65.78-44,30.06,9.73,50.15,22.61,90.13,35.1C377.59,254.62,474.82,227.32,474.82,227.32Z"/></g></g></g></svg>