<svg xmlns="http://www.w3.org/2000/svg" viewBox="0 0 570 310"><defs><style>.cls-1{fill:#3d5ba8;}.cls-2{fill:#fff;}.cls-3{fill:#373737;}</style></defs><g id="레이어_2" data-name="레이어 2"><g id="레이어_1-2" data-name="레이어 1"><circle class="cls-1" cx="90" cy="90" r="90"/><path class="cls-2" d="M36.4,91.6c-.2,0-.3,0-.4-.1s-.1-.2-.1-.4V85c0-.2,0-.3.1-.4s.2-.1.4-.1H48.5V80.8H35.8V79H49.9c.2,0,.3,0,.4.1s.1.2.1.4v6c0,.2,0,.3-.1.4s-.2.1-.4.1H37.7v3.9H51.1v1.6H44.2v4.1h9.2v1.7H33V95.6h9.1V91.5H36.4Z"/><path class="cls-2" d="M53.6,95.6h7.7V87.1h2v8.5H74v1.7H53.6ZM70.9,79.3c.2,0,.3,0,.4.1s.1.2.1.4c-.1,1-.1,2-.2,3.1s-.2,2.1-.3,3.2-.3,2.1-.4,3.2a23.42,23.42,0,0,1-.5,3H68c.3-1.8.7-3.7.9-5.7s.4-3.9.5-5.6H56V79.3Z"/><path class="cls-2" d="M91.9,79.5v7.9c0,.2,0,.3-.1.4s-.2.1-.4.1H82.5c-.2,0-.3,0-.4-.1s-.1-.2-.1-.4V79.5c0-.2,0-.3.1-.4s.2-.1.4-.1h8.9c.2,0,.3,0,.4.1S91.9,79.3,91.9,79.5ZM83,98.7a18.92,18.92,0,0,0,2.3-.5,10.23,10.23,0,0,0,2.1-.8,7.12,7.12,0,0,0,1.7-1.1,3.32,3.32,0,0,0,1-1.4H83.8V93.4h15v1.5H92.4a4.12,4.12,0,0,0,1,1.3,7.12,7.12,0,0,0,1.7,1.1c.7.3,1.4.6,2.2.9a20.48,20.48,0,0,0,2.4.5l-1.3,1.5a15.93,15.93,0,0,1-4.2-1.4,6.57,6.57,0,0,1-2.8-2.3,9.1,9.1,0,0,1-2.8,2.3,14.07,14.07,0,0,1-4.1,1.4Zm.8-12.4H90V80.7H83.8Zm3.7,3.6h7.4v1.6H87.5ZM98.7,78V90.4h-2V78Z"/><path class="cls-2" d="M114.6,80.6a7.08,7.08,0,0,0,.5,2.6,5.71,5.71,0,0,0,1.3,2.1,7.35,7.35,0,0,0,1.9,1.6,8.75,8.75,0,0,0,2.2,1l-1.3,1.5a10.93,10.93,0,0,1-1.5-.8,14.31,14.31,0,0,1-1.5-1.1,9.27,9.27,0,0,1-1.4-1.4,9.06,9.06,0,0,1-1.1-1.6,7.57,7.57,0,0,1-.9,1.8,6.39,6.39,0,0,1-1.3,1.5,10.1,10.1,0,0,1-1.6,1.3,15.05,15.05,0,0,1-1.7,1l-1.5-1.3a17.1,17.1,0,0,0,2.3-1.3,8.13,8.13,0,0,0,1.9-1.8,9.8,9.8,0,0,0,1.3-2.2,7.63,7.63,0,0,0,.5-2.7V78.5h2.1v2.1Zm-3.1,11.3h13.3c.2,0,.3,0,.4.1s.1.2.1.4v6.9c0,.2,0,.3-.1.4s-.2.1-.4.1H111.5c-.2,0-.3,0-.4-.1s-.1-.2-.1-.4V92.4c0-.2,0-.3.1-.4S111.3,91.9,111.5,91.9Zm1.4,6.4h10.4V93.6H112.9ZM125.3,78V90.8h-2V78Z"/><path class="cls-2" d="M130,84.9V78.1h1.9v2.1H143V78.1h2v6.8c0,.2,0,.3-.1.4s-.2.1-.4.1h-5.9v2.2h9.1v1.6H127.4V87.6h9.1V85.4h-5.9c-.2,0-.3,0-.4-.1A.52.52,0,0,1,130,84.9Zm.5,9.8h12.2V92.5H130V91h14.3c.2,0,.3,0,.4.1s.1.2.1.4v4.1c0,.2,0,.3-.1.4s-.2.1-.4.1H132.1v2.3h13.2v1.5H130.5c-.2,0-.3,0-.4-.1s-.1-.2-.1-.4V95.2c0-.2,0-.3.1-.4S130.3,94.7,130.5,94.7Zm1.4-10.8H143V81.7H131.9Z"/><circle class="cls-3" cx="188" cy="220" r="90"/><path class="cls-2" d="M154.2,216.2h1.6c.5,0,1.1-.1,1.5-.1a5.85,5.85,0,0,0,1.3-.2,6.37,6.37,0,0,0,.9-.2v1.5c-.3.1-.6.1-1.1.2s-.9.1-1.5.2-1,.1-1.5.1h-1.3v3.5h-1.9v-3.5H148v-1.5Zm-.6-1.3a5.82,5.82,0,0,1-3.3-.9,2.88,2.88,0,0,1-1.3-2.5,3,3,0,0,1,1.3-2.5,4.83,4.83,0,0,1,3.3-1,5.18,5.18,0,0,1,3.3,1,3.17,3.17,0,0,1,1.2,2.5,2.88,2.88,0,0,1-1.3,2.5A5.49,5.49,0,0,1,153.6,214.9Zm0-1.3a3.56,3.56,0,0,0,1.9-.5,1.94,1.94,0,0,0,.8-1.6,1.9,1.9,0,0,0-.8-1.5,2.88,2.88,0,0,0-1.9-.6,3.17,3.17,0,0,0-2,.6,1.8,1.8,0,0,0-.7,1.5,1.65,1.65,0,0,0,.8,1.5A2.71,2.71,0,0,0,153.6,213.6Zm12.8,15.7c0,.2,0,.3-.1.4s-.2.1-.4.1H152.3c-.2,0-.3,0-.4-.1s-.1-.2-.1-.4v-7h2v2.1h10.7v-2.1h2v7Zm-12.6-.9h10.7v-2.5H153.8Zm8.4-20v12.9h-2v-1.2h-3.9v-1.4h3.9V208.4Zm4.2-.4v13.3h-1.9V208Z"/><path class="cls-2" d="M175.6,213.3a10.8,10.8,0,0,0,.4,3.2,8.08,8.08,0,0,0,1.1,2.7,9.58,9.58,0,0,0,2,2.5,13.5,13.5,0,0,0,2.7,2c-.1.1-.3.2-.4.4s-.3.3-.4.4l-.4.4-.3.3c-.5-.4-1-.8-1.6-1.2l-1.5-1.5a14.29,14.29,0,0,1-1.4-2,16.27,16.27,0,0,1-1.1-2.3,10.2,10.2,0,0,1-.9,2.2,13.73,13.73,0,0,1-1.3,2,15.37,15.37,0,0,1-1.7,1.9,10.48,10.48,0,0,1-1.7,1.4c-.2-.2-.5-.4-.8-.7a5.5,5.5,0,0,0-.9-.7,11.33,11.33,0,0,0,2.7-2.2,10.52,10.52,0,0,0,2-2.7,16.59,16.59,0,0,0,1.2-3.1,13.42,13.42,0,0,0,.4-3.5v-4.2h2v4.7Zm9.9,16.9h-2V208h2v8.5h3.3v1.8h-3.3Z"/><path class="cls-2" d="M189.6,216.9a14.78,14.78,0,0,1,.4-3.8,7.85,7.85,0,0,1,1.2-2.6A4.28,4.28,0,0,1,193,209a5.45,5.45,0,0,1,2.2-.5,5.37,5.37,0,0,1,2.1.5,4.55,4.55,0,0,1,1.8,1.6,8.93,8.93,0,0,1,1.2,2.6,14,14,0,0,1,.4,3.7,13.52,13.52,0,0,1-.4,3.7,8.93,8.93,0,0,1-1.2,2.6,6.37,6.37,0,0,1-1.7,1.6,3.84,3.84,0,0,1-2.1.5,5.45,5.45,0,0,1-2.2-.5,4.55,4.55,0,0,1-1.8-1.6,8.93,8.93,0,0,1-1.2-2.6A12.72,12.72,0,0,1,189.6,216.9Zm2,0a21.12,21.12,0,0,0,.2,2.6,10.52,10.52,0,0,0,.6,2.1,4,4,0,0,0,1.1,1.4,2.2,2.2,0,0,0,1.6.5,2.46,2.46,0,0,0,1.5-.5,4,4,0,0,0,1.1-1.4,6.46,6.46,0,0,0,.6-2.1,21.12,21.12,0,0,0,.2-2.6,19.48,19.48,0,0,0-.2-2.5,10.52,10.52,0,0,0-.6-2.1,4.18,4.18,0,0,0-1.1-1.5,2.2,2.2,0,0,0-1.6-.5,2.77,2.77,0,0,0-1.6.5,4.18,4.18,0,0,0-1.1,1.5,6.46,6.46,0,0,0-.6,2.1C191.7,215.3,191.6,216.1,191.6,216.9Zm15.3-8.9v22.2h-2V208Z"/><path class="cls-2" d="M229.3,227.1H209v-1.7h20.4v1.7Zm-17-18.1h14.3v1.7H213.8v3.8h12.7v1.7H213.8V220h13v1.7H212.3c-.2,0-.3,0-.4-.1s-.1-.2-.1-.4V209.6c0-.2,0-.3.1-.4A.52.52,0,0,1,212.3,209Z"/><circle class="cls-1" cx="285" cy="90" r="90"/><path class="cls-2" d="M251,90a6,6,0,0,1-2.4-.5,4.63,4.63,0,0,1-1.8-1.3,6.15,6.15,0,0,1-1.2-1.9,6.81,6.81,0,0,1,0-4.6,7.61,7.61,0,0,1,1.2-1.9,5.94,5.94,0,0,1,1.8-1.3A6,6,0,0,1,251,78a4.64,4.64,0,0,1,2.1.4,6.93,6.93,0,0,1,1.7,1A6.1,6.1,0,0,1,256,81a10.66,10.66,0,0,1,.7,1.9h4.1V78h2V94.3h-2V85h-4.1a6.64,6.64,0,0,1-.6,2,4.81,4.81,0,0,1-1.2,1.6,5.44,5.44,0,0,1-1.8,1.1A4.88,4.88,0,0,1,251,90Zm0-1.8a3.49,3.49,0,0,0,2.8-1.2,4.1,4.1,0,0,0,1-2.9,4.27,4.27,0,0,0-1-2.9,3.87,3.87,0,0,0-5.6,0,4.27,4.27,0,0,0-1,2.9,4.1,4.1,0,0,0,1,2.9A3.49,3.49,0,0,0,251,88.2Zm-2,11.5c-.2,0-.3,0-.4-.1s-.1-.2-.1-.4V92.5h2V98h13v1.7Z"/><path class="cls-2" d="M268.2,88.1c-.2,0-.3,0-.4-.1s-.1-.2-.1-.4V83c0-.2,0-.3.1-.4s.2-.1.4-.1h12.1V80H267.6V78.4h14.2c.2,0,.3,0,.4.1s.1.2.1.4v4.5c0,.2,0,.3-.1.4s-.2.1-.4.1H269.6v2.5h13.2V88H276v2.5h9.2v1.6H264.9V90.5h9V88h-5.7Zm0,11.6c-.2,0-.3,0-.4-.1s-.1-.2-.1-.4V93.9h2V98h13.7v1.7Z"/><path class="cls-2" d="M303,90.2c0,.2,0,.3-.1.4s-.2.1-.4.1h-5.9v4.9h9.2v1.7H285.4V95.6h9.1V90.7h-5.8c-.2,0-.3,0-.4-.1s-.1-.2-.1-.4V78.9h2v3.9H301V78.9h2ZM290.2,89H301V84.4H290.1V89Z"/><path class="cls-2" d="M309.2,79.2h14.6v1.7H310.6v7.4H324V90h-6.9v5.7h9.2v1.7H306V95.7h9.2V90h-5.9c-.2,0-.4,0-.4-.1s-.1-.2-.1-.4V79.7c0-.2,0-.3.1-.4S309,79.2,309.2,79.2Z"/><circle class="cls-3" cx="383" cy="220" r="90"/><path class="cls-2" d="M367.4,219a13.36,13.36,0,0,1-1.8-.7,5.6,5.6,0,0,1-1.5-1,4.86,4.86,0,0,1-1.1-1.4,4.48,4.48,0,0,1-.4-2,5.45,5.45,0,0,1,.5-2.2,5.09,5.09,0,0,1,1.3-1.6,5.24,5.24,0,0,1,1.8-1,7.8,7.8,0,0,1,2.2-.3,11.24,11.24,0,0,1,2,.2,6.12,6.12,0,0,1,1.7.7,3.32,3.32,0,0,1,1.6,1.5,4.14,4.14,0,0,1,.6,2.3h-2.1a2.5,2.5,0,0,0-.4-1.3,2.36,2.36,0,0,0-.8-.9,3.7,3.7,0,0,0-1.1-.5,5.85,5.85,0,0,0-1.3-.2,4.47,4.47,0,0,0-2.8.9,2.59,2.59,0,0,0-1.1,2.3,2.73,2.73,0,0,0,.4,1.6,5.24,5.24,0,0,0,1,1.1,6,6,0,0,0,1.6.8c.6.2,1.3.5,2,.7s1.3.5,1.9.8,1.1.6,1.6.9a4.49,4.49,0,0,1,1.1,1.3,4,4,0,0,1,.4,2,6.55,6.55,0,0,1-.5,2.5,3.91,3.91,0,0,1-1.4,1.7,6.7,6.7,0,0,1-2.1,1,16.86,16.86,0,0,1-2.5.2,6.91,6.91,0,0,1-4.5-1.4,4.93,4.93,0,0,1-1.6-4h2.1a4.84,4.84,0,0,0,.3,1.8,2.44,2.44,0,0,0,.9,1.1,3.1,3.1,0,0,0,1.3.6,8.75,8.75,0,0,0,1.6.2,7.72,7.72,0,0,0,1.5-.2,5.17,5.17,0,0,0,1.3-.6,3.57,3.57,0,0,0,1-1.1,2.82,2.82,0,0,0,.4-1.5,2.9,2.9,0,0,0-.3-1.4,2.4,2.4,0,0,0-1-1,11.88,11.88,0,0,0-1.6-.8A6.48,6.48,0,0,0,367.4,219Z"/><path class="cls-2" d="M387.2,222.5l1.4,2.7V209.1h1.9v18.2c0,.2,0,.3-.1.4a.37.37,0,0,1-.3.1h-1.6a.37.37,0,0,1-.3-.1l-.2-.2-7.8-13-1.4-2.7v16.1h-1.9V209.7c0-.2,0-.3.1-.4a.37.37,0,0,1,.3-.1h1.6a.37.37,0,0,1,.3.1c.1.1.2.1.2.2Z"/><path class="cls-2" d="M397.9,219a13.36,13.36,0,0,1-1.8-.7,5.6,5.6,0,0,1-1.5-1,4.86,4.86,0,0,1-1.1-1.4,4.48,4.48,0,0,1-.4-2,5.45,5.45,0,0,1,.5-2.2,5.09,5.09,0,0,1,1.3-1.6,5.24,5.24,0,0,1,1.8-1,7.8,7.8,0,0,1,2.2-.3,11.24,11.24,0,0,1,2,.2,6.12,6.12,0,0,1,1.7.7,3.32,3.32,0,0,1,1.6,1.5,4.14,4.14,0,0,1,.6,2.3h-2.1a2.5,2.5,0,0,0-.4-1.3,2.36,2.36,0,0,0-.8-.9,3.7,3.7,0,0,0-1.1-.5,5.85,5.85,0,0,0-1.3-.2,4.47,4.47,0,0,0-2.8.9,2.59,2.59,0,0,0-1.1,2.3,2.73,2.73,0,0,0,.4,1.6,5.24,5.24,0,0,0,1,1.1,6,6,0,0,0,1.6.8c.6.2,1.3.5,2,.7s1.3.5,1.9.8,1.1.6,1.6.9a4.49,4.49,0,0,1,1.1,1.3,4,4,0,0,1,.4,2,6.55,6.55,0,0,1-.5,2.5,3.91,3.91,0,0,1-1.4,1.7,6.7,6.7,0,0,1-2.1,1,16.86,16.86,0,0,1-2.5.2,6.91,6.91,0,0,1-4.5-1.4,4.93,4.93,0,0,1-1.6-4h2.1a4.84,4.84,0,0,0,.3,1.8,2.44,2.44,0,0,0,.9,1.1,3.1,3.1,0,0,0,1.3.6,8.75,8.75,0,0,0,1.6.2,7.72,7.72,0,0,0,1.5-.2,5.17,5.17,0,0,0,1.3-.6,3.57,3.57,0,0,0,1-1.1,2.82,2.82,0,0,0,.4-1.5,2.9,2.9,0,0,0-.3-1.4,2.4,2.4,0,0,0-1-1,11.88,11.88,0,0,0-1.6-.8A7.56,7.56,0,0,0,397.9,219Z"/><circle class="cls-1" cx="480" cy="90" r="90"/><path class="cls-2" d="M469.9,91.5H449.6V89.8h8.1V86.6h2v3.2h10.2Zm-4.6-7a33.86,33.86,0,0,1-3.5.4c-1.3.1-2.5.1-3.8.1h-6.1V83.4h7.5a30.09,30.09,0,0,0,3.1-.1,28.25,28.25,0,0,0,2.9-.2,7.57,7.57,0,0,0,.1-1.5,5.28,5.28,0,0,1,.1-1.3H452.2V78.6h14.9c.2,0,.3,0,.4.1s.1.2.1.4c0,.8-.1,1.5-.1,2.3s-.1,1.6-.2,2.4-.2,1.5-.3,2.3-.2,1.4-.3,1.9h-1.9c.1-.5.2-1.1.3-1.7A14.05,14.05,0,0,1,465.3,84.5ZM452.9,99.7c-.2,0-.3,0-.4-.1s-.1-.2-.1-.4V93.6h2v4.5H468v1.7H452.9Z"/><path class="cls-2" d="M472.3,78.9h7.4v1.7h-6v3.5h5.5v1.6h-5.5v3.6h2.6a10.87,10.87,0,0,0,1.8-.1c.6,0,1.2-.1,1.8-.1a12.29,12.29,0,0,0,1.3-.2v1.7a8.92,8.92,0,0,0-1.1.2c-.5.1-1.1.1-1.8.2s-1.4.1-2.1.1h-4c-.2,0-.3,0-.4-.1s-.1-.2-.1-.4v-11c0-.2,0-.3.1-.4A.85.85,0,0,1,472.3,78.9Zm2.5,20.8c-.2,0-.3,0-.4-.1s-.1-.2-.1-.4v-6h2V98h13.3v1.7ZM480,83.6h2.7V78.4h2V94h-2V85.4H480Zm9-5.6V94.5h-1.9V78Z"/><path class="cls-2" d="M490.7,95.5h20.4v1.7H490.7Zm1-5a25.82,25.82,0,0,0,2.6-.8,11.88,11.88,0,0,0,2.5-1.3,7.93,7.93,0,0,0,1.9-1.7,6.25,6.25,0,0,0,1-2.2H493V82.7h15.8v1.8H502a4,4,0,0,0,1,2.3,8.6,8.6,0,0,0,2,1.8,19.65,19.65,0,0,0,2.5,1.3,13.57,13.57,0,0,0,2.5.7l-1.4,1.6a8.93,8.93,0,0,1-2-.6,10.6,10.6,0,0,1-2.1-1.1A8.84,8.84,0,0,1,501,87a6.23,6.23,0,0,1-1.4,1.8,13.93,13.93,0,0,1-1.9,1.5,15.45,15.45,0,0,1-2.2,1.2,7,7,0,0,1-2.2.7ZM505,80.3h-8.4V78.6H505Z"/></g></g></svg>