<svg xmlns="http://www.w3.org/2000/svg" viewBox="0 0 1200 180"><defs><style>.cls-1{fill:#373737;}.cls-2{fill:#fff;}.cls-3{fill:#3d5ba8;}</style></defs><g id="레이어_2" data-name="레이어 2"><g id="레이어_1-2" data-name="레이어 1"><polygon class="cls-1" points="300 180 34.8 180 0 0 265.2 0 300 180"/><path class="cls-2" d="M100.36,95.31A15.47,15.47,0,0,0,106,89.49a16.09,16.09,0,0,0,2-7.89V76.68h2.46V81.9a14.08,14.08,0,0,0,1.76,7.23,16.21,16.21,0,0,0,5.53,5.37L116,96.21a20.55,20.55,0,0,1-4-3.53,14.81,14.81,0,0,1-2.86-4.75A13.87,13.87,0,0,1,106.43,93a24.84,24.84,0,0,1-4.08,3.9ZM123.19,75.6v26.58H120.8V75.6Z"/><path class="cls-2" d="M140.56,78.84h-5.25v.84a7.56,7.56,0,0,0,.58,3,8.15,8.15,0,0,0,1.53,2.38,10,10,0,0,0,2.18,1.8A11.78,11.78,0,0,0,142.19,88l-1.5,1.74a15.41,15.41,0,0,1-1.71-.87,16.27,16.27,0,0,1-1.83-1.23,14.33,14.33,0,0,1-1.71-1.61,8.34,8.34,0,0,1-1.35-2,9.42,9.42,0,0,1-2.58,3.74,16.47,16.47,0,0,1-4.08,2.71L125.66,89a14.55,14.55,0,0,0,2.73-1.44,11.37,11.37,0,0,0,2.28-2,9.06,9.06,0,0,0,1.57-2.59,8.68,8.68,0,0,0,.59-3.26v-.78h-5.28v-2h13Zm-1.71,23.79a17,17,0,0,1-3.73-.38,9.66,9.66,0,0,1-2.83-1.06,5,5,0,0,1-1.83-1.69,4.14,4.14,0,0,1-.63-2.24,4,4,0,0,1,.64-2.21,5.29,5.29,0,0,1,1.84-1.69,9.92,9.92,0,0,1,2.86-1.11,16,16,0,0,1,3.68-.39,12.88,12.88,0,0,1,6.62,1.48A4.46,4.46,0,0,1,148,97.26a4.39,4.39,0,0,1-2.48,3.93A13.11,13.11,0,0,1,138.85,102.63Zm-6.5-5.37a2.39,2.39,0,0,0,.49,1.47,3.88,3.88,0,0,0,1.4,1.11,7.7,7.7,0,0,0,2,.69,12.94,12.94,0,0,0,2.56.24,13.35,13.35,0,0,0,2.62-.24,8.14,8.14,0,0,0,2.09-.69A4.32,4.32,0,0,0,145,98.75a2.32,2.32,0,0,0,.51-1.46,2.84,2.84,0,0,0-1.88-2.55,10.6,10.6,0,0,0-4.73-.93,12.94,12.94,0,0,0-2.56.24,8.33,8.33,0,0,0-2.08.69,3.83,3.83,0,0,0-1.37,1.06A2.36,2.36,0,0,0,132.35,97.26ZM150.92,83.7h-3.69v8.07h-2.31V75.6h2.31v6h3.69Z"/><path class="cls-2" d="M174.65,98.82H150.23v-2h11V90.27h2.43v6.54h11Zm-3-19.77h-7.89v.84a6.52,6.52,0,0,0,.88,3.35,10.09,10.09,0,0,0,2.3,2.68,14.78,14.78,0,0,0,3.19,2,16.92,16.92,0,0,0,3.5,1.21L172,91a17.2,17.2,0,0,1-2.7-1,18.16,18.16,0,0,1-2.76-1.6,15.52,15.52,0,0,1-2.4-2.08,8.15,8.15,0,0,1-1.62-2.48,8.65,8.65,0,0,1-1.65,2.52,14.34,14.34,0,0,1-2.34,2,19.18,19.18,0,0,1-2.73,1.54c-1,.45-1.9.85-2.82,1.19l-1.8-1.83a25.63,25.63,0,0,0,3.78-1.35,13.94,13.94,0,0,0,3.18-2,9,9,0,0,0,2.19-2.61,6.85,6.85,0,0,0,.81-3.36v-.84H153.2V77h18.45Z"/><path class="cls-2" d="M184.1,82a16.85,16.85,0,0,0,.42,3.86,11.5,11.5,0,0,0,1.29,3.25,14.33,14.33,0,0,0,2.38,3,16.3,16.3,0,0,0,3.2,2.42,5.87,5.87,0,0,0-.5.42l-.49.45-.45.46c-.14.16-.26.28-.36.38a18.09,18.09,0,0,1-1.88-1.46A19.32,19.32,0,0,1,185.9,93a18.5,18.5,0,0,1-1.71-2.34A15,15,0,0,1,182.87,88a11.63,11.63,0,0,1-1.08,2.61A20.08,20.08,0,0,1,180.17,93a19.65,19.65,0,0,1-2,2.25,14.56,14.56,0,0,1-2,1.68c-.24-.22-.56-.48-1-.79s-.77-.58-1.11-.8a17.06,17.06,0,0,0,3.24-2.59,15.63,15.63,0,0,0,2.43-3.26,15.08,15.08,0,0,0,1.41-3.7,18,18,0,0,0,.48-4.22v-5h2.46ZM196,102.21h-2.37V75.6H196V85.8h3.93v2.13H196Z"/><polygon class="cls-3" points="600 180 334.8 180 300 0 565.2 0 600 180"/><path class="cls-2" d="M413.58,98.52H389.16v-2h24.42ZM402.66,78.93a7.37,7.37,0,0,0,.83,3.35,12.18,12.18,0,0,0,2.2,3,15.94,15.94,0,0,0,3.15,2.44,15.69,15.69,0,0,0,3.66,1.64l-1.68,1.77a16,16,0,0,1-2.74-1.25,16.44,16.44,0,0,1-2.72-1.87A16.11,16.11,0,0,1,403,85.72,9.36,9.36,0,0,1,401.43,83a11.21,11.21,0,0,1-1.62,2.67A15.76,15.76,0,0,1,397.5,88a20.81,20.81,0,0,1-2.71,1.88A18.87,18.87,0,0,1,392,91.2l-1.8-1.83a17.66,17.66,0,0,0,3.59-1.54A15.05,15.05,0,0,0,397,85.47a11.56,11.56,0,0,0,2.28-3,7.55,7.55,0,0,0,.87-3.53V76.65h2.55Z"/><path class="cls-2" d="M417.78,76.86h17.16v2H419.55V83.4h15.33v2H419.55v4.5h15.66v2h-7.95v5h11v2H413.82v-2l11,0v-5h-7a.68.68,0,0,1-.49-.14.67.67,0,0,1-.14-.49V77.49a.67.67,0,0,1,.14-.49A.68.68,0,0,1,417.78,76.86Z"/><path class="cls-2" d="M441.45,95.67a.74.74,0,0,1-.49-.13.71.71,0,0,1-.14-.5V85.8a.73.73,0,0,1,.14-.5.69.69,0,0,1,.49-.13h8.94V79h-9.57V76.89H452.1a.67.67,0,0,1,.5.14.69.69,0,0,1,.13.49v9.06a.51.51,0,0,1-.63.63h-8.91v6.33h2.91c1.08,0,2.15,0,3.2-.09s2-.13,3-.21,1.8-.2,2.58-.32,1.44-.22,2-.34v2.07q-.87.18-2.13.36t-2.76.33q-1.5.15-3.21.24t-3.45.09ZM460.56,75.6v26.58h-2.37V75.6Z"/><path class="cls-2" d="M465.63,88.5a.69.69,0,0,1-.49-.13.71.71,0,0,1-.14-.5V77.31a.68.68,0,0,1,.14-.49.64.64,0,0,1,.49-.14h8.91v1.86h-7.23v3h6.63v1.8h-6.63v3.18h1.41l1.71,0q1.05,0,2.19-.12c.74,0,1.45-.09,2.12-.16s1.2-.15,1.6-.23V87.9a9.72,9.72,0,0,1-1.3.19c-.63.08-1.34.14-2.12.2s-1.63.11-2.5.15-1.66.06-2.36.06Zm3.06,7h14.46V92.76H468.06V90.84H485a.71.71,0,0,1,.5.13.73.73,0,0,1,.13.5V96.6a.69.69,0,0,1-.13.49.71.71,0,0,1-.5.14h-14.4V100h15.66v1.92H468.69a.64.64,0,0,1-.49-.14.68.68,0,0,1-.14-.49V96.12a.71.71,0,0,1,.14-.5A.74.74,0,0,1,468.69,95.49Zm6.24-14.55h3.39V76.08h2.28V89.4h-2.28V82.89h-3.39Zm10.8-5.34V89.4h-2.28V75.6Z"/><path class="cls-2" d="M490.41,90.57a.64.64,0,0,1-.49-.14.68.68,0,0,1-.14-.49V83.19a.52.52,0,0,1,.63-.63h9.18V78.63h-9.81v-2h11.49a.77.77,0,0,1,.5.13.71.71,0,0,1,.13.5v6.63a.71.71,0,0,1-.13.5.77.77,0,0,1-.5.13h-9.18v4h1.74q1.62,0,3.45-.09t3.54-.21c1.12-.1,2.15-.2,3.09-.32a20.59,20.59,0,0,0,2.22-.34v2q-.87.18-2.37.36t-3.3.33q-1.83.15-3.78.24t-3.69.09Zm1.32,7.11a4.12,4.12,0,0,1,2.39-3.57,17.51,17.51,0,0,1,13.77,0,3.88,3.88,0,0,1,0,7.15,17.63,17.63,0,0,1-13.77,0A4.1,4.1,0,0,1,491.73,97.68Zm16,0c0-1-.63-1.79-1.89-2.33a12.57,12.57,0,0,0-4.77-.79,13,13,0,0,0-4.87.78c-1.27.52-1.91,1.29-1.91,2.31s.64,1.77,1.91,2.31a12.53,12.53,0,0,0,4.87.81,12.18,12.18,0,0,0,4.77-.8C507.06,99.47,507.69,98.71,507.69,97.71Zm-.15-5.37V75.6h2.34V92.34Z"/><polygon class="cls-1" points="900 180 634.8 180 600 0 865.2 0 900 180"/><path class="cls-2" d="M713.55,91.83H689.19v-2h9.72V86h2.43v3.84h12.21Zm-5.61-8.37a34,34,0,0,1-4.17.44c-1.5.07-3,.1-4.5.1h-7.38v-2h8.94q2.07,0,3.78-.06t3.51-.27c.06-.62.11-1.22.14-1.79s0-1.08.07-1.54H692.22v-2h17.91a.71.71,0,0,1,.5.13.73.73,0,0,1,.13.5c0,.9-.09,1.83-.16,2.79s-.16,1.91-.26,2.85-.22,1.85-.34,2.72-.27,1.64-.41,2.32l-2.25,0q.18-1,.33-2.07T707.94,83.46Zm-14.79,18.18a.68.68,0,0,1-.49-.14.67.67,0,0,1-.14-.49V94.26h2.34V99.6h16.38v2Z"/><path class="cls-2" d="M716.34,76.71h8.88v2H718v4.14h6.63v1.92H718V89.1h1.47l1.71,0q1.05,0,2.19-.12c.74,0,1.45-.09,2.12-.16s1.2-.15,1.6-.23v2a9.72,9.72,0,0,1-1.3.19c-.63.07-1.34.14-2.12.2s-1.63.11-2.5.15-1.66.06-2.36.06h-2.46a.74.74,0,0,1-.49-.13.71.71,0,0,1-.14-.5V77.34a.71.71,0,0,1,.14-.5A.69.69,0,0,1,716.34,76.71Zm3,24.93a.68.68,0,0,1-.49-.14.67.67,0,0,1-.14-.49V93.84h2.37V99.6h16v2Zm6.27-19.35h3.27V76.05h2.34V94.74h-2.34V84.36h-3.27Zm10.77-6.69V95.37H734.1V75.6Z"/><path class="cls-2" d="M738.48,96.57H762.9v2H738.48Zm1.23-5.94a20,20,0,0,0,3.17-1,15.5,15.5,0,0,0,3-1.53,9.53,9.53,0,0,0,2.28-2.09,5.69,5.69,0,0,0,1.17-2.68h-8v-2.1h18.9v2.1h-8.07a5.31,5.31,0,0,0,1.17,2.78,10,10,0,0,0,2.4,2.11,15.21,15.21,0,0,0,3,1.5,18.67,18.67,0,0,0,3,.87l-1.74,2a15.54,15.54,0,0,1-2.44-.75,15.84,15.84,0,0,1-2.57-1.29,13,13,0,0,1-2.4-1.8,8.79,8.79,0,0,1-1.8-2.4,9.1,9.1,0,0,1-1.69,2.2,13.55,13.55,0,0,1-2.27,1.79,15.47,15.47,0,0,1-2.61,1.38,17.24,17.24,0,0,1-2.67.87Zm16-12.24h-10V76.32h10Z"/><path class="cls-2" d="M776.82,77.13a.71.71,0,0,1,.5.13.73.73,0,0,1,.13.5,23.14,23.14,0,0,1-1,5.91A22.1,22.1,0,0,1,774,88.83a22.89,22.89,0,0,1-3.54,4.37,24.18,24.18,0,0,1-4.5,3.4L764.07,95a20.6,20.6,0,0,0,7.49-6.47,18.41,18.41,0,0,0,3.25-9.34h-9.18V77.13ZM783,102.18V75.6h2.4v26.58Z"/><path class="cls-2" d="M797.76,81.66a9.74,9.74,0,0,1,4.65,1,2.94,2.94,0,0,1,1.77,2.6,2.74,2.74,0,0,1-1.44,2.32,8,8,0,0,1-3.69,1.16V91l2.12-.09c.75,0,1.49-.09,2.23-.15s1.44-.1,2.1-.17,1.22-.14,1.68-.22v1.89a65.78,65.78,0,0,1-7.09.58c-2.65.1-5.4.14-8.24.14h-3V91h7.65V88.71a8.1,8.1,0,0,1-3.75-1.16,2.74,2.74,0,0,1-1.44-2.32,2.94,2.94,0,0,1,1.79-2.6A9.73,9.73,0,0,1,797.76,81.66Zm-7.41-2.94H805v1.83H790.35Zm19.47,16.62a.71.71,0,0,1,.5.13.73.73,0,0,1,.13.5v6.36h-2.4v-5.1H792.51V95.34Zm-12.06-12a6.78,6.78,0,0,0-2.85.5,1.51,1.51,0,0,0-1,1.36c0,.52.35,1,1,1.31a6.59,6.59,0,0,0,2.85.52,6.68,6.68,0,0,0,2.88-.52c.7-.35,1.05-.79,1.05-1.31a1.51,1.51,0,0,0-1.05-1.36A6.86,6.86,0,0,0,797.76,83.37ZM794,75.48h7.41v1.8H794Zm16.44.12V94h-2.34V75.6Z"/><polygon class="cls-3" points="1200 180 934.8 180 900 0 1165.2 0 1200 180"/><path class="cls-2" d="M991.12,77.16h10.78a.76.76,0,0,1,.49.13.71.71,0,0,1,.14.5v17a.68.68,0,0,1-.14.49.65.65,0,0,1-.49.14H991.12a.64.64,0,0,1-.49-.14.69.69,0,0,1-.13-.49v-17a.71.71,0,0,1,.13-.5A.74.74,0,0,1,991.12,77.16Zm1.71,16.17h7.35V79.2h-7.35Zm20.83-6.12h-3.94v15h-2.39V75.6h2.39v9.45h3.94Z"/><path class="cls-2" d="M1021.07,86.16a13.89,13.89,0,0,1-2.25.36q-1.17.09-2.4.09h-1.86v-2H1018c.67,0,1.31,0,1.94-.06a11.51,11.51,0,0,0,1.76-.24,17.23,17.23,0,0,0,.55-2.41,19.64,19.64,0,0,0,.23-2.6h-7.2v-2h8.93a.75.75,0,0,1,.5.13.71.71,0,0,1,.13.5,29.13,29.13,0,0,1-.84,6,22.92,22.92,0,0,1-1.85,4.92,20.39,20.39,0,0,1-2.84,4,25.43,25.43,0,0,1-3.61,3.25l-2-1.29a20.36,20.36,0,0,0,4.42-3.84A17.72,17.72,0,0,0,1021.07,86.16Zm3.3-1h4.11V76.05h2.27V101h-2.27V87.27h-4.11Zm11.55-9.54v26.61h-2.31V75.6Z"/><path class="cls-2" d="M1045.79,88.32c.79,0,1.68,0,2.65-.06s1.94-.1,2.89-.18,1.88-.17,2.77-.27,1.63-.21,2.25-.33v1.86c-.82.18-1.76.33-2.79.46s-2.12.24-3.24.32-2.24.13-3.36.17-2.17,0-3.15,0h-3.15a.51.51,0,0,1-.63-.63V77.25a.71.71,0,0,1,.13-.5.77.77,0,0,1,.5-.13h11.91v2h-10.24v3.87h10v1.86h-10v4ZM1042,97.71a4.11,4.11,0,0,1,2.38-3.57,17.51,17.51,0,0,1,13.77,0,3.87,3.87,0,0,1,0,7.15,17.63,17.63,0,0,1-13.77,0A4.08,4.08,0,0,1,1042,97.71Zm16,0c0-1-.63-1.79-1.9-2.32a12.28,12.28,0,0,0-4.76-.8,13,13,0,0,0-4.88.78c-1.27.52-1.9,1.29-1.9,2.31s.63,1.77,1.9,2.31a14.92,14.92,0,0,0,9.64,0C1057.31,99.5,1057.94,98.74,1057.94,97.74Zm-.21-5.4V75.6h2.39V92.34Z"/><path class="cls-2" d="M1064.78,76.83h13v2h-5.25v1.65a7.54,7.54,0,0,0,.49,2.77,8.65,8.65,0,0,0,1.31,2.3,9.51,9.51,0,0,0,2.37,2.28,11.31,11.31,0,0,0,2.73,1.38q-.42.42-.87.93a8.54,8.54,0,0,0-.69.87,11.9,11.9,0,0,1-1.76-1,14,14,0,0,1-1.84-1.42,12.61,12.61,0,0,1-1.64-1.63,10.25,10.25,0,0,1-1.3-2,10.8,10.8,0,0,1-1.07,2.12,13.22,13.22,0,0,1-1.45,1.81,16.74,16.74,0,0,1-1.94,1.61,16,16,0,0,1-2.11,1.27,10.79,10.79,0,0,0-.86-.81l-1-.84a15.33,15.33,0,0,0,3-1.77,10.64,10.64,0,0,0,2.45-2.52,9.79,9.79,0,0,0,1.24-2.46,9,9,0,0,0,.47-2.94V78.84h-5.31Zm4,24.81a.71.71,0,0,1-.5-.14.67.67,0,0,1-.13-.49V93.12h2.43V99.6h15.51v2Zm14.22-26h2.34V95.1H1083V84h-5.55v-2.1H1083Z"/><path class="cls-2" d="M1089.47,82.53h9.06V78.6h-9.69v-2h11.37a.69.69,0,0,1,.49.13.73.73,0,0,1,.14.5v6.63a.52.52,0,0,1-.63.63h-9.06v4.17h2.49c1.08,0,2.17,0,3.27-.07s2.14-.13,3.12-.23,1.88-.18,2.7-.28,1.5-.23,2-.35v2q-.87.18-2.16.36c-.86.12-1.82.23-2.85.33s-2.14.15-3.29.21-2.3.09-3.46.09h-3.54a.71.71,0,0,1-.5-.14.67.67,0,0,1-.13-.49V83.16a.67.67,0,0,1,.13-.49A.71.71,0,0,1,1089.47,82.53ZM1107.8,93.6a.52.52,0,0,1,.63.63v8.13H1106V95.67h-15V93.6Zm4.29-12.51h-3.63v4.17h3.63v2h-3.63v5h-2.37V75.63h2.37v3.45h3.63Z"/></g></g></svg>