<svg xmlns="http://www.w3.org/2000/svg" viewBox="0 0 1200 280"><defs><style>.cls-1{fill:#3d5ba8;}.cls-2{fill:#fff;}.cls-3{fill:#373737;}</style></defs><g id="레이어_2" data-name="레이어 2"><g id="레이어_1-2" data-name="레이어 1"><polygon class="cls-1" points="159.2 95.87 53.07 95.87 0 187.84 53.07 279.81 159.2 279.81 212.27 187.84 159.2 95.87"/><path class="cls-2" d="M72.87,193.18a.69.69,0,0,1-.5-.14.68.68,0,0,1-.14-.49V174.64h2.4V191H76.4c.46,0,1,0,1.67-.06s1.29-.09,1.93-.15,1.23-.13,1.77-.2a11.32,11.32,0,0,0,1.17-.19v2.13a9.86,9.86,0,0,1-1.15.19l-1.94.23c-.76.08-1.58.14-2.47.19s-1.78.08-2.69.08Zm6.44-11.49h5.38v-7.8H87v24.86H84.69v-14.9H79.31ZM90.15,200V173.44h2.33V200Z"/><path class="cls-2" d="M96.05,184.18a17.78,17.78,0,0,1,.51-4.53,9.78,9.78,0,0,1,1.38-3.15,5.85,5.85,0,0,1,2.1-1.83,5.75,5.75,0,0,1,2.61-.6,5.46,5.46,0,0,1,2.52.62,5.88,5.88,0,0,1,2.1,1.87,9.62,9.62,0,0,1,1.43,3.14,19.52,19.52,0,0,1,0,9,10,10,0,0,1-1.43,3.15,5.91,5.91,0,0,1-2.08,1.87,5.45,5.45,0,0,1-2.54.62,5.69,5.69,0,0,1-2.58-.6,5.76,5.76,0,0,1-2.1-1.86,9.77,9.77,0,0,1-1.41-3.17A17.43,17.43,0,0,1,96.05,184.18Zm2.34,0a17.73,17.73,0,0,0,.26,3.07,10,10,0,0,0,.76,2.54,4.92,4.92,0,0,0,1.34,1.74,3,3,0,0,0,1.9.63,2.87,2.87,0,0,0,1.86-.63,5,5,0,0,0,1.32-1.74,10,10,0,0,0,.77-2.54,17.75,17.75,0,0,0,.25-3.07,17.37,17.37,0,0,0-.25-3,10.47,10.47,0,0,0-.77-2.55,5,5,0,0,0-1.3-1.74,2.86,2.86,0,0,0-1.88-.66,3,3,0,0,0-1.92.66,4.84,4.84,0,0,0-1.32,1.77,9.3,9.3,0,0,0-.78,2.55A18.23,18.23,0,0,0,98.39,184.18Zm18.39-10.74v26.63h-2.37V173.44Z"/><path class="cls-2" d="M121.43,192.76v-18h2.37v6.81h7.53v-6.81h2.31v7.89h5.28v-9.18h2.4V200h-2.4V184.69h-5.28v8.07a.69.69,0,0,1-.13.49.71.71,0,0,1-.5.14H122.06a.52.52,0,0,1-.63-.63Zm2.37-1.44h7.53v-7.68H123.8Z"/><polygon class="cls-3" points="323.82 0 217.69 0 164.62 91.97 217.69 183.94 323.82 183.94 376.89 91.97 323.82 0"/><path class="cls-2" d="M243.82,88a14,14,0,0,1-2.25.32c-.8,0-1.59.07-2.37.07h-3.66v-2h4.59c.84,0,1.61,0,2.32-.06a14.08,14.08,0,0,0,2.18-.3c.26-.78.48-1.58.67-2.41a19.44,19.44,0,0,0,.41-2.59h-9.24v-2h11.22a.69.69,0,0,1,.49.13.71.71,0,0,1,.14.5,26.37,26.37,0,0,1-.9,5.29,21.51,21.51,0,0,1-2.1,5,23.18,23.18,0,0,1-3.45,4.59,26.9,26.9,0,0,1-4.92,4L234.88,97a22.37,22.37,0,0,0,5.25-3.85A19,19,0,0,0,243.82,88Zm15.42,2h-3.9v14.19h-2.4V77.58h2.4V87.83h3.9Z"/><path class="cls-2" d="M268.48,88a14,14,0,0,1-2.25.32c-.8,0-1.59.07-2.37.07H260.2v-2h4.59c.84,0,1.61,0,2.32-.06a14.08,14.08,0,0,0,2.18-.3c.26-.78.48-1.58.67-2.41a19.44,19.44,0,0,0,.41-2.59h-9.24v-2h11.22a.69.69,0,0,1,.49.13.71.71,0,0,1,.14.5,26.37,26.37,0,0,1-.9,5.29,21.51,21.51,0,0,1-2.1,5,23.18,23.18,0,0,1-3.45,4.59,26.9,26.9,0,0,1-4.92,4L259.54,97a22.37,22.37,0,0,0,5.25-3.85A19,19,0,0,0,268.48,88Zm15.42,2H280v14.19h-2.4V77.58H280V87.83h3.9Z"/><path class="cls-2" d="M294.58,92.75a9.64,9.64,0,0,1-5.78-2.23,6.42,6.42,0,0,1-2.17-5,6.73,6.73,0,0,1,.64-2.94,6.52,6.52,0,0,1,1.85-2.3A8.73,8.73,0,0,1,292,78.7a12.59,12.59,0,0,1,3.86-.55,12.3,12.3,0,0,1,3.81.55,8.78,8.78,0,0,1,2.91,1.55,6.8,6.8,0,0,1,1.92,8.08,7.08,7.08,0,0,1-1.65,2.23,8.92,8.92,0,0,1-2.57,1.52,10.86,10.86,0,0,1-3.28.7v6h11v2.07H283.63V98.75h10.95Zm1.32-2a9.25,9.25,0,0,0,2.61-.36,6.79,6.79,0,0,0,2.16-1,5.32,5.32,0,0,0,1.44-1.66,4.56,4.56,0,0,0,.54-2.24,4.61,4.61,0,0,0-1.89-3.94,9.28,9.28,0,0,0-9.77,0,4.62,4.62,0,0,0-1.87,3.94,4.77,4.77,0,0,0,.51,2.24A5,5,0,0,0,291,89.39a6.39,6.39,0,0,0,2.14,1A9.78,9.78,0,0,0,295.9,90.8Z"/><polygon class="cls-3" points="653.07 0 546.93 0 493.87 91.97 546.93 183.94 653.07 183.94 706.13 91.97 653.07 0"/><path class="cls-2" d="M570,103.94V94.79h-6.42v-2h24.33v2h-6.36v9.36h-2.37V94.79H572.4v9.15ZM566.31,84a5.24,5.24,0,0,1,2.52-4.51,12.12,12.12,0,0,1,6.93-1.72,12.34,12.34,0,0,1,6.92,1.68,5.34,5.34,0,0,1,0,9,12.2,12.2,0,0,1-6.93,1.69,16.4,16.4,0,0,1-3.94-.43,9.62,9.62,0,0,1-3-1.25,5.69,5.69,0,0,1-1.87-2A5,5,0,0,1,566.31,84Zm9.45,4.2a10.09,10.09,0,0,0,4.94-1.09,3.49,3.49,0,0,0,0-6.27,11.94,11.94,0,0,0-10,0A3.44,3.44,0,0,0,568.83,84a3.14,3.14,0,0,0,.52,1.8,4.46,4.46,0,0,0,1.46,1.32A7.47,7.47,0,0,0,573,88,13.19,13.19,0,0,0,575.76,88.22Z"/><path class="cls-2" d="M612.6,95.72h-6.45v8.43h-2.37V95.72h-6.69v8.22h-2.4V95.72h-6.45V93.65H612.6ZM592.2,78.36h17.13v2H593.91v3.2h15.36v2H593.91v3.3h15.63v2H592.2a.52.52,0,0,1-.63-.63V79a.52.52,0,0,1,.63-.63Z"/><path class="cls-2" d="M612.87,98.45h24.42v2H612.87ZM634,92.15a.71.71,0,0,1-.14.5.69.69,0,0,1-.49.13H616.86a.51.51,0,0,1-.63-.63V78.69h2.37v4.64h13V78.69H634ZM618.6,90.77h13V85.34h-13Z"/><polygon class="cls-1" points="817.69 95.87 711.55 95.87 658.49 187.84 711.55 279.81 817.69 279.81 870.76 187.84 817.69 95.87"/><path class="cls-2" d="M761.37,174.4a.52.52,0,0,1,.63.63c-.06.84-.14,1.76-.24,2.75s-.21,2-.33,3-.26,2-.41,2.92-.29,1.79-.43,2.51h4.32v2H753.66V200h-2.4V188.26H740.49v-2h17.73c.14-.72.28-1.5.42-2.33s.27-1.67.39-2.53.19-1.71.28-2.55.16-1.63.2-2.37H743.34v-2Z"/><path class="cls-2" d="M786.15,174.19a.52.52,0,0,1,.63.63c-.06.6-.13,1.25-.21,1.94s-.17,1.39-.27,2.11-.21,1.42-.32,2.1-.22,1.3-.34,1.86h3.9v2H765.18v-2H783.3c.1-.48.2-1,.31-1.62s.22-1.2.32-1.8.15-1.18.22-1.74.13-1,.17-1.47H768v-2Zm-17,18.57h14.61v-3.12H768.48v-1.92h17.16a.69.69,0,0,1,.49.13.71.71,0,0,1,.14.5V194a.52.52,0,0,1-.63.63H771v3.2H786.9v1.92H769.11a.51.51,0,0,1-.63-.63v-5.75a.51.51,0,0,1,.63-.63Z"/><polygon class="cls-3" points="982.31 0 876.18 0 823.11 91.97 876.18 183.94 982.31 183.94 1035.38 91.97 982.31 0"/><path class="cls-2" d="M876.17,92.18a7.14,7.14,0,0,1-2.85-.55,6.27,6.27,0,0,1-2.19-1.55,6.78,6.78,0,0,1-1.44-2.25,7.72,7.72,0,0,1,0-5.52A7.19,7.19,0,0,1,871.13,80a6.64,6.64,0,0,1,2.19-1.53,7,7,0,0,1,2.85-.57,6.9,6.9,0,0,1,2.82.57A7,7,0,0,1,881.21,80a7.42,7.42,0,0,1,1.46,2.27,7.58,7.58,0,0,1,0,5.52,7,7,0,0,1-1.46,2.25A6.58,6.58,0,0,1,879,91.63,7.06,7.06,0,0,1,876.17,92.18Zm0-2.16a4.13,4.13,0,0,0,3.36-1.44,5.3,5.3,0,0,0,1.2-3.51,5.42,5.42,0,0,0-1.2-3.54,4.6,4.6,0,0,0-6.72,0,5.42,5.42,0,0,0-1.2,3.54,5.3,5.3,0,0,0,1.2,3.51A4.13,4.13,0,0,0,876.17,90Zm-2.43,13.59a.52.52,0,0,1-.63-.63V94.91h2.43v6.66h15.57v2ZM888,97.1V77.58h2.37V97.1Z"/><path class="cls-2" d="M917.21,100.49H892.79v-2h24.42ZM906.29,80.91a7.36,7.36,0,0,0,.83,3.34,12.18,12.18,0,0,0,2.2,3,16.37,16.37,0,0,0,3.15,2.45,16.08,16.08,0,0,0,3.66,1.63l-1.68,1.77a16.7,16.7,0,0,1-2.74-1.24A17.6,17.6,0,0,1,909,90a16.55,16.55,0,0,1-2.34-2.32A9.54,9.54,0,0,1,905.06,85a11.21,11.21,0,0,1-1.62,2.67A15.76,15.76,0,0,1,901.13,90a20.81,20.81,0,0,1-2.71,1.88,18.87,18.87,0,0,1-2.78,1.33l-1.8-1.83a17.66,17.66,0,0,0,3.59-1.54,15.05,15.05,0,0,0,3.16-2.36,11.56,11.56,0,0,0,2.28-3,7.49,7.49,0,0,0,.87-3.52V78.63h2.55Z"/><path class="cls-2" d="M919.91,78.87l11.73-.06v2.1h-10V87h9.63v2h-9.63v6.42h2.85c.8,0,1.68,0,2.63-.08s1.88-.11,2.8-.19,1.83-.17,2.67-.27,1.57-.21,2.19-.33v2c-.82.18-1.75.33-2.79.46s-2.12.24-3.24.32-2.24.14-3.36.18-2.17.06-3.15.06h-2.28a.52.52,0,0,1-.63-.63V79.5a.71.71,0,0,1,.14-.5A.69.69,0,0,1,919.91,78.87ZM936,104.21V77.58h2.4V87h4v2.19h-4v15Z"/><path class="cls-2" d="M962.9,79.68a.51.51,0,0,1,.63.63c-.06,1.54-.18,3.11-.36,4.73s-.4,3.22-.66,4.8-.55,3.1-.88,4.56-.68,2.79-1,4h5.94v2H942.11v-2h16.08c.36-1.16.72-2.48,1.07-4s.65-3,.91-4.5.51-3,.68-4.41a32.85,32.85,0,0,0,.25-3.81H944.9v-2Z"/><path class="cls-2" d="M969.32,84.17h6.42V80.6h-7v-2h8.73a.51.51,0,0,1,.63.63V85.4a.51.51,0,0,1-.63.63H971v3.69h1.8c1.74,0,3.26-.06,4.55-.19a23.06,23.06,0,0,0,2.68-.38v2a27.63,27.63,0,0,1-3.27.42q-2.37.21-6.12.21h-1.29a.69.69,0,0,1-.49-.13.71.71,0,0,1-.14-.5V84.8a.52.52,0,0,1,.63-.63Zm3,10.2h16.41a.71.71,0,0,1,.5.14.69.69,0,0,1,.13.49v8.25a.69.69,0,0,1-.13.49.71.71,0,0,1-.5.14H972.32a.52.52,0,0,1-.63-.63V95a.52.52,0,0,1,.63-.63ZM974,101.9h13V96.35H974ZM983.54,78v5.33h3.54V77.58h2.28V92.9h-2.28V85.43h-3.54V92.9h-2.28V78Z"/><polygon class="cls-1" points="1146.93 96.06 1040.8 96.06 987.73 188.03 1040.8 280 1146.93 280 1200 188.03 1146.93 96.06"/><path class="cls-2" d="M1046.5,177.41v-2h12.09v2h-2.13l-.12,13.62q.81,0,1.56-.09t1.44-.15v2c-1.28.14-2.66.24-4.13.31s-2.83.11-4.09.11h-5v-2.07h2.61l-.15-13.77Zm7.8,0h-3.48l.12,13.77,1.63,0,1.61,0Zm6.75,21.54V185h-3.33v-2.22h3.33v-8.7h2.31V199Zm4.92,1.26V173.63h2.25v26.58Z"/><path class="cls-2" d="M1071.46,184.37a17.78,17.78,0,0,1,.51-4.53,9.78,9.78,0,0,1,1.38-3.15,5.85,5.85,0,0,1,2.1-1.83,5.75,5.75,0,0,1,2.61-.6,5.46,5.46,0,0,1,2.52.62,5.88,5.88,0,0,1,2.1,1.87,9.62,9.62,0,0,1,1.42,3.14,19.16,19.16,0,0,1,0,9,10,10,0,0,1-1.42,3.15,5.94,5.94,0,0,1-2.09,1.87,5.41,5.41,0,0,1-2.53.62,5.69,5.69,0,0,1-2.58-.6,5.76,5.76,0,0,1-2.1-1.86,9.77,9.77,0,0,1-1.41-3.17A17.43,17.43,0,0,1,1071.46,184.37Zm2.34,0a17.67,17.67,0,0,0,.25,3.07,9.87,9.87,0,0,0,.77,2.54,4.9,4.9,0,0,0,1.33,1.74,3,3,0,0,0,1.91.63,2.87,2.87,0,0,0,1.86-.63,5,5,0,0,0,1.32-1.74,9.88,9.88,0,0,0,.76-2.54,17.65,17.65,0,0,0,.26-3.07,17.35,17.35,0,0,0-.26-3,10.47,10.47,0,0,0-.76-2.55,5,5,0,0,0-1.31-1.74,2.83,2.83,0,0,0-1.87-.66,3,3,0,0,0-1.92.66,4.84,4.84,0,0,0-1.32,1.77,9.3,9.3,0,0,0-.78,2.55A18.23,18.23,0,0,0,1073.8,184.37Zm18.39-10.74v26.64h-2.37V173.63Z"/><path class="cls-2" d="M1119.1,196.55h-24.42v-2h24.42ZM1108.18,177a7.36,7.36,0,0,0,.82,3.35,12.22,12.22,0,0,0,2.21,3,16.37,16.37,0,0,0,3.15,2.45,16.08,16.08,0,0,0,3.66,1.63l-1.68,1.77a17.82,17.82,0,0,1-5.46-3.12,16.55,16.55,0,0,1-2.34-2.32A9.54,9.54,0,0,1,1107,181a11.21,11.21,0,0,1-1.62,2.67A15.76,15.76,0,0,1,1103,186a19.9,19.9,0,0,1-2.72,1.87,18.88,18.88,0,0,1-2.77,1.34l-1.8-1.83a17.58,17.58,0,0,0,3.58-1.54,15.12,15.12,0,0,0,3.17-2.36,11.56,11.56,0,0,0,2.28-3,7.53,7.53,0,0,0,.87-3.53v-2.28h2.55Z"/><path class="cls-2" d="M1143.73,188.87h-11v3.21h7.11a.69.69,0,0,1,.49.13.71.71,0,0,1,.14.5v7.68H1138v-6.27h-15.72v-2h8v-3.21h-10.89v-2h24.36Zm-21.15-5.46V173.9h2.31v3h13.29v-3h2.34v9.51a.71.71,0,0,1-.14.5.69.69,0,0,1-.49.13h-16.68a.51.51,0,0,1-.63-.63Zm2.31-1.38h13.29v-3.18h-13.29Z"/><polygon class="cls-1" points="488.45 95.87 382.31 95.87 329.24 187.84 382.31 279.81 488.45 279.81 541.51 187.84 488.45 95.87"/><path class="cls-2" d="M413.19,192.55V175.63a.52.52,0,0,1,.63-.63h11.34v2h-9.6v14.1l4.83-.09a19.41,19.41,0,0,0,1.94-.11l2.11-.22,2.13-.3q1.05-.15,1.95-.33v2c-.66.16-1.4.3-2.23.43s-1.71.25-2.63.35-1.81.15-2.73.21-1.78.09-2.58.09l-4.53,0a.52.52,0,0,1-.63-.63Zm19-9.87h3.9v2.13h-3.9V200h-2.37v-26.6h2.37Z"/><path class="cls-2" d="M460.29,187.72H435.93v-2h24.36Zm-21.51-9.18a4.39,4.39,0,0,1,2.39-3.84q2.38-1.47,7-1.47t7,1.49a4.4,4.4,0,0,1,2.37,3.82,4.25,4.25,0,0,1-2.35,3.8q-2.36,1.4-7,1.39t-7-1.39A4.26,4.26,0,0,1,438.78,178.54Zm1.05,12.09h16.56a.51.51,0,0,1,.63.63v7.82a.51.51,0,0,1-.63.63H439.83a.69.69,0,0,1-.49-.13.71.71,0,0,1-.14-.5v-7.82a.71.71,0,0,1,.14-.5A.69.69,0,0,1,439.83,190.63Zm15.09-12.09a2.8,2.8,0,0,0-1.87-2.58,11.42,11.42,0,0,0-4.91-.9,11.63,11.63,0,0,0-4.95.89,2.79,2.79,0,0,0-1.86,2.59,2.66,2.66,0,0,0,1.83,2.52,15.53,15.53,0,0,0,9.9,0A2.66,2.66,0,0,0,454.92,178.54Zm-13.38,19.22h13.08v-5.18H441.54Z"/></g></g></svg>