<svg xmlns="http://www.w3.org/2000/svg" viewBox="0 0 168.56 40"><defs><style>.cls-1{fill:#3d5ba8;}</style></defs><g id="레이어_2" data-name="레이어 2"><g id="레이어_1-2" data-name="레이어 1"><path class="cls-1" d="M5.65,21.4a10.24,10.24,0,0,1-2.79-.32,3.57,3.57,0,0,1-1.71-1,3.83,3.83,0,0,1-.9-1.8A12.35,12.35,0,0,1,0,15.54V5.1A3.73,3.73,0,0,1,1,2.15a3.93,3.93,0,0,1,2.7-.92,3.76,3.76,0,0,1,2.65.92,3.8,3.8,0,0,1,1,2.95v0h4.75v0a3.83,3.83,0,0,1,1-2.95,3.79,3.79,0,0,1,2.66-.92,3.68,3.68,0,0,1,2.65.92A3.94,3.94,0,0,1,19.4,5.1V21.4ZM7.77,39.87a10.63,10.63,0,0,1-2.95-.34A4,4,0,0,1,3,38.47a4.05,4.05,0,0,1-1-1.91,12.56,12.56,0,0,1-.28-2.89V27.13A3.64,3.64,0,0,1,3,24a5,5,0,0,1,3-.93,4.75,4.75,0,0,1,2.74.76,3.39,3.39,0,0,1,1.38,2.42H29.89a3.26,3.26,0,0,1,1.45-2.44,5.2,5.2,0,0,1,2.8-.74,4.76,4.76,0,0,1,3,.93,3.68,3.68,0,0,1,1.21,3.1V39.87Zm4.37-24.33V10.91H7.39v3.61c0,.46.06.74.19.85a1.41,1.41,0,0,0,.87.17ZM29.85,34.23V31.72H10.23v1.44c0,.48.07.78.22.89a1.58,1.58,0,0,0,.93.18ZM31,14.44H28.91v7.73H21.65V3.61A3.36,3.36,0,0,1,22.74.91,3.88,3.88,0,0,1,25.31,0a3.83,3.83,0,0,1,2.52.91,3.32,3.32,0,0,1,1.08,2.7V8.07H31V3.61A3.36,3.36,0,0,1,32.08.91,3.9,3.9,0,0,1,34.65,0a4,4,0,0,1,2.57.91,3.32,3.32,0,0,1,1.12,2.7V22.17H31Z"/><path class="cls-1" d="M41.78,31.3A15.2,15.2,0,0,0,44.56,28a16.64,16.64,0,0,0,1.8-4.37,32.47,32.47,0,0,0,1-5.95c.18-2.28.28-5,.28-8.09V5.27a3.74,3.74,0,0,1,1.15-3,4.4,4.4,0,0,1,5.6,0,3.69,3.69,0,0,1,1.19,3V9.51A74.76,74.76,0,0,1,55,18.64a14.08,14.08,0,0,1,3.46,2.53A11.88,11.88,0,0,1,61,24.9a19.43,19.43,0,0,1,1.34,5.31,40.24,40.24,0,0,1,.13,7.24H54.69a23.72,23.72,0,0,0,.23-6.6,9.52,9.52,0,0,0-1.5-4.27,27.25,27.25,0,0,1-2.85,6.48,13,13,0,0,1-3.7,4,5,5,0,0,1-1.37.68,5.9,5.9,0,0,1-1.6.27,4.24,4.24,0,0,1-1.57-.25,3.39,3.39,0,0,1-2-2.28A3.77,3.77,0,0,1,40.27,34a4.45,4.45,0,0,1,.49-1.45A4.63,4.63,0,0,1,41.78,31.3Zm31.46-9H71.16V39.87H63.73V3.61A3.29,3.29,0,0,1,64.86.91,4.07,4.07,0,0,1,67.47,0,4,4,0,0,1,70,.91a3.26,3.26,0,0,1,1.13,2.7V15.37h2.08V3.61A3.28,3.28,0,0,1,74.39.91,4.14,4.14,0,0,1,77,0a4.42,4.42,0,0,1,1.4.23,3.51,3.51,0,0,1,1.21.71,3.36,3.36,0,0,1,.85,1.12,3.57,3.57,0,0,1,.32,1.55V39.87H73.24Z"/><path class="cls-1" d="M96.72,16.14V13.67a3.73,3.73,0,0,1,.37-1.74,3,3,0,0,1,1-1.14,4,4,0,0,1,1.38-.62,7,7,0,0,1,3.23,0,4,4,0,0,1,1.4.64A3.25,3.25,0,0,1,105,12a3.74,3.74,0,0,1,.36,1.72v2.47h14.78a3.33,3.33,0,0,1,2.76,1,3.69,3.69,0,0,1,0,4.64,3.35,3.35,0,0,1-2.74,1H87.55a3.38,3.38,0,0,1-2.74-1,3.73,3.73,0,0,1,0-4.64,3.33,3.33,0,0,1,2.76-1ZM93.84,40q-4.43,0-6.54-2.06a7.29,7.29,0,0,1-2.12-5.5,7.46,7.46,0,0,1,2.12-5.52q2.11-2.12,6.54-2.12h20a11.8,11.8,0,0,1,3.82.55,7.35,7.35,0,0,1,2.69,1.57A6.41,6.41,0,0,1,122,29.34a8.77,8.77,0,0,1,.53,3.1,7.33,7.33,0,0,1-2.12,5.5Q118.29,40,113.88,40ZM89.42,7.39a3.94,3.94,0,0,1-3-1A3.46,3.46,0,0,1,85.51,4a3.41,3.41,0,0,1,.9-2.36,3.89,3.89,0,0,1,3-1h26.33c2.06,0,3.53.43,4.39,1.26a4.71,4.71,0,0,1,1.3,3.54V7.05a27.36,27.36,0,0,1-.32,4.39,22.36,22.36,0,0,1-.7,3.08h-8.33a18.15,18.15,0,0,0,.64-2.52A17.07,17.07,0,0,0,113,8.92v-.6c0-.62-.35-.93-1.06-.93Zm22.33,26.54a2.78,2.78,0,0,0,1.72-.38,1.39,1.39,0,0,0,.45-1.11,1.25,1.25,0,0,0-.45-1.06,3,3,0,0,0-1.72-.34H96a3,3,0,0,0-1.72.34,1.25,1.25,0,0,0-.45,1.06,1.39,1.39,0,0,0,.45,1.11,2.8,2.8,0,0,0,1.72.38Z"/><path class="cls-1" d="M133.54,21.53a11.09,11.09,0,0,1-2.89-.32,3.76,3.76,0,0,1-1.81-1,4,4,0,0,1-.91-1.89,13.47,13.47,0,0,1-.25-2.82V4.93a3.69,3.69,0,0,1,1.19-3.08,4.48,4.48,0,0,1,2.92-1,4,4,0,0,1,2.83,1,4,4,0,0,1,1,3.08v.21h7.69V4.93a3.86,3.86,0,0,1,1.08-3.1,4.18,4.18,0,0,1,2.86-.94,4.33,4.33,0,0,1,2.91,1,3.82,3.82,0,0,1,1.13,3.08v16.6ZM137.74,40a10.89,10.89,0,0,1-3.84-.62,7.78,7.78,0,0,1-2.72-1.67,6.72,6.72,0,0,1-1.61-2.53,9.9,9.9,0,0,1,0-6.39,6.8,6.8,0,0,1,1.61-2.57,7.87,7.87,0,0,1,2.72-1.72,10.44,10.44,0,0,1,3.84-.64h18.13a10.77,10.77,0,0,1,3.8.62,7.5,7.5,0,0,1,2.72,1.7A7,7,0,0,1,164,28.75a9.73,9.73,0,0,1,0,6.45,6.81,6.81,0,0,1-1.63,2.55,7.41,7.41,0,0,1-2.72,1.65,11,11,0,0,1-3.8.6Zm5.61-24.67V10.91h-7.69v3.36c0,.48.07.78.21.89a1.69,1.69,0,0,0,.93.17ZM153.62,34.1a2.14,2.14,0,0,0,1.87-.7A2.57,2.57,0,0,0,156,32a2.35,2.35,0,0,0-.46-1.38,2.22,2.22,0,0,0-1.87-.65H140a2.19,2.19,0,0,0-1.87.65,2.37,2.37,0,0,0-.47,1.38,2.59,2.59,0,0,0,.47,1.43,2.11,2.11,0,0,0,1.87.7Zm1.87-29.9a3.88,3.88,0,0,1,1.25-3.14A4.47,4.47,0,0,1,159.69,0a4.35,4.35,0,0,1,2.93,1.09,3.82,3.82,0,0,1,1.27,3.11V7.52h1.32a3.34,3.34,0,0,1,1.61.34,2.87,2.87,0,0,1,1,.85,3.21,3.21,0,0,1,.56,1.16,5.32,5.32,0,0,1,.16,1.3,5.24,5.24,0,0,1-.16,1.29,3.52,3.52,0,0,1-.56,1.19,2.59,2.59,0,0,1-1,.85,3.66,3.66,0,0,1-1.59.32h-1.32v7.77h-8.4Z"/></g></g></svg>