<svg xmlns="http://www.w3.org/2000/svg" viewBox="0 0 811.43 99.48"><defs><style>.cls-1{fill:#fff;}</style></defs><g id="레이어_2" data-name="레이어 2"><g id="레이어_1-2" data-name="레이어 1"><path class="cls-1" d="M24.72,68.64V97.2H0V19.56A36.64,36.64,0,0,1,.9,10.8,12.91,12.91,0,0,1,4,4.92a12.38,12.38,0,0,1,5.76-3.3,33.59,33.59,0,0,1,9-1H39.6a49.93,49.93,0,0,1,14.4,2,31.7,31.7,0,0,1,11.4,6,27.23,27.23,0,0,1,7.5,10.26A37,37,0,0,1,75.6,33.6v2A37,37,0,0,1,72.9,50.4a27.23,27.23,0,0,1-7.5,10.26,31.7,31.7,0,0,1-11.4,6,49.93,49.93,0,0,1-14.4,2Zm0-20.88H38.4a13.25,13.25,0,0,0,5.34-1,11.35,11.35,0,0,0,4-2.82,12.51,12.51,0,0,0,2.46-4.08A13.77,13.77,0,0,0,51,35V34.2a13.77,13.77,0,0,0-.84-4.8,12.51,12.51,0,0,0-2.46-4.08,11.35,11.35,0,0,0-4-2.82,13.25,13.25,0,0,0-5.34-1H28.2a4.2,4.2,0,0,0-2.76.66q-.72.66-.72,2.82Z"/><path class="cls-1" d="M159.48,33.36a27.78,27.78,0,0,1-4,15.06A32.91,32.91,0,0,1,145,58.92l22.8,38.28H140.64l-18-32.28H107.28V97.2H82.68V19.56a36.64,36.64,0,0,1,.9-8.76,12.91,12.91,0,0,1,3.06-5.88,12.38,12.38,0,0,1,5.76-3.3,33.59,33.59,0,0,1,9-1h22.08a52.94,52.94,0,0,1,14.4,1.86,31.29,31.29,0,0,1,11.4,5.76,26.81,26.81,0,0,1,7.5,9.78,33.11,33.11,0,0,1,2.7,13.92Zm-52.2,11.28h15.6q6.12,0,9.18-3.36a11.38,11.38,0,0,0,3.06-7.92v-.84a11.38,11.38,0,0,0-3.06-7.92q-3.06-3.36-9.18-3.36H110.76a4.2,4.2,0,0,0-2.76.66q-.72.66-.72,2.82Z"/><path class="cls-1" d="M166.8,36.6q0-10.32,3.72-17.34A32.36,32.36,0,0,1,180.12,8a38.55,38.55,0,0,1,13-6.12,52.12,52.12,0,0,1,27.6,0,38.55,38.55,0,0,1,13,6.12,32.93,32.93,0,0,1,9.66,11.28q3.78,7,3.78,17.34V62.88q0,10.32-3.78,17.34a32.93,32.93,0,0,1-9.66,11.28,38.55,38.55,0,0,1-13,6.12,51.68,51.68,0,0,1-27.48,0,38.55,38.55,0,0,1-13-6.12,32.93,32.93,0,0,1-9.66-11.28q-3.78-7-3.78-17.34Zm55.92-.72A15.69,15.69,0,0,0,221.34,29a14.2,14.2,0,0,0-3.66-4.8,15,15,0,0,0-5-2.82,18.12,18.12,0,0,0-11.28,0,15,15,0,0,0-5,2.82,14.2,14.2,0,0,0-3.66,4.8,15.69,15.69,0,0,0-1.38,6.84V63.6a13.82,13.82,0,0,0,1.5,6.48,16.36,16.36,0,0,0,3.78,4.86,16,16,0,0,0,5.1,3,14.49,14.49,0,0,0,10.68,0,16,16,0,0,0,5.1-3,16.36,16.36,0,0,0,3.78-4.86,13.82,13.82,0,0,0,1.5-6.48Z"/><path class="cls-1" d="M280.44,68.64V97.2H255.72V19.56a36.64,36.64,0,0,1,.9-8.76,12.91,12.91,0,0,1,3.06-5.88,12.38,12.38,0,0,1,5.76-3.3,33.59,33.59,0,0,1,9-1h20.88a49.93,49.93,0,0,1,14.4,2,31.7,31.7,0,0,1,11.4,6,27.23,27.23,0,0,1,7.5,10.26,37,37,0,0,1,2.7,14.76v2a37,37,0,0,1-2.7,14.76,27.23,27.23,0,0,1-7.5,10.26,31.7,31.7,0,0,1-11.4,6,49.93,49.93,0,0,1-14.4,2Zm0-20.88h13.68a13.25,13.25,0,0,0,5.34-1,11.35,11.35,0,0,0,4-2.82,12.51,12.51,0,0,0,2.46-4.08,13.77,13.77,0,0,0,.84-4.8V34.2a13.77,13.77,0,0,0-.84-4.8,12.51,12.51,0,0,0-2.46-4.08,11.35,11.35,0,0,0-4-2.82,13.25,13.25,0,0,0-5.34-1h-10.2a4.2,4.2,0,0,0-2.76.66q-.72.66-.72,2.82Z"/><path class="cls-1" d="M337,36.6q0-10.32,3.72-17.34A32.26,32.26,0,0,1,350.28,8a38.46,38.46,0,0,1,13-6.12,52.12,52.12,0,0,1,27.6,0,38.64,38.64,0,0,1,13,6.12,33,33,0,0,1,9.66,11.28q3.78,7,3.78,17.34V62.88q0,10.32-3.78,17.34a33,33,0,0,1-9.66,11.28,38.64,38.64,0,0,1-13,6.12,51.68,51.68,0,0,1-27.48,0,38.46,38.46,0,0,1-13-6.12,32.93,32.93,0,0,1-9.66-11.28Q337,73.2,337,62.88Zm55.92-.72A15.69,15.69,0,0,0,391.5,29a14.32,14.32,0,0,0-3.66-4.8,15,15,0,0,0-5-2.82,18.12,18.12,0,0,0-11.28,0,14.88,14.88,0,0,0-5,2.82,14.07,14.07,0,0,0-3.66,4.8,15.69,15.69,0,0,0-1.38,6.84V63.6a13.7,13.7,0,0,0,1.5,6.48,16.36,16.36,0,0,0,3.78,4.86,15.93,15.93,0,0,0,5.1,3,14.49,14.49,0,0,0,10.68,0,16,16,0,0,0,5.1-3,16.36,16.36,0,0,0,3.78-4.86,13.82,13.82,0,0,0,1.5-6.48Z"/><path class="cls-1" d="M449.4,28.68c-.09,2.24,1.2,4.16,3.84,5.76a56.94,56.94,0,0,0,11.16,4.8l5.88,2a43.92,43.92,0,0,1,9.54,4.8,31.12,31.12,0,0,1,7.26,6.78,26.84,26.84,0,0,1,4.44,8.76,30.48,30.48,0,0,1,1.08,10.62q-.84,12.84-10.38,19.92t-26,7.08a67.7,67.7,0,0,1-15.48-1.74,31.31,31.31,0,0,1-12.36-5.58,14.61,14.61,0,0,1-2.88-3.3,13.3,13.3,0,0,1-1.74-3.9,10.13,10.13,0,0,1-.18-4.26,10.89,10.89,0,0,1,1.68-4.26A8.37,8.37,0,0,1,429,73.08a13.15,13.15,0,0,1,4.8-1.2,9.19,9.19,0,0,1,5,1q1.85,1.08,3.54,2a19.09,19.09,0,0,0,5.28,2.22A37.07,37.07,0,0,0,457,78c3.36,0,6-.6,7.8-1.8a6.68,6.68,0,0,0,2.88-5.76,5,5,0,0,0-1.32-3.24,13.11,13.11,0,0,0-3.78-2.88,52.78,52.78,0,0,0-5.7-2.58c-2.16-.84-4.49-1.66-7-2.46q-1.44-.48-3.06-1.08t-2.7-1.08a33.56,33.56,0,0,1-11-7.14,29.13,29.13,0,0,1-6.3-9.24,27,27,0,0,1-2.16-10.26,29.94,29.94,0,0,1,1.5-10,26.74,26.74,0,0,1,11.58-15Q446.16.24,458.52.24a70.65,70.65,0,0,1,8.22.42A53,53,0,0,1,473,1.74a26.68,26.68,0,0,1,4.68,1.56c1.32.6,2.53,1.18,3.66,1.74a16.41,16.41,0,0,1,6.54,6.36,10.27,10.27,0,0,1,1,8.4,8.81,8.81,0,0,1-4,5.28,12.82,12.82,0,0,1-6.3,1.56,11,11,0,0,1-3-.48A8.2,8.2,0,0,1,473,25.08a22.43,22.43,0,0,0-5.52-2.52,29.35,29.35,0,0,0-8.76-1.08A11.55,11.55,0,0,0,452,23.22,6.45,6.45,0,0,0,449.4,28.68Z"/><path class="cls-1" d="M498.48,12.12c0-4.16,1.23-7.2,3.72-9.12a14.76,14.76,0,0,1,17.52,0c2.47,1.92,3.72,5,3.72,9.12V97.2h-25Z"/><path class="cls-1" d="M554.63,97.2V21.84H536.27a9.71,9.71,0,0,1-4.5-1,8.43,8.43,0,0,1-3-2.52,11,11,0,0,1-1.68-3.48,13.72,13.72,0,0,1-.54-3.72,13.09,13.09,0,0,1,.54-3.66,10.4,10.4,0,0,1,1.68-3.36,8.15,8.15,0,0,1,3-2.4,10.26,10.26,0,0,1,4.5-.9H598a10.32,10.32,0,0,1,4.5.9,8.31,8.31,0,0,1,3,2.4,10.37,10.37,0,0,1,1.67,3.36,12.73,12.73,0,0,1,.54,3.66,13.34,13.34,0,0,1-.54,3.72,10.17,10.17,0,0,1-1.74,3.48,9.18,9.18,0,0,1-3,2.52,9.33,9.33,0,0,1-4.43,1H579.59V97.2Z"/><path class="cls-1" d="M610.79,12.12q0-6.24,3.72-9.12A14.76,14.76,0,0,1,632,3q3.72,2.88,3.72,9.12V97.2h-25Z"/><path class="cls-1" d="M643.91,36.6q0-10.32,3.72-17.34A32.36,32.36,0,0,1,657.23,8a38.55,38.55,0,0,1,13-6.12,52.12,52.12,0,0,1,27.6,0,38.55,38.55,0,0,1,13,6.12,32.93,32.93,0,0,1,9.66,11.28q3.78,7,3.78,17.34V62.88q0,10.32-3.78,17.34a32.93,32.93,0,0,1-9.66,11.28,38.55,38.55,0,0,1-13,6.12,51.68,51.68,0,0,1-27.48,0,38.55,38.55,0,0,1-13-6.12,32.93,32.93,0,0,1-9.66-11.28q-3.78-7-3.78-17.34Zm55.92-.72A15.69,15.69,0,0,0,698.45,29a14.2,14.2,0,0,0-3.66-4.8,15,15,0,0,0-5-2.82,18.12,18.12,0,0,0-11.28,0,15,15,0,0,0-5,2.82,14.2,14.2,0,0,0-3.66,4.8,15.69,15.69,0,0,0-1.38,6.84V63.6a13.82,13.82,0,0,0,1.5,6.48,16.36,16.36,0,0,0,3.78,4.86,16,16,0,0,0,5.1,3,14.49,14.49,0,0,0,10.68,0,16,16,0,0,0,5.1-3,16.36,16.36,0,0,0,3.78-4.86,13.82,13.82,0,0,0,1.5-6.48Z"/><path class="cls-1" d="M789.59,59.4V11.52q0-5.52,3.3-8.46a11.34,11.34,0,0,1,15.24,0q3.3,2.94,3.3,8.46v75.6a10.12,10.12,0,0,1-1.08,4.8,11.81,11.81,0,0,1-2.76,3.48,13.43,13.43,0,0,1-3.78,2.28,13.21,13.21,0,0,1-4.14,1,20,20,0,0,1-8.88-1.38A13.07,13.07,0,0,1,784,91.68L754.67,39.84V97.2H732.83V12.36a10.85,10.85,0,0,1,1.08-4.92,11.65,11.65,0,0,1,2.82-3.66,13.32,13.32,0,0,1,3.9-2.34,17.11,17.11,0,0,1,4.2-1.08,17.81,17.81,0,0,1,8.76,1.32,13.4,13.4,0,0,1,6.72,5.64Z"/></g></g></svg>