<?xml version="1.0" encoding="utf-8"?>
<!-- Generator: Adobe Illustrator 25.0.1, SVG Export Plug-In . SVG Version: 6.00 Build 0)  -->
<svg version="1.1" id="레이어_1" xmlns="http://www.w3.org/2000/svg" xmlns:xlink="http://www.w3.org/1999/xlink" x="0px"
	 y="0px" viewBox="0 0 500 500" style="enable-background:new 0 0 500 500;" xml:space="preserve">
<style type="text/css">
	.st0{fill:#FFFFFF;}
	.st1{fill:#9FA0A0;}
	.st2{fill:#595857;}
	.st3{fill:#0C377A;}
	.st4{fill:url(#SVGID_1_);}
	.st5{fill:url(#SVGID_2_);}
	.st6{fill:url(#SVGID_3_);}
	.st7{fill:url(#SVGID_4_);}
	.st8{fill:url(#SVGID_5_);}
	.st9{fill:url(#SVGID_6_);}
	.st10{fill:url(#SVGID_7_);}
	.st11{fill:url(#SVGID_8_);}
	.st12{fill:url(#SVGID_9_);}
	.st13{fill:url(#SVGID_10_);}
	.st14{fill:url(#SVGID_11_);}
	.st15{fill:url(#SVGID_12_);}
	.st16{fill:url(#SVGID_13_);}
	.st17{fill:url(#SVGID_14_);}
	.st18{fill:url(#SVGID_15_);}
	.st19{fill:url(#SVGID_16_);}
	.st20{fill:url(#SVGID_17_);}
	.st21{fill:url(#SVGID_18_);}
	.st22{fill:url(#SVGID_19_);}
	.st23{fill:url(#SVGID_20_);}
	.st24{fill:url(#SVGID_21_);}
	.st25{fill:url(#SVGID_22_);}
</style>
<rect class="st0" width="500" height="500"/>
<g>
	<path class="st1" d="M125.7,269.2l4.4,6c0.1,0.2,0.1,0.3,0,0.3c-0.1,0.1-0.3,0.1-0.3,0.1h-1.5l-3.7-5l-0.9,1.1v4h-1.3
		c-0.3,0-0.5-0.2-0.5-0.4v-10.5h1.3c0.3,0,0.5,0.2,0.5,0.4v4.2l4.2-4.5h1.6c0.2,0,0.3,0,0.3,0.1s0,0.2-0.1,0.3L125.7,269.2z"/>
	<path class="st1" d="M137.3,264.5l4.1,10.5c0.1,0.3,0,0.4-0.3,0.4h-1.4l-1.1-2.9h-4l-1.1,3h-1.4c-0.3,0-0.4-0.2-0.3-0.4l4.1-10.5
		L137.3,264.5z M138,271.1l-1.4-3.8l-1.5,3.8L138,271.1z"/>
	<path class="st1" d="M151.6,275.6h-1.7l-4.5-7.8v7.8H144c-0.3,0-0.5-0.2-0.5-0.4v-10.5h1.7l4.5,7.7v-7.7h1.3c0.3,0,0.5,0.2,0.5,0.4
		V275.6z"/>
	<path class="st1" d="M162.7,275.5H161v-0.7c-0.7,0.6-1.6,0.9-2.5,1c-0.7,0-1.5-0.2-2.1-0.5c-0.6-0.3-1.1-0.8-1.5-1.3
		c-0.3-0.6-0.7-1.2-0.9-1.8c-0.2-0.7-0.3-1.5-0.3-2.2c0-0.9,0.2-1.9,0.5-2.8c0.3-0.9,0.9-1.5,1.5-2.1c0.8-0.5,1.6-0.9,2.6-0.8
		c1,0,2,0.3,2.7,0.9c0.9,0.7,1.5,1.7,1.6,2.8H161c-0.1-0.7-0.4-1.3-0.9-1.7c-0.4-0.4-0.9-0.6-1.5-0.6c-0.5,0-0.9,0.1-1.4,0.3
		c-0.4,0.3-0.7,0.6-0.9,1c-0.2,0.4-0.3,0.9-0.4,1.4c-0.1,0.5-0.2,1.1-0.2,1.6s0,1,0.2,1.5c0.1,0.4,0.3,0.9,0.4,1.4
		c0.2,0.4,0.5,0.8,0.9,0.9c0.4,0.3,0.9,0.3,1.4,0.3c0.7,0,1.4-0.3,1.8-0.8s0.7-1.1,0.7-1.8V271h-2.9v-1.5h4.6L162.7,275.5z"/>
	<path class="st1" d="M173.3,275.6h-1.7l-4.5-7.7v7.7h-1.3c-0.3,0-0.5-0.2-0.5-0.4v-10.5h1.7l4.5,7.7v-7.7h1.3
		c0.3,0,0.5,0.2,0.5,0.4V275.6z"/>
	<path class="st1" d="M180.9,264.5l4.1,10.5c0.1,0.3,0,0.4-0.4,0.4h-1.4l-1.1-2.9h-3.9l-1.1,2.9h-1.4c-0.3,0-0.4-0.2-0.3-0.4
		l4.1-10.5H180.9z M181.6,271.1l-1.5-3.8l-1.5,3.8L181.6,271.1z"/>
	<path class="st1" d="M196.8,275.6h-1.3c-0.3,0-0.5-0.2-0.5-0.4v-6.2l-2.3,6.3H191l-2.3-6.3v6.7h-1.3c-0.3,0-0.4-0.2-0.4-0.4v-10.5
		h1.8l3.1,8.5l3-8.5h1.3c0.3,0,0.5,0.2,0.5,0.4L196.8,275.6z"/>
	<path class="st1" d="M214.7,268.1h-1.8c-0.2-0.7-0.5-1.3-1-1.8c-0.4-0.3-0.9-0.6-1.5-0.6c-0.5,0-0.9,0.1-1.4,0.3
		c-0.3,0.3-0.7,0.6-0.9,1c-0.2,0.4-0.3,0.9-0.4,1.4c-0.1,0.5-0.1,1.1-0.1,1.6s0,1,0.2,1.5c0.1,0.4,0.3,0.9,0.4,1.4s0.5,0.8,0.9,1
		c0.4,0.3,0.9,0.3,1.4,0.3c0.5,0,1.1-0.2,1.5-0.6c0.4-0.5,0.8-1.1,0.9-1.8h1.8c-0.3,1.1-0.8,2.1-1.6,2.9c-1.5,1.2-3.7,1.3-5.2,0.1
		c-0.7-0.5-1.3-1.3-1.5-2.1c-0.3-0.9-0.5-1.9-0.5-2.8c0-0.9,0.2-1.9,0.5-2.8c0.3-0.9,0.9-1.5,1.5-2.1c0.8-0.6,1.6-0.9,2.6-0.9
		c1,0,2,0.3,2.7,0.9C213.9,266,214.4,267,214.7,268.1z"/>
	<path class="st1" d="M224.7,275.6h-1.3c-0.3,0-0.5-0.2-0.5-0.4v-4.9h-4.2v5.3h-1.3c-0.3,0-0.5-0.2-0.5-0.4v-10.5h1.3
		c0.3,0,0.5,0.2,0.5,0.4v3.8h4.2v-4.2h1.3c0.3,0,0.5,0.2,0.5,0.4V275.6z"/>
	<path class="st1" d="M235.3,267.2c0.7,1.9,0.7,3.8,0,5.7c-0.3,0.9-0.9,1.5-1.5,2.1c-1.5,1.1-3.4,1.1-4.8,0
		c-0.7-0.5-1.2-1.3-1.5-2.1c-0.7-1.9-0.7-3.8,0-5.7c0.3-0.9,0.9-1.5,1.5-2.1c1.4-1.1,3.4-1.1,4.8,0
		C234.4,265.7,234.9,266.3,235.3,267.2z M234,270c0-0.7-0.1-1.4-0.3-2.1c-0.2-0.6-0.4-1.2-0.9-1.6c-0.7-0.8-1.9-0.9-2.7-0.3
		c-0.3,0.3-0.7,0.6-0.9,1c-0.2,0.4-0.3,0.9-0.4,1.4c-0.1,0.5-0.2,1-0.2,1.5c0,0.7,0.1,1.4,0.3,2.1c0.2,0.6,0.4,1.2,0.9,1.6
		c0.9,0.9,2.1,0.9,3,0.1c0,0,0,0,0.1-0.1c0.4-0.4,0.8-1,0.9-1.6C233.9,271.4,234,270.7,234,270z"/>
	<path class="st1" d="M239.9,275.6h-1.3c-0.3,0-0.5-0.2-0.5-0.4v-10.5h1.3c0.1,0,0.3,0,0.3,0.1c0.1,0.1,0.2,0.2,0.1,0.3L239.9,275.6
		z"/>
	<path class="st1" d="M251.3,268.1h-1.8c-0.2-0.7-0.5-1.3-0.9-1.8c-0.4-0.3-1-0.6-1.5-0.6s-0.9,0.1-1.4,0.3c-0.3,0.3-0.7,0.6-0.9,1
		c-0.2,0.4-0.3,0.9-0.4,1.4c-0.1,0.5-0.2,1-0.2,1.5c0,0.5,0.1,1,0.2,1.5c0.1,0.4,0.3,0.9,0.4,1.4c0.2,0.4,0.5,0.8,0.9,1
		c0.4,0.3,0.9,0.3,1.4,0.3c0.6,0,1.1-0.2,1.5-0.6c0.4-0.5,0.8-1.1,0.9-1.8h1.8c-0.3,1.1-0.8,2.1-1.6,2.9c-1.5,1.2-3.7,1.3-5.2,0.1
		c-0.7-0.5-1.2-1.3-1.5-2.1c-0.3-0.9-0.5-1.9-0.5-2.8s0.2-1.9,0.5-2.8c0.3-0.9,0.9-1.5,1.5-2.1c0.8-0.6,1.6-0.9,2.6-0.8
		c1,0,2,0.3,2.7,0.9C250.6,266,251.1,267,251.3,268.1z"/>
	<path class="st1" d="M261,275.6h-6.5c-0.3,0-0.5-0.1-0.7-0.3c-0.2-0.2-0.3-0.3-0.3-0.6v-10.1h7.3v1.5h-5.5v3h5.2v1.5h-5.2v3.1
		c0,0.1,0,0.2,0,0.3c0,0.1,0.1,0.1,0.3,0.1h5.4L261,275.6z"/>
	<path class="st1" d="M277.9,267.2c0.7,1.9,0.7,3.8,0,5.7c-0.3,0.9-0.9,1.5-1.5,2.1c-0.7,0.5-1.5,0.9-2.4,0.8
		c-0.9,0-1.7-0.3-2.4-0.8c-0.7-0.5-1.2-1.3-1.5-2.1c-0.7-1.9-0.7-3.8,0-5.7c0.3-0.9,0.9-1.5,1.5-2.1c0.7-0.5,1.5-0.9,2.4-0.8
		c0.9,0,1.7,0.3,2.4,0.8C277.1,265.7,277.7,266.3,277.9,267.2z M276.7,270c0-0.7-0.1-1.4-0.3-2.1c-0.2-0.6-0.4-1.2-0.9-1.6
		c-0.4-0.4-0.9-0.7-1.5-0.7c-0.4,0-0.9,0.1-1.2,0.3c-0.3,0.3-0.6,0.6-0.8,1c-0.2,0.4-0.3,0.9-0.4,1.4c-0.1,0.5-0.2,1-0.2,1.5
		c0,0.7,0.1,1.4,0.3,2.1c0.2,0.6,0.4,1.2,0.9,1.6c0.9,0.9,2.1,0.9,3,0.1l0.1-0.1c0.4-0.4,0.7-1,0.9-1.6
		C276.7,271.4,276.7,270.7,276.7,270z"/>
	<path class="st1" d="M286.4,270.9l2.1,4.3c0.1,0.2,0.1,0.3,0,0.3s-0.2,0.1-0.3,0.1h-1.4l-2.2-4.3h-2.1v4.4h-1.3
		c-0.3,0-0.5-0.2-0.5-0.4v-10.5h3.9c0.9,0,1.9,0.3,2.7,0.9c0.8,0.6,1.1,1.5,1.1,2.4c0,0.7-0.2,1.3-0.5,1.8
		C287.4,270.3,286.9,270.6,286.4,270.9z M286.6,267.9c0-0.5-0.2-1-0.6-1.3c-0.4-0.3-0.9-0.5-1.5-0.4h-2.1v3.7h2.1
		c0.5,0,1-0.2,1.5-0.5C286.4,268.9,286.6,268.3,286.6,267.9L286.6,267.9z"/>
	<path class="st1" d="M298.6,266.1h-3.3v9.6H294c-0.3,0-0.5-0.2-0.5-0.4v-9h-3.3v-1.5h8.5V266.1z"/>
	<path class="st1" d="M308.5,275.6h-1.3c-0.3,0-0.5-0.2-0.5-0.4v-4.9h-4.2v5.3h-1.3c-0.3,0-0.5-0.2-0.5-0.4v-10.5h1.3
		c0.3,0,0.5,0.2,0.5,0.4v3.8h4.2v-4.2h1.3c0.3,0,0.5,0.2,0.5,0.4V275.6z"/>
	<path class="st1" d="M319.2,267.2c0.7,1.9,0.7,3.8,0,5.7c-0.3,0.9-0.9,1.5-1.5,2.1c-1.5,1.1-3.4,1.1-4.9,0
		c-0.7-0.5-1.2-1.3-1.5-2.1c-0.7-1.9-0.7-3.8,0-5.7c0.3-0.9,0.9-1.5,1.5-2.1c1.5-1.1,3.4-1.1,4.9,0
		C318.3,265.7,318.8,266.3,319.2,267.2z M317.9,270c0-0.7-0.1-1.4-0.3-2.1c-0.2-0.6-0.4-1.2-0.9-1.6c-0.7-0.8-1.9-0.9-2.7-0.3
		c-0.3,0.3-0.6,0.6-0.8,1s-0.3,0.9-0.4,1.4c-0.3,1.2-0.2,2.4,0.1,3.6c0.2,0.6,0.4,1.2,0.9,1.6c0.4,0.4,0.9,0.7,1.5,0.7
		s1.1-0.3,1.5-0.7c0.4-0.4,0.7-1,0.9-1.6C317.8,271.4,317.9,270.7,317.9,270z"/>
	<path class="st1" d="M329.7,268c0,0.9-0.3,1.8-1.1,2.4c-0.8,0.6-1.7,0.9-2.7,0.9h-2.3v4.3h-1.3c-0.3,0-0.5-0.2-0.5-0.4v-10.5h4.1
		c0.9,0,1.9,0.3,2.7,0.9C329.3,266.2,329.7,267,329.7,268z M327.9,268c0-0.5-0.2-1-0.6-1.4c-0.4-0.3-0.9-0.5-1.5-0.5h-2.3v3.8h2.3
		c0.5,0,1-0.2,1.5-0.5C327.8,269,328,268.5,327.9,268L327.9,268z"/>
	<path class="st1" d="M339.3,275.6h-6.5c-0.3,0-0.5-0.1-0.7-0.3c-0.2-0.2-0.3-0.3-0.3-0.6v-10.1h7.3v1.5h-5.5v3h5.2v1.5h-5.2v3.1
		c0,0.1,0,0.2,0,0.3c0,0.1,0.1,0.1,0.3,0.1h5.4L339.3,275.6z"/>
	<path class="st1" d="M348.3,266.2c0.9,1.1,1.5,2.5,1.4,3.9c0,1.5-0.4,2.8-1.4,3.8c-0.9,1-2.2,1.6-3.6,1.6h-2.2
		c-0.3,0-0.5-0.1-0.7-0.3c-0.2-0.2-0.3-0.3-0.3-0.6v-10.2h3.3C346.1,264.5,347.5,265.1,348.3,266.2z M348,270c0-1-0.3-2.1-0.9-2.8
		c-0.6-0.8-1.5-1.2-2.5-1.1h-1.3v7.6c0,0.1,0,0.2,0,0.3c0,0.1,0.1,0.1,0.3,0.1h1c0.9,0,1.9-0.4,2.5-1.2C347.7,272.1,348,271,348,270
		L348,270z"/>
	<path class="st1" d="M353.9,275.6h-1.3c-0.3,0-0.5-0.2-0.5-0.4v-10.5h1.3c0.1,0,0.3,0,0.3,0.1s0.2,0.2,0.1,0.3L353.9,275.6z"/>
	<path class="st1" d="M365.3,268.1h-1.8c-0.2-0.7-0.5-1.3-1-1.8c-0.4-0.3-0.9-0.6-1.5-0.6c-0.5,0-0.9,0.1-1.4,0.3
		c-0.3,0.3-0.7,0.6-0.9,1c-0.2,0.4-0.3,0.9-0.4,1.4c-0.1,0.5-0.2,1-0.2,1.5c0,0.5,0.1,1,0.2,1.5s0.3,0.9,0.4,1.4
		c0.2,0.4,0.5,0.8,0.9,1c0.4,0.3,0.9,0.3,1.4,0.3c0.6,0,1.1-0.2,1.5-0.6c0.4-0.5,0.8-1.1,0.9-1.8h1.8c-0.3,1.1-0.8,2.1-1.6,2.9
		c-0.8,0.6-1.7,0.9-2.7,0.9s-1.8-0.3-2.6-0.8c-0.7-0.5-1.2-1.3-1.5-2.1c-0.7-1.8-0.7-3.8,0-5.6c0.3-0.9,0.9-1.5,1.5-2.1
		c0.8-0.6,1.6-0.9,2.6-0.8c1,0,2,0.3,2.7,0.9C364.6,266,365.1,267,365.3,268.1z"/>
	<path class="st1" d="M382,275.6h-1.3c-0.3,0-0.5-0.2-0.5-0.4v-4.9H376v5.3h-1.3c-0.3,0-0.5-0.2-0.5-0.4v-10.5h1.3
		c0.3,0,0.5,0.2,0.5,0.4v3.8h4.2v-4.2h1.3c0.3,0,0.5,0.2,0.5,0.4V275.6z"/>
	<path class="st1" d="M392.6,267.2c0.7,1.9,0.7,3.8,0,5.7c-0.3,0.9-0.9,1.5-1.5,2.1c-0.7,0.5-1.5,0.9-2.4,0.8
		c-0.9,0-1.7-0.3-2.4-0.8c-0.7-0.5-1.2-1.3-1.5-2.1c-0.7-1.9-0.7-3.8,0-5.7c0.3-0.9,0.9-1.5,1.5-2.1c0.7-0.5,1.5-0.9,2.4-0.8
		c0.9,0,1.7,0.3,2.4,0.8C391.8,265.7,392.3,266.3,392.6,267.2z M391.3,270c0-0.7-0.1-1.4-0.3-2.1c-0.2-0.6-0.4-1.2-0.9-1.6
		c-0.4-0.4-0.9-0.7-1.5-0.7c-0.4,0-0.9,0.1-1.2,0.3s-0.7,0.6-0.9,1s-0.3,0.9-0.4,1.4c-0.3,1.2-0.2,2.4,0.1,3.6
		c0.2,0.6,0.4,1.2,0.9,1.6c0.8,0.9,2.1,0.9,3,0.1l0.1-0.1c0.4-0.4,0.8-1,0.9-1.6C391.2,271.4,391.3,270.7,391.3,270z"/>
	<path class="st1" d="M402.9,272.2c0,0.6-0.1,1.1-0.3,1.6c-0.2,0.4-0.5,0.9-0.9,1.1c-0.3,0.3-0.8,0.5-1.3,0.6
		c-0.9,0.3-1.7,0.3-2.5,0.1c-0.4-0.1-0.8-0.3-1.1-0.5c-0.3-0.3-0.7-0.5-0.9-0.8c-0.3-0.3-0.5-0.8-0.7-1.2c-0.2-0.5-0.3-1-0.2-1.6
		h1.7c-0.1,0.8,0.2,1.5,0.7,2.1c0.4,0.4,1,0.7,1.6,0.6c0.5,0,1.1-0.2,1.5-0.5c0.4-0.3,0.7-0.9,0.7-1.5c0-0.2-0.1-0.4-0.2-0.6
		s-0.2-0.3-0.3-0.4c-0.2-0.1-0.3-0.3-0.6-0.3l-0.7-0.2l-0.8-0.2c-0.4-0.1-0.9-0.3-1.3-0.3c-0.3-0.2-0.7-0.3-1-0.5
		c-0.3-0.2-0.6-0.5-0.8-0.9c-0.2-0.4-0.3-0.9-0.3-1.3c-0.1-0.9,0.3-1.9,1.1-2.6c0.7-0.6,1.6-0.9,2.6-0.9c0.5,0,0.9,0.1,1.5,0.3
		c0.4,0.2,0.9,0.3,1.2,0.7c0.3,0.3,0.7,0.8,0.9,1.2c0.2,0.6,0.3,1.2,0.3,1.8H401c0-1.6-0.7-2.4-2.1-2.4c-0.5,0-0.9,0.2-1.3,0.5
		c-0.3,0.3-0.6,0.9-0.5,1.4c0,0.3,0.1,0.4,0.2,0.6c0.2,0.2,0.3,0.3,0.6,0.4c0.3,0.1,0.5,0.3,0.8,0.3c0.3,0.1,0.5,0.2,0.9,0.3
		l0.8,0.2c0.3,0.1,0.4,0.1,0.7,0.2c0.3,0.1,0.4,0.2,0.7,0.3l0.5,0.3c0.2,0.2,0.3,0.3,0.4,0.5c0.1,0.2,0.2,0.4,0.3,0.6
		C402.9,271.6,402.9,271.9,402.9,272.2z"/>
	<path class="st1" d="M412.9,268c0,0.9-0.4,1.8-1.1,2.4c-0.8,0.6-1.7,0.9-2.7,0.9h-2.3v4.3h-1.3c-0.3,0-0.5-0.2-0.5-0.4v-10.5h4.1
		c0.9,0,1.9,0.3,2.7,0.9C412.5,266.2,412.9,267,412.9,268z M411.1,268c0-0.5-0.2-1-0.5-1.4c-0.4-0.3-0.9-0.5-1.5-0.5h-2.3v3.8h2.3
		c0.5,0,1-0.2,1.5-0.5C410.9,269,411.1,268.5,411.1,268L411.1,268z"/>
	<path class="st1" d="M417.1,275.6h-1.3c-0.3,0-0.5-0.2-0.5-0.4v-10.5h1.3c0.1,0,0.3,0,0.3,0.1c0.1,0,0.1,0.2,0.1,0.3L417.1,275.6z"
		/>
	<path class="st1" d="M428,266.1h-3.3v9.6h-1.3c-0.3,0-0.5-0.2-0.5-0.4v-9h-3.3v-1.5h8.5V266.1z"/>
	<path class="st1" d="M434.5,264.5l4.1,10.5c0.1,0.3,0,0.4-0.3,0.4h-1.4l-1.1-2.9h-3.9l-1.1,3h-1.5c-0.3,0-0.4-0.2-0.3-0.4l4.1-10.5
		L434.5,264.5z M435.2,271.1l-1.4-3.8l-1.5,3.8L435.2,271.1z"/>
	<path class="st1" d="M447.9,275.6h-6.3c-0.3,0-0.5-0.1-0.7-0.3c-0.2-0.2-0.3-0.3-0.3-0.6v-10.1h1.3c0.3,0,0.5,0.2,0.5,0.4v8.7
		c0,0.1,0,0.2,0,0.3c0,0.1,0.1,0.1,0.3,0.1h5.2L447.9,275.6z"/>
	<path class="st2" d="M292.4,245c-1.5-0.3-2.8-0.8-3.9-1.6c-1.3-0.8-2.3-1.8-3-3.2c0-0.1,0-0.1-0.1-0.1l0,0c-0.1,0-0.1,0-0.1,0.1
		c-0.7,1.3-1.7,2.4-2.9,3.2c-1.2,0.9-2.6,1.4-4,1.6c-0.9-0.8-1.9-1.5-2.7-2.4c-0.1-0.1-0.1-0.2-0.1-0.3s0.1-0.2,0.3-0.2
		c0.7,0,1.3-0.2,1.9-0.4c0.8-0.3,1.5-0.8,2.1-1.2c0.8-0.6,1.5-1.4,1.9-2.2c0.5-0.9,0.9-2.1,0.9-3.2h-5.1v-3.5h15.6v3.5H288
		c0.1,0.9,0.3,1.8,0.7,2.6c0.3,0.8,0.8,1.4,1.4,2c0.5,0.5,1.1,0.9,1.7,1.4c0.5,0.3,1.1,0.6,1.7,0.8c0.5,0.2,0.9,0.3,1.5,0.3
		c0.2,0,0.3,0,0.3,0.2c0,0.1,0,0.2-0.1,0.3c-0.5,0.5-1,1-1.6,1.5L292.4,245z M286.3,255.6c-1.5-2.1-1.5-5,0-7.2
		c0.7-1,1.7-1.8,2.8-2.2c2.4-0.9,5-0.9,7.4,0c1.1,0.4,2.1,1.2,2.8,2.2c1.5,2.1,1.5,5,0,7.2c-0.7,1-1.7,1.8-2.8,2.2
		c-2.4,0.9-5,0.9-7.4,0C288,257.4,287,256.7,286.3,255.6z M291,249.8c-0.6,0.6-0.9,1.4-0.9,2.2c-0.1,0.9,0.3,1.6,0.9,2.2
		c0.9,1,2.6,1.1,3.6,0.2l0,0l0.1-0.1c1.1-1.3,1.1-3.2,0-4.4c-0.5-0.5-1.2-0.8-1.9-0.8C292.2,249,291.5,249.3,291,249.8z M297.1,246
		v-6.2h-5.3v-3.7h5.3v-2.6c0-0.3-0.1-0.6-0.3-0.8c-0.2-0.2-0.4-0.3-0.6-0.3c-0.3,0-0.6,0-0.9,0v-2.1h6.9v15.6L297.1,246z"/>
	<path class="st2" d="M326.8,245.4v-1.7h-7c-1,0.9-2.2,1.3-3.5,1.5c-1.3,0.2-2.5,0.1-3.7-0.3c-1.2-0.4-2.2-1.1-2.9-2.1
		c-0.8-1-1.2-2.3-1.2-3.6c0-0.9,0.2-1.7,0.6-2.6h-3v-3.6h6.6v-0.8c0-0.3-0.1-0.4-0.3-0.6c-0.1-0.1-0.3-0.2-0.4-0.2h-0.6v-1.5h6.5
		v3.2h6.7v3.5h-3.2c0.1,0.2,0.2,0.4,0.3,0.6h5.1v-3.7c0-0.3-0.1-0.6-0.3-0.8c-0.2-0.2-0.4-0.3-0.6-0.3h-0.9v-2.1h6.9v15.1
		L326.8,245.4z M313.4,239.1c-0.1,0.9,0.3,1.8,0.9,2.4c0.5,0.4,1.3,0.4,1.8,0c0.7-0.6,1-1.5,0.9-2.3c0-0.7-0.2-1.4-0.6-2
		c-0.4-0.7-1.3-0.9-2-0.5l0,0c-0.2,0.1-0.3,0.3-0.5,0.5C313.6,237.7,313.4,238.4,313.4,239.1L313.4,239.1z M316.1,255.6
		c-0.8-1-1.1-2.3-1.1-3.7c0-1.3,0.3-2.6,1.1-3.7c0.8-1,1.7-1.8,2.9-2.2c2.4-0.9,5.1-0.9,7.5,0c1.1,0.4,2.1,1.2,2.9,2.2
		c0.8,1,1.1,2.3,1.1,3.7c0,1.3-0.3,2.6-1.1,3.7c-0.8,1-1.7,1.8-2.9,2.2c-2.4,0.9-5.1,0.9-7.5,0C317.8,257.4,316.9,256.6,316.1,255.6
		z M320.8,249.6c-0.6,0.6-0.9,1.5-0.9,2.3c-0.1,0.9,0.3,1.7,0.9,2.3c0.9,1,2.7,1.1,3.7,0.2l0.2-0.2c0.6-0.6,0.9-1.5,0.9-2.3
		c0.1-0.9-0.3-1.7-0.9-2.3c-1-1-2.7-1.1-3.7-0.1l0,0L320.8,249.6z M326.8,240.1h-4.9c0,0.3-0.1,0.4-0.2,0.7h5.1V240.1z"/>
	<path class="st2" d="M355.9,258v-6.7c-1.6,0.3-3.3,0.5-4.9,0.4h-15.6v-3.4h8.1v-1.1c0-0.2,0-0.4-0.1-0.6s-0.3-0.3-0.4-0.3l-0.4-0.1
		h-0.6v-1.8h6.4v3.8h2.3c0.8,0,1.8,0,2.8-0.1c0.9,0,1.6-0.2,2.4-0.4v-14.3c0-0.3-0.1-0.6-0.3-0.8c-0.2-0.2-0.4-0.3-0.6-0.3H354v-2.1
		h6.8V258H355.9z M339.3,240.6c-1.5-2.1-1.5-4.9,0-7c0.7-0.9,1.6-1.7,2.7-2.1c1.1-0.4,2.3-0.7,3.5-0.7s2.4,0.3,3.5,0.7
		c1.1,0.4,2,1.2,2.7,2.1c1.5,2.1,1.5,4.9,0,6.9c-0.7,0.9-1.6,1.7-2.7,2.1c-2.2,0.9-4.8,0.9-7,0C341,242.3,340,241.6,339.3,240.6
		L339.3,240.6z M343.2,237c-0.1,1,0.3,2,1.2,2.5c0.7,0.5,1.6,0.5,2.3,0c0.9-0.5,1.3-1.5,1.2-2.5c0.1-0.8-0.3-1.5-0.8-2.1
		c-0.4-0.5-1-0.8-1.6-0.8c-0.6,0-1.2,0.3-1.6,0.8C343.5,235.4,343.1,236.1,343.2,237L343.2,237z"/>
	<path class="st2" d="M389.1,242.6V258h-4.9v-7.2c-1.5,0.3-3.1,0.4-4.6,0.3h-15.4v-3.5h5.3v-5.3c0-0.2,0-0.4-0.1-0.6
		s-0.3-0.3-0.4-0.3l-0.4-0.1c-0.2,0-0.4,0-0.6,0v-1.8h6.3v8h6.5c1.1,0,2.2-0.1,3.3-0.3v-13.7c0-0.3-0.1-0.6-0.3-0.8
		c-0.2-0.2-0.4-0.3-0.6-0.3h-0.9v-2.2h6.8v8.6h4.1v3.7L389.1,242.6z M380.2,246.3h-4.7c0.9-1.5,1.5-3.8,1.5-7v-3.2
		c0-0.2,0-0.3-0.1-0.3c-0.1-0.1-0.3-0.1-0.4-0.1h-10.8v-3.5h15.7c0.2,0,0.4,0.1,0.4,0.3v0.1v7C381.6,242.7,381.1,245,380.2,246.3
		L380.2,246.3z"/>
	<path class="st2" d="M410.7,242c0,0.7-0.2,1.4-0.7,1.9c-0.5,0.5-1.2,0.7-1.9,0.7h-9.4c-0.7,0-1.4-0.2-1.9-0.7
		c-0.5-0.5-0.8-1.2-0.7-1.9v-7.6c0-0.3-0.1-0.4-0.3-0.6c-0.2-0.1-0.3-0.2-0.5-0.3h-0.7v-1.9h6.3v3.5h4.9V234c0-0.3-0.1-0.4-0.3-0.6
		c-0.2-0.1-0.3-0.2-0.5-0.3h-0.7v-2h6.3v2.9h4.5v-0.6c0-0.3-0.1-0.6-0.3-0.8c-0.2-0.2-0.4-0.3-0.6-0.3h-0.9v-2.1h6.9v15.4h-5V242
		H410.7z M405.9,238.6h-5v2c0,0.2,0,0.3,0.1,0.3s0.2,0,0.3,0h4.2c0.2,0,0.3-0.1,0.3-0.3V238.6L405.9,238.6z M404.6,255.6
		c-1.5-2.1-1.5-5,0-7.2c0.7-1,1.7-1.8,2.8-2.2c2.4-0.9,5-0.9,7.4,0c1.1,0.4,2.1,1.2,2.8,2.2c1.5,2.1,1.5,5,0,7.2
		c-0.7,1-1.7,1.8-2.8,2.2c-2.4,0.9-5,0.9-7.4,0C406.3,257.4,405.3,256.7,404.6,255.6z M409.3,249.8c-0.6,0.6-0.9,1.4-0.9,2.2
		c-0.1,0.9,0.3,1.6,0.9,2.2c0.9,1,2.6,1.1,3.6,0.2l0,0c0.1,0,0.1-0.1,0.2-0.2c0.6-0.6,0.9-1.4,0.9-2.2c0-0.9-0.3-1.6-0.9-2.2
		c-0.5-0.5-1.2-0.8-1.9-0.8C410.5,249.1,409.8,249.3,409.3,249.8L409.3,249.8z M415.2,237.3h-4.5v1.3h4.5V237.3z"/>
	<path class="st2" d="M435.9,245v3.5h-5.1V245h-6.9v-3.4h19.7v3.4H435.9z M427,235.5c0-1.1,0.3-2.1,0.9-3c0.6-0.9,1.5-1.5,2.4-1.8
		c2-0.8,4.2-0.8,6.3,0c0.9,0.3,1.8,1,2.4,1.9c0.7,0.9,1,1.9,0.9,3c0,1-0.3,2.1-0.9,2.9c-0.6,0.9-1.5,1.5-2.4,1.8
		c-2,0.8-4.2,0.8-6.3,0c-0.9-0.3-1.8-1-2.4-1.8C427.3,237.7,426.9,236.6,427,235.5L427,235.5z M433.5,257.7c-1.8,0-2.7-0.9-2.7-2.6
		v-3c0-0.3-0.1-0.6-0.3-0.8c-0.2-0.2-0.3-0.3-0.6-0.3H429v-1.7h6.9v4.4c0,0.3,0.1,0.3,0.3,0.3H450v3.6L433.5,257.7L433.5,257.7z
		 M431.6,235.5c0,0.6,0.2,1.1,0.6,1.5c0.3,0.3,0.8,0.5,1.3,0.5c0.4,0,0.9-0.3,1.2-0.6c0.3-0.4,0.6-0.9,0.6-1.5
		c0.1-0.7-0.3-1.4-0.9-1.8c-0.5-0.3-1.3-0.3-1.8,0C431.9,234.1,431.6,234.8,431.6,235.5L431.6,235.5z M444.6,250.8v-2.2h-5.3v-2.9
		h5.3v-12.5c0-0.3-0.1-0.6-0.3-0.8c-0.2-0.2-0.4-0.3-0.6-0.3h-0.9v-1.8h6.9v20.5L444.6,250.8z"/>
	<path class="st3" d="M121.4,247.1l-2.1-2.4c-0.1-0.1-0.1-0.2-0.1-0.3s0.1-0.2,0.3-0.2c1.6-0.3,3.2-0.8,4.7-1.5
		c1.5-0.8,2.8-1.9,3.9-3.2c1-1.3,1.6-2.9,1.6-4.5h-8.5v-3.5h13.4c0.3,0,0.4,0.2,0.4,0.4c0.2,3.8-1.1,7.6-3.7,10.5
		C128.8,245.2,125.2,246.9,121.4,247.1z M129.1,255.4c-1.5-2.1-1.5-5,0-7.2c0.7-1,1.7-1.8,2.8-2.2c2.4-0.9,5-0.9,7.4,0
		c1.1,0.4,2.1,1.2,2.8,2.2c1.5,2.1,1.5,5,0,7.2c-0.7,1-1.7,1.8-2.8,2.2c-2.4,0.9-5,0.9-7.4,0C130.8,257.2,129.9,256.4,129.1,255.4
		L129.1,255.4z M133.8,249.6c-1.1,1.3-1.1,3.2,0,4.4c0.5,0.5,1.2,0.8,1.9,0.8s1.4-0.3,1.9-0.8c1.1-1.3,1.1-3.2,0-4.4
		c-0.9-1-2.6-1.1-3.6-0.2C133.9,249.5,133.8,249.5,133.8,249.6L133.8,249.6z M144.4,239.1v6.4h-4.9v-12c0-0.3-0.1-0.7-0.3-0.9
		c-0.2-0.2-0.4-0.3-0.7-0.3s-0.6,0-0.9,0v-2h6.9v5h4.1v3.7H144.4z"/>
	<path class="st3" d="M177.1,239.3v6.4h-5v-2.6c-1.5,0.3-3.2,0.5-4.7,0.4h-10.6c-2.6,0-3.9-1.3-3.9-3.8v-5.1c0-0.3-0.1-0.4-0.2-0.7
		c-0.1-0.2-0.3-0.3-0.5-0.3c-0.2-0.1-0.3-0.1-0.6-0.1h-0.6v-1.7h6.9v7.9c0,0.3,0.1,0.4,0.3,0.4l0,0h10.3c1.2,0.1,2.4-0.1,3.5-0.4
		v-6.2c0-0.3-0.1-0.6-0.3-0.8c-0.2-0.2-0.4-0.3-0.6-0.3h-0.9v-2.1h6.9v5.4h4v3.7L177.1,239.3z M174.4,258h-13.7
		c-0.8,0-1.5-0.3-2-0.8c-0.5-0.5-0.9-1.2-0.8-2v-5.8c0-0.3-0.1-0.6-0.3-0.8c-0.2-0.2-0.4-0.3-0.6-0.3h-0.9v-1.7h20.8
		c0.3,0,0.4,0.2,0.4,0.3v8.2c0,0.8-0.3,1.5-0.8,2C175.8,257.9,175.2,258.1,174.4,258L174.4,258z M172.2,250.2h-9.3v4.3
		c0,0.2,0,0.3,0.1,0.3s0.2,0,0.3,0h8.5c0.2,0,0.3,0,0.3-0.1c0.1-0.1,0.1-0.2,0.1-0.3V250.2z"/>
	<path class="st3" d="M183.1,255v-3.6h11.5v-2.9c0-0.2,0-0.4-0.1-0.6s-0.3-0.3-0.4-0.3l-0.4-0.1h-0.6v-1.7h6.7v5.6h11.4v3.6H183.1z
		 M207.1,246.7c-2.1-0.1-4-0.5-5.8-1.4c-1.6-0.7-3.1-1.9-3.9-3.4c-0.1-0.1-0.1-0.1-0.2,0c-0.9,1.5-2.3,2.7-3.9,3.4
		c-1.8,0.9-3.9,1.3-5.8,1.4l-2.7-2.7c-0.1-0.1-0.2-0.2-0.2-0.3c0-0.1,0.1-0.2,0.3-0.2c2.3,0,4.5-0.6,6.5-1.7c1.8-0.9,3-2.7,3-4.7
		h-8.1v-3.5h8.1v-1.2c0-0.4-0.3-0.6-1.1-0.6V230h6.5v3.6h8.1v3.5h-8.1c0.1,1.4,0.6,2.7,1.6,3.5c1,1,2.2,1.8,3.6,2.2
		c1.4,0.4,2.8,0.7,4.4,0.7c0.2,0,0.3,0.1,0.3,0.2c0,0.1,0,0.3-0.2,0.3L207.1,246.7z"/>
	<path class="st3" d="M215.2,244.6c-1.7-2.7-1.7-6.1,0-8.7c0.8-1.2,1.9-2.1,3.3-2.7c1.4-0.6,2.7-0.9,4.2-0.8c1.5,0,2.9,0.3,4.2,0.9
		c1.3,0.6,2.4,1.5,3.3,2.7c1.7,2.7,1.7,6.1,0,8.7c-0.8,1.2-1.9,2.1-3.3,2.7c-2.7,1.1-5.7,1.1-8.4,0
		C217.2,246.7,216.1,245.8,215.2,244.6z M219.1,240.2c0,1,0.3,2.1,0.8,2.9c0.3,0.7,1,1.2,1.8,1.5c0.7,0.2,1.5,0.2,2.1,0
		c0.8-0.3,1.5-0.8,1.8-1.5c0.5-0.9,0.8-1.9,0.8-2.9c0-0.9-0.2-1.7-0.5-2.6c-0.3-0.6-0.8-1.1-1.4-1.5c-1-0.7-2.4-0.7-3.4,0
		c-0.6,0.3-1,0.9-1.4,1.5C219.2,238.5,219.1,239.4,219.1,240.2L219.1,240.2z M234.1,258v-24.5c0-0.3-0.1-0.6-0.3-0.8
		c-0.2-0.2-0.4-0.3-0.6-0.3c-0.3,0-0.6,0-0.9,0v-2.1h6.9V258L234.1,258z"/>
	<path class="st3" d="M242.8,255v-3.5h28v3.5H242.8z M267.3,246.9c-2,0-3.9-0.4-5.7-1.3c-1.8-0.8-3.3-2.1-4.5-3.7l-0.2-0.2
		c-0.1,0.1-0.2,0.1-0.2,0.2c-1.1,1.6-2.7,2.8-4.5,3.6c-1.8,0.9-3.8,1.3-5.7,1.3l-2.4-2.6c-0.3-0.3-0.2-0.3,0-0.4h0.2
		c1.3,0,2.5-0.3,3.7-0.6c1.1-0.3,2.2-0.9,3.2-1.5c0.9-0.7,1.7-1.6,2.3-2.7c0.6-1.2,0.9-2.5,0.8-3.8v-0.9c0-0.3,0-0.4-0.1-0.7
		c0-0.2-0.1-0.3-0.3-0.5c-0.2-0.2-0.3-0.3-0.5-0.3c-0.3,0-0.6,0-0.9,0v-2.1h7.1v4.9c-0.1,1.6,0.4,3.2,1.5,4.4
		c0.9,1.2,2.2,2.1,3.6,2.7c1.5,0.6,3.2,0.9,4.9,0.9c0.3,0,0.4,0.2,0.2,0.4L267.3,246.9z"/>
	
		<linearGradient id="SVGID_1_" gradientUnits="userSpaceOnUse" x1="81.2245" y1="282.7314" x2="81.2245" y2="220.8914" gradientTransform="matrix(1 0 0 -1 0 501)">
		<stop  offset="0" style="stop-color:#359DD1"/>
		<stop  offset="1" style="stop-color:#0C377A"/>
	</linearGradient>
	<path class="st4" d="M81.2,218.9C64,218.9,50,232.8,50,250s14,31.1,31.2,31.1s31.2-13.9,31.2-31.1S98.5,218.9,81.2,218.9
		L81.2,218.9z M81.2,280.4c-16.8,0-30.5-13.6-30.5-30.5c0-16.8,13.6-30.5,30.5-30.5c16.8,0,30.5,13.6,30.5,30.5l0,0l0,0
		C111.7,266.8,98,280.4,81.2,280.4L81.2,280.4z"/>
	
		<linearGradient id="SVGID_2_" gradientUnits="userSpaceOnUse" x1="81.2245" y1="282.7314" x2="81.2245" y2="220.8914" gradientTransform="matrix(1 0 0 -1 0 501)">
		<stop  offset="0" style="stop-color:#359DD1"/>
		<stop  offset="1" style="stop-color:#0C377A"/>
	</linearGradient>
	<path class="st5" d="M81.2,220c-16.6,0-30.1,13.4-30.1,30s13.5,30,30.1,30s30.1-13.4,30.1-30l0,0C111.3,233.4,97.9,220,81.2,220z
		 M81.2,273.6c-13.2,0-23.8-10.6-23.8-23.8c0-13.2,10.6-23.8,23.8-23.8s23.8,10.6,23.8,23.8l0,0l0,0
		C105.1,263,94.4,273.6,81.2,273.6L81.2,273.6L81.2,273.6L81.2,273.6z"/>
	<path class="st0" d="M67.8,273.4c-0.2-0.2-0.3-0.3-0.3-0.5c-0.1-0.2-0.2-0.4-0.2-0.6l0,0c-0.2,0.1-0.4,0.2-0.6,0.2s-0.4,0-0.6-0.1
		c-0.1-0.2-0.1-0.3-0.2-0.5l0,0c0.1,0,0.2,0.1,0.3,0.1h0.3c0.2,0,0.3-0.1,0.4-0.2c0.2-0.1,0.3-0.2,0.3-0.3l-0.6-0.3l0.3-0.4l2,1.1
		l-0.3,0.4l-0.7-0.3c-0.1,0.1-0.1,0.3-0.1,0.3c0,0.1,0,0.3,0,0.3s0.1,0.2,0.1,0.3c0,0.1,0.1,0.2,0.2,0.3c0.1,0.1,0.1,0.1,0.2,0.2
		l0,0l-0.3,0.1L67.8,273.4z M66.1,274.3c0-0.2,0-0.3,0.1-0.5c0.1-0.2,0.3-0.3,0.4-0.3c0.2-0.1,0.3-0.1,0.5,0c0.2,0,0.3,0.1,0.5,0.2
		s0.3,0.2,0.4,0.3c0.1,0.2,0.2,0.3,0.2,0.5c0,0.2,0,0.3-0.1,0.5c-0.1,0.2-0.3,0.3-0.4,0.3c-0.2,0.1-0.3,0.1-0.5,0.1
		s-0.3-0.1-0.5-0.2s-0.3-0.3-0.4-0.3C66.2,274.6,66.1,274.5,66.1,274.3L66.1,274.3z M67.2,273.9c-0.1,0-0.3,0.1-0.3,0.2
		c-0.1,0.1-0.1,0.3,0,0.3c0,0.1,0.1,0.2,0.2,0.3c0.1,0,0.2,0,0.3,0c0.1,0,0.2-0.1,0.3-0.2c0.1-0.1,0.1-0.3,0.1-0.3s-0.1-0.2-0.2-0.3
		C67.4,273.8,67.2,273.8,67.2,273.9z M68.2,273.9l0.4-0.8l-0.7-0.4l0.3-0.4l0.7,0.4l0.2-0.4c0,0,0-0.1,0-0.2V272l-0.1-0.1l0.2-0.3
		l0.9,0.5l-1.1,2.1L68.2,273.9z"/>
	<path class="st0" d="M72.1,275.5c-0.2-0.1-0.3-0.3-0.4-0.4c-0.2-0.2-0.3-0.4-0.3-0.6l0,0c-0.2,0.2-0.3,0.3-0.6,0.3
		c-0.2,0-0.4,0-0.6,0c-0.1-0.2-0.2-0.3-0.3-0.4l0,0c0.3,0.1,0.6,0.1,0.8-0.1c0.3-0.2,0.4-0.4,0.5-0.7l-0.7-0.3l0.2-0.5l2.1,0.8
		l-0.2,0.5l-0.7-0.3c-0.1,0.3-0.1,0.6,0,0.9s0.3,0.5,0.5,0.6l0,0l-0.3,0.1L72.1,275.5z M72.1,277.4l0.3-0.9l0,0l-2.1-0.8l0.2-0.4
		l2.8,1v0.1l0,0l-0.5,1.4L72.1,277.4z M72.6,275.8l0.7-1.8v-0.1c0,0,0-0.1-0.1-0.1h-0.1l0.1-0.3l0.9,0.3l-0.8,2.2L72.6,275.8z"/>
	<path class="st0" d="M74.4,278.4l-0.3-0.3c0.1,0,0.2,0,0.3-0.1c0.1,0,0.2-0.1,0.2-0.2l-0.3-0.1l0.2-0.7l0.8,0.2l-0.2,0.5
		c0,0.2-0.1,0.3-0.3,0.3C74.7,278.3,74.5,278.4,74.4,278.4z"/>
	<path class="st0" d="M76.6,276.1c-0.2-0.3-0.2-0.8,0.1-1.1c0.1-0.2,0.3-0.3,0.4-0.3s0.3,0,0.6,0c0.2,0,0.3,0.1,0.5,0.2
		s0.3,0.3,0.3,0.3c0.1,0.2,0.2,0.3,0.1,0.6c0,0.2-0.1,0.3-0.3,0.5c-0.1,0.2-0.3,0.3-0.4,0.3c-0.2,0-0.3,0-0.5,0s-0.3-0.1-0.5-0.2
		C76.8,276.4,76.7,276.3,76.6,276.1z M77.4,275.3c-0.1,0.1-0.2,0.2-0.2,0.3c0,0.1,0,0.3,0.1,0.3c0.1,0.1,0.2,0.2,0.3,0.2
		c0.1,0,0.2,0,0.3-0.1c0.1-0.1,0.2-0.2,0.2-0.3c0-0.1,0-0.3-0.1-0.3c-0.1-0.1-0.2-0.2-0.3-0.2C77.5,275.1,77.5,275.2,77.4,275.3
		L77.4,275.3z M77.5,278.2c-0.1-0.2-0.2-0.3-0.1-0.5c0-0.2,0.1-0.3,0.3-0.5c0.1-0.2,0.3-0.3,0.4-0.3c0.2,0,0.3,0,0.5,0
		s0.3,0.1,0.5,0.2s0.3,0.3,0.4,0.3c0.1,0.2,0.2,0.3,0.1,0.5c0,0.2-0.1,0.3-0.3,0.5c-0.1,0.2-0.3,0.3-0.4,0.3c-0.2,0-0.3,0-0.6,0
		c-0.2,0-0.3-0.1-0.5-0.2C77.7,278.6,77.5,278.4,77.5,278.2z M78.3,277.5c-0.1,0.1-0.2,0.3-0.2,0.3s0,0.3,0.1,0.3
		c0.1,0.1,0.2,0.2,0.3,0.2c0.1,0,0.3,0,0.3-0.1c0.2-0.2,0.3-0.4,0.1-0.7c-0.1-0.1-0.2-0.2-0.3-0.2C78.5,277.4,78.3,277.4,78.3,277.5
		L78.3,277.5z M79.9,276.5l-0.1,0.4l-0.7-0.1l0.2-1.7v-0.1c0,0,0-0.1-0.1-0.1h-0.2v-0.3l1,0.1v0.4l0.6,0.1l-0.1,0.5H80v0.3l0.6,0.1
		v0.4L79.9,276.5z"/>
	<path class="st0" d="M83.6,276.9c-0.3,0-0.4-0.1-0.7-0.2c-0.2-0.1-0.3-0.3-0.4-0.4l0,0c-0.1,0.2-0.2,0.3-0.4,0.5
		c-0.2,0.2-0.4,0.3-0.6,0.3l-0.3-0.3l0,0c0.1,0,0.3-0.1,0.3-0.1c0.1-0.1,0.2-0.2,0.3-0.3c0.1-0.1,0.2-0.3,0.3-0.3c0-0.2,0-0.3,0-0.5
		c0-0.1,0-0.1,0-0.2v-0.1h-0.3V275l1-0.1v0.5c0,0.2,0.1,0.3,0.2,0.5c0.1,0.2,0.2,0.3,0.3,0.3c0.1,0.1,0.2,0.2,0.3,0.2
		c0.1,0,0.3,0.1,0.3,0.1l0,0L83.6,276.9z M84.7,278.7l-2,0.2c-0.1,0-0.2,0-0.3-0.1c-0.1-0.1-0.1-0.2-0.2-0.3l-0.1-0.8v-0.1H82v-0.3
		l3-0.3h0.1l0.1,1.1c0,0.1,0,0.2-0.1,0.3C85,278.6,84.9,278.7,84.7,278.7z M84.3,277.5l-1.4,0.1v0.6l0,0l1.2-0.1l0,0L84.3,277.5z
		 M84.3,276.9l-0.2-1.9c0,0,0-0.1,0-0.2h-0.3v-0.3l1-0.1l0.2,2.3L84.3,276.9z"/>
	<path class="st0" d="M87,278.7l-0.4-0.3c0.1,0,0.2-0.1,0.3-0.2s0.1-0.1,0.1-0.2h-0.3l-0.2-0.7l0.8-0.2l0.1,0.6c0,0.2,0,0.3,0,0.4
		C87.3,278.4,87.1,278.6,87,278.7z"/>
	<path class="st0" d="M90.3,275.7c-0.2,0.1-0.4,0.1-0.7,0c-0.3,0-0.4-0.2-0.6-0.3l0,0c-0.1,0.4-0.3,0.9-0.8,0.9l-0.4-0.2l0,0
		c0.1-0.1,0.2-0.1,0.3-0.2c0.1-0.1,0.2-0.2,0.3-0.3c0.1-0.1,0.2-0.3,0.2-0.4s0-0.3-0.1-0.5l-0.1-0.3c0-0.1-0.1-0.1-0.1-0.1h-0.1
		h-0.1l-0.1-0.3l0.9-0.3l0.2,0.6c0.1,0.2,0.2,0.3,0.3,0.5c0.1,0.1,0.3,0.2,0.3,0.3c0.1,0.1,0.3,0.1,0.3,0.1c0.1,0,0.3,0,0.3,0l0,0
		L90.3,275.7z M89.9,277.5c-0.2,0.1-0.3,0-0.4-0.2v-0.1l-0.2-0.6c0-0.1,0-0.1-0.1-0.1h-0.3l-0.1-0.3l0.9-0.3l0.3,0.8 M90.1,276.8
		l1.9-0.6l0.2,0.5L90.1,276.8z M91.2,275.9l-0.8-2.3c0,0,0-0.1-0.1-0.1h-0.3l-0.1-0.3l0.9-0.3l0.9,2.7L91.2,275.9z"/>
	<path class="st0" d="M96,274.8l-0.4-0.9c-0.2,0.2-0.4,0.3-0.6,0.4l-2,1.1l-0.3-0.4l0.9-0.5l-0.2-0.3l-0.3,0.2
		c-0.1,0.1-0.2,0.1-0.3,0.1c-0.1,0-0.2-0.1-0.3-0.2l-0.2-0.4c0-0.1-0.1-0.1-0.1-0.1c-0.1,0-0.1,0-0.2,0.1l-0.1-0.3l1.5-0.8l-0.2-0.3
		l-1.4,0.8l-0.3-0.4l2-1h0.1l0.5,0.9v0.1l0,0l-1.1,0.6l0.1,0.3l1.3-0.7l0.3,0.4l-0.6,0.3l0.2,0.3l0.5-0.3c0.2-0.1,0.3-0.2,0.4-0.3
		l-1-1.8l-0.1-0.1h-0.1l-0.1,0.1l-0.2-0.3l0.9-0.4l1.9,3.6L96,274.8z"/>
	
		<linearGradient id="SVGID_3_" gradientUnits="userSpaceOnUse" x1="1987.8423" y1="1012.9473" x2="1991.12" y2="1012.9473" gradientTransform="matrix(-0.38 -0.93 -0.93 0.38 1769.92 1691.79)">
		<stop  offset="4.000000e-02" style="stop-color:#2CA339"/>
		<stop  offset="9.000000e-02" style="stop-color:#48AA35"/>
		<stop  offset="0.15" style="stop-color:#5DB131"/>
		<stop  offset="0.22" style="stop-color:#71B42C"/>
		<stop  offset="0.29" style="stop-color:#7FB82C"/>
		<stop  offset="0.38" style="stop-color:#88B929"/>
		<stop  offset="0.5" style="stop-color:#8ABA29"/>
		<stop  offset="0.65" style="stop-color:#88B929"/>
		<stop  offset="0.73" style="stop-color:#7FB82C"/>
		<stop  offset="0.81" style="stop-color:#72B52D"/>
		<stop  offset="0.88" style="stop-color:#5FB131"/>
		<stop  offset="0.94" style="stop-color:#4AAB35"/>
		<stop  offset="1" style="stop-color:#2EA538"/>
		<stop  offset="1" style="stop-color:#2CA339"/>
	</linearGradient>
	<path class="st6" d="M75.2,236.7c0,0-0.4-1.4,0-1.9c-0.1,0.6,0,1.2,0.2,1.8c0,0,1.4-1.1,0.3-3.6C75.6,233,73.2,234.9,75.2,236.7z"
		/>
	
		<linearGradient id="SVGID_4_" gradientUnits="userSpaceOnUse" x1="71.5394" y1="251.8094" x2="75.1346" y2="251.8094" gradientTransform="matrix(1 0 0 -1 0 501)">
		<stop  offset="4.000000e-02" style="stop-color:#2CA339"/>
		<stop  offset="9.000000e-02" style="stop-color:#48AA35"/>
		<stop  offset="0.15" style="stop-color:#5DB131"/>
		<stop  offset="0.22" style="stop-color:#71B42C"/>
		<stop  offset="0.29" style="stop-color:#7FB82C"/>
		<stop  offset="0.38" style="stop-color:#88B929"/>
		<stop  offset="0.5" style="stop-color:#8ABA29"/>
		<stop  offset="0.65" style="stop-color:#88B929"/>
		<stop  offset="0.73" style="stop-color:#7FB82C"/>
		<stop  offset="0.81" style="stop-color:#72B52D"/>
		<stop  offset="0.88" style="stop-color:#5FB131"/>
		<stop  offset="0.94" style="stop-color:#4AAB35"/>
		<stop  offset="1" style="stop-color:#2EA538"/>
		<stop  offset="1" style="stop-color:#2CA339"/>
	</linearGradient>
	<path class="st7" d="M75.1,248.7c0,0-1.5-0.1-1.9,0.4c0.6-0.3,1.2-0.3,1.9-0.3c0,0-0.7,1.7-3.6,1.2C71.5,250.1,72.8,247,75.1,248.7
		z"/>
	
		<linearGradient id="SVGID_5_" gradientUnits="userSpaceOnUse" x1="463.9645" y1="880.2171" x2="467.5547" y2="880.2171" gradientTransform="matrix(0.82 -0.58 -0.58 -0.82 203.46 1243.05)">
		<stop  offset="4.000000e-02" style="stop-color:#2CA339"/>
		<stop  offset="9.000000e-02" style="stop-color:#48AA35"/>
		<stop  offset="0.15" style="stop-color:#5DB131"/>
		<stop  offset="0.22" style="stop-color:#71B42C"/>
		<stop  offset="0.29" style="stop-color:#7FB82C"/>
		<stop  offset="0.38" style="stop-color:#88B929"/>
		<stop  offset="0.5" style="stop-color:#8ABA29"/>
		<stop  offset="0.65" style="stop-color:#88B929"/>
		<stop  offset="0.73" style="stop-color:#7FB82C"/>
		<stop  offset="0.81" style="stop-color:#72B52D"/>
		<stop  offset="0.88" style="stop-color:#5FB131"/>
		<stop  offset="0.94" style="stop-color:#4AAB35"/>
		<stop  offset="1" style="stop-color:#2EA538"/>
		<stop  offset="1" style="stop-color:#2CA339"/>
	</linearGradient>
	<path class="st8" d="M74.4,250.9c0,0-1.2,0.8-1.2,1.5c0.3-0.5,0.8-1,1.4-1.3c0,0,0.4,1.8-2.2,3C72.3,254,71.5,250.9,74.4,250.9z"/>
	
		<linearGradient id="SVGID_6_" gradientUnits="userSpaceOnUse" x1="164.6597" y1="-589.0817" x2="168.5439" y2="-589.0817" gradientTransform="matrix(0.75 0.66 0.66 -0.75 323.97 -309.83)">
		<stop  offset="4.000000e-02" style="stop-color:#2CA339"/>
		<stop  offset="9.000000e-02" style="stop-color:#48AA35"/>
		<stop  offset="0.15" style="stop-color:#5DB131"/>
		<stop  offset="0.22" style="stop-color:#71B42C"/>
		<stop  offset="0.29" style="stop-color:#7FB82C"/>
		<stop  offset="0.38" style="stop-color:#88B929"/>
		<stop  offset="0.5" style="stop-color:#8ABA29"/>
		<stop  offset="0.65" style="stop-color:#88B929"/>
		<stop  offset="0.73" style="stop-color:#7FB82C"/>
		<stop  offset="0.81" style="stop-color:#72B52D"/>
		<stop  offset="0.88" style="stop-color:#5FB131"/>
		<stop  offset="0.94" style="stop-color:#4AAB35"/>
		<stop  offset="1" style="stop-color:#2EA538"/>
		<stop  offset="1" style="stop-color:#2CA339"/>
	</linearGradient>
	<path class="st9" d="M63.7,244.4c0,0-1.1-1.1-1.9-0.9c0.7,0.2,1.3,0.6,1.7,1.1c0,0-1.8,0.9-3.8-1.5C59.9,242.9,63,241.4,63.7,244.4
		z"/>
	
		<linearGradient id="SVGID_7_" gradientUnits="userSpaceOnUse" x1="394.01" y1="807.8823" x2="397.8761" y2="807.8823" gradientTransform="matrix(0.86 -0.51 -0.51 -0.86 134.16 1142.98)">
		<stop  offset="4.000000e-02" style="stop-color:#2CA339"/>
		<stop  offset="9.000000e-02" style="stop-color:#48AA35"/>
		<stop  offset="0.15" style="stop-color:#5DB131"/>
		<stop  offset="0.22" style="stop-color:#71B42C"/>
		<stop  offset="0.29" style="stop-color:#7FB82C"/>
		<stop  offset="0.38" style="stop-color:#88B929"/>
		<stop  offset="0.5" style="stop-color:#8ABA29"/>
		<stop  offset="0.65" style="stop-color:#88B929"/>
		<stop  offset="0.73" style="stop-color:#7FB82C"/>
		<stop  offset="0.81" style="stop-color:#72B52D"/>
		<stop  offset="0.88" style="stop-color:#5FB131"/>
		<stop  offset="0.94" style="stop-color:#4AAB35"/>
		<stop  offset="1" style="stop-color:#2EA538"/>
		<stop  offset="1" style="stop-color:#2CA339"/>
	</linearGradient>
	<path class="st10" d="M61.1,246.6c0,0-1.4,0.8-1.5,1.5c0.4-0.6,0.9-1,1.6-1.3c0,0,0.3,2-2.7,3.1C58.5,249.8,58,246.3,61.1,246.6z"
		/>
	
		<linearGradient id="SVGID_8_" gradientUnits="userSpaceOnUse" x1="612.9034" y1="977.8642" x2="616.7641" y2="977.8642" gradientTransform="matrix(0.72 -0.69 -0.69 -0.72 295.13 1376.1899)">
		<stop  offset="4.000000e-02" style="stop-color:#2CA339"/>
		<stop  offset="9.000000e-02" style="stop-color:#48AA35"/>
		<stop  offset="0.15" style="stop-color:#5DB131"/>
		<stop  offset="0.22" style="stop-color:#71B42C"/>
		<stop  offset="0.29" style="stop-color:#7FB82C"/>
		<stop  offset="0.38" style="stop-color:#88B929"/>
		<stop  offset="0.5" style="stop-color:#8ABA29"/>
		<stop  offset="0.65" style="stop-color:#88B929"/>
		<stop  offset="0.73" style="stop-color:#7FB82C"/>
		<stop  offset="0.81" style="stop-color:#72B52D"/>
		<stop  offset="0.88" style="stop-color:#5FB131"/>
		<stop  offset="0.94" style="stop-color:#4AAB35"/>
		<stop  offset="1" style="stop-color:#2EA538"/>
		<stop  offset="1" style="stop-color:#2CA339"/>
	</linearGradient>
	<path class="st11" d="M64,246.3c0,0-1.2,1-1.1,1.7c0.3-0.7,0.7-1.2,1.3-1.6c0,0,0.7,1.9-1.9,3.6C62.3,250.1,60.9,246.7,64,246.3z"
		/>
	
		<linearGradient id="SVGID_9_" gradientUnits="userSpaceOnUse" x1="111.5769" y1="-459.9362" x2="115.7774" y2="-459.9362" gradientTransform="matrix(0.82 0.57 0.57 -0.82 239.87 -205.56)">
		<stop  offset="4.000000e-02" style="stop-color:#2CA339"/>
		<stop  offset="9.000000e-02" style="stop-color:#48AA35"/>
		<stop  offset="0.15" style="stop-color:#5DB131"/>
		<stop  offset="0.22" style="stop-color:#71B42C"/>
		<stop  offset="0.29" style="stop-color:#7FB82C"/>
		<stop  offset="0.38" style="stop-color:#88B929"/>
		<stop  offset="0.5" style="stop-color:#8ABA29"/>
		<stop  offset="0.65" style="stop-color:#88B929"/>
		<stop  offset="0.73" style="stop-color:#7FB82C"/>
		<stop  offset="0.81" style="stop-color:#72B52D"/>
		<stop  offset="0.88" style="stop-color:#5FB131"/>
		<stop  offset="0.94" style="stop-color:#4AAB35"/>
		<stop  offset="1" style="stop-color:#2EA538"/>
		<stop  offset="1" style="stop-color:#2CA339"/>
	</linearGradient>
	<path class="st12" d="M73,237.1c0,0-1.4-1-2.1-0.8c0.8,0.1,1.5,0.4,2,1c0,0-1.8,1.1-4.3-1.3C68.6,236,71.9,233.9,73,237.1z"/>
	
		<linearGradient id="SVGID_10_" gradientUnits="userSpaceOnUse" x1="79.3974" y1="244.2734" x2="81.2543" y2="249.2547" gradientTransform="matrix(1 0 0 -1 0 501)">
		<stop  offset="0" style="stop-color:#359DD1"/>
		<stop  offset="1" style="stop-color:#0C377A"/>
	</linearGradient>
	<path class="st13" d="M77.2,247.1c0,0,0.3,1.1-1.4,4.6c-1.7,3.5-4,9.8-0.9,14.1c0,0-2.1-4.2,2.3-10.2c0,0-4.3,10.6,2.1,17
		c-1.4-2.6-1.7-5.6-1.1-8.5c1-4.7,2.5-7.4,2-11.9L77.2,247.1z"/>
	
		<linearGradient id="SVGID_11_" gradientUnits="userSpaceOnUse" x1="77.4499" y1="250.4841" x2="67.986" y2="259.3252" gradientTransform="matrix(1 0 0 -1 0 501)">
		<stop  offset="0" style="stop-color:#359DD1"/>
		<stop  offset="1" style="stop-color:#0C377A"/>
	</linearGradient>
	<path class="st14" d="M72.5,235.1c0,0,4.4,5.7,3.3,8.1c-1,2.5-7.5-0.7-14.6,3c0,0,21.6-2.6,18.6,11.6
		C79.8,257.8,83.6,243.8,72.5,235.1z"/>
	
		<linearGradient id="SVGID_12_" gradientUnits="userSpaceOnUse" x1="70.098" y1="259.3417" x2="75.321" y2="259.3417" gradientTransform="matrix(1 0 0 -1 0 501)">
		<stop  offset="0" style="stop-color:#359DD1"/>
		<stop  offset="1" style="stop-color:#0C377A"/>
	</linearGradient>
	<path class="st15" d="M75.1,242.6c-0.7,1.1-2.2,1.5-3.3,0.8c-0.9-0.8-0.9-2.1-0.2-3c0.8-0.9,2.1-0.9,3-0.2
		C75.3,240.7,75.6,241.7,75.1,242.6z"/>
	
		<linearGradient id="SVGID_13_" gradientUnits="userSpaceOnUse" x1="1074.0105" y1="-1218.4639" x2="1077.2883" y2="-1218.4639" gradientTransform="matrix(0.3783 -0.9257 0.9257 0.3783 808.4242 1690.7733)">
		<stop  offset="4.000000e-02" style="stop-color:#2CA339"/>
		<stop  offset="9.000000e-02" style="stop-color:#48AA35"/>
		<stop  offset="0.15" style="stop-color:#5DB131"/>
		<stop  offset="0.22" style="stop-color:#71B42C"/>
		<stop  offset="0.29" style="stop-color:#7FB82C"/>
		<stop  offset="0.38" style="stop-color:#88B929"/>
		<stop  offset="0.5" style="stop-color:#8ABA29"/>
		<stop  offset="0.65" style="stop-color:#88B929"/>
		<stop  offset="0.73" style="stop-color:#7FB82C"/>
		<stop  offset="0.81" style="stop-color:#72B52D"/>
		<stop  offset="0.88" style="stop-color:#5FB131"/>
		<stop  offset="0.94" style="stop-color:#4AAB35"/>
		<stop  offset="1" style="stop-color:#2EA538"/>
		<stop  offset="1" style="stop-color:#2CA339"/>
	</linearGradient>
	<path class="st16" d="M87.1,236.7c0,0,0.4-1.4,0-1.9c0.1,0.6,0.1,1.3-0.2,1.9c0,0-1.5-1.1-0.3-3.6C86.8,233,89.3,234.9,87.1,236.7z
		"/>
	
		<linearGradient id="SVGID_14_" gradientUnits="userSpaceOnUse" x1="2488.1074" y1="251.8094" x2="2491.7029" y2="251.8094" gradientTransform="matrix(-1 0 0 -1 2579 501)">
		<stop  offset="4.000000e-02" style="stop-color:#2CA339"/>
		<stop  offset="9.000000e-02" style="stop-color:#48AA35"/>
		<stop  offset="0.15" style="stop-color:#5DB131"/>
		<stop  offset="0.22" style="stop-color:#71B42C"/>
		<stop  offset="0.29" style="stop-color:#7FB82C"/>
		<stop  offset="0.38" style="stop-color:#88B929"/>
		<stop  offset="0.5" style="stop-color:#8ABA29"/>
		<stop  offset="0.65" style="stop-color:#88B929"/>
		<stop  offset="0.73" style="stop-color:#7FB82C"/>
		<stop  offset="0.81" style="stop-color:#72B52D"/>
		<stop  offset="0.88" style="stop-color:#5FB131"/>
		<stop  offset="0.94" style="stop-color:#4AAB35"/>
		<stop  offset="1" style="stop-color:#2EA538"/>
		<stop  offset="1" style="stop-color:#2CA339"/>
	</linearGradient>
	<path class="st17" d="M87.3,248.7c0,0,1.5-0.1,1.9,0.4c-0.6-0.3-1.2-0.3-1.9-0.3c0,0,0.7,1.7,3.6,1.2
		C90.9,250.1,89.6,247,87.3,248.7z"/>
	
		<linearGradient id="SVGID_15_" gradientUnits="userSpaceOnUse" x1="2438.5662" y1="-508.201" x2="2442.1562" y2="-508.201" gradientTransform="matrix(-0.8164 -0.5774 0.5774 -0.8164 2373.7949 1245.624)">
		<stop  offset="4.000000e-02" style="stop-color:#2CA339"/>
		<stop  offset="9.000000e-02" style="stop-color:#48AA35"/>
		<stop  offset="0.15" style="stop-color:#5DB131"/>
		<stop  offset="0.22" style="stop-color:#71B42C"/>
		<stop  offset="0.29" style="stop-color:#7FB82C"/>
		<stop  offset="0.38" style="stop-color:#88B929"/>
		<stop  offset="0.5" style="stop-color:#8ABA29"/>
		<stop  offset="0.65" style="stop-color:#88B929"/>
		<stop  offset="0.73" style="stop-color:#7FB82C"/>
		<stop  offset="0.81" style="stop-color:#72B52D"/>
		<stop  offset="0.88" style="stop-color:#5FB131"/>
		<stop  offset="0.94" style="stop-color:#4AAB35"/>
		<stop  offset="1" style="stop-color:#2EA538"/>
		<stop  offset="1" style="stop-color:#2CA339"/>
	</linearGradient>
	<path class="st18" d="M88.1,250.9c0,0,1.2,0.8,1.2,1.5c-0.3-0.5-0.8-1-1.4-1.3c0,0-0.4,1.8,2.2,3C90.1,254,90.9,250.9,88.1,250.9z"
		/>
	
		<linearGradient id="SVGID_16_" gradientUnits="userSpaceOnUse" x1="1987.5308" y1="1008.3986" x2="1991.4067" y2="1008.3986" gradientTransform="matrix(-0.75 0.66 -0.66 -0.75 2256.9299 -312.14)">
		<stop  offset="4.000000e-02" style="stop-color:#2CA339"/>
		<stop  offset="9.000000e-02" style="stop-color:#48AA35"/>
		<stop  offset="0.15" style="stop-color:#5DB131"/>
		<stop  offset="0.22" style="stop-color:#71B42C"/>
		<stop  offset="0.29" style="stop-color:#7FB82C"/>
		<stop  offset="0.38" style="stop-color:#88B929"/>
		<stop  offset="0.5" style="stop-color:#8ABA29"/>
		<stop  offset="0.65" style="stop-color:#88B929"/>
		<stop  offset="0.73" style="stop-color:#7FB82C"/>
		<stop  offset="0.81" style="stop-color:#72B52D"/>
		<stop  offset="0.88" style="stop-color:#5FB131"/>
		<stop  offset="0.94" style="stop-color:#4AAB35"/>
		<stop  offset="1" style="stop-color:#2EA538"/>
		<stop  offset="1" style="stop-color:#2CA339"/>
	</linearGradient>
	<path class="st19" d="M98.7,244.4c0,0,1.1-1.1,1.9-0.9c-0.7,0.2-1.3,0.6-1.7,1.1c0,0,1.8,0.9,3.8-1.5
		C102.6,242.9,99.4,241.4,98.7,244.4z"/>
	
		<linearGradient id="SVGID_17_" gradientUnits="userSpaceOnUse" x1="2467.1064" y1="-425.0656" x2="2470.9885" y2="-425.0656" gradientTransform="matrix(-0.8601 -0.5101 0.5101 -0.8601 2447.2529 1144.2847)">
		<stop  offset="4.000000e-02" style="stop-color:#2CA339"/>
		<stop  offset="9.000000e-02" style="stop-color:#48AA35"/>
		<stop  offset="0.15" style="stop-color:#5DB131"/>
		<stop  offset="0.22" style="stop-color:#71B42C"/>
		<stop  offset="0.29" style="stop-color:#7FB82C"/>
		<stop  offset="0.38" style="stop-color:#88B929"/>
		<stop  offset="0.5" style="stop-color:#8ABA29"/>
		<stop  offset="0.65" style="stop-color:#88B929"/>
		<stop  offset="0.73" style="stop-color:#7FB82C"/>
		<stop  offset="0.81" style="stop-color:#72B52D"/>
		<stop  offset="0.88" style="stop-color:#5FB131"/>
		<stop  offset="0.94" style="stop-color:#4AAB35"/>
		<stop  offset="1" style="stop-color:#2EA538"/>
		<stop  offset="1" style="stop-color:#2CA339"/>
	</linearGradient>
	<path class="st20" d="M101.4,246.6c0,0,1.4,0.8,1.5,1.5c-0.4-0.6-0.9-1-1.6-1.3c0,0-0.3,2,2.7,3.1
		C104,249.8,104.5,246.3,101.4,246.6z"/>
	
		<linearGradient id="SVGID_18_" gradientUnits="userSpaceOnUse" x1="2351.3296" y1="-697.4147" x2="2355.2002" y2="-697.4147" gradientTransform="matrix(-0.722 -0.6919 0.6919 -0.722 2284.5784 1376.0635)">
		<stop  offset="4.000000e-02" style="stop-color:#2CA339"/>
		<stop  offset="9.000000e-02" style="stop-color:#48AA35"/>
		<stop  offset="0.15" style="stop-color:#5DB131"/>
		<stop  offset="0.22" style="stop-color:#71B42C"/>
		<stop  offset="0.29" style="stop-color:#7FB82C"/>
		<stop  offset="0.38" style="stop-color:#88B929"/>
		<stop  offset="0.5" style="stop-color:#8ABA29"/>
		<stop  offset="0.65" style="stop-color:#88B929"/>
		<stop  offset="0.73" style="stop-color:#7FB82C"/>
		<stop  offset="0.81" style="stop-color:#72B52D"/>
		<stop  offset="0.88" style="stop-color:#5FB131"/>
		<stop  offset="0.94" style="stop-color:#4AAB35"/>
		<stop  offset="1" style="stop-color:#2EA538"/>
		<stop  offset="1" style="stop-color:#2CA339"/>
	</linearGradient>
	<path class="st21" d="M98.5,246.3c0,0,1.2,1,1.1,1.7c-0.3-0.7-0.7-1.2-1.3-1.6c0,0-0.7,1.9,1.9,3.6
		C100.2,250.1,101.5,246.7,98.5,246.3z"/>
	
		<linearGradient id="SVGID_19_" gradientUnits="userSpaceOnUse" x1="2094.7117" y1="918.9792" x2="2098.9167" y2="918.9792" gradientTransform="matrix(-0.8211 0.5707 -0.5707 -0.8211 2338.5769 -206.3459)">
		<stop  offset="4.000000e-02" style="stop-color:#2CA339"/>
		<stop  offset="9.000000e-02" style="stop-color:#48AA35"/>
		<stop  offset="0.15" style="stop-color:#5DB131"/>
		<stop  offset="0.22" style="stop-color:#71B42C"/>
		<stop  offset="0.29" style="stop-color:#7FB82C"/>
		<stop  offset="0.38" style="stop-color:#88B929"/>
		<stop  offset="0.5" style="stop-color:#8ABA29"/>
		<stop  offset="0.65" style="stop-color:#88B929"/>
		<stop  offset="0.73" style="stop-color:#7FB82C"/>
		<stop  offset="0.81" style="stop-color:#72B52D"/>
		<stop  offset="0.88" style="stop-color:#5FB131"/>
		<stop  offset="0.94" style="stop-color:#4AAB35"/>
		<stop  offset="1" style="stop-color:#2EA538"/>
		<stop  offset="1" style="stop-color:#2CA339"/>
	</linearGradient>
	<path class="st22" d="M89.5,237.1c0,0,1.4-1,2.1-0.8c-0.8,0.1-1.5,0.4-2,1c0,0,1.8,1.1,4.3-1.3C93.8,236,90.6,233.9,89.5,237.1z"/>
	
		<linearGradient id="SVGID_20_" gradientUnits="userSpaceOnUse" x1="2495.9548" y1="244.2693" x2="2497.8276" y2="249.2586" gradientTransform="matrix(-1 0 0 -1 2579 501)">
		<stop  offset="0" style="stop-color:#359DD1"/>
		<stop  offset="1" style="stop-color:#0C377A"/>
	</linearGradient>
	<path class="st23" d="M85.3,247.1c0,0-0.3,1.1,1.4,4.6c1.7,3.5,4,9.8,0.9,14.1c0,0,2.1-4.2-2.3-10.2c0,0,4.3,10.6-2.1,17
		c1.4-2.6,1.7-5.6,1.1-8.5c-1-4.7-2.5-7.4-2-11.9L85.3,247.1z"/>
	
		<linearGradient id="SVGID_21_" gradientUnits="userSpaceOnUse" x1="2494.0127" y1="250.4783" x2="2484.5486" y2="259.3194" gradientTransform="matrix(-1 0 0 -1 2579 501)">
		<stop  offset="0" style="stop-color:#359DD1"/>
		<stop  offset="1" style="stop-color:#0C377A"/>
	</linearGradient>
	<path class="st24" d="M90,235.1c0,0-4.4,5.7-3.3,8.1c1,2.5,7.5-0.7,14.6,3c0,0-21.6-2.6-18.6,11.6C82.7,257.8,78.7,243.8,90,235.1z
		"/>
	
		<linearGradient id="SVGID_22_" gradientUnits="userSpaceOnUse" x1="2486.666" y1="259.5603" x2="2491.8889" y2="259.5603" gradientTransform="matrix(-1 0 0 -1 2579 501)">
		<stop  offset="0" style="stop-color:#359DD1"/>
		<stop  offset="1" style="stop-color:#0C377A"/>
	</linearGradient>
	<path class="st25" d="M87.2,242.6c1,1.2,2.8,1.3,3.9,0.3c0.7-0.6,1-1.5,0.9-2.5c-1-1.2-2.8-1.3-3.9-0.3
		C87.5,240.6,87.1,241.6,87.2,242.6L87.2,242.6z"/>
</g>
</svg>
