<?xml version="1.0" encoding="utf-8"?>
<!-- Generator: Adobe Illustrator 25.0.1, SVG Export Plug-In . SVG Version: 6.00 Build 0)  -->
<svg version="1.1" id="레이어_1" xmlns="http://www.w3.org/2000/svg" xmlns:xlink="http://www.w3.org/1999/xlink" x="0px"
	 y="0px" viewBox="0 0 500 500" style="enable-background:new 0 0 500 500;" xml:space="preserve">
<style type="text/css">
	.st0{fill:#FFFFFF;}
	.st1{fill:#9FA0A0;}
	.st2{fill:#595857;}
	.st3{fill:#0C377A;}
	.st4{fill:url(#SVGID_1_);}
	.st5{fill:url(#SVGID_2_);}
	.st6{fill:url(#SVGID_3_);}
	.st7{fill:url(#SVGID_4_);}
	.st8{fill:url(#SVGID_5_);}
	.st9{fill:url(#SVGID_6_);}
	.st10{fill:url(#SVGID_7_);}
	.st11{fill:url(#SVGID_8_);}
	.st12{fill:url(#SVGID_9_);}
	.st13{fill:url(#SVGID_10_);}
	.st14{fill:url(#SVGID_11_);}
	.st15{fill:url(#SVGID_12_);}
	.st16{fill:url(#SVGID_13_);}
	.st17{fill:url(#SVGID_14_);}
	.st18{fill:url(#SVGID_15_);}
	.st19{fill:url(#SVGID_16_);}
	.st20{fill:url(#SVGID_17_);}
	.st21{fill:url(#SVGID_18_);}
	.st22{fill:url(#SVGID_19_);}
	.st23{fill:url(#SVGID_20_);}
	.st24{fill:url(#SVGID_21_);}
	.st25{fill:url(#SVGID_22_);}
</style>
<rect class="st0" width="500" height="500"/>
<g>
	<path class="st1" d="M105.2,272.4l5.1,7c0.1,0.2,0.1,0.3,0,0.4c-0.1,0.1-0.3,0.1-0.4,0.1h-1.7l-4.3-5.9l-1.1,1.3v4.7h-1.5
		c-0.4,0-0.6-0.2-0.6-0.5v-12.3h1.5c0.4,0,0.6,0.2,0.6,0.5v4.9l4.9-5.3h1.9c0.2,0,0.4,0,0.4,0.1c0,0.1,0,0.2-0.1,0.3L105.2,272.4z"
		/>
	<path class="st1" d="M118.7,267l4.8,12.3c0.1,0.3,0,0.5-0.4,0.5h-1.6l-1.3-3.4h-4.7l-1.3,3.5h-1.6c-0.4,0-0.5-0.2-0.4-0.5l4.8-12.3
		L118.7,267z M119.5,274.7l-1.6-4.4l-1.7,4.5L119.5,274.7z"/>
	<path class="st1" d="M135.3,279.9h-2l-5.3-9.1v9.1h-1.5c-0.4,0-0.6-0.2-0.6-0.5v-12.3h2l5.3,9v-9h1.5c0.4,0,0.6,0.2,0.6,0.5
		L135.3,279.9z"/>
	<path class="st1" d="M148.3,279.8h-2V279c-0.8,0.7-1.9,1.1-2.9,1.2c-0.8,0-1.7-0.2-2.4-0.6c-0.7-0.4-1.3-0.9-1.7-1.5
		c-0.4-0.7-0.8-1.4-1-2.1c-0.2-0.8-0.3-1.7-0.3-2.6c0-1.1,0.2-2.2,0.6-3.3c0.4-1,1-1.8,1.8-2.5c0.9-0.6,1.9-1,3-0.9
		c1.2,0,2.3,0.4,3.2,1.1c1,0.8,1.7,2,1.9,3.3h-2.2c-0.1-0.8-0.5-1.5-1.1-2c-0.5-0.5-1.1-0.7-1.8-0.7c-0.6,0-1.1,0.1-1.6,0.4
		c-0.5,0.3-0.8,0.7-1.1,1.2c-0.2,0.5-0.4,1-0.5,1.6c-0.1,0.6-0.2,1.3-0.2,1.9c0,0.6,0,1.2,0.2,1.8c0.1,0.5,0.3,1.1,0.5,1.6
		c0.2,0.5,0.6,0.9,1.1,1.1c0.5,0.3,1,0.4,1.6,0.4c0.8,0,1.6-0.3,2.1-0.9c0.5-0.6,0.8-1.3,0.8-2.1v-0.9h-3.4v-1.7h5.4L148.3,279.8z"
		/>
	<path class="st1" d="M160.6,279.9h-2l-5.3-9v9h-1.5c-0.4,0-0.6-0.2-0.6-0.5v-12.3h2l5.3,9v-9h1.5c0.4,0,0.6,0.2,0.6,0.5
		L160.6,279.9z"/>
	<path class="st1" d="M169.5,267l4.8,12.3c0.1,0.3,0,0.5-0.5,0.5h-1.6l-1.3-3.4h-4.6l-1.3,3.4h-1.6c-0.4,0-0.5-0.2-0.4-0.5l4.8-12.3
		H169.5z M170.3,274.7l-1.7-4.4l-1.7,4.5L170.3,274.7z"/>
	<path class="st1" d="M188,279.9h-1.5c-0.4,0-0.6-0.2-0.6-0.5v-7.3l-2.7,7.4h-1.9l-2.7-7.4v7.8h-1.5c-0.4,0-0.5-0.2-0.5-0.5v-12.3
		h2.1l3.6,9.9l3.5-9.9h1.5c0.4,0,0.6,0.2,0.6,0.5L188,279.9z"/>
	<path class="st1" d="M208.9,271.2h-2.1c-0.2-0.8-0.6-1.5-1.2-2.1c-0.5-0.4-1.1-0.7-1.8-0.7c-0.6,0-1.1,0.1-1.6,0.4
		c-0.4,0.3-0.8,0.7-1,1.2c-0.2,0.5-0.4,1-0.5,1.6c-0.1,0.6-0.1,1.3-0.1,1.9c0,0.6,0,1.2,0.2,1.8c0.1,0.5,0.3,1.1,0.5,1.6
		c0.2,0.5,0.6,0.9,1,1.2c0.5,0.3,1.1,0.4,1.6,0.4c0.6,0,1.3-0.2,1.7-0.7c0.5-0.6,0.9-1.3,1.1-2.1h2.1c-0.3,1.3-0.9,2.5-1.9,3.4
		c-1.8,1.4-4.3,1.5-6.1,0.1c-0.8-0.6-1.5-1.5-1.8-2.5c-0.4-1.1-0.6-2.2-0.6-3.3c0-1.1,0.2-2.2,0.6-3.3c0.4-1,1-1.8,1.8-2.5
		c0.9-0.7,1.9-1,3-1c1.2,0,2.3,0.4,3.2,1.1C208,268.7,208.6,269.9,208.9,271.2z"/>
	<path class="st1" d="M220.5,279.9H219c-0.4,0-0.6-0.2-0.6-0.5v-5.7h-4.9v6.2h-1.5c-0.4,0-0.6-0.2-0.6-0.5v-12.3h1.5
		c0.4,0,0.6,0.2,0.6,0.5v4.5h4.9v-4.9h1.5c0.4,0,0.6,0.2,0.6,0.5L220.5,279.9z"/>
	<path class="st1" d="M232.9,270.1c0.8,2.2,0.8,4.5,0,6.7c-0.4,1-1,1.8-1.8,2.5c-1.7,1.3-4,1.3-5.6,0c-0.8-0.6-1.4-1.5-1.8-2.5
		c-0.8-2.2-0.8-4.5,0-6.7c0.4-1,1-1.8,1.8-2.5c1.6-1.3,4-1.3,5.6,0C231.9,268.3,232.5,269.1,232.9,270.1z M231.4,273.4
		c0-0.8-0.1-1.6-0.3-2.4c-0.2-0.7-0.5-1.4-1-1.9c-0.8-0.9-2.2-1-3.2-0.3c-0.4,0.3-0.8,0.7-1,1.2c-0.2,0.5-0.4,1.1-0.5,1.6
		c-0.1,0.6-0.2,1.2-0.2,1.8c0,0.8,0.1,1.6,0.3,2.4c0.2,0.7,0.5,1.4,1,1.9c1,1,2.5,1,3.5,0.1c0,0,0,0,0.1-0.1c0.5-0.5,0.9-1.2,1-1.9
		C231.3,275,231.4,274.2,231.4,273.4z"/>
	<path class="st1" d="M238.3,279.9h-1.5c-0.4,0-0.6-0.2-0.6-0.5v-12.3h1.5c0.1,0,0.3,0,0.4,0.1c0.1,0.1,0.2,0.2,0.1,0.4L238.3,279.9
		z"/>
	<path class="st1" d="M251.6,271.2h-2.1c-0.2-0.8-0.6-1.5-1.1-2.1c-0.5-0.4-1.2-0.7-1.8-0.7c-0.6,0-1.1,0.1-1.6,0.4
		c-0.4,0.3-0.8,0.7-1,1.2c-0.2,0.5-0.4,1-0.5,1.6c-0.1,0.6-0.2,1.2-0.2,1.8c0,0.6,0.1,1.2,0.2,1.8c0.1,0.5,0.3,1.1,0.5,1.6
		c0.2,0.5,0.6,0.9,1,1.2c0.5,0.3,1,0.4,1.6,0.4c0.7,0,1.3-0.2,1.8-0.7c0.5-0.6,0.9-1.3,1.1-2.1h2.1c-0.3,1.3-0.9,2.5-1.9,3.4
		c-1.8,1.4-4.3,1.5-6.1,0.1c-0.8-0.6-1.4-1.5-1.8-2.5c-0.4-1.1-0.6-2.2-0.6-3.3c0-1.1,0.2-2.2,0.6-3.3c0.4-1,1-1.8,1.8-2.5
		c0.9-0.7,1.9-1,3-0.9c1.2,0,2.3,0.4,3.2,1.1C250.7,268.7,251.3,269.9,251.6,271.2z"/>
	<path class="st1" d="M262.9,279.9h-7.6c-0.3,0-0.6-0.1-0.8-0.3c-0.2-0.2-0.4-0.4-0.4-0.7v-11.8h8.5v1.8h-6.4v3.5h6.1v1.7h-6.1v3.6
		c0,0.1,0,0.2,0,0.4c0,0.1,0.1,0.1,0.3,0.1h6.3L262.9,279.9z"/>
	<path class="st1" d="M282.6,270.1c0.8,2.2,0.8,4.5,0,6.7c-0.4,1-1,1.8-1.8,2.5c-0.8,0.6-1.8,1-2.8,0.9c-1,0-2-0.3-2.8-0.9
		c-0.8-0.6-1.4-1.5-1.8-2.5c-0.8-2.2-0.8-4.5,0-6.7c0.4-1,1-1.8,1.8-2.5c0.8-0.6,1.8-1,2.8-0.9c1,0,2,0.3,2.8,0.9
		C281.7,268.3,282.3,269.1,282.6,270.1z M281.2,273.4c0-0.8-0.1-1.6-0.3-2.4c-0.2-0.7-0.5-1.4-1-1.9c-0.5-0.5-1.1-0.8-1.8-0.8
		c-0.5,0-1,0.1-1.4,0.4c-0.4,0.3-0.7,0.7-0.9,1.2c-0.2,0.5-0.4,1-0.5,1.6c-0.1,0.6-0.2,1.2-0.2,1.8c0,0.8,0.1,1.6,0.3,2.4
		c0.2,0.7,0.5,1.4,1,1.9c1,1,2.5,1,3.5,0.1l0.1-0.1c0.5-0.5,0.8-1.2,1-1.9C281.2,275,281.2,274.2,281.2,273.4z"/>
	<path class="st1" d="M292.5,274.4l2.5,5c0.1,0.2,0.1,0.3,0,0.4c-0.1,0.1-0.2,0.1-0.4,0.1H293l-2.6-5h-2.5v5.1h-1.5
		c-0.4,0-0.6-0.2-0.6-0.5v-12.3h4.6c1.1,0,2.2,0.3,3.1,1c0.9,0.7,1.3,1.7,1.3,2.8c0,0.8-0.2,1.5-0.6,2.1
		C293.7,273.7,293.1,274.1,292.5,274.4z M292.7,270.9c0-0.6-0.2-1.2-0.7-1.5c-0.5-0.4-1.1-0.6-1.7-0.5h-2.5v4.3h2.4
		c0.6,0,1.2-0.2,1.7-0.6C292.5,272.1,292.7,271.4,292.7,270.9L292.7,270.9z"/>
	<path class="st1" d="M306.7,268.8h-3.9v11.2h-1.5c-0.4,0-0.6-0.2-0.6-0.5v-10.5h-3.9v-1.8h9.9L306.7,268.8z"/>
	<path class="st1" d="M318.3,279.9h-1.5c-0.4,0-0.6-0.2-0.6-0.5v-5.7h-4.9v6.2h-1.5c-0.4,0-0.6-0.2-0.6-0.5v-12.3h1.5
		c0.4,0,0.6,0.2,0.6,0.5v4.5h4.9v-4.9h1.5c0.4,0,0.6,0.2,0.6,0.5L318.3,279.9z"/>
	<path class="st1" d="M330.7,270.1c0.8,2.2,0.8,4.5,0,6.7c-0.4,1-1,1.8-1.8,2.5c-1.7,1.3-4,1.3-5.7,0c-0.8-0.6-1.4-1.5-1.8-2.5
		c-0.8-2.2-0.8-4.5,0-6.7c0.4-1,1-1.8,1.8-2.5c1.7-1.3,4-1.3,5.7,0C329.7,268.3,330.3,269.1,330.7,270.1z M329.2,273.4
		c0-0.8-0.1-1.6-0.3-2.4c-0.2-0.7-0.5-1.4-1-1.9c-0.8-0.9-2.2-1-3.2-0.3c-0.4,0.3-0.7,0.7-0.9,1.2c-0.2,0.5-0.4,1-0.5,1.6
		c-0.3,1.4-0.2,2.8,0.1,4.2c0.2,0.7,0.5,1.4,1,1.9c0.5,0.5,1.1,0.8,1.8,0.8c0.7,0,1.3-0.3,1.8-0.8c0.5-0.5,0.8-1.2,1-1.9
		C329.1,275,329.2,274.2,329.2,273.4z"/>
	<path class="st1" d="M343,271c0,1.1-0.4,2.1-1.3,2.8c-0.9,0.7-2,1.1-3.1,1.1h-2.7v5h-1.5c-0.4,0-0.6-0.2-0.6-0.5v-12.3h4.8
		c1.1,0,2.2,0.4,3.1,1.1C342.5,268.9,343,269.9,343,271z M340.9,271c0-0.6-0.2-1.2-0.7-1.6c-0.5-0.4-1.1-0.6-1.7-0.6h-2.7v4.5h2.7
		c0.6,0,1.2-0.2,1.7-0.6C340.7,272.2,341,271.6,340.9,271L340.9,271z"/>
	<path class="st1" d="M354.2,279.9h-7.6c-0.3,0-0.6-0.1-0.8-0.3c-0.2-0.2-0.4-0.4-0.4-0.7v-11.8h8.5v1.8h-6.4v3.5h6.1v1.7h-6.1v3.6
		c0,0.1,0,0.2,0,0.4c0,0.1,0.1,0.1,0.3,0.1h6.3L354.2,279.9z"/>
	<path class="st1" d="M364.7,268.9c1.1,1.3,1.7,2.9,1.6,4.6c0,1.7-0.5,3.3-1.6,4.5c-1.1,1.2-2.6,1.9-4.2,1.9h-2.6
		c-0.3,0-0.6-0.1-0.8-0.3c-0.2-0.2-0.4-0.4-0.4-0.7V267h3.8C362.1,267,363.7,267.6,364.7,268.9z M364.3,273.4c0-1.2-0.3-2.4-1-3.3
		c-0.7-0.9-1.8-1.4-2.9-1.3h-1.5v8.9c0,0.1,0,0.2,0,0.4c0,0.1,0.1,0.1,0.3,0.1h1.2c1.1,0,2.2-0.5,2.9-1.4
		C363.9,275.8,364.3,274.6,364.3,273.4L364.3,273.4z"/>
	<path class="st1" d="M371.2,279.9h-1.5c-0.4,0-0.6-0.2-0.6-0.5v-12.3h1.5c0.1,0,0.3,0,0.4,0.1c0.1,0.1,0.2,0.2,0.1,0.4L371.2,279.9
		z"/>
	<path class="st1" d="M384.5,271.2h-2.1c-0.2-0.8-0.6-1.5-1.2-2.1c-0.5-0.4-1.1-0.7-1.8-0.7c-0.6,0-1.1,0.1-1.6,0.4
		c-0.4,0.3-0.8,0.7-1,1.2c-0.2,0.5-0.4,1-0.5,1.6c-0.1,0.6-0.2,1.2-0.2,1.8c0,0.6,0.1,1.2,0.2,1.8c0.1,0.6,0.3,1.1,0.5,1.6
		c0.2,0.5,0.6,0.9,1,1.2c0.5,0.3,1,0.4,1.6,0.4c0.7,0,1.3-0.2,1.8-0.7c0.5-0.6,0.9-1.3,1.1-2.1h2.1c-0.3,1.3-0.9,2.5-1.9,3.4
		c-0.9,0.7-2,1.1-3.1,1.1c-1.1,0-2.1-0.3-3-0.9c-0.8-0.6-1.4-1.5-1.8-2.5c-0.8-2.1-0.8-4.5,0-6.6c0.4-1,1-1.8,1.8-2.5
		c0.9-0.7,1.9-1,3-0.9c1.2,0,2.3,0.4,3.2,1.1C383.6,268.7,384.2,269.9,384.5,271.2z"/>
	<path class="st1" d="M403.9,279.9h-1.5c-0.4,0-0.6-0.2-0.6-0.5v-5.7h-4.9v6.2h-1.5c-0.4,0-0.6-0.2-0.6-0.5v-12.3h1.5
		c0.4,0,0.6,0.2,0.6,0.5v4.5h4.9v-4.9h1.5c0.4,0,0.6,0.2,0.6,0.5V279.9z"/>
	<path class="st1" d="M416.3,270.1c0.8,2.2,0.8,4.5,0,6.7c-0.4,1-1,1.8-1.8,2.5c-0.8,0.6-1.8,1-2.8,0.9c-1,0-2-0.3-2.8-0.9
		c-0.8-0.6-1.4-1.5-1.8-2.5c-0.8-2.2-0.8-4.5,0-6.7c0.4-1,1-1.8,1.8-2.5c0.8-0.6,1.8-1,2.8-0.9c1,0,2,0.3,2.8,0.9
		C415.3,268.3,415.9,269.1,416.3,270.1z M414.8,273.4c0-0.8-0.1-1.6-0.3-2.4c-0.2-0.7-0.5-1.4-1-1.9c-0.5-0.5-1.1-0.8-1.8-0.8
		c-0.5,0-1,0.1-1.4,0.4c-0.4,0.3-0.8,0.7-1,1.2c-0.2,0.5-0.4,1.1-0.5,1.6c-0.3,1.4-0.2,2.8,0.1,4.2c0.2,0.7,0.5,1.4,1,1.9
		c0.9,1,2.5,1,3.5,0.1l0.1-0.1c0.5-0.5,0.9-1.2,1-1.9C414.7,275,414.8,274.2,414.8,273.4z"/>
	<path class="st1" d="M428.3,275.9c0,0.7-0.1,1.3-0.4,1.9c-0.2,0.5-0.6,1-1.1,1.3c-0.4,0.3-0.9,0.6-1.5,0.7c-1,0.3-2,0.3-2.9,0.1
		c-0.5-0.1-0.9-0.3-1.3-0.6c-0.4-0.3-0.8-0.6-1.1-0.9c-0.3-0.4-0.6-0.9-0.8-1.4c-0.2-0.6-0.3-1.2-0.2-1.9h2
		c-0.1,0.9,0.2,1.7,0.8,2.4c0.5,0.5,1.2,0.8,1.9,0.7c0.6,0,1.3-0.2,1.8-0.6c0.5-0.4,0.8-1,0.8-1.7c0-0.2-0.1-0.5-0.2-0.7
		c-0.1-0.2-0.2-0.3-0.4-0.5c-0.2-0.1-0.4-0.3-0.7-0.3l-0.8-0.2l-0.9-0.2c-0.5-0.1-1-0.3-1.5-0.4c-0.4-0.2-0.8-0.3-1.2-0.6
		c-0.4-0.2-0.7-0.6-0.9-1c-0.2-0.5-0.3-1-0.3-1.5c-0.1-1.1,0.4-2.2,1.3-3c0.8-0.7,1.9-1.1,3-1c0.6,0,1.1,0.1,1.7,0.3
		c0.5,0.2,1,0.4,1.4,0.8c0.4,0.4,0.8,0.9,1,1.4c0.2,0.7,0.3,1.4,0.3,2.1h-2c0-1.9-0.8-2.8-2.4-2.8c-0.6,0-1.1,0.2-1.5,0.6
		c-0.4,0.4-0.7,1-0.6,1.6c0,0.3,0.1,0.5,0.2,0.7c0.2,0.2,0.4,0.4,0.7,0.5c0.3,0.1,0.6,0.3,0.9,0.4c0.3,0.1,0.6,0.2,1.1,0.3l0.9,0.2
		c0.3,0.1,0.5,0.1,0.8,0.2c0.3,0.1,0.5,0.2,0.8,0.3l0.6,0.4c0.2,0.2,0.4,0.3,0.5,0.6c0.1,0.2,0.2,0.5,0.3,0.7
		C428.3,275.3,428.3,275.6,428.3,275.9z"/>
	<path class="st1" d="M440,271c0,1.1-0.5,2.1-1.3,2.8c-0.9,0.7-2,1.1-3.1,1.1h-2.7v5h-1.5c-0.4,0-0.6-0.2-0.6-0.5v-12.3h4.8
		c1.1,0,2.2,0.4,3.1,1.1C439.5,268.9,440,269.9,440,271z M437.8,271c0-0.6-0.2-1.2-0.6-1.6c-0.5-0.4-1.1-0.6-1.7-0.6h-2.7v4.5h2.7
		c0.6,0,1.2-0.2,1.7-0.6C437.6,272.2,437.9,271.6,437.8,271L437.8,271z"/>
	<path class="st1" d="M444.8,279.9h-1.5c-0.4,0-0.6-0.2-0.6-0.5v-12.3h1.5c0.1,0,0.3,0,0.4,0.1c0.1,0,0.1,0.2,0.1,0.4L444.8,279.9z"
		/>
	<path class="st1" d="M457.5,268.8h-3.9v11.2h-1.5c-0.4,0-0.6-0.2-0.6-0.5v-10.5h-3.9v-1.8h9.9L457.5,268.8z"/>
	<path class="st1" d="M465.1,267l4.8,12.3c0.1,0.3,0,0.5-0.4,0.5h-1.6l-1.3-3.4h-4.6l-1.3,3.5H459c-0.4,0-0.5-0.2-0.4-0.5l4.8-12.3
		L465.1,267z M465.9,274.7l-1.6-4.4l-1.7,4.5L465.9,274.7z"/>
	<path class="st1" d="M480.7,279.9h-7.3c-0.3,0-0.6-0.1-0.8-0.3c-0.2-0.2-0.4-0.4-0.4-0.7v-11.8h1.5c0.4,0,0.6,0.2,0.6,0.5v10.2
		c0,0.1,0,0.2,0,0.4c0,0.1,0.1,0.1,0.3,0.1h6.1L480.7,279.9z"/>
	<path class="st2" d="M299.5,244.1c-1.7-0.3-3.3-0.9-4.6-1.9c-1.5-0.9-2.7-2.1-3.5-3.7c0-0.1,0-0.1-0.1-0.1c0,0,0,0,0,0
		c-0.1,0-0.1,0-0.1,0.1c-0.8,1.5-2,2.8-3.4,3.7c-1.4,1-3,1.6-4.7,1.9c-1.1-0.9-2.2-1.8-3.2-2.8c-0.1-0.1-0.1-0.2-0.1-0.3
		c0-0.1,0.1-0.2,0.3-0.2c0.8,0,1.5-0.2,2.2-0.5c0.9-0.4,1.7-0.9,2.5-1.4c0.9-0.7,1.7-1.6,2.2-2.6c0.6-1.1,1-2.4,1.1-3.7h-5.9v-4.1
		h18.2v4.1h-6c0.1,1,0.3,2.1,0.8,3c0.4,0.9,0.9,1.6,1.6,2.3c0.6,0.6,1.3,1.1,2,1.6c0.6,0.4,1.3,0.7,2,0.9c0.6,0.2,1.1,0.3,1.7,0.3
		c0.2,0,0.3,0,0.3,0.2c0,0.1,0,0.2-0.1,0.3c-0.6,0.6-1.2,1.2-1.9,1.7L299.5,244.1z M292.4,256.6c-1.8-2.5-1.8-5.9,0-8.4
		c0.8-1.2,2-2.1,3.3-2.6c2.8-1,5.8-1,8.6,0c1.3,0.5,2.5,1.4,3.3,2.6c1.8,2.5,1.8,5.9,0,8.4c-0.8,1.2-2,2.1-3.3,2.6
		c-2.8,1.1-5.8,1.1-8.6,0C294.4,258.7,293.2,257.8,292.4,256.6z M297.8,249.8c-0.7,0.7-1,1.6-1,2.6c-0.1,1,0.3,1.9,1,2.6
		c1.1,1.2,3,1.3,4.2,0.2c0,0,0,0,0,0l0.1-0.1c1.3-1.5,1.3-3.7,0-5.2c-0.6-0.6-1.4-0.9-2.2-0.9C299.2,248.8,298.4,249.2,297.8,249.8z
		 M304.9,245.3V238h-6.2v-4.3h6.2v-3c0-0.4-0.1-0.7-0.4-0.9c-0.2-0.2-0.5-0.3-0.7-0.3c-0.4,0-0.7,0-1.1,0V227h8v18.2L304.9,245.3z"
		/>
	<path class="st2" d="M339.6,244.6v-2h-8.2c-1.2,1-2.6,1.5-4.1,1.7c-1.5,0.2-2.9,0.1-4.3-0.4c-1.4-0.5-2.6-1.3-3.4-2.5
		c-0.9-1.2-1.4-2.7-1.4-4.2c0-1,0.2-2,0.7-3h-3.5v-4.2h7.7v-0.9c0-0.3-0.1-0.5-0.3-0.7c-0.1-0.1-0.3-0.2-0.5-0.2h-0.7v-1.8h7.6v3.7
		h7.8v4.1h-3.7c0.1,0.2,0.2,0.5,0.3,0.7h6v-4.3c0-0.4-0.1-0.7-0.4-0.9c-0.2-0.2-0.5-0.3-0.7-0.3h-1.1v-2.4h8v17.7L339.6,244.6z
		 M324,237.2c-0.1,1,0.3,2.1,1,2.8c0.6,0.5,1.5,0.5,2.1,0c0.8-0.7,1.2-1.7,1-2.7c0-0.8-0.2-1.6-0.7-2.3c-0.5-0.8-1.5-1-2.3-0.6
		c0,0,0,0,0,0c-0.2,0.1-0.4,0.3-0.6,0.6C324.2,235.6,324,236.4,324,237.2L324,237.2z M327.1,256.5c-0.9-1.2-1.3-2.7-1.3-4.3
		c0-1.5,0.4-3,1.3-4.3c0.9-1.2,2-2.1,3.4-2.6c2.8-1.1,5.9-1.1,8.8,0c1.3,0.5,2.5,1.4,3.4,2.6c0.9,1.2,1.3,2.7,1.3,4.3
		c0,1.5-0.4,3-1.3,4.3c-0.9,1.2-2,2.1-3.4,2.6c-2.8,1.1-5.9,1.1-8.8,0C329.1,258.6,328,257.7,327.1,256.5z M332.6,249.5
		c-0.7,0.7-1.1,1.7-1,2.7c-0.1,1,0.3,2,1,2.7c1.1,1.2,3.1,1.3,4.3,0.2l0.2-0.2c0.7-0.7,1.1-1.7,1-2.7c0.1-1-0.3-2-1-2.7
		c-1.2-1.2-3.1-1.3-4.3-0.1c0,0,0,0,0,0L332.6,249.5z M339.6,238.4h-5.7c0,0.3-0.1,0.5-0.2,0.8h5.9L339.6,238.4z"/>
	<path class="st2" d="M373.5,259.4v-7.8c-1.9,0.4-3.8,0.6-5.7,0.5h-18.2v-4h9.4v-1.3c0-0.2,0-0.5-0.1-0.7c-0.1-0.2-0.3-0.3-0.5-0.4
		l-0.5-0.1h-0.7v-2.1h7.5v4.5h2.7c0.9,0,2.1,0,3.3-0.1c1,0,1.9-0.2,2.8-0.5v-16.7c0-0.4-0.1-0.7-0.4-0.9c-0.2-0.2-0.5-0.3-0.7-0.3
		h-1.1V227h7.9v32.4H373.5z M354.2,239c-1.7-2.5-1.7-5.7,0-8.2c0.8-1.1,1.9-2,3.1-2.5c1.3-0.5,2.7-0.8,4.1-0.8
		c1.4,0,2.8,0.3,4.1,0.8c1.3,0.5,2.3,1.4,3.1,2.5c1.7,2.4,1.7,5.7,0,8.1c-0.8,1.1-1.9,2-3.1,2.5c-2.6,1-5.6,1-8.2,0
		C356.1,241,355,240.2,354.2,239L354.2,239z M358.7,234.8c-0.1,1.2,0.4,2.3,1.4,2.9c0.8,0.6,1.9,0.6,2.7,0c1-0.6,1.5-1.8,1.4-2.9
		c0.1-0.9-0.3-1.8-0.9-2.5c-0.5-0.6-1.2-0.9-1.9-0.9c-0.7,0-1.4,0.3-1.9,0.9C359,232.9,358.6,233.8,358.7,234.8L358.7,234.8z"/>
	<path class="st2" d="M412.2,241.4v17.9h-5.7v-8.4c-1.8,0.3-3.6,0.5-5.4,0.4h-17.9v-4.1h6.2V241c0-0.2,0-0.5-0.1-0.7
		c-0.1-0.2-0.3-0.3-0.5-0.3l-0.5-0.1c-0.2,0-0.5,0-0.7,0v-2.1h7.3v9.4h7.6c1.3,0,2.6-0.1,3.9-0.4v-16c0-0.4-0.1-0.7-0.4-0.9
		c-0.2-0.2-0.5-0.3-0.7-0.3h-1.1V227h7.9v10.1h4.8v4.3L412.2,241.4z M401.8,245.7h-5.5c1.1-1.8,1.7-4.5,1.7-8.2v-3.7
		c0-0.2,0-0.4-0.1-0.4c-0.1-0.1-0.3-0.1-0.5-0.1h-12.6v-4.1h18.3c0.2,0,0.5,0.1,0.5,0.4c0,0,0,0.1,0,0.1v8.2
		C403.5,241.5,402.9,244.1,401.8,245.7L401.8,245.7z"/>
	<path class="st2" d="M437.4,240.6c0,0.8-0.2,1.6-0.8,2.2c-0.6,0.6-1.4,0.8-2.2,0.8h-10.9c-0.8,0-1.6-0.2-2.2-0.8
		c-0.6-0.6-0.9-1.4-0.8-2.2v-8.9c0-0.3-0.1-0.5-0.3-0.7c-0.2-0.1-0.4-0.2-0.6-0.3h-0.8v-2.2h7.3v4.1h5.7v-1.3c0-0.3-0.1-0.5-0.3-0.7
		c-0.2-0.1-0.4-0.2-0.6-0.3h-0.8V228h7.3v3.4h5.2v-0.7c0-0.4-0.1-0.7-0.4-0.9c-0.2-0.2-0.5-0.3-0.7-0.3h-1.1V227h8V245h-5.8v-4.4
		H437.4z M431.8,236.7H426v2.3c0,0.2,0,0.3,0.1,0.3c0.1,0,0.2,0,0.4,0h4.9c0.2,0,0.4-0.1,0.4-0.4L431.8,236.7L431.8,236.7z
		 M430.3,256.6c-1.8-2.5-1.8-5.9,0-8.4c0.8-1.2,2-2.1,3.3-2.6c2.8-1,5.8-1,8.6,0c1.3,0.5,2.5,1.4,3.3,2.6c1.8,2.5,1.8,5.9,0,8.4
		c-0.8,1.2-2,2.1-3.3,2.6c-2.8,1.1-5.8,1.1-8.6,0C432.3,258.7,431.1,257.8,430.3,256.6z M435.7,249.8c-0.7,0.7-1,1.6-1,2.6
		c-0.1,1,0.3,1.9,1,2.6c1.1,1.2,3,1.3,4.2,0.2c0,0,0,0,0,0c0.1,0,0.1-0.1,0.2-0.2c0.7-0.7,1.1-1.6,1-2.6c0-1-0.3-1.9-1-2.6
		c-0.6-0.6-1.4-0.9-2.2-0.9C437.1,248.9,436.3,249.2,435.7,249.8L435.7,249.8z M442.6,235.2h-5.2v1.5h5.2V235.2z"/>
	<path class="st2" d="M466.8,244.2v4.1h-6v-4.1h-8v-4h23v4H466.8z M456.4,233.1c0-1.3,0.4-2.5,1.1-3.5c0.7-1,1.7-1.7,2.8-2.1
		c2.3-0.9,4.9-0.9,7.3,0c1.1,0.4,2.1,1.2,2.8,2.2c0.8,1,1.2,2.2,1.1,3.5c0,1.2-0.4,2.5-1.1,3.4c-0.7,1-1.7,1.7-2.8,2.1
		c-2.3,0.9-4.9,0.9-7.3,0c-1.1-0.4-2.1-1.2-2.8-2.1C456.7,235.6,456.3,234.3,456.4,233.1L456.4,233.1z M464,259c-2.1,0-3.1-1-3.1-3
		v-3.5c0-0.4-0.1-0.7-0.4-0.9c-0.2-0.2-0.4-0.3-0.7-0.3h-1.1v-2h8.1v5.2c0,0.3,0.1,0.4,0.4,0.4h16v4.2H464z M461.8,233.1
		c0,0.7,0.2,1.3,0.7,1.8c0.4,0.4,0.9,0.6,1.5,0.6c0.5,0,1.1-0.3,1.4-0.7c0.4-0.5,0.7-1.1,0.7-1.7c0.1-0.8-0.3-1.6-1.1-2.1
		c-0.6-0.4-1.5-0.4-2.1,0C462.1,231.4,461.7,232.2,461.8,233.1L461.8,233.1z M476.9,250.9v-2.6h-6.2v-3.4h6.2v-14.6
		c0-0.4-0.1-0.7-0.4-0.9c-0.2-0.2-0.5-0.3-0.7-0.3h-1.1V227h8v24L476.9,250.9z"/>
	<path class="st3" d="M100.1,246.6l-2.4-2.8c-0.1-0.1-0.1-0.2-0.1-0.3c0-0.1,0.1-0.2,0.3-0.2c1.9-0.3,3.7-0.9,5.5-1.7
		c1.8-0.9,3.3-2.2,4.6-3.7c1.2-1.5,1.9-3.4,1.9-5.3H100v-4.1h15.6c0.3,0,0.5,0.2,0.5,0.5c0.2,4.5-1.3,8.9-4.3,12.3
		C108.8,244.4,104.6,246.4,100.1,246.6z M109.1,256.3c-1.7-2.5-1.7-5.9,0-8.4c0.8-1.2,2-2.1,3.3-2.6c2.8-1.1,5.8-1.1,8.6,0
		c1.3,0.5,2.5,1.4,3.3,2.6c1.7,2.5,1.7,5.9,0,8.4c-0.8,1.2-2,2.1-3.3,2.6c-2.8,1.1-5.8,1.1-8.6,0C111.1,258.4,110,257.5,109.1,256.3
		L109.1,256.3z M114.6,249.5c-1.3,1.5-1.3,3.7,0,5.2c0.6,0.6,1.4,0.9,2.2,0.9c0.8,0,1.6-0.3,2.2-0.9c1.3-1.5,1.3-3.7,0-5.2
		c-1.1-1.2-3-1.3-4.2-0.2C114.7,249.4,114.6,249.4,114.6,249.5L114.6,249.5z M126.9,237.2v7.5h-5.7v-14c0-0.4-0.1-0.8-0.3-1.1
		c-0.2-0.2-0.5-0.3-0.8-0.3c-0.3,0-0.7,0-1,0V227h8v5.9h4.8v4.3L126.9,237.2z"/>
	<path class="st3" d="M165.1,237.5v7.5h-5.8v-3c-1.8,0.4-3.7,0.6-5.5,0.5h-12.3c-3,0-4.5-1.5-4.5-4.5v-6c0-0.3-0.1-0.5-0.2-0.8
		c-0.1-0.2-0.4-0.4-0.6-0.4c-0.2-0.1-0.4-0.1-0.7-0.1h-0.7v-2h8v9.2c0,0.3,0.1,0.5,0.4,0.5c0,0,0,0,0,0h12c1.4,0.1,2.8-0.1,4.1-0.5
		v-7.2c0-0.4-0.1-0.7-0.4-0.9c-0.2-0.2-0.5-0.3-0.7-0.3h-1.1v-2.4h8v6.3h4.7v4.3L165.1,237.5z M161.9,259.4h-16
		c-0.9,0-1.7-0.3-2.3-0.9c-0.6-0.6-1-1.4-0.9-2.3v-6.8c0-0.4-0.1-0.7-0.4-0.9c-0.2-0.2-0.5-0.3-0.7-0.3h-1v-2h24.2
		c0.3,0,0.5,0.2,0.5,0.4v9.6c0,0.9-0.3,1.7-0.9,2.3C163.6,259.2,162.8,259.5,161.9,259.4L161.9,259.4z M159.3,250.2h-10.8v5
		c0,0.2,0,0.3,0.1,0.3c0.1,0,0.2,0,0.3,0h9.9c0.2,0,0.3,0,0.4-0.1c0.1-0.1,0.1-0.2,0.1-0.3L159.3,250.2z"/>
	<path class="st3" d="M172.1,255.8v-4.2h13.4v-3.4c0-0.2,0-0.5-0.1-0.7c-0.1-0.2-0.3-0.3-0.5-0.4l-0.5-0.1h-0.7v-2h7.8v6.6h13.3v4.2
		L172.1,255.8z M200,246.1c-2.4-0.1-4.7-0.6-6.8-1.6c-1.9-0.8-3.6-2.2-4.6-4c-0.1-0.1-0.1-0.1-0.2,0c-1.1,1.8-2.7,3.2-4.6,4
		c-2.1,1-4.5,1.5-6.8,1.6l-3.1-3.2c-0.1-0.1-0.2-0.2-0.2-0.4c0-0.1,0.1-0.2,0.4-0.2c2.7,0,5.3-0.7,7.6-2c2.1-1,3.5-3.2,3.5-5.5h-9.4
		v-4.1h9.5v-1.4c0-0.5-0.4-0.7-1.3-0.7v-2h7.6v4.2h9.5v4.1h-9.4c0.1,1.6,0.7,3.1,1.9,4.1c1.2,1.2,2.6,2.1,4.2,2.6
		c1.6,0.5,3.3,0.8,5.1,0.8c0.2,0,0.4,0.1,0.4,0.2c0,0.1,0,0.3-0.2,0.3L200,246.1z"/>
	<path class="st3" d="M209.5,243.7c-2-3.1-2-7.1,0-10.2c0.9-1.4,2.2-2.5,3.8-3.1c1.6-0.7,3.2-1,4.9-0.9c1.7,0,3.4,0.3,4.9,1
		c1.5,0.7,2.8,1.8,3.8,3.1c2,3.1,2,7.1,0,10.2c-0.9,1.4-2.2,2.5-3.8,3.2c-3.1,1.3-6.7,1.3-9.8,0
		C211.8,246.2,210.5,245.1,209.5,243.7z M214,238.6c0,1.2,0.3,2.4,0.9,3.4c0.4,0.8,1.2,1.4,2.1,1.7c0.8,0.2,1.7,0.2,2.5,0
		c0.9-0.3,1.7-0.9,2.1-1.7c0.6-1,0.9-2.2,0.9-3.4c0-1-0.2-2-0.6-3c-0.3-0.7-0.9-1.3-1.6-1.8c-1.2-0.8-2.8-0.8-4,0
		c-0.7,0.4-1.2,1.1-1.6,1.8C214.2,236.6,214,237.6,214,238.6L214,238.6z M231.5,259.3v-28.7c0-0.4-0.1-0.7-0.4-0.9
		c-0.2-0.2-0.5-0.3-0.7-0.3c-0.4,0-0.7,0-1.1,0V227h8v32.4L231.5,259.3z"/>
	<path class="st3" d="M241.7,255.8v-4.1h32.6v4.1H241.7z M270.2,246.4c-2.3,0-4.6-0.5-6.7-1.5c-2.1-0.9-3.9-2.4-5.2-4.3l-0.2-0.2
		c-0.1,0.1-0.2,0.1-0.2,0.2c-1.3,1.9-3.1,3.3-5.2,4.2c-2.1,1-4.4,1.5-6.7,1.5l-2.8-3c-0.3-0.3-0.2-0.4,0-0.5h0.2
		c1.5,0,2.9-0.3,4.3-0.7c1.3-0.4,2.6-1,3.7-1.7c1.1-0.8,2-1.9,2.7-3.1c0.7-1.4,1-2.9,0.9-4.5v-1c0-0.3,0-0.5-0.1-0.8
		c0-0.2-0.1-0.4-0.3-0.6c-0.2-0.2-0.4-0.3-0.6-0.3c-0.4,0-0.7,0-1.1,0v-2.4h8.3v5.7c-0.1,1.9,0.5,3.7,1.7,5.2
		c1.1,1.4,2.6,2.5,4.2,3.1c1.8,0.7,3.7,1,5.7,1c0.4,0,0.5,0.2,0.2,0.5L270.2,246.4z"/>
	
		<linearGradient id="SVGID_1_" gradientUnits="userSpaceOnUse" x1="53.29" y1="210.9019" x2="53.29" y2="283.2008" gradientTransform="matrix(1 0 0 1 0 2)">
		<stop  offset="0" style="stop-color:#359DD1"/>
		<stop  offset="1" style="stop-color:#0C377A"/>
	</linearGradient>
	<path class="st4" d="M53.3,213.6c-20.1,0-36.4,16.3-36.4,36.4s16.3,36.4,36.4,36.4s36.4-16.3,36.4-36.4
		C89.7,229.9,73.4,213.6,53.3,213.6C53.3,213.6,53.3,213.6,53.3,213.6z M53.3,285.5c-19.6,0-35.6-15.9-35.6-35.6
		c0-19.6,15.9-35.6,35.6-35.6c19.6,0,35.6,15.9,35.6,35.6c0,0,0,0,0,0l0,0C88.8,269.6,72.9,285.5,53.3,285.5L53.3,285.5z"/>
	
		<linearGradient id="SVGID_2_" gradientUnits="userSpaceOnUse" x1="53.29" y1="210.9019" x2="53.29" y2="283.2008" gradientTransform="matrix(1 0 0 1 0 2)">
		<stop  offset="0" style="stop-color:#359DD1"/>
		<stop  offset="1" style="stop-color:#0C377A"/>
	</linearGradient>
	<path class="st5" d="M53.3,214.9c-19.4,0-35.1,15.7-35.1,35.1c0,19.4,15.7,35.1,35.1,35.1s35.1-15.7,35.1-35.1l0,0
		C88.4,230.6,72.7,214.9,53.3,214.9z M53.3,277.6c-15.4,0-27.8-12.4-27.8-27.8S37.9,222,53.3,222c15.4,0,27.8,12.4,27.8,27.8
		c0,0,0,0,0,0l0,0C81.1,265.2,68.7,277.6,53.3,277.6C53.3,277.6,53.3,277.6,53.3,277.6L53.3,277.6L53.3,277.6z"/>
	<path class="st0" d="M37.6,277.4c-0.2-0.2-0.3-0.4-0.4-0.6c-0.1-0.2-0.2-0.5-0.2-0.7l0,0c-0.2,0.1-0.5,0.2-0.7,0.2
		c-0.2,0-0.5,0-0.7-0.1c-0.1-0.2-0.1-0.4-0.2-0.6l0,0c0.1,0,0.2,0.1,0.3,0.1h0.4c0.2,0,0.3-0.1,0.5-0.2c0.2-0.1,0.3-0.2,0.4-0.4
		l-0.7-0.4l0.3-0.5l2.3,1.3l-0.3,0.5l-0.8-0.4c-0.1,0.1-0.1,0.3-0.1,0.4c0,0.1,0,0.3,0,0.4c0,0.1,0.1,0.2,0.1,0.3
		c0,0.1,0.1,0.2,0.2,0.3c0.1,0.1,0.1,0.1,0.2,0.2l0,0l-0.3,0.1L37.6,277.4z M35.7,278.4c0-0.2,0-0.4,0.1-0.6
		c0.1-0.2,0.3-0.4,0.5-0.4c0.2-0.1,0.4-0.1,0.6,0c0.2,0,0.4,0.1,0.6,0.2c0.2,0.1,0.4,0.2,0.5,0.4c0.1,0.2,0.2,0.4,0.2,0.6
		c0,0.2,0,0.4-0.1,0.6c-0.1,0.2-0.3,0.3-0.5,0.4c-0.2,0.1-0.4,0.1-0.6,0.1c-0.2,0-0.4-0.1-0.6-0.2c-0.2-0.1-0.3-0.3-0.5-0.4
		C35.8,278.8,35.7,278.6,35.7,278.4L35.7,278.4z M36.9,277.9c-0.1,0-0.3,0.1-0.3,0.2c-0.1,0.1-0.1,0.3,0,0.4c0,0.1,0.1,0.2,0.2,0.3
		c0.1,0,0.2,0,0.3,0c0.1,0,0.2-0.1,0.3-0.2c0.1-0.1,0.1-0.3,0.1-0.4c0-0.1-0.1-0.2-0.2-0.3C37.2,277.8,37,277.8,36.9,277.9z
		 M38.1,277.9l0.5-0.9l-0.8-0.5l0.3-0.5l0.8,0.5l0.2-0.5c0,0,0-0.1,0-0.2c0,0,0-0.1,0-0.1l-0.1-0.1l0.2-0.3l1,0.6l-1.3,2.4
		L38.1,277.9z"/>
	<path class="st0" d="M42.7,279.8c-0.2-0.1-0.4-0.3-0.5-0.5c-0.2-0.2-0.3-0.5-0.3-0.7l0,0c-0.2,0.2-0.4,0.3-0.7,0.3
		c-0.2,0-0.5,0-0.7,0c-0.1-0.2-0.2-0.4-0.3-0.5l0,0c0.3,0.1,0.7,0.1,0.9-0.1c0.3-0.2,0.5-0.5,0.6-0.8l-0.8-0.3l0.2-0.6l2.5,0.9
		l-0.2,0.6l-0.8-0.3c-0.1,0.3-0.1,0.7,0,1c0.1,0.3,0.3,0.6,0.6,0.7l0,0l-0.3,0.1L42.7,279.8z M42.7,282L43,281l0,0l-2.5-0.9l0.2-0.5
		l3.3,1.2c0,0,0,0.1,0,0.1c0,0,0,0,0,0l-0.6,1.6L42.7,282z M43.3,280.2l0.8-2.1c0,0,0-0.1,0-0.1c0,0,0-0.1-0.1-0.1h-0.1l0.1-0.3
		l1.1,0.4l-0.9,2.6L43.3,280.2z"/>
	<path class="st0" d="M45.3,283.2l-0.3-0.4c0.1,0,0.2,0,0.3-0.1c0.1,0,0.2-0.1,0.2-0.2l-0.3-0.1l0.2-0.8l0.9,0.2l-0.2,0.6
		c0,0.2-0.1,0.3-0.3,0.4C45.7,283.1,45.5,283.2,45.3,283.2z"/>
	<path class="st0" d="M47.9,280.5c-0.2-0.4-0.2-0.9,0.1-1.3c0.1-0.2,0.3-0.3,0.5-0.3c0.2,0,0.4,0,0.7,0c0.2,0,0.4,0.1,0.6,0.2
		c0.2,0.1,0.3,0.3,0.4,0.4c0.1,0.2,0.2,0.4,0.1,0.7c0,0.2-0.1,0.4-0.3,0.6c-0.1,0.2-0.3,0.3-0.5,0.3c-0.2,0-0.4,0-0.6,0
		c-0.2,0-0.4-0.1-0.6-0.2C48.1,280.9,48,280.7,47.9,280.5z M48.8,279.6c-0.1,0.1-0.2,0.2-0.2,0.4c0,0.1,0,0.3,0.1,0.4
		c0.1,0.1,0.2,0.2,0.3,0.2c0.1,0,0.2,0,0.3-0.1c0.1-0.1,0.2-0.2,0.2-0.4c0-0.1,0-0.3-0.1-0.4c-0.1-0.1-0.2-0.2-0.3-0.2
		C49,279.4,48.9,279.5,48.8,279.6L48.8,279.6z M48.9,283c-0.1-0.2-0.2-0.4-0.1-0.6c0-0.2,0.1-0.4,0.3-0.6c0.1-0.2,0.3-0.3,0.5-0.3
		c0.2,0,0.4,0,0.6,0c0.2,0,0.4,0.1,0.6,0.2c0.2,0.1,0.3,0.3,0.5,0.4c0.1,0.2,0.2,0.4,0.1,0.6c0,0.2-0.1,0.4-0.3,0.6
		c-0.1,0.2-0.3,0.3-0.5,0.3c-0.2,0-0.4,0-0.7,0c-0.2,0-0.4-0.1-0.6-0.2C49.2,283.4,49,283.2,48.9,283z M49.9,282.1
		c-0.1,0.1-0.2,0.3-0.2,0.4c0,0.1,0,0.3,0.1,0.4c0.1,0.1,0.2,0.2,0.3,0.2c0.1,0,0.3,0,0.3-0.1c0.2-0.2,0.3-0.5,0.1-0.8
		c-0.1-0.1-0.2-0.2-0.3-0.2C50.1,282,49.9,282,49.9,282.1L49.9,282.1z M51.8,281l-0.1,0.5l-0.8-0.1l0.2-2c0,0,0-0.1,0-0.1
		c0,0,0-0.1-0.1-0.1h-0.2v-0.3l1.2,0.1v0.5l0.7,0.1l-0.1,0.6l-0.7,0v0.3l0.7,0.1v0.5L51.8,281z"/>
	<path class="st0" d="M56.1,281.4c-0.3,0-0.5-0.1-0.8-0.2c-0.2-0.1-0.4-0.3-0.5-0.5l0,0c-0.1,0.2-0.2,0.4-0.5,0.6
		c-0.2,0.2-0.5,0.3-0.7,0.3l-0.4-0.4l0,0c0.1,0,0.3-0.1,0.4-0.1c0.1-0.1,0.2-0.2,0.4-0.3c0.1-0.1,0.2-0.3,0.3-0.4c0-0.2,0-0.4,0-0.6
		c0-0.1,0-0.1,0-0.2c0,0,0-0.1,0-0.1H54v-0.3l1.2-0.1v0.6c0,0.2,0.1,0.4,0.2,0.6c0.1,0.2,0.2,0.3,0.3,0.4c0.1,0.1,0.2,0.2,0.4,0.2
		c0.1,0,0.3,0.1,0.4,0.1l0,0L56.1,281.4z M57.4,283.5l-2.3,0.2c-0.1,0-0.2,0-0.3-0.1c-0.1-0.1-0.1-0.2-0.2-0.3l-0.1-0.9
		c0,0,0-0.1,0-0.1h-0.3v-0.3l3.5-0.3h0.1l0.1,1.3c0,0.1,0,0.2-0.1,0.3C57.7,283.4,57.6,283.5,57.4,283.5z M56.9,282.2l-1.6,0.1v0.7
		l0,0l1.4-0.1l0,0L56.9,282.2z M56.9,281.5l-0.2-2.2c0,0,0-0.1,0-0.2h-0.3v-0.3l1.2-0.1l0.2,2.7L56.9,281.5z"/>
	<path class="st0" d="M60,283.5l-0.5-0.3c0.1,0,0.2-0.1,0.3-0.2c0.1-0.1,0.1-0.1,0.1-0.2h-0.3l-0.2-0.8l0.9-0.2l0.1,0.7
		c0,0.2,0,0.3,0,0.5C60.4,283.2,60.2,283.4,60,283.5z"/>
	<path class="st0" d="M63.9,280c-0.2,0.1-0.5,0.1-0.8,0c-0.3,0-0.5-0.2-0.7-0.4l0,0c-0.1,0.5-0.4,1-0.9,1.1l-0.5-0.2l0,0
		c0.1-0.1,0.2-0.1,0.3-0.2c0.1-0.1,0.2-0.2,0.3-0.3c0.1-0.1,0.2-0.3,0.2-0.5c0-0.2,0-0.4-0.1-0.6l-0.1-0.3c0-0.1-0.1-0.1-0.1-0.1
		c0,0-0.1,0-0.1,0h-0.1l-0.1-0.3l1.1-0.4l0.2,0.7c0.1,0.2,0.2,0.4,0.3,0.6c0.1,0.1,0.3,0.2,0.4,0.3c0.1,0.1,0.3,0.1,0.4,0.1
		c0.1,0,0.3,0,0.4,0l0,0L63.9,280z M63.4,282.1c-0.2,0.1-0.4,0-0.5-0.2c0,0,0-0.1,0-0.1l-0.2-0.7c0-0.1,0-0.1-0.1-0.1h-0.3l-0.1-0.3
		l1.1-0.4l0.3,0.9 M63.7,281.3l2.2-0.7l0.2,0.6L63.7,281.3z M64.9,280.3l-0.9-2.7c0,0,0-0.1-0.1-0.1h-0.3l-0.1-0.3l1.1-0.4l1.1,3.2
		L64.9,280.3z"/>
	<path class="st0" d="M70.5,279l-0.5-1c-0.2,0.2-0.5,0.3-0.7,0.5l-2.3,1.3l-0.3-0.5l1.1-0.6l-0.2-0.4l-0.4,0.2
		c-0.1,0.1-0.2,0.1-0.3,0.1c-0.1,0-0.2-0.1-0.3-0.2l-0.2-0.5c0-0.1-0.1-0.1-0.1-0.1c-0.1,0-0.1,0-0.2,0.1l-0.1-0.3l1.7-0.9l-0.2-0.3
		l-1.6,0.9l-0.3-0.5l2.3-1.2h0.1l0.6,1.1c0,0,0,0.1,0,0.1l0,0l-1.3,0.7l0.1,0.3l1.5-0.8l0.3,0.5l-0.7,0.4l0.2,0.4l0.6-0.3
		c0.2-0.1,0.4-0.2,0.5-0.4l-1.2-2.1c0,0-0.1-0.1-0.1-0.1h-0.1l-0.1,0.1l-0.2-0.3l1-0.5l2.2,4.2L70.5,279z"/>
	
		<linearGradient id="SVGID_3_" gradientUnits="userSpaceOnUse" x1="1594.097" y1="-684.9094" x2="1597.9297" y2="-684.9094" gradientTransform="matrix(-0.38 -0.93 0.93 -0.38 1285.87 1446.53)">
		<stop  offset="4.000000e-02" style="stop-color:#2CA339"/>
		<stop  offset="9.000000e-02" style="stop-color:#48AA35"/>
		<stop  offset="0.15" style="stop-color:#5DB131"/>
		<stop  offset="0.22" style="stop-color:#71B42C"/>
		<stop  offset="0.29" style="stop-color:#7FB82C"/>
		<stop  offset="0.38" style="stop-color:#88B929"/>
		<stop  offset="0.5" style="stop-color:#8ABA29"/>
		<stop  offset="0.65" style="stop-color:#88B929"/>
		<stop  offset="0.73" style="stop-color:#7FB82C"/>
		<stop  offset="0.81" style="stop-color:#72B52D"/>
		<stop  offset="0.88" style="stop-color:#5FB131"/>
		<stop  offset="0.94" style="stop-color:#4AAB35"/>
		<stop  offset="1" style="stop-color:#2EA538"/>
		<stop  offset="1" style="stop-color:#2CA339"/>
	</linearGradient>
	<path class="st6" d="M46.3,234.4c0,0-0.5-1.6,0-2.2c-0.1,0.7,0,1.4,0.2,2.1c0,0,1.6-1.3,0.3-4.2C46.8,230.1,43.9,232.3,46.3,234.4z
		"/>
	
		<linearGradient id="SVGID_4_" gradientUnits="userSpaceOnUse" x1="42.0095" y1="247.0439" x2="46.2007" y2="247.0439" gradientTransform="matrix(1 0 0 1 0 2)">
		<stop  offset="4.000000e-02" style="stop-color:#2CA339"/>
		<stop  offset="9.000000e-02" style="stop-color:#48AA35"/>
		<stop  offset="0.15" style="stop-color:#5DB131"/>
		<stop  offset="0.22" style="stop-color:#71B42C"/>
		<stop  offset="0.29" style="stop-color:#7FB82C"/>
		<stop  offset="0.38" style="stop-color:#88B929"/>
		<stop  offset="0.5" style="stop-color:#8ABA29"/>
		<stop  offset="0.65" style="stop-color:#88B929"/>
		<stop  offset="0.73" style="stop-color:#7FB82C"/>
		<stop  offset="0.81" style="stop-color:#72B52D"/>
		<stop  offset="0.88" style="stop-color:#5FB131"/>
		<stop  offset="0.94" style="stop-color:#4AAB35"/>
		<stop  offset="1" style="stop-color:#2EA538"/>
		<stop  offset="1" style="stop-color:#2CA339"/>
	</linearGradient>
	<path class="st7" d="M46.2,248.5c0,0-1.7-0.1-2.2,0.5c0.7-0.3,1.4-0.4,2.2-0.3c0,0-0.8,2-4.2,1.4C42,250.1,43.5,246.5,46.2,248.5z"
		/>
	
		<linearGradient id="SVGID_5_" gradientUnits="userSpaceOnUse" x1="290.0649" y1="-347.3239" x2="294.2561" y2="-347.3239" gradientTransform="matrix(0.82 -0.58 0.58 0.82 7.76 705.59)">
		<stop  offset="4.000000e-02" style="stop-color:#2CA339"/>
		<stop  offset="9.000000e-02" style="stop-color:#48AA35"/>
		<stop  offset="0.15" style="stop-color:#5DB131"/>
		<stop  offset="0.22" style="stop-color:#71B42C"/>
		<stop  offset="0.29" style="stop-color:#7FB82C"/>
		<stop  offset="0.38" style="stop-color:#88B929"/>
		<stop  offset="0.5" style="stop-color:#8ABA29"/>
		<stop  offset="0.65" style="stop-color:#88B929"/>
		<stop  offset="0.73" style="stop-color:#7FB82C"/>
		<stop  offset="0.81" style="stop-color:#72B52D"/>
		<stop  offset="0.88" style="stop-color:#5FB131"/>
		<stop  offset="0.94" style="stop-color:#4AAB35"/>
		<stop  offset="1" style="stop-color:#2EA538"/>
		<stop  offset="1" style="stop-color:#2CA339"/>
	</linearGradient>
	<path class="st8" d="M45.3,251c0,0-1.4,0.9-1.4,1.7c0.4-0.6,0.9-1.2,1.6-1.5c0,0,0.5,2.1-2.6,3.5C42.9,254.7,42,251,45.3,251z"/>
	
		<linearGradient id="SVGID_6_" gradientUnits="userSpaceOnUse" x1="239.9123" y1="952.4514" x2="244.4434" y2="952.4514" gradientTransform="matrix(0.75 0.66 -0.66 0.75 475.71 -633.62)">
		<stop  offset="4.000000e-02" style="stop-color:#2CA339"/>
		<stop  offset="9.000000e-02" style="stop-color:#48AA35"/>
		<stop  offset="0.15" style="stop-color:#5DB131"/>
		<stop  offset="0.22" style="stop-color:#71B42C"/>
		<stop  offset="0.29" style="stop-color:#7FB82C"/>
		<stop  offset="0.38" style="stop-color:#88B929"/>
		<stop  offset="0.5" style="stop-color:#8ABA29"/>
		<stop  offset="0.65" style="stop-color:#88B929"/>
		<stop  offset="0.73" style="stop-color:#7FB82C"/>
		<stop  offset="0.81" style="stop-color:#72B52D"/>
		<stop  offset="0.88" style="stop-color:#5FB131"/>
		<stop  offset="0.94" style="stop-color:#4AAB35"/>
		<stop  offset="1" style="stop-color:#2EA538"/>
		<stop  offset="1" style="stop-color:#2CA339"/>
	</linearGradient>
	<path class="st9" d="M32.9,243.4c0,0-1.3-1.3-2.2-1.1c0.8,0.2,1.5,0.7,2,1.3c0,0-2.1,1-4.4-1.8C28.4,241.7,32.1,239.9,32.9,243.4z"
		/>
	
		<linearGradient id="SVGID_7_" gradientUnits="userSpaceOnUse" x1="238.4074" y1="-275.0072" x2="242.9196" y2="-275.0072" gradientTransform="matrix(0.86 -0.51 0.51 0.86 -35.07 604.88)">
		<stop  offset="4.000000e-02" style="stop-color:#2CA339"/>
		<stop  offset="9.000000e-02" style="stop-color:#48AA35"/>
		<stop  offset="0.15" style="stop-color:#5DB131"/>
		<stop  offset="0.22" style="stop-color:#71B42C"/>
		<stop  offset="0.29" style="stop-color:#7FB82C"/>
		<stop  offset="0.38" style="stop-color:#88B929"/>
		<stop  offset="0.5" style="stop-color:#8ABA29"/>
		<stop  offset="0.65" style="stop-color:#88B929"/>
		<stop  offset="0.73" style="stop-color:#7FB82C"/>
		<stop  offset="0.81" style="stop-color:#72B52D"/>
		<stop  offset="0.88" style="stop-color:#5FB131"/>
		<stop  offset="0.94" style="stop-color:#4AAB35"/>
		<stop  offset="1" style="stop-color:#2EA538"/>
		<stop  offset="1" style="stop-color:#2CA339"/>
	</linearGradient>
	<path class="st10" d="M29.8,246c0,0-1.6,0.9-1.7,1.7c0.5-0.7,1.1-1.2,1.9-1.5c0,0,0.3,2.3-3.1,3.6C26.8,249.8,26.2,245.7,29.8,246z
		"/>
	
		<linearGradient id="SVGID_8_" gradientUnits="userSpaceOnUse" x1="401.6722" y1="-450.2979" x2="406.1844" y2="-450.2979" gradientTransform="matrix(0.72 -0.69 0.69 0.72 52.04 850.47)">
		<stop  offset="4.000000e-02" style="stop-color:#2CA339"/>
		<stop  offset="9.000000e-02" style="stop-color:#48AA35"/>
		<stop  offset="0.15" style="stop-color:#5DB131"/>
		<stop  offset="0.22" style="stop-color:#71B42C"/>
		<stop  offset="0.29" style="stop-color:#7FB82C"/>
		<stop  offset="0.38" style="stop-color:#88B929"/>
		<stop  offset="0.5" style="stop-color:#8ABA29"/>
		<stop  offset="0.65" style="stop-color:#88B929"/>
		<stop  offset="0.73" style="stop-color:#7FB82C"/>
		<stop  offset="0.81" style="stop-color:#72B52D"/>
		<stop  offset="0.88" style="stop-color:#5FB131"/>
		<stop  offset="0.94" style="stop-color:#4AAB35"/>
		<stop  offset="1" style="stop-color:#2EA538"/>
		<stop  offset="1" style="stop-color:#2CA339"/>
	</linearGradient>
	<path class="st11" d="M33.2,245.7c0,0-1.4,1.2-1.3,2c0.3-0.8,0.8-1.4,1.5-1.9c0,0,0.8,2.2-2.2,4.2
		C31.2,250.1,29.6,246.2,33.2,245.7z"/>
	
		<linearGradient id="SVGID_9_" gradientUnits="userSpaceOnUse" x1="177.8381" y1="847.4315" x2="182.7373" y2="847.4315" gradientTransform="matrix(0.82 0.57 -0.57 0.82 376.52 -563.62)">
		<stop  offset="4.000000e-02" style="stop-color:#2CA339"/>
		<stop  offset="9.000000e-02" style="stop-color:#48AA35"/>
		<stop  offset="0.15" style="stop-color:#5DB131"/>
		<stop  offset="0.22" style="stop-color:#71B42C"/>
		<stop  offset="0.29" style="stop-color:#7FB82C"/>
		<stop  offset="0.38" style="stop-color:#88B929"/>
		<stop  offset="0.5" style="stop-color:#8ABA29"/>
		<stop  offset="0.65" style="stop-color:#88B929"/>
		<stop  offset="0.73" style="stop-color:#7FB82C"/>
		<stop  offset="0.81" style="stop-color:#72B52D"/>
		<stop  offset="0.88" style="stop-color:#5FB131"/>
		<stop  offset="0.94" style="stop-color:#4AAB35"/>
		<stop  offset="1" style="stop-color:#2EA538"/>
		<stop  offset="1" style="stop-color:#2CA339"/>
	</linearGradient>
	<path class="st12" d="M43.7,234.9c0,0-1.6-1.2-2.5-0.9c0.9,0.1,1.7,0.5,2.3,1.2c0,0-2.1,1.3-5-1.5
		C38.6,233.6,42.4,231.2,43.7,234.9z"/>
	
		<linearGradient id="SVGID_10_" gradientUnits="userSpaceOnUse" x1="51.1451" y1="255.8531" x2="53.3163" y2="250.0288" gradientTransform="matrix(1 0 0 1 0 2)">
		<stop  offset="0" style="stop-color:#359DD1"/>
		<stop  offset="1" style="stop-color:#0C377A"/>
	</linearGradient>
	<path class="st13" d="M48.6,246.6c0,0,0.4,1.3-1.6,5.4c-2,4.1-4.7,11.4-1.1,16.5c0,0-2.5-4.9,2.7-11.9c0,0-5,12.4,2.4,19.9
		c-1.6-3-2-6.5-1.3-9.9c1.2-5.5,2.9-8.6,2.3-13.9L48.6,246.6z"/>
	
		<linearGradient id="SVGID_11_" gradientUnits="userSpaceOnUse" x1="48.9324" y1="248.5807" x2="37.888" y2="238.2631" gradientTransform="matrix(1 0 0 1 0 2)">
		<stop  offset="0" style="stop-color:#359DD1"/>
		<stop  offset="1" style="stop-color:#0C377A"/>
	</linearGradient>
	<path class="st14" d="M43.1,232.6c0,0,5.1,6.7,3.9,9.5c-1.2,2.9-8.7-0.8-17,3.5c0,0,25.2-3,21.7,13.6
		C51.6,259.1,56.1,242.8,43.1,232.6z"/>
	
		<linearGradient id="SVGID_12_" gradientUnits="userSpaceOnUse" x1="40.3292" y1="238.1614" x2="46.4179" y2="238.1614" gradientTransform="matrix(1 0 0 1 0 2)">
		<stop  offset="0" style="stop-color:#359DD1"/>
		<stop  offset="1" style="stop-color:#0C377A"/>
	</linearGradient>
	<path class="st15" d="M46.2,241.3c-0.8,1.3-2.6,1.7-3.9,0.9c-1-0.9-1.1-2.5-0.2-3.5c0.9-1,2.5-1.1,3.5-0.2
		C46.4,239.1,46.7,240.3,46.2,241.3z"/>
	
		<linearGradient id="SVGID_13_" gradientUnits="userSpaceOnUse" x1="774.6696" y1="1309.5459" x2="778.5021" y2="1309.5459" gradientTransform="matrix(0.3783 -0.9257 -0.9257 -0.3783 978.9663 1445.6929)">
		<stop  offset="4.000000e-02" style="stop-color:#2CA339"/>
		<stop  offset="9.000000e-02" style="stop-color:#48AA35"/>
		<stop  offset="0.15" style="stop-color:#5DB131"/>
		<stop  offset="0.22" style="stop-color:#71B42C"/>
		<stop  offset="0.29" style="stop-color:#7FB82C"/>
		<stop  offset="0.38" style="stop-color:#88B929"/>
		<stop  offset="0.5" style="stop-color:#8ABA29"/>
		<stop  offset="0.65" style="stop-color:#88B929"/>
		<stop  offset="0.73" style="stop-color:#7FB82C"/>
		<stop  offset="0.81" style="stop-color:#72B52D"/>
		<stop  offset="0.88" style="stop-color:#5FB131"/>
		<stop  offset="0.94" style="stop-color:#4AAB35"/>
		<stop  offset="1" style="stop-color:#2EA538"/>
		<stop  offset="1" style="stop-color:#2CA339"/>
	</linearGradient>
	<path class="st16" d="M60.2,234.4c0,0,0.5-1.6,0-2.2c0.1,0.7,0.1,1.5-0.2,2.2c0,0-1.7-1.3-0.3-4.2
		C59.8,230.1,62.7,232.3,60.2,234.4z"/>
	
		<linearGradient id="SVGID_14_" gradientUnits="userSpaceOnUse" x1="2202.4294" y1="247.0439" x2="2206.6208" y2="247.0439" gradientTransform="matrix(-1 0 0 1 2267 2)">
		<stop  offset="4.000000e-02" style="stop-color:#2CA339"/>
		<stop  offset="9.000000e-02" style="stop-color:#48AA35"/>
		<stop  offset="0.15" style="stop-color:#5DB131"/>
		<stop  offset="0.22" style="stop-color:#71B42C"/>
		<stop  offset="0.29" style="stop-color:#7FB82C"/>
		<stop  offset="0.38" style="stop-color:#88B929"/>
		<stop  offset="0.5" style="stop-color:#8ABA29"/>
		<stop  offset="0.65" style="stop-color:#88B929"/>
		<stop  offset="0.73" style="stop-color:#7FB82C"/>
		<stop  offset="0.81" style="stop-color:#72B52D"/>
		<stop  offset="0.88" style="stop-color:#5FB131"/>
		<stop  offset="0.94" style="stop-color:#4AAB35"/>
		<stop  offset="1" style="stop-color:#2EA538"/>
		<stop  offset="1" style="stop-color:#2CA339"/>
	</linearGradient>
	<path class="st17" d="M60.4,248.5c0,0,1.7-0.1,2.2,0.5c-0.7-0.3-1.4-0.4-2.2-0.3c0,0,0.8,2,4.2,1.4
		C64.6,250.1,63.1,246.5,60.4,248.5z"/>
	
		<linearGradient id="SVGID_15_" gradientUnits="userSpaceOnUse" x1="2055.3628" y1="894.1934" x2="2059.554" y2="894.1934" gradientTransform="matrix(-0.8164 -0.5774 -0.5774 0.8164 2257.3052 709.61)">
		<stop  offset="4.000000e-02" style="stop-color:#2CA339"/>
		<stop  offset="9.000000e-02" style="stop-color:#48AA35"/>
		<stop  offset="0.15" style="stop-color:#5DB131"/>
		<stop  offset="0.22" style="stop-color:#71B42C"/>
		<stop  offset="0.29" style="stop-color:#7FB82C"/>
		<stop  offset="0.38" style="stop-color:#88B929"/>
		<stop  offset="0.5" style="stop-color:#8ABA29"/>
		<stop  offset="0.65" style="stop-color:#88B929"/>
		<stop  offset="0.73" style="stop-color:#7FB82C"/>
		<stop  offset="0.81" style="stop-color:#72B52D"/>
		<stop  offset="0.88" style="stop-color:#5FB131"/>
		<stop  offset="0.94" style="stop-color:#4AAB35"/>
		<stop  offset="1" style="stop-color:#2EA538"/>
		<stop  offset="1" style="stop-color:#2CA339"/>
	</linearGradient>
	<path class="st18" d="M61.3,251c0,0,1.4,0.9,1.4,1.7c-0.4-0.6-0.9-1.2-1.6-1.5c0,0-0.5,2.1,2.6,3.5C63.7,254.7,64.6,251,61.3,251z"
		/>
	
		<linearGradient id="SVGID_16_" gradientUnits="userSpaceOnUse" x1="1870.9794" y1="-475.6576" x2="1875.501" y2="-475.6576" gradientTransform="matrix(-0.75 0.66 0.66 0.75 1793.1899 -635.93)">
		<stop  offset="4.000000e-02" style="stop-color:#2CA339"/>
		<stop  offset="9.000000e-02" style="stop-color:#48AA35"/>
		<stop  offset="0.15" style="stop-color:#5DB131"/>
		<stop  offset="0.22" style="stop-color:#71B42C"/>
		<stop  offset="0.29" style="stop-color:#7FB82C"/>
		<stop  offset="0.38" style="stop-color:#88B929"/>
		<stop  offset="0.5" style="stop-color:#8ABA29"/>
		<stop  offset="0.65" style="stop-color:#88B929"/>
		<stop  offset="0.73" style="stop-color:#7FB82C"/>
		<stop  offset="0.81" style="stop-color:#72B52D"/>
		<stop  offset="0.88" style="stop-color:#5FB131"/>
		<stop  offset="0.94" style="stop-color:#4AAB35"/>
		<stop  offset="1" style="stop-color:#2EA538"/>
		<stop  offset="1" style="stop-color:#2CA339"/>
	</linearGradient>
	<path class="st19" d="M73.7,243.4c0,0,1.3-1.3,2.2-1.1c-0.8,0.2-1.5,0.7-2,1.3c0,0,2.1,1,4.4-1.8C78.2,241.7,74.5,239.9,73.7,243.4
		z"/>
	
		<linearGradient id="SVGID_17_" gradientUnits="userSpaceOnUse" x1="2089.8123" y1="827.2021" x2="2094.3433" y2="827.2021" gradientTransform="matrix(-0.8601 -0.5101 -0.5101 0.8601 2304.4963 606.1402)">
		<stop  offset="4.000000e-02" style="stop-color:#2CA339"/>
		<stop  offset="9.000000e-02" style="stop-color:#48AA35"/>
		<stop  offset="0.15" style="stop-color:#5DB131"/>
		<stop  offset="0.22" style="stop-color:#71B42C"/>
		<stop  offset="0.29" style="stop-color:#7FB82C"/>
		<stop  offset="0.38" style="stop-color:#88B929"/>
		<stop  offset="0.5" style="stop-color:#8ABA29"/>
		<stop  offset="0.65" style="stop-color:#88B929"/>
		<stop  offset="0.73" style="stop-color:#7FB82C"/>
		<stop  offset="0.81" style="stop-color:#72B52D"/>
		<stop  offset="0.88" style="stop-color:#5FB131"/>
		<stop  offset="0.94" style="stop-color:#4AAB35"/>
		<stop  offset="1" style="stop-color:#2EA538"/>
		<stop  offset="1" style="stop-color:#2CA339"/>
	</linearGradient>
	<path class="st20" d="M76.8,246c0,0,1.6,0.9,1.7,1.7c-0.5-0.7-1.1-1.2-1.9-1.5c0,0-0.3,2.3,3.1,3.6C79.8,249.8,80.4,245.7,76.8,246
		z"/>
	
		<linearGradient id="SVGID_18_" gradientUnits="userSpaceOnUse" x1="1954.47" y1="1047.0912" x2="1958.9907" y2="1047.0912" gradientTransform="matrix(-0.722 -0.6919 -0.6919 0.722 2215.9055 849.4691)">
		<stop  offset="4.000000e-02" style="stop-color:#2CA339"/>
		<stop  offset="9.000000e-02" style="stop-color:#48AA35"/>
		<stop  offset="0.15" style="stop-color:#5DB131"/>
		<stop  offset="0.22" style="stop-color:#71B42C"/>
		<stop  offset="0.29" style="stop-color:#7FB82C"/>
		<stop  offset="0.38" style="stop-color:#88B929"/>
		<stop  offset="0.5" style="stop-color:#8ABA29"/>
		<stop  offset="0.65" style="stop-color:#88B929"/>
		<stop  offset="0.73" style="stop-color:#7FB82C"/>
		<stop  offset="0.81" style="stop-color:#72B52D"/>
		<stop  offset="0.88" style="stop-color:#5FB131"/>
		<stop  offset="0.94" style="stop-color:#4AAB35"/>
		<stop  offset="1" style="stop-color:#2EA538"/>
		<stop  offset="1" style="stop-color:#2CA339"/>
	</linearGradient>
	<path class="st21" d="M73.4,245.7c0,0,1.4,1.2,1.3,2c-0.3-0.8-0.8-1.4-1.5-1.9c0,0-0.8,2.2,2.2,4.2
		C75.4,250.1,76.9,246.2,73.4,245.7z"/>
	
		<linearGradient id="SVGID_19_" gradientUnits="userSpaceOnUse" x1="1950.1473" y1="-385.3334" x2="1955.0521" y2="-385.3334" gradientTransform="matrix(-0.8211 0.5707 0.5707 0.8211 1889.5531 -564.6146)">
		<stop  offset="4.000000e-02" style="stop-color:#2CA339"/>
		<stop  offset="9.000000e-02" style="stop-color:#48AA35"/>
		<stop  offset="0.15" style="stop-color:#5DB131"/>
		<stop  offset="0.22" style="stop-color:#71B42C"/>
		<stop  offset="0.29" style="stop-color:#7FB82C"/>
		<stop  offset="0.38" style="stop-color:#88B929"/>
		<stop  offset="0.5" style="stop-color:#8ABA29"/>
		<stop  offset="0.65" style="stop-color:#88B929"/>
		<stop  offset="0.73" style="stop-color:#7FB82C"/>
		<stop  offset="0.81" style="stop-color:#72B52D"/>
		<stop  offset="0.88" style="stop-color:#5FB131"/>
		<stop  offset="0.94" style="stop-color:#4AAB35"/>
		<stop  offset="1" style="stop-color:#2EA538"/>
		<stop  offset="1" style="stop-color:#2CA339"/>
	</linearGradient>
	<path class="st22" d="M62.9,234.9c0,0,1.6-1.2,2.4-0.9c-0.9,0.1-1.7,0.5-2.3,1.2c0,0,2.1,1.3,5-1.5C68,233.6,64.2,231.2,62.9,234.9
		z"/>
	
		<linearGradient id="SVGID_20_" gradientUnits="userSpaceOnUse" x1="2211.5706" y1="255.8645" x2="2213.7603" y2="250.0308" gradientTransform="matrix(-1 0 0 1 2267 2)">
		<stop  offset="0" style="stop-color:#359DD1"/>
		<stop  offset="1" style="stop-color:#0C377A"/>
	</linearGradient>
	<path class="st23" d="M58,246.6c0,0-0.4,1.3,1.6,5.4c2,4.1,4.7,11.4,1.1,16.5c0,0,2.5-4.9-2.7-11.9c0,0,5,12.4-2.4,19.9
		c1.6-3,2-6.5,1.3-9.9c-1.2-5.5-2.9-8.6-2.3-13.9L58,246.6z"/>
	
		<linearGradient id="SVGID_21_" gradientUnits="userSpaceOnUse" x1="2209.3406" y1="248.5934" x2="2198.2961" y2="238.2758" gradientTransform="matrix(-1 0 0 1 2267 2)">
		<stop  offset="0" style="stop-color:#359DD1"/>
		<stop  offset="1" style="stop-color:#0C377A"/>
	</linearGradient>
	<path class="st24" d="M63.5,232.6c0,0-5.1,6.7-3.9,9.5c1.2,2.9,8.7-0.8,17,3.5c0,0-25.2-3-21.7,13.6
		C55,259.1,50.4,242.8,63.5,232.6z"/>
	
		<linearGradient id="SVGID_22_" gradientUnits="userSpaceOnUse" x1="2200.7493" y1="237.9534" x2="2206.8379" y2="237.9534" gradientTransform="matrix(-1 0 0 1 2267 2)">
		<stop  offset="0" style="stop-color:#359DD1"/>
		<stop  offset="1" style="stop-color:#0C377A"/>
	</linearGradient>
	<path class="st25" d="M60.3,241.3c1.2,1.4,3.3,1.5,4.6,0.3c0.8-0.7,1.2-1.8,1.1-2.9c-1.2-1.4-3.3-1.5-4.6-0.4
		C60.6,239,60.2,240.2,60.3,241.3L60.3,241.3z"/>
</g>
</svg>
