<svg xmlns="http://www.w3.org/2000/svg" xmlns:xlink="http://www.w3.org/1999/xlink" viewBox="0 0 400 300"><defs><style>.cls-1{fill:#fff;}.cls-2{fill:#9fa0a0;}.cls-3{fill:#595757;}.cls-4{fill:#003686;}.cls-5{fill:url(#linear-gradient);}.cls-6{fill:url(#linear-gradient-2);}.cls-7{fill:url(#linear-gradient-3);}.cls-8{fill:url(#linear-gradient-4);}.cls-9{fill:url(#linear-gradient-5);}.cls-10{fill:url(#linear-gradient-6);}.cls-11{fill:url(#linear-gradient-7);}.cls-12{fill:url(#linear-gradient-8);}.cls-13{fill:url(#linear-gradient-9);}.cls-14{fill:url(#linear-gradient-10);}.cls-15{fill:url(#linear-gradient-11);}.cls-16{fill:url(#linear-gradient-12);}.cls-17{fill:url(#linear-gradient-13);}.cls-18{fill:url(#linear-gradient-14);}.cls-19{fill:url(#linear-gradient-15);}.cls-20{fill:url(#linear-gradient-16);}.cls-21{fill:url(#linear-gradient-17);}.cls-22{fill:url(#linear-gradient-18);}.cls-23{fill:url(#linear-gradient-19);}.cls-24{fill:url(#linear-gradient-20);}.cls-25{fill:url(#linear-gradient-21);}.cls-26{fill:url(#linear-gradient-22);}</style><linearGradient id="linear-gradient" x1="48.83" y1="121.49" x2="48.83" y2="177.05" gradientUnits="userSpaceOnUse"><stop offset="0" stop-color="#2ea7e0"/><stop offset="1" stop-color="#003686"/></linearGradient><linearGradient id="linear-gradient-2" x1="48.83" y1="121.49" x2="48.83" y2="177.05" xlink:href="#linear-gradient"/><linearGradient id="linear-gradient-3" x1="1679.25" y1="-652.11" x2="1682.2" y2="-652.11" gradientTransform="matrix(-0.38, -0.93, 0.93, -0.38, 1283.56, 1444.98)" gradientUnits="userSpaceOnUse"><stop offset="0.04" stop-color="#22ac38"/><stop offset="0.09" stop-color="#43b330"/><stop offset="0.15" stop-color="#5eb92a"/><stop offset="0.22" stop-color="#74bd25"/><stop offset="0.29" stop-color="#83c122"/><stop offset="0.38" stop-color="#8cc220"/><stop offset="0.5" stop-color="#8fc31f"/><stop offset="0.65" stop-color="#8cc220"/><stop offset="0.73" stop-color="#84c122"/><stop offset="0.81" stop-color="#75be25"/><stop offset="0.88" stop-color="#60b92a"/><stop offset="0.94" stop-color="#46b430"/><stop offset="1" stop-color="#25ad37"/><stop offset="1" stop-color="#22ac38"/></linearGradient><linearGradient id="linear-gradient-4" x1="40.16" y1="149.26" x2="43.38" y2="149.26" gradientTransform="matrix(1, 0, 0, 1, 0, 0)" xlink:href="#linear-gradient-3"/><linearGradient id="linear-gradient-5" x1="346.33" y1="-431.59" x2="349.55" y2="-431.59" gradientTransform="translate(7.64 705.43) rotate(-35.36)" xlink:href="#linear-gradient-3"/><linearGradient id="linear-gradient-6" x1="176.82" y1="879.92" x2="180.3" y2="879.92" gradientTransform="translate(474.22 -637.02) rotate(41.01)" xlink:href="#linear-gradient-3"/><linearGradient id="linear-gradient-7" x1="290.81" y1="-355.79" x2="294.28" y2="-355.79" gradientTransform="translate(-38.1 603.83) rotate(-30.98)" xlink:href="#linear-gradient-3"/><linearGradient id="linear-gradient-8" x1="470.52" y1="-516.83" x2="473.99" y2="-516.83" gradientTransform="matrix(0.72, -0.69, 0.69, 0.72, 51.07, 848.06)" xlink:href="#linear-gradient-3"/><linearGradient id="linear-gradient-9" x1="122.37" y1="770.03" x2="126.14" y2="770.03" gradientTransform="translate(377.48 -565.29) rotate(34.83)" xlink:href="#linear-gradient-3"/><linearGradient id="linear-gradient-10" x1="47.19" y1="156.04" x2="48.86" y2="151.56" xlink:href="#linear-gradient"/><linearGradient id="linear-gradient-11" x1="45.47" y1="150.46" x2="36.98" y2="142.53" xlink:href="#linear-gradient"/><linearGradient id="linear-gradient-12" x1="38.87" y1="142.26" x2="43.55" y2="142.26" xlink:href="#linear-gradient"/><linearGradient id="linear-gradient-13" x1="858.45" y1="1353.83" x2="861.4" y2="1353.83" gradientTransform="matrix(0.38, -0.93, -0.93, -0.38, 981.44, 1444.98)" xlink:href="#linear-gradient-3"/><linearGradient id="linear-gradient-14" x1="2207.5" y1="149.26" x2="2210.72" y2="149.26" gradientTransform="matrix(-1, 0, 0, 1, 2265, 0)" xlink:href="#linear-gradient-3"/><linearGradient id="linear-gradient-15" x1="2113.84" y1="822.53" x2="2117.06" y2="822.53" gradientTransform="matrix(-0.82, -0.58, -0.58, 0.82, 2257.35, 705.43)" xlink:href="#linear-gradient-3"/><linearGradient id="linear-gradient-16" x1="1812.27" y1="-542.26" x2="1815.74" y2="-542.26" gradientTransform="matrix(-0.75, 0.66, 0.66, 0.75, 1790.78, -637.02)" xlink:href="#linear-gradient-3"/><linearGradient id="linear-gradient-17" x1="2148.9" y1="759.98" x2="2152.38" y2="759.98" gradientTransform="matrix(-0.86, -0.51, -0.51, 0.86, 2303.1, 603.83)" xlink:href="#linear-gradient-3"/><linearGradient id="linear-gradient-18" x1="2031.17" y1="987.24" x2="2034.64" y2="987.24" gradientTransform="matrix(-0.72, -0.69, -0.69, 0.72, 2213.93, 848.06)" xlink:href="#linear-gradient-3"/><linearGradient id="linear-gradient-19" x1="1901.35" y1="-467.98" x2="1905.12" y2="-467.98" gradientTransform="matrix(-0.82, 0.57, 0.57, 0.82, 1887.52, -565.29)" xlink:href="#linear-gradient-3"/><linearGradient id="linear-gradient-20" x1="2214.52" y1="156.04" x2="2216.2" y2="151.56" gradientTransform="matrix(-1, 0, 0, 1, 2265, 0)" xlink:href="#linear-gradient"/><linearGradient id="linear-gradient-21" x1="2212.81" y1="150.46" x2="2204.32" y2="142.53" gradientTransform="matrix(-1, 0, 0, 1, 2265, 0)" xlink:href="#linear-gradient"/><linearGradient id="linear-gradient-22" x1="2206.21" y1="142.26" x2="2210.89" y2="142.26" gradientTransform="matrix(-1, 0, 0, 1, 2265, 0)" xlink:href="#linear-gradient"/></defs><g id="레이어_2" data-name="레이어 2"><g id="레이어_1-2" data-name="레이어 1"><rect class="cls-1" width="400" height="300"/><path class="cls-2" d="M88.74,167.21l3.91,5.37c.09.13.1.22,0,.28a.43.43,0,0,1-.31.09H91l-3.3-4.54-.85,1V173H85.69c-.31,0-.47-.14-.47-.41v-9.46h1.16c.29,0,.44.12.44.35v3.76l3.77-4.11h1.48c.17,0,.27,0,.31.11s0,.15-.09.25Z"/><path class="cls-2" d="M99.06,163.1l3.71,9.48c.1.25,0,.37-.34.37h-1.22l-1-2.67H96.63l-1,2.67H94.37c-.31,0-.41-.12-.31-.37l3.68-9.48Zm.63,5.86-1.28-3.42L97.12,169Z"/><path class="cls-2" d="M111.82,173H110.3L106.19,166V173H105c-.29,0-.44-.13-.44-.38v-9.49h1.54l4.09,6.93v-6.93h1.16c.3,0,.44.12.44.35Z"/><path class="cls-2" d="M121.85,172.94h-1.57v-.63a3.62,3.62,0,0,1-2.28.87,3.92,3.92,0,0,1-1.86-.43,3.67,3.67,0,0,1-1.32-1.15,5.7,5.7,0,0,1-.77-1.65,7.31,7.31,0,0,1-.26-2,7.07,7.07,0,0,1,.44-2.53,4.31,4.31,0,0,1,1.4-1.89,3.6,3.6,0,0,1,2.28-.76,3.92,3.92,0,0,1,2.48.85,4.25,4.25,0,0,1,1.43,2.54H120.2a2.9,2.9,0,0,0-.83-1.53,2,2,0,0,0-1.4-.53,2.27,2.27,0,0,0-1.24.33,2.17,2.17,0,0,0-.81.91,4.94,4.94,0,0,0-.41,1.23,7.91,7.91,0,0,0-.12,1.42,7.61,7.61,0,0,0,.12,1.4,4.72,4.72,0,0,0,.41,1.2,2.13,2.13,0,0,0,.81.87,2.36,2.36,0,0,0,1.24.32,2.16,2.16,0,0,0,1.65-.69,2.3,2.3,0,0,0,.64-1.63v-.61h-2.6v-1.31h4.19Z"/><path class="cls-2" d="M131.3,173h-1.53l-4.1-6.93V173h-1.16c-.3,0-.44-.13-.44-.38v-9.49h1.53l4.1,6.93v-6.93h1.16c.29,0,.44.12.44.35Z"/><path class="cls-2" d="M138.11,163.1l3.71,9.48c.1.25,0,.37-.35.37h-1.22l-1-2.67h-3.57l-1,2.67h-1.24c-.3,0-.4-.12-.3-.37l3.68-9.48Zm.63,5.86-1.28-3.42L136.17,169Z"/><path class="cls-2" d="M152.38,173h-1.13c-.3,0-.44-.13-.44-.38V167l-2.08,5.68h-1.41L145.24,167V173h-1.16c-.28,0-.41-.13-.41-.38v-9.49h1.63l2.74,7.64,2.71-7.64h1.17c.31,0,.46.13.46.38Z"/><path class="cls-2" d="M168.42,166.26h-1.61a4,4,0,0,0-.89-1.61,1.94,1.94,0,0,0-1.39-.5,2.36,2.36,0,0,0-1.24.32,2.19,2.19,0,0,0-.79.89,5,5,0,0,0-.41,1.22A7.72,7.72,0,0,0,162,168a7.58,7.58,0,0,0,.12,1.39,5.45,5.45,0,0,0,.4,1.22,2.16,2.16,0,0,0,.79.9,2.31,2.31,0,0,0,1.25.33,1.82,1.82,0,0,0,1.34-.51,3.68,3.68,0,0,0,.85-1.6h1.63a4.89,4.89,0,0,1-1.44,2.59,3.85,3.85,0,0,1-4.71.11,4.26,4.26,0,0,1-1.4-1.89,6.88,6.88,0,0,1-.44-2.54,7.07,7.07,0,0,1,.43-2.53,4.31,4.31,0,0,1,1.4-1.89,3.64,3.64,0,0,1,2.3-.76,3.72,3.72,0,0,1,2.45.86A4.85,4.85,0,0,1,168.42,166.26Z"/><path class="cls-2" d="M177.34,173H176.2c-.31,0-.46-.14-.46-.41v-4.33H172V173h-1.13c-.32,0-.47-.14-.47-.41v-9.46h1.16c.29,0,.44.12.44.35v3.44h3.77v-3.79h1.15c.3,0,.45.12.45.35Z"/><path class="cls-2" d="M186.83,165.44a7.38,7.38,0,0,1,0,5.13,4.4,4.4,0,0,1-1.39,1.88,3.55,3.55,0,0,1-4.31,0,4.32,4.32,0,0,1-1.39-1.88,7.54,7.54,0,0,1,0-5.13,4.35,4.35,0,0,1,1.39-1.89,3.51,3.51,0,0,1,4.31,0A4.43,4.43,0,0,1,186.83,165.44ZM185.69,168a6.92,6.92,0,0,0-.23-1.82,3.24,3.24,0,0,0-.79-1.43,1.9,1.9,0,0,0-2.47-.26,2.32,2.32,0,0,0-.76.9,5.39,5.39,0,0,0-.41,1.23,6.21,6.21,0,0,0-.14,1.38,6.84,6.84,0,0,0,.23,1.81,3.39,3.39,0,0,0,.79,1.43,1.86,1.86,0,0,0,1.38.59,1.83,1.83,0,0,0,1.38-.59,3.19,3.19,0,0,0,.79-1.43A6.84,6.84,0,0,0,185.69,168Z"/><path class="cls-2" d="M191,173h-1.14c-.29,0-.44-.14-.44-.41v-9.46h1.16a.56.56,0,0,1,.32.07.32.32,0,0,1,.1.28Z"/><path class="cls-2" d="M201.26,166.26h-1.62a4,4,0,0,0-.88-1.61,2,2,0,0,0-1.4-.5,2.3,2.3,0,0,0-1.23.32,2.12,2.12,0,0,0-.79.89,5,5,0,0,0-.41,1.22,7.72,7.72,0,0,0-.12,1.41,7.58,7.58,0,0,0,.12,1.39,5.45,5.45,0,0,0,.4,1.22,2.09,2.09,0,0,0,.79.9,2.27,2.27,0,0,0,1.24.33,1.82,1.82,0,0,0,1.35-.51,3.68,3.68,0,0,0,.85-1.6h1.63a4.89,4.89,0,0,1-1.44,2.59,3.59,3.59,0,0,1-2.41.86,3.64,3.64,0,0,1-2.31-.75,4.31,4.31,0,0,1-1.39-1.89,6.88,6.88,0,0,1-.45-2.54,7.07,7.07,0,0,1,.44-2.53,4.24,4.24,0,0,1,1.4-1.89,3.64,3.64,0,0,1,2.3-.76,3.74,3.74,0,0,1,2.45.86A4.91,4.91,0,0,1,201.26,166.26Z"/><path class="cls-2" d="M209.88,173H204.1a.9.9,0,0,1-.6-.26.71.71,0,0,1-.29-.55v-9.06h6.5v1.34h-4.9v2.72h4.7v1.32h-4.7v2.8a.63.63,0,0,0,0,.28c0,.06.11.09.22.09h4.81Z"/><path class="cls-2" d="M225.09,165.44a7.38,7.38,0,0,1,0,5.13,4.3,4.3,0,0,1-1.38,1.88,3.37,3.37,0,0,1-2.15.73,3.43,3.43,0,0,1-2.17-.73,4.3,4.3,0,0,1-1.38-1.88,7.38,7.38,0,0,1,0-5.13,4.33,4.33,0,0,1,1.38-1.89,3.44,3.44,0,0,1,2.17-.74,3.38,3.38,0,0,1,2.15.74A4.33,4.33,0,0,1,225.09,165.44ZM224,168a6.93,6.93,0,0,0-.22-1.82,3.35,3.35,0,0,0-.79-1.43,1.8,1.8,0,0,0-1.38-.6,1.84,1.84,0,0,0-1.1.34,2.3,2.3,0,0,0-.75.9,5.4,5.4,0,0,0-.42,1.23,6.87,6.87,0,0,0-.14,1.38,6.44,6.44,0,0,0,.24,1.81,3.29,3.29,0,0,0,.79,1.43,1.91,1.91,0,0,0,2.76,0,3.29,3.29,0,0,0,.79-1.43A6.85,6.85,0,0,0,224,168Z"/><path class="cls-2" d="M232.61,168.74l1.92,3.82c.08.15.08.25,0,.31a.5.5,0,0,1-.29.08H233L231,169.07h-1.9V173H228c-.31,0-.46-.14-.46-.41v-9.46h3.53a3.67,3.67,0,0,1,2.37.8,2.65,2.65,0,0,1,1,2.16,2.75,2.75,0,0,1-.49,1.63A3.15,3.15,0,0,1,232.61,168.74Zm.19-2.71a1.48,1.48,0,0,0-.5-1.19,1.93,1.93,0,0,0-1.29-.42h-1.89v3.33H231a1.8,1.8,0,0,0,1.28-.48A1.62,1.62,0,0,0,232.8,166Z"/><path class="cls-2" d="M243.58,164.42h-3V173h-1.13c-.29,0-.44-.14-.44-.41v-8.12h-3v-1.34h7.61Z"/><path class="cls-2" d="M252.51,173h-1.13c-.31,0-.47-.14-.47-.41v-4.33h-3.77V173H246c-.31,0-.47-.14-.47-.41v-9.46h1.16c.3,0,.44.12.44.35v3.44h3.77v-3.79h1.16c.29,0,.44.12.44.35Z"/><path class="cls-2" d="M262,165.44a7.38,7.38,0,0,1,0,5.13,4.46,4.46,0,0,1-1.38,1.88,3.56,3.56,0,0,1-4.32,0,4.3,4.3,0,0,1-1.38-1.88,7.38,7.38,0,0,1,0-5.13,4.33,4.33,0,0,1,1.38-1.89,3.52,3.52,0,0,1,4.32,0A4.49,4.49,0,0,1,262,165.44ZM260.86,168a6.53,6.53,0,0,0-.23-1.82,3.33,3.33,0,0,0-.78-1.43,1.91,1.91,0,0,0-2.48-.26,2.22,2.22,0,0,0-.75.9,5,5,0,0,0-.42,1.23,7.07,7.07,0,0,0,.09,3.19,3.3,3.3,0,0,0,.8,1.43,1.83,1.83,0,0,0,1.38.59,1.86,1.86,0,0,0,1.38-.59,3.27,3.27,0,0,0,.78-1.43A6.45,6.45,0,0,0,260.86,168Z"/><path class="cls-2" d="M271.49,166.15a2.7,2.7,0,0,1-1,2.19,3.61,3.61,0,0,1-2.37.83H266V173h-1.14c-.31,0-.46-.14-.46-.41v-9.46h3.69a3.62,3.62,0,0,1,2.37.84A2.75,2.75,0,0,1,271.49,166.15Zm-1.62,0a1.61,1.61,0,0,0-.5-1.25,1.8,1.8,0,0,0-1.28-.46H266v3.43h2.06a1.79,1.79,0,0,0,1.27-.46A1.62,1.62,0,0,0,269.87,166.13Z"/><path class="cls-2" d="M280.1,173h-5.79a.9.9,0,0,1-.6-.26.74.74,0,0,1-.29-.55v-9.06h6.5v1.34H275v2.72h4.7v1.32H275v2.8a.63.63,0,0,0,0,.28c0,.06.11.09.22.09h4.82Z"/><path class="cls-2" d="M288.17,164.52a5.14,5.14,0,0,1,1.26,3.51,5.06,5.06,0,0,1-1.26,3.49,4.16,4.16,0,0,1-3.26,1.43h-2a.94.94,0,0,1-.61-.26.73.73,0,0,1-.28-.55v-9.06h2.87A4.14,4.14,0,0,1,288.17,164.52Zm-.33,3.46a4,4,0,0,0-.8-2.54,2.71,2.71,0,0,0-2.23-1h-1.17v6.83a.63.63,0,0,0,0,.28c0,.06.1.09.22.09h.91a2.63,2.63,0,0,0,2.23-1.08A4.18,4.18,0,0,0,287.84,168Z"/><path class="cls-2" d="M293.16,173H292c-.29,0-.44-.14-.44-.41v-9.46h1.16a.54.54,0,0,1,.32.07.32.32,0,0,1,.1.28Z"/><path class="cls-2" d="M303.39,166.26h-1.62a3.89,3.89,0,0,0-.89-1.61,1.92,1.92,0,0,0-1.39-.5,2.32,2.32,0,0,0-1.23.32,2.12,2.12,0,0,0-.79.89,5,5,0,0,0-.41,1.22,7.72,7.72,0,0,0-.12,1.41,7.58,7.58,0,0,0,.12,1.39,5.45,5.45,0,0,0,.4,1.22,2.09,2.09,0,0,0,.79.9,2.3,2.3,0,0,0,1.24.33,1.82,1.82,0,0,0,1.35-.51,3.68,3.68,0,0,0,.84-1.6h1.64a4.89,4.89,0,0,1-1.44,2.59,3.59,3.59,0,0,1-2.41.86,3.64,3.64,0,0,1-2.31-.75,4.41,4.41,0,0,1-1.4-1.89,7.52,7.52,0,0,1,0-5.07,4.24,4.24,0,0,1,1.4-1.89,3.62,3.62,0,0,1,2.3-.76,3.74,3.74,0,0,1,2.45.86A4.91,4.91,0,0,1,303.39,166.26Z"/><path class="cls-2" d="M318.29,173h-1.14c-.31,0-.46-.14-.46-.41v-4.33h-3.77V173h-1.13c-.31,0-.47-.14-.47-.41v-9.46h1.16c.29,0,.44.12.44.35v3.44h3.77v-3.79h1.16c.29,0,.44.12.44.35Z"/><path class="cls-2" d="M327.78,165.44a7.38,7.38,0,0,1,0,5.13,4.4,4.4,0,0,1-1.39,1.88,3.32,3.32,0,0,1-2.14.73,3.39,3.39,0,0,1-2.17-.73,4.4,4.4,0,0,1-1.39-1.88,7.54,7.54,0,0,1,0-5.13,4.43,4.43,0,0,1,1.39-1.89,3.4,3.4,0,0,1,2.17-.74,3.33,3.33,0,0,1,2.14.74A4.43,4.43,0,0,1,327.78,165.44ZM326.64,168a6.92,6.92,0,0,0-.23-1.82,3.24,3.24,0,0,0-.79-1.43,1.8,1.8,0,0,0-1.37-.6,1.82,1.82,0,0,0-1.1.34,2.32,2.32,0,0,0-.76.9,5.39,5.39,0,0,0-.41,1.23,7.07,7.07,0,0,0,.09,3.19,3.3,3.3,0,0,0,.8,1.43,1.9,1.9,0,0,0,2.75,0,3.19,3.19,0,0,0,.79-1.43A6.84,6.84,0,0,0,326.64,168Z"/><path class="cls-2" d="M337,169.93a3.19,3.19,0,0,1-.31,1.45,2.51,2.51,0,0,1-.82,1,3.76,3.76,0,0,1-1.13.57,4.25,4.25,0,0,1-2.26.07,3.72,3.72,0,0,1-1-.43,3.5,3.5,0,0,1-.85-.73,3.12,3.12,0,0,1-.58-1.07,4.32,4.32,0,0,1-.19-1.42h1.56a2.64,2.64,0,0,0,.58,1.85,2,2,0,0,0,1.43.56,2.24,2.24,0,0,0,1.37-.44,1.51,1.51,0,0,0,.59-1.3,1,1,0,0,0-.13-.53,1.26,1.26,0,0,0-.29-.37,1.76,1.76,0,0,0-.52-.26l-.59-.18-.75-.17a10.22,10.22,0,0,1-1.18-.33,4.38,4.38,0,0,1-.93-.45,1.89,1.89,0,0,1-.7-.76,2.54,2.54,0,0,1-.22-1.12,2.81,2.81,0,0,1,1-2.29,3.43,3.43,0,0,1,2.28-.8,4.15,4.15,0,0,1,1.29.2,3.33,3.33,0,0,1,1.09.6,2.6,2.6,0,0,1,.76,1.09,4,4,0,0,1,.24,1.59h-1.56c0-1.42-.64-2.13-1.82-2.13a1.61,1.61,0,0,0-1.14.45,1.58,1.58,0,0,0-.49,1.23,1,1,0,0,0,.17.56,1.37,1.37,0,0,0,.53.42,4.94,4.94,0,0,0,.67.27c.21.07.49.15.83.23l.7.18a5.43,5.43,0,0,1,.61.19,5.26,5.26,0,0,1,.6.24l.47.32a1.59,1.59,0,0,1,.4.43,2.42,2.42,0,0,1,.23.56A2.6,2.6,0,0,1,337,169.93Z"/><path class="cls-2" d="M346,166.15a2.71,2.71,0,0,1-1,2.19,3.57,3.57,0,0,1-2.37.83h-2.09V173H339.4c-.31,0-.47-.14-.47-.41v-9.46h3.69a3.58,3.58,0,0,1,2.37.84A2.76,2.76,0,0,1,346,166.15Zm-1.63,0a1.61,1.61,0,0,0-.49-1.25,1.81,1.81,0,0,0-1.28-.46h-2.07v3.43h2.07a1.8,1.8,0,0,0,1.27-.46A1.61,1.61,0,0,0,344.37,166.13Z"/><path class="cls-2" d="M349.7,173h-1.13c-.29,0-.44-.14-.44-.41v-9.46h1.16a.53.53,0,0,1,.31.07c.07,0,.1.13.1.28Z"/><path class="cls-2" d="M359.48,164.42h-3V173h-1.13c-.3,0-.44-.14-.44-.41v-8.12h-3v-1.34h7.61Z"/><path class="cls-2" d="M365.3,163.1l3.7,9.48c.1.25,0,.37-.34.37h-1.22l-1-2.67h-3.56l-1,2.67H360.6c-.3,0-.4-.12-.3-.37L364,163.1Zm.63,5.86-1.29-3.42L363.36,169Z"/><path class="cls-2" d="M377.34,173h-5.62a.9.9,0,0,1-.6-.26.71.71,0,0,1-.29-.55v-9.06H372c.29,0,.44.12.45.35v7.83a.63.63,0,0,0,0,.28c0,.06.1.09.22.09h4.65Z"/><path class="cls-3" d="M238.06,145.43A8.13,8.13,0,0,1,234.5,144a6.9,6.9,0,0,1-2.68-2.83q0-.09-.09-.09s-.06,0-.08.09A6.6,6.6,0,0,1,229,144a8.37,8.37,0,0,1-3.59,1.44,23.41,23.41,0,0,1-2.43-2.2.24.24,0,0,1-.09-.24c0-.11.11-.16.26-.16a4.54,4.54,0,0,0,1.69-.38,8.26,8.26,0,0,0,1.93-1.1,6.23,6.23,0,0,0,1.7-2,7,7,0,0,0,.86-2.82h-4.54v-3.16h14v3.16h-4.63a6.78,6.78,0,0,0,.59,2.33,6.51,6.51,0,0,0,1.2,1.79,8.27,8.27,0,0,0,1.51,1.21,6.81,6.81,0,0,0,1.56.74,4.49,4.49,0,0,0,1.32.22c.15,0,.23,0,.24.16a.28.28,0,0,1-.07.24,14.5,14.5,0,0,1-1.41,1.32Zm-5.48,9.65a5.65,5.65,0,0,1,0-6.45,5.9,5.9,0,0,1,2.54-2,9.38,9.38,0,0,1,6.6,0,5.79,5.79,0,0,1,2.54,2,5.61,5.61,0,0,1,0,6.45,5.84,5.84,0,0,1-2.54,2,9.09,9.09,0,0,1-6.6,0A6,6,0,0,1,232.58,155.08Zm4.18-5.25a2.68,2.68,0,0,0-.76,2,2.63,2.63,0,0,0,.76,2,2.3,2.3,0,0,0,3.36,0,2.65,2.65,0,0,0,.76-2,2.68,2.68,0,0,0-.76-2,2.44,2.44,0,0,0-1.68-.75A2.32,2.32,0,0,0,236.76,149.83Zm5.44-3.47v-5.59h-4.79V137.5h4.79v-2.32a.89.89,0,0,0-.29-.74,1.14,1.14,0,0,0-.57-.27,8,8,0,0,0-.83,0v-1.83h6.15v14.05Z"/><path class="cls-3" d="M268.87,145.88v-1.55h-6.32a6.1,6.1,0,0,1-3.15,1.32,7.14,7.14,0,0,1-3.34-.32,5.8,5.8,0,0,1-2.64-1.92,5.06,5.06,0,0,1-1.09-3.23,5.3,5.3,0,0,1,.54-2.29h-2.68V134.7h5.93V134a.63.63,0,0,0-.22-.51.75.75,0,0,0-.39-.18H255v-1.39h5.84v2.82h6v3.19H264a4,4,0,0,1,.23.57h4.6v-3.3a.88.88,0,0,0-.31-.75,1,1,0,0,0-.55-.25l-.83,0v-1.83h6.15v13.57Zm-12-5.7a2.55,2.55,0,0,0,.8,2.14,1.21,1.21,0,0,0,1.61,0,2.38,2.38,0,0,0,.8-2.06,2.83,2.83,0,0,0-.5-1.78,1.28,1.28,0,0,0-2.2,0A2.6,2.6,0,0,0,256.88,140.18ZM259.26,155a5.37,5.37,0,0,1-1-3.29,5.29,5.29,0,0,1,1-3.27,6,6,0,0,1,2.6-2,9.47,9.47,0,0,1,6.74,0,6,6,0,0,1,2.6,2,5.36,5.36,0,0,1,1,3.27,5.44,5.44,0,0,1-1,3.29,5.82,5.82,0,0,1-2.6,2,9.33,9.33,0,0,1-6.74,0A5.82,5.82,0,0,1,259.26,155Zm4.26-5.36a2.73,2.73,0,0,0-.77,2.07,2.78,2.78,0,0,0,.77,2.09,2.34,2.34,0,0,0,3.45,0,2.82,2.82,0,0,0,.77-2.09,2.77,2.77,0,0,0-.77-2.07,2.36,2.36,0,0,0-3.45,0Zm5.35-8.54H264.5c0,.13-.07.33-.14.59h4.51Z"/><path class="cls-3" d="M294.92,157.22v-6a15.92,15.92,0,0,1-4.41.4h-14v-3.1h7.28v-1a1.16,1.16,0,0,0-.1-.54.56.56,0,0,0-.38-.27l-.41-.08h-.55V145h5.73v3.45h2.11c.76,0,1.59,0,2.51-.09a8.62,8.62,0,0,0,2.21-.38V135.16a.9.9,0,0,0-.3-.75,1.15,1.15,0,0,0-.56-.27q-.27,0-.84,0v-1.83h6.1v24.94Zm-14.8-15.67a5.54,5.54,0,0,1,0-6.29,5.52,5.52,0,0,1,2.41-1.94,8.28,8.28,0,0,1,3.14-.59,7.93,7.93,0,0,1,3.15.61,5.62,5.62,0,0,1,2.41,1.93,5.49,5.49,0,0,1,0,6.26,5.72,5.72,0,0,1-2.41,1.94,8.61,8.61,0,0,1-6.29,0A5.49,5.49,0,0,1,280.12,141.55Zm3.45-3.29a2.45,2.45,0,0,0,1.05,2.26,1.84,1.84,0,0,0,2.1,0,2.45,2.45,0,0,0,1.06-2.24,2.55,2.55,0,0,0-.67-1.89,2,2,0,0,0-1.44-.69,1.9,1.9,0,0,0-1.43.67A2.63,2.63,0,0,0,283.57,138.26Z"/><path class="cls-3" d="M324.66,143.4v13.82h-4.4v-6.49a18.68,18.68,0,0,1-4.12.31H302.42v-3.18h4.8v-4.8a1.16,1.16,0,0,0-.1-.54.56.56,0,0,0-.38-.27l-.41-.08a5.42,5.42,0,0,0-.55,0V140.6h5.62v7.26h5.87a10.63,10.63,0,0,0,3-.34V135.16a.9.9,0,0,0-.3-.75,1.15,1.15,0,0,0-.56-.27q-.27,0-.84,0v-1.83h6.1v7.79h3.67v3.33Zm-8,3.33h-4.21c.87-1.38,1.3-3.47,1.3-6.3v-2.82c0-.17,0-.28-.08-.32a.62.62,0,0,0-.37-.07h-9.65V134h14.05c.24,0,.37.13.37.39v6.3C318,143.44,317.56,145.45,316.62,146.73Z"/><path class="cls-3" d="M344,142.72a2.16,2.16,0,0,1-.62,1.66,2.35,2.35,0,0,1-1.72.6h-8.35a2.37,2.37,0,0,1-1.72-.6,2.2,2.2,0,0,1-.62-1.69v-6.83a.68.68,0,0,0-.24-.56.93.93,0,0,0-.43-.22h-.6v-1.69h5.59v3.16h4.4v-1a.65.65,0,0,0-.24-.55.87.87,0,0,0-.43-.2h-.6V133.1H344v2.62h4v-.54a.92.92,0,0,0-.29-.74,1.14,1.14,0,0,0-.57-.27c-.18,0-.46,0-.83,0v-1.83h6.15v13.8h-4.46v-3.39Zm-4.31-3h-4.4v1.74c0,.16,0,.24.05.27a.52.52,0,0,0,.28,0h3.73a.31.31,0,0,0,.34-.34Zm-1.16,15.32a5.61,5.61,0,0,1,0-6.45,5.84,5.84,0,0,1,2.54-2,9.37,9.37,0,0,1,6.6,0,5.84,5.84,0,0,1,2.54,2,5.61,5.61,0,0,1,0,6.45,5.89,5.89,0,0,1-2.54,2,9.09,9.09,0,0,1-6.6,0A5.89,5.89,0,0,1,338.57,155.08Zm4.18-5.25a2.69,2.69,0,0,0-.77,2,2.64,2.64,0,0,0,.77,2,2.29,2.29,0,0,0,3.35,0,2.62,2.62,0,0,0,.77-2,2.65,2.65,0,0,0-.77-2,2.4,2.4,0,0,0-1.67-.75A2.29,2.29,0,0,0,342.75,149.83Zm5.3-11.2h-4v1.18h4Z"/><path class="cls-3" d="M366.59,145.54v3.13H362v-3.13h-6.18v-3.1H373.5v3.1Zm-8-8.52a4.24,4.24,0,0,1,.86-2.68,5,5,0,0,1,2.14-1.64,7.91,7.91,0,0,1,5.59,0,4.87,4.87,0,0,1,2.14,1.65,4.27,4.27,0,0,1,.86,2.67,4.19,4.19,0,0,1-.86,2.65,4.92,4.92,0,0,1-2.14,1.64,7.91,7.91,0,0,1-5.59,0,5,5,0,0,1-2.14-1.64A4.19,4.19,0,0,1,358.58,137Zm5.84,19.92q-2.4,0-2.4-2.28V152a.85.85,0,0,0-.31-.72,1.05,1.05,0,0,0-.55-.25h-.83v-1.56h6.23v4c0,.19.11.28.31.28h12.28v3.19ZM362.75,137a1.76,1.76,0,0,0,.51,1.35,1.54,1.54,0,0,0,1.12.47,1.63,1.63,0,0,0,1.11-.51A1.79,1.79,0,0,0,366,137a1.67,1.67,0,0,0-.82-1.59,1.49,1.49,0,0,0-1.62,0A1.71,1.71,0,0,0,362.75,137Zm11.66,13.74v-2h-4.8v-2.65h4.8V134.87a.89.89,0,0,0-.31-.74,1.08,1.08,0,0,0-.55-.26h-.84v-1.58h6.16v18.48Z"/><path class="cls-4" d="M84.84,147.37,83,145.2a.24.24,0,0,1-.09-.24c0-.08.09-.14.23-.15a13.87,13.87,0,0,0,4.2-1.32,10,10,0,0,0,3.5-2.86,6.46,6.46,0,0,0,1.47-4.09H84.7v-3.16h12c.27,0,.4.12.4.36a13.61,13.61,0,0,1-3.28,9.43A13.06,13.06,0,0,1,84.84,147.37Zm6.91,7.47a5.67,5.67,0,0,1,0-6.46,5.83,5.83,0,0,1,2.54-2,9.26,9.26,0,0,1,6.61,0,5.83,5.83,0,0,1,2.54,2,5.67,5.67,0,0,1,0,6.46,5.8,5.8,0,0,1-2.54,2,9.26,9.26,0,0,1-6.61,0A5.8,5.8,0,0,1,91.75,154.84Zm4.18-5.25a3.05,3.05,0,0,0,0,4,2.4,2.4,0,0,0,1.68.72,2.37,2.37,0,0,0,1.68-.73,3,3,0,0,0,0-4,2.37,2.37,0,0,0-1.68-.73A2.4,2.4,0,0,0,95.93,149.59Zm9.48-9.41v5.75H101V135.18a1.07,1.07,0,0,0-.27-.83.8.8,0,0,0-.63-.21,5.2,5.2,0,0,1-.79,0V132.3h6.15v4.55h3.67v3.33Z"/><path class="cls-4" d="M134.79,140.43v5.73h-4.46v-2.28a15.13,15.13,0,0,1-4.26.42h-9.4q-3.49,0-3.5-3.44V136.2a1.14,1.14,0,0,0-.14-.59.71.71,0,0,0-.47-.31,2.71,2.71,0,0,0-.5-.1l-.58,0v-1.55h6.15v7.06a.37.37,0,0,0,.42.42h9.15a9.63,9.63,0,0,0,3.13-.4v-5.55a.9.9,0,0,0-.3-.75,1.11,1.11,0,0,0-.56-.27q-.27,0-.84,0v-1.83h6.16v4.85h3.66v3.3Zm-2.49,16.79H120a2.49,2.49,0,0,1-1.79-.66,2.33,2.33,0,0,1-.69-1.76v-5.2a.85.85,0,0,0-.31-.72,1.05,1.05,0,0,0-.55-.25h-.84v-1.56h18.63c.24,0,.37.12.37.34v7.4a2.3,2.3,0,0,1-.7,1.76A2.47,2.47,0,0,1,132.3,157.22Zm-2-7.14H122v3.81c0,.15,0,.24.07.27a.58.58,0,0,0,.27,0h7.59c.15,0,.25,0,.28-.07a.41.41,0,0,0,.06-.27Z"/><path class="cls-4" d="M140.15,154.46v-3.19h10.27v-2.63a1.14,1.14,0,0,0-.1-.53.56.56,0,0,0-.38-.27l-.41-.09H149v-1.55h6v5.08h10.22v3.19ZM161.54,147a14.16,14.16,0,0,1-5.24-1.24,7.25,7.25,0,0,1-3.54-3.08c-.06-.11-.1-.11-.14,0a7.24,7.24,0,0,1-3.57,3.08,14.3,14.3,0,0,1-5.23,1.24l-2.35-2.43a.31.31,0,0,1-.12-.28c0-.11.1-.17.29-.17a11.38,11.38,0,0,0,5.86-1.54,4.9,4.9,0,0,0,2.72-4.25H143v-3.18h7.34V134q0-.57-1-.57v-1.52h5.81v3.22h7.31v3.18h-7.28a4.55,4.55,0,0,0,1.43,3.18,8.21,8.21,0,0,0,3.26,2,12.47,12.47,0,0,0,3.89.62q.28,0,.3.18a.27.27,0,0,1-.13.27Z"/><path class="cls-4" d="M168.9,145.14a7.2,7.2,0,0,1,0-7.84,6.76,6.76,0,0,1,2.89-2.41,9.43,9.43,0,0,1,3.77-.75,9.24,9.24,0,0,1,3.77.76,6.91,6.91,0,0,1,2.89,2.41,7.19,7.19,0,0,1,0,7.83,6.79,6.79,0,0,1-2.89,2.42,10,10,0,0,1-7.54,0A6.79,6.79,0,0,1,168.9,145.14Zm3.47-3.92a4.73,4.73,0,0,0,.67,2.61,2.7,2.7,0,0,0,1.6,1.31,3.75,3.75,0,0,0,1.91,0,2.69,2.69,0,0,0,1.62-1.3,4.78,4.78,0,0,0,.66-2.58,5.08,5.08,0,0,0-.47-2.27,3.27,3.27,0,0,0-1.2-1.37,3.05,3.05,0,0,0-1.56-.43,3,3,0,0,0-1.55.44,3.33,3.33,0,0,0-1.2,1.37A4.76,4.76,0,0,0,172.37,141.22Zm13.43,16V135.16a.9.9,0,0,0-.29-.75,1.14,1.14,0,0,0-.57-.27,8,8,0,0,0-.83,0v-1.83h6.15v24.94Z"/><path class="cls-4" d="M193.65,154.48V151.3h25.06v3.18Zm21.87-7.22a12.64,12.64,0,0,1-5.17-1.15,9,9,0,0,1-4-3.28l-.17-.17s-.08.06-.17.17a9.22,9.22,0,0,1-4,3.25,12.61,12.61,0,0,1-5.13,1.15l-2.2-2.34c-.2-.21-.19-.33,0-.37l.14,0a13.5,13.5,0,0,0,3.33-.51,9.81,9.81,0,0,0,2.85-1.34,6.29,6.29,0,0,0,2.05-2.37,7.5,7.5,0,0,0,.75-3.43v-.78a2.9,2.9,0,0,0-.06-.62,1,1,0,0,0-.21-.44.86.86,0,0,0-.47-.22,3.43,3.43,0,0,0-.82,0V133h6.38v4.32a6.2,6.2,0,0,0,1.3,4,7.42,7.42,0,0,0,3.24,2.37,13.47,13.47,0,0,0,4.35.79c.3,0,.36.16.17.42Z"/><path class="cls-5" d="M48.83,122a28,28,0,1,0,28,28A28,28,0,0,0,48.83,122Zm0,55.3A27.32,27.32,0,1,1,76.15,150,27.35,27.35,0,0,1,48.83,177.32Z"/><path class="cls-6" d="M48.83,123a27,27,0,1,0,27,27A27,27,0,0,0,48.83,123Zm0,48.24a21.37,21.37,0,1,1,21.36-21.37A21.36,21.36,0,0,1,48.83,171.25Z"/><path class="cls-1" d="M36.74,171a1.24,1.24,0,0,1-.34-.44,1,1,0,0,1-.12-.56s0,0,0,0h0a1,1,0,0,1-.55.16,1.16,1.16,0,0,1-.56-.09,4.71,4.71,0,0,1-.14-.46,0,0,0,0,1,0,0h0a1.35,1.35,0,0,0,.24.08,1.82,1.82,0,0,0,.33,0,.85.85,0,0,0,.36-.12,1.1,1.1,0,0,0,.32-.29l-.57-.34.23-.39,1.76,1-.24.39-.58-.34a1.39,1.39,0,0,0-.1.33,1.08,1.08,0,0,0,0,.32,1.17,1.17,0,0,0,.1.26.85.85,0,0,0,.14.21.87.87,0,0,0,.15.13s0,0,0,0l0,0-.27.06Zm-1.4.8a.73.73,0,0,1,.11-.47.76.76,0,0,1,.37-.34.81.81,0,0,1,.46,0,1.17,1.17,0,0,1,.46.17,1.14,1.14,0,0,1,.37.32.82.82,0,0,1,.17.43.74.74,0,0,1-.11.48.78.78,0,0,1-.37.33.92.92,0,0,1-.46.06,1.12,1.12,0,0,1-.46-.17,1.28,1.28,0,0,1-.37-.32A.85.85,0,0,1,35.34,171.79Zm.91-.34a.42.42,0,0,0-.25.19.4.4,0,0,0,0,.31.37.37,0,0,0,.16.22.37.37,0,0,0,.26,0,.42.42,0,0,0,.25-.19.39.39,0,0,0,.05-.31.37.37,0,0,0-.16-.22A.29.29,0,0,0,36.25,171.45Zm.94,0,.42-.7-.61-.36.25-.41.6.36L38,170a.13.13,0,0,0,0-.12.13.13,0,0,0,0-.07l-.1-.07.13-.23.77.46-1,1.76Z"/><path class="cls-1" d="M40.65,172.93a1.19,1.19,0,0,1-.41-.36A1,1,0,0,1,40,172s0,0,0,0a1,1,0,0,1-.52.27,1.31,1.31,0,0,1-.56,0,4.63,4.63,0,0,1-.22-.42v0h0a.78.78,0,0,0,.72-.08,1.22,1.22,0,0,0,.49-.59l-.63-.23.16-.43,1.92.71-.16.43-.63-.24a1.07,1.07,0,0,0,0,.77.73.73,0,0,0,.49.53s0,0,0,0,0,0,0,0l-.26.11Zm0,1.69.31-.83s0,0,0,0l-1.9-.71.15-.42,2.51.93a.05.05,0,0,1,0,.07l-.45,1.22Zm.53-1.38.6-1.63a.11.11,0,0,0,0-.11.14.14,0,0,0-.06-.07l-.11,0,.09-.25.84.31-.75,2Z"/><path class="cls-1" d="M42.7,175.51l-.26-.33a.37.37,0,0,0,.25-.05c.07,0,.12-.09.13-.14l-.26-.06.14-.6.74.18-.12.5a.69.69,0,0,1-.21.34A.61.61,0,0,1,42.7,175.51Z"/><path class="cls-1" d="M44.67,173.45a.85.85,0,0,1-.09-.5.8.8,0,0,1,.2-.48,1,1,0,0,1,.4-.26,1.38,1.38,0,0,1,.5,0,1.24,1.24,0,0,1,.47.15.86.86,0,0,1,.34.34.76.76,0,0,1,.1.5.87.87,0,0,1-.2.47.93.93,0,0,1-.41.26,1.32,1.32,0,0,1-.49,0,1.43,1.43,0,0,1-.47-.14A.88.88,0,0,1,44.67,173.45Zm.7-.73a.39.39,0,0,0-.14.29.42.42,0,0,0,.07.32.38.38,0,0,0,.24.14.31.31,0,0,0,.25-.09.43.43,0,0,0,.15-.29.47.47,0,0,0-.08-.32.33.33,0,0,0-.24-.13A.27.27,0,0,0,45.37,172.72Zm.08,2.66a.74.74,0,0,1-.1-.49.81.81,0,0,1,.2-.46.83.83,0,0,1,.41-.25,1.14,1.14,0,0,1,.49,0,1.22,1.22,0,0,1,.48.14.93.93,0,0,1,.35.33.82.82,0,0,1,.1.49.78.78,0,0,1-.2.46.9.9,0,0,1-.41.26,1.38,1.38,0,0,1-.5,0,1.16,1.16,0,0,1-.48-.14A.77.77,0,0,1,45.45,175.38Zm.69-.71A.39.39,0,0,0,46,175a.36.36,0,0,0,.08.31.34.34,0,0,0,.24.14.37.37,0,0,0,.27-.09.46.46,0,0,0,.06-.6.36.36,0,0,0-.24-.13A.32.32,0,0,0,46.14,174.67Zm1.49-.81-.05.4-.64-.07.16-1.54a.16.16,0,0,0,0-.1.08.08,0,0,0-.05-.05l-.08,0h-.09l0-.26.89.09,0,.42.53.06-.05.44-.53-.06,0,.26.53.05,0,.44Z"/><path class="cls-1" d="M51,174.16a1.3,1.3,0,0,1-.59-.17.8.8,0,0,1-.4-.39h0a0,0,0,0,0,0,0,.92.92,0,0,1-.35.44,1.31,1.31,0,0,1-.55.26L48.8,174l0,0s0,0,0,0a1.08,1.08,0,0,0,.3-.11,1.56,1.56,0,0,0,.27-.2.89.89,0,0,0,.21-.34,1.12,1.12,0,0,0,0-.46.46.46,0,0,0,0-.14.06.06,0,0,0,0-.06l-.06,0h-.13l0-.22.92-.07,0,.45a1.07,1.07,0,0,0,.12.45.77.77,0,0,0,.26.3,1.24,1.24,0,0,0,.3.16,1.59,1.59,0,0,0,.3.06.05.05,0,0,1,0,0s0,0,0,0Zm1,1.59-1.79.13a.35.35,0,0,1-.27-.07.37.37,0,0,1-.12-.25l-.05-.7a.12.12,0,0,0,0-.1l-.08,0h-.13v-.23l2.7-.2s.05,0,.06,0l.07,1a.34.34,0,0,1-.08.26A.35.35,0,0,1,52,175.75Zm-.37-1-1.2.09,0,.5s0,0,0,0h0l1.1-.09s0,0,0,0,0,0,0,0Zm0-.55-.13-1.67a.13.13,0,0,0,0-.11l-.08,0h-.13l0-.26.9-.07.15,2.09Z"/><path class="cls-1" d="M54,175.73l-.37-.19a.43.43,0,0,0,.2-.15.25.25,0,0,0,.06-.18l-.26,0-.12-.6.74-.15.1.5a.7.7,0,0,1,0,.4A.68.68,0,0,1,54,175.73Z"/><path class="cls-1" d="M57,173.05a1,1,0,0,1-.59,0,.84.84,0,0,1-.5-.28s0,0,0,0a.94.94,0,0,1-.23.53,1,1,0,0,1-.48.35l-.38-.18s0,0,0,0l0,0a1.38,1.38,0,0,0,.25-.17,1.4,1.4,0,0,0,.21-.26.75.75,0,0,0,.13-.38,1.29,1.29,0,0,0-.07-.5l-.07-.2a.1.1,0,0,0-.08-.08.14.14,0,0,0-.09,0l-.11,0-.07-.21.87-.29.18.55a1.18,1.18,0,0,0,.25.44.79.79,0,0,0,.33.23,1.13,1.13,0,0,0,.33.08,1.37,1.37,0,0,0,.29,0h0a0,0,0,0,1,0,0Zm-.37,1.65a.31.31,0,0,1-.44-.21l-.18-.55s0-.07-.08-.08a.14.14,0,0,0-.09,0l-.11,0-.08-.22.87-.29.24.74a0,0,0,0,0,.06,0l1.69-.56.15.44Zm1.07-1.39L57,171.2a.12.12,0,0,0-.05-.08.08.08,0,0,0-.07,0h-.08l-.08,0-.07-.22.84-.28.83,2.48Z"/><path class="cls-1" d="M62.06,172.32l-.42-.77a2.42,2.42,0,0,1-.54.36l-1.75,1-.22-.41L60,172l-.15-.28-.32.18a.37.37,0,0,1-.27.06.36.36,0,0,1-.2-.19l-.19-.35c0-.06-.06-.08-.1-.08a.37.37,0,0,0-.15.05l-.1-.2,1.29-.7-.12-.22-1.24.67-.21-.39,1.77-1s.06,0,.07,0l.48.87a.08.08,0,0,1,0,.13l-1,.55.1.19,1.14-.63.22.4-.56.3.15.28.43-.23a2.19,2.19,0,0,0,.4-.29l-.9-1.65a.13.13,0,0,0-.09-.07.14.14,0,0,0-.09,0l-.11.06-.13-.24.78-.42L62.62,172Z"/><path class="cls-7" d="M43.48,138s-.38-1.2,0-1.65a2.75,2.75,0,0,0,.19,1.61s1.26-1,.21-3.26C43.86,134.71,41.59,136.43,43.48,138Z"/><path class="cls-8" d="M43.38,148.81s-1.31-.06-1.67.42a2.9,2.9,0,0,1,1.67-.23s-.63,1.52-3.22,1.07C40.16,150.07,41.29,147.34,43.38,148.81Z"/><path class="cls-9" d="M42.71,150.77s-1.1.7-1.11,1.3a2.86,2.86,0,0,1,1.22-1.15s.37,1.6-2,2.73C40.82,153.65,40.15,150.78,42.71,150.77Z"/><path class="cls-10" d="M33.18,144.91s-1-1-1.65-.84a3.06,3.06,0,0,1,1.52,1s-1.59.79-3.37-1.41C29.68,143.65,32.52,142.23,33.18,144.91Z"/><path class="cls-11" d="M30.77,146.91s-1.25.66-1.31,1.31a3.12,3.12,0,0,1,1.42-1.14s.26,1.75-2.38,2.77C28.5,149.85,28,146.7,30.77,146.91Z"/><path class="cls-12" d="M33.38,146.7s-1.07.92-1,1.57a3.06,3.06,0,0,1,1.12-1.44s.64,1.66-1.7,3.25C31.82,150.08,30.65,147.11,33.38,146.7Z"/><path class="cls-13" d="M41.47,138.36s-1.21-.94-1.88-.71a3.32,3.32,0,0,1,1.76.89s-1.62,1-3.81-1.12C37.54,137.42,40.45,135.55,41.47,138.36Z"/><path class="cls-14" d="M45.19,147.35s.3,1-1.21,4.18-3.64,8.79-.85,12.71c0,0-1.92-3.8,2.08-9.15,0,0-3.84,9.52,1.85,15.3a11.35,11.35,0,0,1-1-7.59c.93-4.23,2.24-6.59,1.74-10.69Z"/><path class="cls-15" d="M41,136.63s3.93,5.12,3,7.31-6.69-.6-13.1,2.66c0,0,19.38-2.28,16.65,10.43C47.53,157,51,144.45,41,136.63Z"/><path class="cls-16" d="M43.42,143.28a2.2,2.2,0,0,1-3,.66,1.91,1.91,0,1,1,3-.66Z"/><path class="cls-17" d="M54.18,138s.39-1.2,0-1.65A2.75,2.75,0,0,1,54,138s-1.26-1-.2-3.26C53.81,134.71,56.07,136.43,54.18,138Z"/><path class="cls-18" d="M54.28,148.81s1.31-.06,1.67.42a2.9,2.9,0,0,0-1.67-.23s.63,1.52,3.22,1.07C57.5,150.07,56.37,147.34,54.28,148.81Z"/><path class="cls-19" d="M55,150.77s1.1.7,1.11,1.3a2.86,2.86,0,0,0-1.22-1.15s-.36,1.6,2,2.73C56.84,153.65,57.51,150.78,55,150.77Z"/><path class="cls-20" d="M64.48,144.91s1-1,1.65-.84a3.06,3.06,0,0,0-1.52,1s1.59.79,3.38-1.41C68,143.65,65.14,142.23,64.48,144.91Z"/><path class="cls-21" d="M66.89,146.91s1.25.66,1.31,1.31a3.12,3.12,0,0,0-1.42-1.14s-.25,1.75,2.39,2.77C69.17,149.85,69.64,146.7,66.89,146.91Z"/><path class="cls-22" d="M64.28,146.7s1.07.92,1,1.57a3.14,3.14,0,0,0-1.13-1.44s-.64,1.66,1.7,3.25C65.84,150.08,67,147.11,64.28,146.7Z"/><path class="cls-23" d="M56.19,138.36s1.22-.94,1.88-.71a3.32,3.32,0,0,0-1.76.89s1.63,1,3.81-1.12C60.12,137.42,57.21,135.55,56.19,138.36Z"/><path class="cls-24" d="M52.47,147.35s-.3,1,1.21,4.18,3.65,8.79.85,12.71c0,0,1.92-3.8-2.08-9.15,0,0,3.84,9.52-1.85,15.3a11.39,11.39,0,0,0,1-7.59c-.93-4.23-2.24-6.59-1.75-10.69Z"/><path class="cls-25" d="M56.66,136.63s-3.93,5.12-3,7.31,6.69-.6,13.1,2.66c0,0-19.37-2.28-16.65,10.43C50.13,157,46.62,144.45,56.66,136.63Z"/><path class="cls-26" d="M54.24,143.28a2.53,2.53,0,0,0,4.42-2,2.53,2.53,0,0,0-4.42,2Z"/></g></g></svg>