<svg xmlns="http://www.w3.org/2000/svg" viewBox="0 0 500 500"><defs><style>.cls-1{fill:#fff;}.cls-2{fill:#231815;}</style></defs><g id="레이어_2" data-name="레이어 2"><g id="레이어_1-2" data-name="레이어 1"><rect class="cls-1" width="500" height="500"/><path class="cls-2" d="M167.76,294H149.07V273H123.25c-2.75,0-4.72-.77-5.91-2.29a8.15,8.15,0,0,1-1.79-5.13,8.85,8.85,0,0,1,.42-2.7,6.87,6.87,0,0,1,1.32-2.43,6.45,6.45,0,0,1,2.38-1.74,8.88,8.88,0,0,1,3.58-.64h70.33a8.8,8.8,0,0,1,3.57.64,6.49,6.49,0,0,1,2.39,1.74,6.87,6.87,0,0,1,1.32,2.43,8.85,8.85,0,0,1,.42,2.7,8.15,8.15,0,0,1-1.79,5.13c-1.19,1.52-3.16,2.29-5.91,2.29H167.76Zm30-54.9a19.11,19.11,0,0,1-10.58,11.08,22.19,22.19,0,0,1-8.93,1.69H138.63a22.19,22.19,0,0,1-8.93-1.69,19.22,19.22,0,0,1-6.54-4.58,19.47,19.47,0,0,1-4-6.6,22.25,22.25,0,0,1-1.38-7.83v-1.19a22.33,22.33,0,0,1,1.38-7.83,19.52,19.52,0,0,1,4-6.59,19.22,19.22,0,0,1,6.54-4.58,22.19,22.19,0,0,1,8.93-1.69h39.66a22.19,22.19,0,0,1,8.93,1.69,19.26,19.26,0,0,1,6.55,4.58,19.84,19.84,0,0,1,4,6.59,22.55,22.55,0,0,1,1.37,7.83v1.29A22.55,22.55,0,0,1,197.8,239.06Zm-19.47-13.33q-1.87-1.83-5.72-1.83h-28.3q-3.84,0-5.72,1.83a5.83,5.83,0,0,0-1.88,4.3v1.1a5.69,5.69,0,0,0,1.88,4.26q1.88,1.79,5.72,1.79h28.3a8.08,8.08,0,0,0,5.68-1.79,5.62,5.62,0,0,0,1.92-4.26V230A5.8,5.8,0,0,0,178.33,225.73Z"/><path class="cls-2" d="M216.85,289.2a8.3,8.3,0,0,1-4.26-2.25,8.52,8.52,0,0,1-2.06-4.35,36.72,36.72,0,0,1-.55-7.05V224.91a36.91,36.91,0,0,1,.55-7.06,8.6,8.6,0,0,1,2.06-4.35,8,8,0,0,1,4.26-2.19,35.09,35.09,0,0,1,7.23-.6h29.4a6.82,6.82,0,0,1,3.34.73,6.7,6.7,0,0,1,2.16,1.83,7.31,7.31,0,0,1,1.19,2.48,10.41,10.41,0,0,1,.36,2.65,10.76,10.76,0,0,1-.36,2.75,7.17,7.17,0,0,1-1.19,2.47,6.56,6.56,0,0,1-2.2,1.84,7.05,7.05,0,0,1-3.3.73H230.77a2.49,2.49,0,0,0-1.83.55,3,3,0,0,0-.55,2.1v43a3,3,0,0,0,.55,2.1,2.49,2.49,0,0,0,1.83.55h28.48a6.82,6.82,0,0,1,3.34.74,6.21,6.21,0,0,1,2.11,1.83,7.08,7.08,0,0,1,1.1,2.47,11.92,11.92,0,0,1,.32,2.66,11.72,11.72,0,0,1-.32,2.7,6.79,6.79,0,0,1-1.15,2.43,6.19,6.19,0,0,1-2.15,1.78,7,7,0,0,1-3.25.69H224.08A33.38,33.38,0,0,1,216.85,289.2Zm55.22-72.63q0-4.48,2.75-6.77a10.12,10.12,0,0,1,12.82,0q2.75,2.28,2.75,6.77V293.5H272.07Z"/><path class="cls-2" d="M350.84,248.26h27q3.66,0,5.13,2a7.09,7.09,0,0,1,1.47,4.35,7,7,0,0,1-1.51,4.4q-1.51,1.92-5.09,1.92H305.32c-2.38,0-4.08-.64-5.08-1.92a6.94,6.94,0,0,1-1.52-4.4,7.09,7.09,0,0,1,1.47-4.35q1.47-2,5.13-2h27v-3.57h-8.43a30.54,30.54,0,0,1-8.7-1.1,16.21,16.21,0,0,1-6-3.11,12.15,12.15,0,0,1-3.43-4.81,16.62,16.62,0,0,1-1.1-6.18,7.48,7.48,0,0,1,.55-2.84,6.49,6.49,0,0,1-4.08-2.2,6.64,6.64,0,0,1-1.42-4.31,6,6,0,0,1,1.83-4.62,7.42,7.42,0,0,1,5.22-1.7h24.91a8.07,8.07,0,0,1,3.07-5.86,11.26,11.26,0,0,1,6.83-1.92,11.09,11.09,0,0,1,6.77,2,7.74,7.74,0,0,1,3,5.81H376.3a7.44,7.44,0,0,1,5.22,1.7,6,6,0,0,1,1.83,4.62,6.46,6.46,0,0,1-1.47,4.31,6.65,6.65,0,0,1-4.12,2.2,6.21,6.21,0,0,1,.64,2.84,16.62,16.62,0,0,1-1.1,6.18,12.15,12.15,0,0,1-3.43,4.81,16.21,16.21,0,0,1-6,3.11,30.54,30.54,0,0,1-8.7,1.1h-8.33ZM308.2,293a6.55,6.55,0,0,1-3.57-2,7.76,7.76,0,0,1-1.65-3.84,38.71,38.71,0,0,1-.41-6.19v-4.12a38.66,38.66,0,0,1,.41-6.18,7.72,7.72,0,0,1,1.65-3.84,6.55,6.55,0,0,1,3.57-2,27.81,27.81,0,0,1,6.19-.55h54.4a27.77,27.77,0,0,1,6.18.55,6.55,6.55,0,0,1,3.57,2,7.72,7.72,0,0,1,1.65,3.84,38.66,38.66,0,0,1,.41,6.18V293.5H314.39A27.81,27.81,0,0,1,308.2,293Zm13.33-11.67a1.81,1.81,0,0,0,1.37.41H362v-3.85a1.81,1.81,0,0,0-.41-1.37,2.31,2.31,0,0,0-1.52-.37H322.9a1.42,1.42,0,0,0-1.74,1.74v1.92A2.31,2.31,0,0,0,321.53,281.28Zm2.61-54.77a3.24,3.24,0,0,0-1.15,2.61,3.55,3.55,0,0,0,1.06,2.61,4.71,4.71,0,0,0,3.43,1.05h28.21a4.56,4.56,0,0,0,3.39-1.05,3.62,3.62,0,0,0,1-2.61,3.29,3.29,0,0,0-1.09-2.61,5.24,5.24,0,0,0-3.48-1H327.67A5.41,5.41,0,0,0,324.14,226.51Z"/></g></g></svg>