<svg xmlns="http://www.w3.org/2000/svg" viewBox="0 0 500 500"><defs><style>.cls-1{fill:#fff;}.cls-2{fill:#231815;}</style></defs><g id="레이어_2" data-name="레이어 2"><g id="레이어_1-2" data-name="레이어 1"><rect class="cls-1" width="500" height="500"/><path class="cls-2" d="M118.62,223.17a20.85,20.85,0,0,1,13.24-12.41,34.78,34.78,0,0,1,20.6,0,21.84,21.84,0,0,1,8.06,4.67,20.54,20.54,0,0,1,5.22,7.74,28.84,28.84,0,0,1,1.83,10.67v33.51A28.84,28.84,0,0,1,165.74,278a20.54,20.54,0,0,1-5.22,7.74,21.84,21.84,0,0,1-8.06,4.67,34.78,34.78,0,0,1-20.6,0A20.85,20.85,0,0,1,118.62,278a28.22,28.22,0,0,1-1.88-10.67V233.84A28.22,28.22,0,0,1,118.62,223.17Zm18.18,51.56a7.64,7.64,0,0,0,10.81,0c1.4-1.5,2.1-3.8,2.1-6.92V233.38c0-3.12-.7-5.42-2.1-6.92a7.64,7.64,0,0,0-10.81,0c-1.4,1.5-2.11,3.8-2.11,6.92v34.43C134.69,270.93,135.4,273.23,136.8,274.73ZM179.57,210a9.69,9.69,0,0,1,6.32-2.25,9.85,9.85,0,0,1,3.39.6,8.8,8.8,0,0,1,2.88,1.69,8.47,8.47,0,0,1,2,2.75,8.91,8.91,0,0,1,.78,3.85v23.17h3a7.36,7.36,0,0,1,3.48.73,6.44,6.44,0,0,1,2.2,1.88,7.7,7.7,0,0,1,1.19,2.56,11,11,0,0,1,0,5.59,7.61,7.61,0,0,1-1.19,2.56,6.16,6.16,0,0,1-2.25,1.88,7.37,7.37,0,0,1-3.43.73h-3v38H176.82V216.62C176.82,213.69,177.74,211.47,179.57,210Z"/><path class="cls-2" d="M287.41,277.2a7.06,7.06,0,0,1,2.47,1.79,6.5,6.5,0,0,1,1.38,2.47,9.65,9.65,0,0,1,.41,2.75,8.74,8.74,0,0,1-.46,2.83,7.06,7.06,0,0,1-1.42,2.48,6.87,6.87,0,0,1-2.42,1.74,8.88,8.88,0,0,1-3.58.64h-70a8.87,8.87,0,0,1-3.57-.64,6.88,6.88,0,0,1-3.84-4.22,8.74,8.74,0,0,1-.46-2.83,9.65,9.65,0,0,1,.41-2.75,6.61,6.61,0,0,1,1.37-2.47,7.2,7.2,0,0,1,2.48-1.79,8.61,8.61,0,0,1,3.61-.69h70A8.66,8.66,0,0,1,287.41,277.2Zm-4-66.08a6.73,6.73,0,0,1,2.2,1.65,6.08,6.08,0,0,1,1.24,2.29,9.47,9.47,0,0,1,.36,2.56,7.91,7.91,0,0,1-1.65,4.86c-1.09,1.46-2.9,2.2-5.4,2.2H231.41c-1.83,0-2.75.79-2.75,2.38v3.57h50.92c2.57,0,4.38.73,5.45,2.2a7.76,7.76,0,0,1,1.6,4.67,7.65,7.65,0,0,1-1.64,4.72c-1.1,1.43-2.91,2.15-5.41,2.15H228.66v3.48a2.34,2.34,0,0,0,.69,1.92,3.23,3.23,0,0,0,2.06.55H281.6a7.42,7.42,0,0,1,3.25.64,6.84,6.84,0,0,1,2.2,1.65,6,6,0,0,1,1.23,2.24,8.69,8.69,0,0,1,.37,2.52,7.93,7.93,0,0,1-1.65,4.86q-1.65,2.19-5.4,2.19h-57q-8,0-11.26-3.43t-3.3-10.85V224.77q0-7.43,3.3-10.85t11.26-3.44h55.5A7.53,7.53,0,0,1,283.38,211.12Z"/><path class="cls-2" d="M349.65,248.49h27q3.66,0,5.13,2a7.09,7.09,0,0,1,1.47,4.35,6.89,6.89,0,0,1-1.52,4.39c-1,1.29-2.7,1.93-5.08,1.93H304.13q-3.57,0-5.09-1.93a6.94,6.94,0,0,1-1.51-4.39,7.09,7.09,0,0,1,1.47-4.35q1.47-2,5.13-2h27v-3.57h-8.43a30.54,30.54,0,0,1-8.7-1.1,16.08,16.08,0,0,1-6-3.12,12,12,0,0,1-3.43-4.8,16.67,16.67,0,0,1-1.1-6.19,7.46,7.46,0,0,1,.55-2.83,6.49,6.49,0,0,1-4.08-2.2,6.58,6.58,0,0,1-1.42-4.31,6,6,0,0,1,1.83-4.62,7.4,7.4,0,0,1,5.22-1.7H330.5a8.05,8.05,0,0,1,3.07-5.86,11.26,11.26,0,0,1,6.83-1.92,11.09,11.09,0,0,1,6.77,2,7.74,7.74,0,0,1,3,5.81h24.92a7.39,7.39,0,0,1,5.21,1.7,6,6,0,0,1,1.84,4.62,6.46,6.46,0,0,1-1.47,4.31,6.68,6.68,0,0,1-4.12,2.2,6.2,6.2,0,0,1,.64,2.83,16.67,16.67,0,0,1-1.1,6.19,12,12,0,0,1-3.43,4.8,16.08,16.08,0,0,1-6,3.12,30.54,30.54,0,0,1-8.7,1.1h-8.33ZM307,293.18a6.55,6.55,0,0,1-3.57-2,7.76,7.76,0,0,1-1.65-3.84,38.71,38.71,0,0,1-.41-6.19v-4.12a38.66,38.66,0,0,1,.41-6.18,7.8,7.8,0,0,1,1.65-3.85,6.6,6.6,0,0,1,3.57-2,27.81,27.81,0,0,1,6.19-.55h54.4a27.77,27.77,0,0,1,6.18.55,6.6,6.6,0,0,1,3.57,2,7.8,7.8,0,0,1,1.65,3.85,38.66,38.66,0,0,1,.41,6.18v16.67H313.2A27.81,27.81,0,0,1,307,293.18Zm13.33-11.68a1.76,1.76,0,0,0,1.37.42h39.11v-3.85a1.81,1.81,0,0,0-.41-1.37,2.31,2.31,0,0,0-1.52-.37H321.71a1.42,1.42,0,0,0-1.74,1.74V280A2.26,2.26,0,0,0,320.34,281.5ZM323,226.74a3.24,3.24,0,0,0-1.15,2.61,3.55,3.55,0,0,0,1.06,2.61,4.71,4.71,0,0,0,3.43,1H354.5a4.56,4.56,0,0,0,3.39-1,3.62,3.62,0,0,0,1-2.61,3.29,3.29,0,0,0-1.09-2.61,5.24,5.24,0,0,0-3.48-1H326.47A5.4,5.4,0,0,0,323,226.74Z"/></g></g></svg>