<?xml version="1.0" encoding="utf-8"?>
<!-- Generator: Adobe Illustrator 25.0.1, SVG Export Plug-In . SVG Version: 6.00 Build 0)  -->
<svg version="1.1" id="레이어_1" xmlns="http://www.w3.org/2000/svg" xmlns:xlink="http://www.w3.org/1999/xlink" x="0px"
	 y="0px" viewBox="0 0 500 500" style="enable-background:new 0 0 500 500;" xml:space="preserve">
<style type="text/css">
	.st0{fill:#FFFFFF;}
	.st1{fill:#231815;}
</style>
<rect class="st0" width="500" height="500"/>
<g>
	<path class="st1" d="M147.9,229.1c1.8-4.6,5.6-8.2,10.3-9.6c5.2-1.6,10.8-1.6,16,0c2.3,0.7,4.5,2,6.3,3.6c1.8,1.7,3.2,3.7,4.1,6
		c1,2.7,1.5,5.5,1.4,8.3v26c0.1,2.8-0.4,5.6-1.4,8.3c-0.9,2.3-2.3,4.3-4.1,6c-1.8,1.6-3.9,2.9-6.3,3.6c-5.2,1.6-10.8,1.6-16,0
		c-4.7-1.5-8.5-5-10.3-9.6c-1-2.6-1.5-5.5-1.5-8.3v-26C146.4,234.6,146.9,231.8,147.9,229.1z M162,269.2c2.3,2.3,6.1,2.3,8.4,0
		c0,0,0,0,0,0c1.1-1.2,1.6-3,1.6-5.4v-26.8c0-2.4-0.5-4.2-1.6-5.4c-2.3-2.3-6.1-2.3-8.4,0c0,0,0,0,0,0c-1.1,1.2-1.6,3-1.6,5.4v26.8
		C160.4,266.3,160.9,268.1,162,269.2z M195.3,218.9c1.4-1.1,3.1-1.8,4.9-1.7c0.9,0,1.8,0.2,2.6,0.5c0.8,0.3,1.6,0.7,2.2,1.3
		c0.7,0.6,1.2,1.3,1.6,2.1c0.4,0.9,0.6,2,0.6,3v18h2.3c0.9,0,1.9,0.2,2.7,0.6c0.7,0.4,1.3,0.9,1.7,1.5c0.4,0.6,0.7,1.3,0.9,2
		c0.4,1.4,0.4,2.9,0,4.3c-0.2,0.7-0.5,1.4-0.9,2c-0.5,0.6-1.1,1.1-1.7,1.5c-0.8,0.4-1.7,0.6-2.7,0.6h-2.3V284h-14.1v-59.9
		C193.1,221.8,193.8,220.1,195.3,218.9z"/>
	<path class="st1" d="M279.1,271.1c0.7,0.3,1.4,0.8,1.9,1.4c0.5,0.6,0.9,1.2,1.1,1.9c0.2,0.7,0.3,1.4,0.3,2.1c0,0.7-0.1,1.5-0.4,2.2
		c-0.2,0.7-0.6,1.4-1.1,1.9c-0.5,0.6-1.2,1-1.9,1.4c-0.9,0.4-1.8,0.5-2.8,0.5h-54.4c-0.9,0-1.9-0.1-2.8-0.5c-1.4-0.6-2.5-1.8-3-3.3
		c-0.2-0.7-0.4-1.5-0.4-2.2c0-0.7,0.1-1.4,0.3-2.1c0.2-0.7,0.6-1.4,1.1-1.9c0.5-0.6,1.2-1.1,1.9-1.4c0.9-0.4,1.8-0.6,2.8-0.5h54.4
		C277.2,270.6,278.2,270.8,279.1,271.1z M276,219.8c0.7,0.3,1.2,0.7,1.7,1.3c0.4,0.5,0.8,1.1,1,1.8c0.2,0.6,0.3,1.3,0.3,2
		c0,1.4-0.4,2.7-1.3,3.8c-0.8,1.1-2.3,1.7-4.2,1.7h-37.9c-1.4,0-2.1,0.6-2.1,1.8v2.8H273c2,0,3.4,0.6,4.2,1.7c0.8,1,1.2,2.3,1.2,3.6
		c0,1.3-0.5,2.6-1.3,3.7c-0.9,1.1-2.3,1.7-4.2,1.7h-39.6v2.7c-0.1,0.6,0.1,1.1,0.5,1.5c0.5,0.3,1,0.5,1.6,0.4h39
		c0.9,0,1.7,0.1,2.5,0.5c0.7,0.3,1.2,0.7,1.7,1.3c0.4,0.5,0.8,1.1,1,1.7c0.2,0.6,0.3,1.3,0.3,2c0,1.4-0.4,2.7-1.3,3.8
		c-0.9,1.1-2.3,1.7-4.2,1.7h-44.3c-4.1,0-7.1-0.9-8.8-2.7s-2.5-4.6-2.6-8.4v-19.7c0-3.9,0.9-6.7,2.6-8.4s4.6-2.7,8.8-2.7h43.1
		C274.3,219.3,275.1,219.4,276,219.8L276,219.8z"/>
	<path class="st1" d="M327.5,248.8h21c1.9,0,3.2,0.5,4,1.6c0.7,1,1.1,2.2,1.1,3.4c0,1.2-0.4,2.4-1.2,3.4c-0.8,1-2.1,1.5-3.9,1.5
		h-56.4c-1.8,0-3.2-0.5-4-1.5c-0.8-1-1.2-2.2-1.2-3.4c0-1.2,0.4-2.4,1.1-3.4c0.8-1,2.1-1.6,4-1.6h21v-2.8h-6.6
		c-2.3,0-4.6-0.2-6.8-0.9c-1.7-0.5-3.3-1.3-4.7-2.4c-1.2-1-2.1-2.3-2.7-3.7c-0.6-1.5-0.9-3.2-0.9-4.8c0-0.8,0.1-1.5,0.4-2.2
		c-1.2-0.2-2.4-0.8-3.2-1.7c-0.8-1-1.1-2.1-1.1-3.4c-0.1-1.3,0.5-2.7,1.4-3.6c1.1-0.9,2.6-1.4,4.1-1.3h19.4c0.1-1.8,1-3.4,2.4-4.6
		c1.6-1.1,3.4-1.6,5.3-1.5c1.9-0.1,3.7,0.5,5.3,1.6c1.4,1.1,2.3,2.7,2.3,4.5h19.4c1.5-0.1,2.9,0.4,4,1.3c1,0.9,1.5,2.2,1.4,3.6
		c0,1.2-0.4,2.4-1.1,3.4c-0.8,0.9-2,1.5-3.2,1.7c0.3,0.7,0.5,1.4,0.5,2.2c0,1.6-0.3,3.3-0.9,4.8c-0.6,1.4-1.5,2.7-2.7,3.7
		c-1.4,1.1-3,2-4.7,2.4c-2.2,0.6-4.5,0.9-6.8,0.9h-6.5L327.5,248.8z M294.3,283.6c-1.1-0.2-2-0.8-2.8-1.6c-0.7-0.9-1.1-1.9-1.3-3
		c-0.2-1.6-0.3-3.2-0.3-4.8V271c0-1.6,0.1-3.2,0.3-4.8c0.1-1.1,0.6-2.1,1.3-3c0.7-0.8,1.7-1.3,2.8-1.6c1.6-0.3,3.2-0.5,4.8-0.4h42.3
		c1.6,0,3.2,0.1,4.8,0.4c1.1,0.2,2,0.8,2.8,1.6c0.7,0.9,1.1,1.9,1.3,3c0.2,1.6,0.3,3.2,0.3,4.8v13h-51.5
		C297.5,284,295.9,283.9,294.3,283.6z M304.7,274.5c0.3,0.3,0.7,0.4,1.1,0.3h30.4v-3c0-0.4-0.1-0.8-0.3-1.1
		c-0.3-0.2-0.8-0.3-1.2-0.3h-28.9c-0.6-0.2-1.2,0.2-1.4,0.8c-0.1,0.2-0.1,0.4,0,0.6v1.5C304.3,273.7,304.4,274.1,304.7,274.5
		L304.7,274.5z M306.7,231.9c-0.6,0.5-0.9,1.3-0.9,2c0,0.8,0.3,1.5,0.8,2c0.8,0.6,1.7,0.9,2.7,0.8h21.9c0.9,0.1,1.9-0.2,2.6-0.8
		c0.5-0.5,0.8-1.3,0.8-2c0-0.8-0.3-1.5-0.8-2c-0.8-0.6-1.7-0.8-2.7-0.8h-21.6C308.5,231.1,307.5,231.4,306.7,231.9z"/>
</g>
</svg>
